M48
; DRILL file {KiCad 9.0.0} date 2025-02-26T14:35:56+0100
; FORMAT={-:-/ absolute / metric / decimal}
; #@! TF.CreationDate,2025-02-26T14:35:56+01:00
; #@! TF.GenerationSoftware,Kicad,Pcbnew,9.0.0
; #@! TF.FileFunction,Plated,1,4,PTH
FMAT,2
METRIC
; #@! TA.AperFunction,Plated,PTH,ViaDrill
T1C0.300
; #@! TA.AperFunction,Plated,PTH,ComponentDrill
T2C0.800
; #@! TA.AperFunction,Plated,PTH,ComponentDrill
T3C0.900
; #@! TA.AperFunction,Plated,PTH,ComponentDrill
T4C1.150
%
G90
G05
T1
X68.85Y-95.25
X69.15Y-104.0
X69.8Y-108.8
X70.5Y-91.1
X70.5Y-97.5
X71.0Y-93.1
X71.4Y-108.5
X72.3Y-88.6
X72.8Y-112.125
X73.3Y-92.6
X73.35Y-113.275
X73.4Y-107.7
X73.4Y-110.3
X74.975Y-102.9
X75.2Y-117.4
X75.7Y-115.9
X76.175Y-82.2
X76.3Y-103.7
X76.697Y-115.359
X77.1Y-81.9
X77.45Y-120.3
X77.6Y-95.8
X77.7Y-101.2
X77.8Y-91.5
X77.9Y-112.7
X78.7Y-88.05
X78.722Y-115.0
X78.75Y-120.35
X79.705Y-119.005
X79.8Y-87.35
X80.0Y-115.1
X80.6Y-118.0
X80.796Y-115.181
X81.15Y-74.75
X81.198Y-118.532
X81.596Y-115.203
X81.6Y-95.8
X82.0Y-117.9
X82.3Y-77.1
X82.3Y-107.8
X82.584Y-118.492
X82.9Y-74.25
X83.3Y-79.0
X83.3Y-118.85
X83.55Y-102.85
X83.787Y-96.55
X83.8Y-95.4
X83.8Y-98.2
X83.8Y-100.0
X83.9Y-115.0
X84.2Y-88.5
X84.7Y-117.775
X85.0Y-101.3
X85.75Y-117.775
X85.8Y-72.6
X86.014Y-115.686
X86.1Y-94.0
X86.1Y-95.8
X86.1Y-98.0
X86.4Y-75.7
X86.4Y-91.3
X87.1Y-98.3
X87.113Y-77.936
X87.2Y-78.9
X87.6Y-81.8
X87.6Y-101.0
X87.7Y-115.0
X87.71Y-114.19
X87.713Y-117.277
X87.9Y-99.1
X88.1Y-121.4
X88.1Y-123.6
X88.2Y-73.4
X88.4Y-95.9
X88.6Y-105.7
X88.7Y-91.4
X88.7Y-101.6
X89.1Y-116.4
X89.1Y-117.3
X89.2Y-88.2
X90.0Y-72.8
X90.475Y-86.356
X90.68Y-88.394
X91.5Y-88.507
X91.9Y-128.6
X92.0Y-72.1
X92.002Y-70.775
X92.1Y-86.6
X92.304Y-88.695
X92.5Y-109.0
X92.646Y-83.65
X93.0Y-115.1
X93.0Y-118.1
X93.4Y-110.1
X93.5Y-83.9
X93.6Y-69.625
X93.6Y-117.4
X93.7Y-73.8
X93.7Y-91.3
X93.7Y-95.9
X93.7Y-101.5
X93.7Y-105.5
X94.077Y-86.85
X94.1Y-128.5
X94.7Y-73.5
X95.9Y-115.1
X95.925Y-87.396
X96.0Y-86.6
X96.8Y-73.3
X97.5Y-117.4
X97.6Y-128.9
X97.8Y-74.8
X98.6Y-112.6
X98.7Y-96.0
X98.7Y-107.0
X98.75Y-75.6
X98.8Y-86.2
X98.8Y-101.6
X98.9Y-91.1
X99.4Y-73.8
X100.0Y-77.5
X100.3Y-124.1
X100.6Y-82.0
X101.6Y-80.7
X102.0Y-110.3
X102.35Y-81.1
X102.5Y-71.1
X102.5Y-113.3
X102.65Y-83.1
X102.65Y-86.7
X102.7Y-78.3
X103.3Y-75.1
X103.6Y-101.9
X103.8Y-80.6
X104.3Y-108.4
X105.1Y-112.4
X105.3Y-83.6
X105.431Y-75.725
X105.5Y-110.1
X105.5Y-113.8
X105.9Y-84.7
X105.9Y-110.8
X106.3Y-79.8
X106.3Y-81.3
X106.4Y-72.0
X107.0Y-78.6
X107.1Y-73.5
X107.1Y-102.8
X107.2Y-69.4
X107.431Y-74.95
X107.5Y-117.4
X107.767Y-73.059
X107.8Y-77.6
X108.413Y-73.531
X108.5Y-79.9
X109.0Y-103.6
X109.2Y-76.5
X109.724Y-84.701
X109.9Y-112.95
X110.2Y-71.05
X110.9Y-111.0
X111.3Y-121.6
X111.9Y-112.0
X111.9Y-112.7
X113.3Y-107.4
X113.8Y-110.1
X114.1Y-112.2
X116.8Y-82.4
X116.8Y-83.9
X118.55Y-122.1
X122.025Y-113.5
X122.3Y-81.3
X122.6Y-108.75
X122.707Y-112.493
X123.25Y-102.6
X124.3Y-103.65
X125.5Y-116.85
X125.55Y-93.0
X125.7Y-94.3
X125.7Y-96.8
X125.7Y-109.65
X125.85Y-97.9
X126.607Y-105.207
X126.95Y-92.1
X126.95Y-115.2
X127.35Y-104.55
X127.9Y-88.6
X128.657Y-103.157
X130.0Y-92.45
T2
X107.708Y-125.247
X110.055Y-124.275
X112.402Y-123.303
T3
X86.415Y-100.015
T4
X93.7Y-122.85
X106.35Y-122.85
X108.07Y-86.4
X110.61Y-86.4
X113.15Y-86.4
X115.69Y-86.4
X118.23Y-86.4
M30
