%TF.GenerationSoftware,KiCad,Pcbnew,9.0.0*%
%TF.CreationDate,2025-02-26T14:35:45+01:00*%
%TF.ProjectId,relativeGPS,72656c61-7469-4766-9547-50532e6b6963,rev?*%
%TF.SameCoordinates,Original*%
%TF.FileFunction,Legend,Top*%
%TF.FilePolarity,Positive*%
%FSLAX46Y46*%
G04 Gerber Fmt 4.6, Leading zero omitted, Abs format (unit mm)*
G04 Created by KiCad (PCBNEW 9.0.0) date 2025-02-26 14:35:45*
%MOMM*%
%LPD*%
G01*
G04 APERTURE LIST*
G04 Aperture macros list*
%AMRoundRect*
0 Rectangle with rounded corners*
0 $1 Rounding radius*
0 $2 $3 $4 $5 $6 $7 $8 $9 X,Y pos of 4 corners*
0 Add a 4 corners polygon primitive as box body*
4,1,4,$2,$3,$4,$5,$6,$7,$8,$9,$2,$3,0*
0 Add four circle primitives for the rounded corners*
1,1,$1+$1,$2,$3*
1,1,$1+$1,$4,$5*
1,1,$1+$1,$6,$7*
1,1,$1+$1,$8,$9*
0 Add four rect primitives between the rounded corners*
20,1,$1+$1,$2,$3,$4,$5,0*
20,1,$1+$1,$4,$5,$6,$7,0*
20,1,$1+$1,$6,$7,$8,$9,0*
20,1,$1+$1,$8,$9,$2,$3,0*%
%AMRotRect*
0 Rectangle, with rotation*
0 The origin of the aperture is its center*
0 $1 length*
0 $2 width*
0 $3 Rotation angle, in degrees counterclockwise*
0 Add horizontal line*
21,1,$1,$2,0,0,$3*%
G04 Aperture macros list end*
%ADD10C,0.100000*%
%ADD11C,0.127000*%
%ADD12C,0.200000*%
%ADD13C,0.120000*%
%ADD14RotRect,0.700000X1.100000X22.500000*%
%ADD15RotRect,0.900000X0.930000X22.500000*%
%ADD16RotRect,1.050000X0.780000X22.500000*%
%ADD17RotRect,1.140000X1.830000X22.500000*%
%ADD18RotRect,0.860000X2.800000X22.500000*%
%ADD19RotRect,0.700000X3.330000X22.500000*%
%ADD20R,1.000000X1.000000*%
%ADD21RoundRect,0.135000X-0.185000X0.135000X-0.185000X-0.135000X0.185000X-0.135000X0.185000X0.135000X0*%
%ADD22R,1.450000X1.500000*%
%ADD23C,1.500000*%
%ADD24RoundRect,0.033333X0.391667X0.116667X-0.391667X0.116667X-0.391667X-0.116667X0.391667X-0.116667X0*%
%ADD25RoundRect,0.225000X-0.225000X-0.250000X0.225000X-0.250000X0.225000X0.250000X-0.225000X0.250000X0*%
%ADD26C,1.400000*%
%ADD27RoundRect,0.135000X0.135000X0.185000X-0.135000X0.185000X-0.135000X-0.185000X0.135000X-0.185000X0*%
%ADD28R,1.200000X0.600000*%
%ADD29RoundRect,0.135000X0.185000X-0.135000X0.185000X0.135000X-0.185000X0.135000X-0.185000X-0.135000X0*%
%ADD30R,1.500000X0.900000*%
%ADD31RoundRect,0.135000X-0.135000X-0.185000X0.135000X-0.185000X0.135000X0.185000X-0.135000X0.185000X0*%
%ADD32RoundRect,0.100000X0.350000X0.100000X-0.350000X0.100000X-0.350000X-0.100000X0.350000X-0.100000X0*%
%ADD33RoundRect,0.100000X-0.350000X-0.100000X0.350000X-0.100000X0.350000X0.100000X-0.350000X0.100000X0*%
%ADD34RotRect,1.500000X0.900000X45.000000*%
%ADD35RoundRect,0.225000X0.225000X0.250000X-0.225000X0.250000X-0.225000X-0.250000X0.225000X-0.250000X0*%
%ADD36RoundRect,0.225000X-0.250000X0.225000X-0.250000X-0.225000X0.250000X-0.225000X0.250000X0.225000X0*%
%ADD37RotRect,1.500000X0.900000X225.000000*%
%ADD38R,0.254000X0.711200*%
%ADD39R,1.295400X0.711200*%
%ADD40RoundRect,0.200000X1.150000X-0.200000X1.150000X0.200000X-1.150000X0.200000X-1.150000X-0.200000X0*%
%ADD41R,0.381000X0.355600*%
%ADD42R,0.355600X0.381000*%
%ADD43R,0.900000X1.500000*%
%ADD44RoundRect,0.250000X0.159099X-0.512652X0.512652X-0.159099X-0.159099X0.512652X-0.512652X0.159099X0*%
%ADD45RoundRect,0.262500X0.409942X-0.303743X0.075094X0.504652X-0.409942X0.303743X-0.075094X-0.504652X0*%
%ADD46RotRect,1.500000X0.900000X315.000000*%
%ADD47RotRect,1.500000X0.900000X135.000000*%
%ADD48R,0.720000X0.350000*%
%ADD49RoundRect,0.055000X0.445000X0.220000X-0.445000X0.220000X-0.445000X-0.220000X0.445000X-0.220000X0*%
%ADD50RoundRect,0.262500X-0.075094X0.504652X-0.409942X-0.303743X0.075094X-0.504652X0.409942X0.303743X0*%
%ADD51C,2.000000*%
%ADD52C,0.991000*%
G04 APERTURE END LIST*
D10*
X100880074Y-107196895D02*
X101375312Y-107196895D01*
X101375312Y-107196895D02*
X101108646Y-107501657D01*
X101108646Y-107501657D02*
X101222931Y-107501657D01*
X101222931Y-107501657D02*
X101299122Y-107539752D01*
X101299122Y-107539752D02*
X101337217Y-107577847D01*
X101337217Y-107577847D02*
X101375312Y-107654038D01*
X101375312Y-107654038D02*
X101375312Y-107844514D01*
X101375312Y-107844514D02*
X101337217Y-107920704D01*
X101337217Y-107920704D02*
X101299122Y-107958800D01*
X101299122Y-107958800D02*
X101222931Y-107996895D01*
X101222931Y-107996895D02*
X100994360Y-107996895D01*
X100994360Y-107996895D02*
X100918169Y-107958800D01*
X100918169Y-107958800D02*
X100880074Y-107920704D01*
X101603884Y-107196895D02*
X101870551Y-107996895D01*
X101870551Y-107996895D02*
X102137217Y-107196895D01*
X102327693Y-107196895D02*
X102822931Y-107196895D01*
X102822931Y-107196895D02*
X102556265Y-107501657D01*
X102556265Y-107501657D02*
X102670550Y-107501657D01*
X102670550Y-107501657D02*
X102746741Y-107539752D01*
X102746741Y-107539752D02*
X102784836Y-107577847D01*
X102784836Y-107577847D02*
X102822931Y-107654038D01*
X102822931Y-107654038D02*
X102822931Y-107844514D01*
X102822931Y-107844514D02*
X102784836Y-107920704D01*
X102784836Y-107920704D02*
X102746741Y-107958800D01*
X102746741Y-107958800D02*
X102670550Y-107996895D01*
X102670550Y-107996895D02*
X102441979Y-107996895D01*
X102441979Y-107996895D02*
X102365788Y-107958800D01*
X102365788Y-107958800D02*
X102327693Y-107920704D01*
X101861027Y-123672419D02*
X102194360Y-124672419D01*
X102194360Y-124672419D02*
X102527693Y-123672419D01*
X103194360Y-124148609D02*
X103337217Y-124196228D01*
X103337217Y-124196228D02*
X103384836Y-124243847D01*
X103384836Y-124243847D02*
X103432455Y-124339085D01*
X103432455Y-124339085D02*
X103432455Y-124481942D01*
X103432455Y-124481942D02*
X103384836Y-124577180D01*
X103384836Y-124577180D02*
X103337217Y-124624800D01*
X103337217Y-124624800D02*
X103241979Y-124672419D01*
X103241979Y-124672419D02*
X102861027Y-124672419D01*
X102861027Y-124672419D02*
X102861027Y-123672419D01*
X102861027Y-123672419D02*
X103194360Y-123672419D01*
X103194360Y-123672419D02*
X103289598Y-123720038D01*
X103289598Y-123720038D02*
X103337217Y-123767657D01*
X103337217Y-123767657D02*
X103384836Y-123862895D01*
X103384836Y-123862895D02*
X103384836Y-123958133D01*
X103384836Y-123958133D02*
X103337217Y-124053371D01*
X103337217Y-124053371D02*
X103289598Y-124100990D01*
X103289598Y-124100990D02*
X103194360Y-124148609D01*
X103194360Y-124148609D02*
X102861027Y-124148609D01*
X103813408Y-124386704D02*
X104289598Y-124386704D01*
X103718170Y-124672419D02*
X104051503Y-123672419D01*
X104051503Y-123672419D02*
X104384836Y-124672419D01*
X104575313Y-123672419D02*
X105146741Y-123672419D01*
X104861027Y-124672419D02*
X104861027Y-123672419D01*
X113775312Y-77896895D02*
X113318169Y-77896895D01*
X113546741Y-77896895D02*
X113546741Y-77096895D01*
X113546741Y-77096895D02*
X113470550Y-77211180D01*
X113470550Y-77211180D02*
X113394360Y-77287371D01*
X113394360Y-77287371D02*
X113318169Y-77325466D01*
X114003884Y-77096895D02*
X114270551Y-77896895D01*
X114270551Y-77896895D02*
X114537217Y-77096895D01*
X114918169Y-77439752D02*
X114841979Y-77401657D01*
X114841979Y-77401657D02*
X114803884Y-77363561D01*
X114803884Y-77363561D02*
X114765788Y-77287371D01*
X114765788Y-77287371D02*
X114765788Y-77249276D01*
X114765788Y-77249276D02*
X114803884Y-77173085D01*
X114803884Y-77173085D02*
X114841979Y-77134990D01*
X114841979Y-77134990D02*
X114918169Y-77096895D01*
X114918169Y-77096895D02*
X115070550Y-77096895D01*
X115070550Y-77096895D02*
X115146741Y-77134990D01*
X115146741Y-77134990D02*
X115184836Y-77173085D01*
X115184836Y-77173085D02*
X115222931Y-77249276D01*
X115222931Y-77249276D02*
X115222931Y-77287371D01*
X115222931Y-77287371D02*
X115184836Y-77363561D01*
X115184836Y-77363561D02*
X115146741Y-77401657D01*
X115146741Y-77401657D02*
X115070550Y-77439752D01*
X115070550Y-77439752D02*
X114918169Y-77439752D01*
X114918169Y-77439752D02*
X114841979Y-77477847D01*
X114841979Y-77477847D02*
X114803884Y-77515942D01*
X114803884Y-77515942D02*
X114765788Y-77592133D01*
X114765788Y-77592133D02*
X114765788Y-77744514D01*
X114765788Y-77744514D02*
X114803884Y-77820704D01*
X114803884Y-77820704D02*
X114841979Y-77858800D01*
X114841979Y-77858800D02*
X114918169Y-77896895D01*
X114918169Y-77896895D02*
X115070550Y-77896895D01*
X115070550Y-77896895D02*
X115146741Y-77858800D01*
X115146741Y-77858800D02*
X115184836Y-77820704D01*
X115184836Y-77820704D02*
X115222931Y-77744514D01*
X115222931Y-77744514D02*
X115222931Y-77592133D01*
X115222931Y-77592133D02*
X115184836Y-77515942D01*
X115184836Y-77515942D02*
X115146741Y-77477847D01*
X115146741Y-77477847D02*
X115070550Y-77439752D01*
X81318169Y-86058800D02*
X81432455Y-86096895D01*
X81432455Y-86096895D02*
X81622931Y-86096895D01*
X81622931Y-86096895D02*
X81699122Y-86058800D01*
X81699122Y-86058800D02*
X81737217Y-86020704D01*
X81737217Y-86020704D02*
X81775312Y-85944514D01*
X81775312Y-85944514D02*
X81775312Y-85868323D01*
X81775312Y-85868323D02*
X81737217Y-85792133D01*
X81737217Y-85792133D02*
X81699122Y-85754038D01*
X81699122Y-85754038D02*
X81622931Y-85715942D01*
X81622931Y-85715942D02*
X81470550Y-85677847D01*
X81470550Y-85677847D02*
X81394360Y-85639752D01*
X81394360Y-85639752D02*
X81356265Y-85601657D01*
X81356265Y-85601657D02*
X81318169Y-85525466D01*
X81318169Y-85525466D02*
X81318169Y-85449276D01*
X81318169Y-85449276D02*
X81356265Y-85373085D01*
X81356265Y-85373085D02*
X81394360Y-85334990D01*
X81394360Y-85334990D02*
X81470550Y-85296895D01*
X81470550Y-85296895D02*
X81661027Y-85296895D01*
X81661027Y-85296895D02*
X81775312Y-85334990D01*
X82575313Y-86020704D02*
X82537217Y-86058800D01*
X82537217Y-86058800D02*
X82422932Y-86096895D01*
X82422932Y-86096895D02*
X82346741Y-86096895D01*
X82346741Y-86096895D02*
X82232455Y-86058800D01*
X82232455Y-86058800D02*
X82156265Y-85982609D01*
X82156265Y-85982609D02*
X82118170Y-85906419D01*
X82118170Y-85906419D02*
X82080074Y-85754038D01*
X82080074Y-85754038D02*
X82080074Y-85639752D01*
X82080074Y-85639752D02*
X82118170Y-85487371D01*
X82118170Y-85487371D02*
X82156265Y-85411180D01*
X82156265Y-85411180D02*
X82232455Y-85334990D01*
X82232455Y-85334990D02*
X82346741Y-85296895D01*
X82346741Y-85296895D02*
X82422932Y-85296895D01*
X82422932Y-85296895D02*
X82537217Y-85334990D01*
X82537217Y-85334990D02*
X82575313Y-85373085D01*
X83299122Y-86096895D02*
X82918170Y-86096895D01*
X82918170Y-86096895D02*
X82918170Y-85296895D01*
X114880074Y-118396895D02*
X115375312Y-118396895D01*
X115375312Y-118396895D02*
X115108646Y-118701657D01*
X115108646Y-118701657D02*
X115222931Y-118701657D01*
X115222931Y-118701657D02*
X115299122Y-118739752D01*
X115299122Y-118739752D02*
X115337217Y-118777847D01*
X115337217Y-118777847D02*
X115375312Y-118854038D01*
X115375312Y-118854038D02*
X115375312Y-119044514D01*
X115375312Y-119044514D02*
X115337217Y-119120704D01*
X115337217Y-119120704D02*
X115299122Y-119158800D01*
X115299122Y-119158800D02*
X115222931Y-119196895D01*
X115222931Y-119196895D02*
X114994360Y-119196895D01*
X114994360Y-119196895D02*
X114918169Y-119158800D01*
X114918169Y-119158800D02*
X114880074Y-119120704D01*
X115603884Y-118396895D02*
X115870551Y-119196895D01*
X115870551Y-119196895D02*
X116137217Y-118396895D01*
X99527693Y-121320038D02*
X99432455Y-121272419D01*
X99432455Y-121272419D02*
X99289598Y-121272419D01*
X99289598Y-121272419D02*
X99146741Y-121320038D01*
X99146741Y-121320038D02*
X99051503Y-121415276D01*
X99051503Y-121415276D02*
X99003884Y-121510514D01*
X99003884Y-121510514D02*
X98956265Y-121700990D01*
X98956265Y-121700990D02*
X98956265Y-121843847D01*
X98956265Y-121843847D02*
X99003884Y-122034323D01*
X99003884Y-122034323D02*
X99051503Y-122129561D01*
X99051503Y-122129561D02*
X99146741Y-122224800D01*
X99146741Y-122224800D02*
X99289598Y-122272419D01*
X99289598Y-122272419D02*
X99384836Y-122272419D01*
X99384836Y-122272419D02*
X99527693Y-122224800D01*
X99527693Y-122224800D02*
X99575312Y-122177180D01*
X99575312Y-122177180D02*
X99575312Y-121843847D01*
X99575312Y-121843847D02*
X99384836Y-121843847D01*
X100003884Y-122272419D02*
X100003884Y-121272419D01*
X100003884Y-121272419D02*
X100575312Y-122272419D01*
X100575312Y-122272419D02*
X100575312Y-121272419D01*
X101051503Y-122272419D02*
X101051503Y-121272419D01*
X101051503Y-121272419D02*
X101289598Y-121272419D01*
X101289598Y-121272419D02*
X101432455Y-121320038D01*
X101432455Y-121320038D02*
X101527693Y-121415276D01*
X101527693Y-121415276D02*
X101575312Y-121510514D01*
X101575312Y-121510514D02*
X101622931Y-121700990D01*
X101622931Y-121700990D02*
X101622931Y-121843847D01*
X101622931Y-121843847D02*
X101575312Y-122034323D01*
X101575312Y-122034323D02*
X101527693Y-122129561D01*
X101527693Y-122129561D02*
X101432455Y-122224800D01*
X101432455Y-122224800D02*
X101289598Y-122272419D01*
X101289598Y-122272419D02*
X101051503Y-122272419D01*
X119508646Y-83372419D02*
X120127693Y-83372419D01*
X120127693Y-83372419D02*
X119794360Y-83753371D01*
X119794360Y-83753371D02*
X119937217Y-83753371D01*
X119937217Y-83753371D02*
X120032455Y-83800990D01*
X120032455Y-83800990D02*
X120080074Y-83848609D01*
X120080074Y-83848609D02*
X120127693Y-83943847D01*
X120127693Y-83943847D02*
X120127693Y-84181942D01*
X120127693Y-84181942D02*
X120080074Y-84277180D01*
X120080074Y-84277180D02*
X120032455Y-84324800D01*
X120032455Y-84324800D02*
X119937217Y-84372419D01*
X119937217Y-84372419D02*
X119651503Y-84372419D01*
X119651503Y-84372419D02*
X119556265Y-84324800D01*
X119556265Y-84324800D02*
X119508646Y-84277180D01*
X120413408Y-83372419D02*
X120746741Y-84372419D01*
X120746741Y-84372419D02*
X121080074Y-83372419D01*
X121318170Y-83372419D02*
X121937217Y-83372419D01*
X121937217Y-83372419D02*
X121603884Y-83753371D01*
X121603884Y-83753371D02*
X121746741Y-83753371D01*
X121746741Y-83753371D02*
X121841979Y-83800990D01*
X121841979Y-83800990D02*
X121889598Y-83848609D01*
X121889598Y-83848609D02*
X121937217Y-83943847D01*
X121937217Y-83943847D02*
X121937217Y-84181942D01*
X121937217Y-84181942D02*
X121889598Y-84277180D01*
X121889598Y-84277180D02*
X121841979Y-84324800D01*
X121841979Y-84324800D02*
X121746741Y-84372419D01*
X121746741Y-84372419D02*
X121461027Y-84372419D01*
X121461027Y-84372419D02*
X121365789Y-84324800D01*
X121365789Y-84324800D02*
X121318170Y-84277180D01*
X122127694Y-84467657D02*
X122889598Y-84467657D01*
X123603884Y-84372419D02*
X123127694Y-84372419D01*
X123127694Y-84372419D02*
X123127694Y-83372419D01*
X102418169Y-85558800D02*
X102532455Y-85596895D01*
X102532455Y-85596895D02*
X102722931Y-85596895D01*
X102722931Y-85596895D02*
X102799122Y-85558800D01*
X102799122Y-85558800D02*
X102837217Y-85520704D01*
X102837217Y-85520704D02*
X102875312Y-85444514D01*
X102875312Y-85444514D02*
X102875312Y-85368323D01*
X102875312Y-85368323D02*
X102837217Y-85292133D01*
X102837217Y-85292133D02*
X102799122Y-85254038D01*
X102799122Y-85254038D02*
X102722931Y-85215942D01*
X102722931Y-85215942D02*
X102570550Y-85177847D01*
X102570550Y-85177847D02*
X102494360Y-85139752D01*
X102494360Y-85139752D02*
X102456265Y-85101657D01*
X102456265Y-85101657D02*
X102418169Y-85025466D01*
X102418169Y-85025466D02*
X102418169Y-84949276D01*
X102418169Y-84949276D02*
X102456265Y-84873085D01*
X102456265Y-84873085D02*
X102494360Y-84834990D01*
X102494360Y-84834990D02*
X102570550Y-84796895D01*
X102570550Y-84796895D02*
X102761027Y-84796895D01*
X102761027Y-84796895D02*
X102875312Y-84834990D01*
X103218170Y-85596895D02*
X103218170Y-84796895D01*
X103218170Y-84796895D02*
X103408646Y-84796895D01*
X103408646Y-84796895D02*
X103522932Y-84834990D01*
X103522932Y-84834990D02*
X103599122Y-84911180D01*
X103599122Y-84911180D02*
X103637217Y-84987371D01*
X103637217Y-84987371D02*
X103675313Y-85139752D01*
X103675313Y-85139752D02*
X103675313Y-85254038D01*
X103675313Y-85254038D02*
X103637217Y-85406419D01*
X103637217Y-85406419D02*
X103599122Y-85482609D01*
X103599122Y-85482609D02*
X103522932Y-85558800D01*
X103522932Y-85558800D02*
X103408646Y-85596895D01*
X103408646Y-85596895D02*
X103218170Y-85596895D01*
X101596895Y-99919925D02*
X101596895Y-99424687D01*
X101596895Y-99424687D02*
X101901657Y-99691353D01*
X101901657Y-99691353D02*
X101901657Y-99577068D01*
X101901657Y-99577068D02*
X101939752Y-99500877D01*
X101939752Y-99500877D02*
X101977847Y-99462782D01*
X101977847Y-99462782D02*
X102054038Y-99424687D01*
X102054038Y-99424687D02*
X102244514Y-99424687D01*
X102244514Y-99424687D02*
X102320704Y-99462782D01*
X102320704Y-99462782D02*
X102358800Y-99500877D01*
X102358800Y-99500877D02*
X102396895Y-99577068D01*
X102396895Y-99577068D02*
X102396895Y-99805639D01*
X102396895Y-99805639D02*
X102358800Y-99881830D01*
X102358800Y-99881830D02*
X102320704Y-99919925D01*
X101596895Y-99196115D02*
X102396895Y-98929448D01*
X102396895Y-98929448D02*
X101596895Y-98662782D01*
X101596895Y-98472306D02*
X101596895Y-97977068D01*
X101596895Y-97977068D02*
X101901657Y-98243734D01*
X101901657Y-98243734D02*
X101901657Y-98129449D01*
X101901657Y-98129449D02*
X101939752Y-98053258D01*
X101939752Y-98053258D02*
X101977847Y-98015163D01*
X101977847Y-98015163D02*
X102054038Y-97977068D01*
X102054038Y-97977068D02*
X102244514Y-97977068D01*
X102244514Y-97977068D02*
X102320704Y-98015163D01*
X102320704Y-98015163D02*
X102358800Y-98053258D01*
X102358800Y-98053258D02*
X102396895Y-98129449D01*
X102396895Y-98129449D02*
X102396895Y-98358020D01*
X102396895Y-98358020D02*
X102358800Y-98434211D01*
X102358800Y-98434211D02*
X102320704Y-98472306D01*
X102473085Y-97824687D02*
X102473085Y-97215163D01*
X101634990Y-96605639D02*
X101596895Y-96681829D01*
X101596895Y-96681829D02*
X101596895Y-96796115D01*
X101596895Y-96796115D02*
X101634990Y-96910401D01*
X101634990Y-96910401D02*
X101711180Y-96986591D01*
X101711180Y-96986591D02*
X101787371Y-97024686D01*
X101787371Y-97024686D02*
X101939752Y-97062782D01*
X101939752Y-97062782D02*
X102054038Y-97062782D01*
X102054038Y-97062782D02*
X102206419Y-97024686D01*
X102206419Y-97024686D02*
X102282609Y-96986591D01*
X102282609Y-96986591D02*
X102358800Y-96910401D01*
X102358800Y-96910401D02*
X102396895Y-96796115D01*
X102396895Y-96796115D02*
X102396895Y-96719924D01*
X102396895Y-96719924D02*
X102358800Y-96605639D01*
X102358800Y-96605639D02*
X102320704Y-96567543D01*
X102320704Y-96567543D02*
X102054038Y-96567543D01*
X102054038Y-96567543D02*
X102054038Y-96719924D01*
X102396895Y-96224686D02*
X101596895Y-96224686D01*
X101596895Y-96224686D02*
X101596895Y-95919924D01*
X101596895Y-95919924D02*
X101634990Y-95843734D01*
X101634990Y-95843734D02*
X101673085Y-95805639D01*
X101673085Y-95805639D02*
X101749276Y-95767543D01*
X101749276Y-95767543D02*
X101863561Y-95767543D01*
X101863561Y-95767543D02*
X101939752Y-95805639D01*
X101939752Y-95805639D02*
X101977847Y-95843734D01*
X101977847Y-95843734D02*
X102015942Y-95919924D01*
X102015942Y-95919924D02*
X102015942Y-96224686D01*
X102358800Y-95462782D02*
X102396895Y-95348496D01*
X102396895Y-95348496D02*
X102396895Y-95158020D01*
X102396895Y-95158020D02*
X102358800Y-95081829D01*
X102358800Y-95081829D02*
X102320704Y-95043734D01*
X102320704Y-95043734D02*
X102244514Y-95005639D01*
X102244514Y-95005639D02*
X102168323Y-95005639D01*
X102168323Y-95005639D02*
X102092133Y-95043734D01*
X102092133Y-95043734D02*
X102054038Y-95081829D01*
X102054038Y-95081829D02*
X102015942Y-95158020D01*
X102015942Y-95158020D02*
X101977847Y-95310401D01*
X101977847Y-95310401D02*
X101939752Y-95386591D01*
X101939752Y-95386591D02*
X101901657Y-95424686D01*
X101901657Y-95424686D02*
X101825466Y-95462782D01*
X101825466Y-95462782D02*
X101749276Y-95462782D01*
X101749276Y-95462782D02*
X101673085Y-95424686D01*
X101673085Y-95424686D02*
X101634990Y-95386591D01*
X101634990Y-95386591D02*
X101596895Y-95310401D01*
X101596895Y-95310401D02*
X101596895Y-95119924D01*
X101596895Y-95119924D02*
X101634990Y-95005639D01*
X104456265Y-70524800D02*
X104599122Y-70572419D01*
X104599122Y-70572419D02*
X104837217Y-70572419D01*
X104837217Y-70572419D02*
X104932455Y-70524800D01*
X104932455Y-70524800D02*
X104980074Y-70477180D01*
X104980074Y-70477180D02*
X105027693Y-70381942D01*
X105027693Y-70381942D02*
X105027693Y-70286704D01*
X105027693Y-70286704D02*
X104980074Y-70191466D01*
X104980074Y-70191466D02*
X104932455Y-70143847D01*
X104932455Y-70143847D02*
X104837217Y-70096228D01*
X104837217Y-70096228D02*
X104646741Y-70048609D01*
X104646741Y-70048609D02*
X104551503Y-70000990D01*
X104551503Y-70000990D02*
X104503884Y-69953371D01*
X104503884Y-69953371D02*
X104456265Y-69858133D01*
X104456265Y-69858133D02*
X104456265Y-69762895D01*
X104456265Y-69762895D02*
X104503884Y-69667657D01*
X104503884Y-69667657D02*
X104551503Y-69620038D01*
X104551503Y-69620038D02*
X104646741Y-69572419D01*
X104646741Y-69572419D02*
X104884836Y-69572419D01*
X104884836Y-69572419D02*
X105027693Y-69620038D01*
X106027693Y-70477180D02*
X105980074Y-70524800D01*
X105980074Y-70524800D02*
X105837217Y-70572419D01*
X105837217Y-70572419D02*
X105741979Y-70572419D01*
X105741979Y-70572419D02*
X105599122Y-70524800D01*
X105599122Y-70524800D02*
X105503884Y-70429561D01*
X105503884Y-70429561D02*
X105456265Y-70334323D01*
X105456265Y-70334323D02*
X105408646Y-70143847D01*
X105408646Y-70143847D02*
X105408646Y-70000990D01*
X105408646Y-70000990D02*
X105456265Y-69810514D01*
X105456265Y-69810514D02*
X105503884Y-69715276D01*
X105503884Y-69715276D02*
X105599122Y-69620038D01*
X105599122Y-69620038D02*
X105741979Y-69572419D01*
X105741979Y-69572419D02*
X105837217Y-69572419D01*
X105837217Y-69572419D02*
X105980074Y-69620038D01*
X105980074Y-69620038D02*
X106027693Y-69667657D01*
X106932455Y-70572419D02*
X106456265Y-70572419D01*
X106456265Y-70572419D02*
X106456265Y-69572419D01*
X107027694Y-70667657D02*
X107789598Y-70667657D01*
X108503884Y-70572419D02*
X108027694Y-70572419D01*
X108027694Y-70572419D02*
X108027694Y-69572419D01*
X90280074Y-125572419D02*
X89803884Y-125572419D01*
X89803884Y-125572419D02*
X89803884Y-124572419D01*
X90613408Y-125048609D02*
X90946741Y-125048609D01*
X91089598Y-125572419D02*
X90613408Y-125572419D01*
X90613408Y-125572419D02*
X90613408Y-124572419D01*
X90613408Y-124572419D02*
X91089598Y-124572419D01*
X91518170Y-125572419D02*
X91518170Y-124572419D01*
X91518170Y-124572419D02*
X91756265Y-124572419D01*
X91756265Y-124572419D02*
X91899122Y-124620038D01*
X91899122Y-124620038D02*
X91994360Y-124715276D01*
X91994360Y-124715276D02*
X92041979Y-124810514D01*
X92041979Y-124810514D02*
X92089598Y-125000990D01*
X92089598Y-125000990D02*
X92089598Y-125143847D01*
X92089598Y-125143847D02*
X92041979Y-125334323D01*
X92041979Y-125334323D02*
X91994360Y-125429561D01*
X91994360Y-125429561D02*
X91899122Y-125524800D01*
X91899122Y-125524800D02*
X91756265Y-125572419D01*
X91756265Y-125572419D02*
X91518170Y-125572419D01*
X74841979Y-84396895D02*
X75299122Y-84396895D01*
X75070550Y-85196895D02*
X75070550Y-84396895D01*
X75489598Y-84396895D02*
X76022932Y-85196895D01*
X76022932Y-84396895D02*
X75489598Y-85196895D01*
X76137218Y-85273085D02*
X76746741Y-85273085D01*
X77356265Y-84434990D02*
X77280075Y-84396895D01*
X77280075Y-84396895D02*
X77165789Y-84396895D01*
X77165789Y-84396895D02*
X77051503Y-84434990D01*
X77051503Y-84434990D02*
X76975313Y-84511180D01*
X76975313Y-84511180D02*
X76937218Y-84587371D01*
X76937218Y-84587371D02*
X76899122Y-84739752D01*
X76899122Y-84739752D02*
X76899122Y-84854038D01*
X76899122Y-84854038D02*
X76937218Y-85006419D01*
X76937218Y-85006419D02*
X76975313Y-85082609D01*
X76975313Y-85082609D02*
X77051503Y-85158800D01*
X77051503Y-85158800D02*
X77165789Y-85196895D01*
X77165789Y-85196895D02*
X77241980Y-85196895D01*
X77241980Y-85196895D02*
X77356265Y-85158800D01*
X77356265Y-85158800D02*
X77394361Y-85120704D01*
X77394361Y-85120704D02*
X77394361Y-84854038D01*
X77394361Y-84854038D02*
X77241980Y-84854038D01*
X71213408Y-95896895D02*
X70946741Y-95515942D01*
X70756265Y-95896895D02*
X70756265Y-95096895D01*
X70756265Y-95096895D02*
X71061027Y-95096895D01*
X71061027Y-95096895D02*
X71137217Y-95134990D01*
X71137217Y-95134990D02*
X71175312Y-95173085D01*
X71175312Y-95173085D02*
X71213408Y-95249276D01*
X71213408Y-95249276D02*
X71213408Y-95363561D01*
X71213408Y-95363561D02*
X71175312Y-95439752D01*
X71175312Y-95439752D02*
X71137217Y-95477847D01*
X71137217Y-95477847D02*
X71061027Y-95515942D01*
X71061027Y-95515942D02*
X70756265Y-95515942D01*
X71480074Y-95096895D02*
X72013408Y-95896895D01*
X72013408Y-95096895D02*
X71480074Y-95896895D01*
X72127694Y-95973085D02*
X72737217Y-95973085D01*
X73346741Y-95134990D02*
X73270551Y-95096895D01*
X73270551Y-95096895D02*
X73156265Y-95096895D01*
X73156265Y-95096895D02*
X73041979Y-95134990D01*
X73041979Y-95134990D02*
X72965789Y-95211180D01*
X72965789Y-95211180D02*
X72927694Y-95287371D01*
X72927694Y-95287371D02*
X72889598Y-95439752D01*
X72889598Y-95439752D02*
X72889598Y-95554038D01*
X72889598Y-95554038D02*
X72927694Y-95706419D01*
X72927694Y-95706419D02*
X72965789Y-95782609D01*
X72965789Y-95782609D02*
X73041979Y-95858800D01*
X73041979Y-95858800D02*
X73156265Y-95896895D01*
X73156265Y-95896895D02*
X73232456Y-95896895D01*
X73232456Y-95896895D02*
X73346741Y-95858800D01*
X73346741Y-95858800D02*
X73384837Y-95820704D01*
X73384837Y-95820704D02*
X73384837Y-95554038D01*
X73384837Y-95554038D02*
X73232456Y-95554038D01*
X80180074Y-82096895D02*
X80675312Y-82096895D01*
X80675312Y-82096895D02*
X80408646Y-82401657D01*
X80408646Y-82401657D02*
X80522931Y-82401657D01*
X80522931Y-82401657D02*
X80599122Y-82439752D01*
X80599122Y-82439752D02*
X80637217Y-82477847D01*
X80637217Y-82477847D02*
X80675312Y-82554038D01*
X80675312Y-82554038D02*
X80675312Y-82744514D01*
X80675312Y-82744514D02*
X80637217Y-82820704D01*
X80637217Y-82820704D02*
X80599122Y-82858800D01*
X80599122Y-82858800D02*
X80522931Y-82896895D01*
X80522931Y-82896895D02*
X80294360Y-82896895D01*
X80294360Y-82896895D02*
X80218169Y-82858800D01*
X80218169Y-82858800D02*
X80180074Y-82820704D01*
X80903884Y-82096895D02*
X81170551Y-82896895D01*
X81170551Y-82896895D02*
X81437217Y-82096895D01*
X81513408Y-82973085D02*
X82122931Y-82973085D01*
X82732455Y-82134990D02*
X82656265Y-82096895D01*
X82656265Y-82096895D02*
X82541979Y-82096895D01*
X82541979Y-82096895D02*
X82427693Y-82134990D01*
X82427693Y-82134990D02*
X82351503Y-82211180D01*
X82351503Y-82211180D02*
X82313408Y-82287371D01*
X82313408Y-82287371D02*
X82275312Y-82439752D01*
X82275312Y-82439752D02*
X82275312Y-82554038D01*
X82275312Y-82554038D02*
X82313408Y-82706419D01*
X82313408Y-82706419D02*
X82351503Y-82782609D01*
X82351503Y-82782609D02*
X82427693Y-82858800D01*
X82427693Y-82858800D02*
X82541979Y-82896895D01*
X82541979Y-82896895D02*
X82618170Y-82896895D01*
X82618170Y-82896895D02*
X82732455Y-82858800D01*
X82732455Y-82858800D02*
X82770551Y-82820704D01*
X82770551Y-82820704D02*
X82770551Y-82554038D01*
X82770551Y-82554038D02*
X82618170Y-82554038D01*
X83113408Y-82896895D02*
X83113408Y-82096895D01*
X83113408Y-82096895D02*
X83418170Y-82096895D01*
X83418170Y-82096895D02*
X83494360Y-82134990D01*
X83494360Y-82134990D02*
X83532455Y-82173085D01*
X83532455Y-82173085D02*
X83570551Y-82249276D01*
X83570551Y-82249276D02*
X83570551Y-82363561D01*
X83570551Y-82363561D02*
X83532455Y-82439752D01*
X83532455Y-82439752D02*
X83494360Y-82477847D01*
X83494360Y-82477847D02*
X83418170Y-82515942D01*
X83418170Y-82515942D02*
X83113408Y-82515942D01*
X83875312Y-82858800D02*
X83989598Y-82896895D01*
X83989598Y-82896895D02*
X84180074Y-82896895D01*
X84180074Y-82896895D02*
X84256265Y-82858800D01*
X84256265Y-82858800D02*
X84294360Y-82820704D01*
X84294360Y-82820704D02*
X84332455Y-82744514D01*
X84332455Y-82744514D02*
X84332455Y-82668323D01*
X84332455Y-82668323D02*
X84294360Y-82592133D01*
X84294360Y-82592133D02*
X84256265Y-82554038D01*
X84256265Y-82554038D02*
X84180074Y-82515942D01*
X84180074Y-82515942D02*
X84027693Y-82477847D01*
X84027693Y-82477847D02*
X83951503Y-82439752D01*
X83951503Y-82439752D02*
X83913408Y-82401657D01*
X83913408Y-82401657D02*
X83875312Y-82325466D01*
X83875312Y-82325466D02*
X83875312Y-82249276D01*
X83875312Y-82249276D02*
X83913408Y-82173085D01*
X83913408Y-82173085D02*
X83951503Y-82134990D01*
X83951503Y-82134990D02*
X84027693Y-82096895D01*
X84027693Y-82096895D02*
X84218170Y-82096895D01*
X84218170Y-82096895D02*
X84332455Y-82134990D01*
X109756265Y-72424800D02*
X109899122Y-72472419D01*
X109899122Y-72472419D02*
X110137217Y-72472419D01*
X110137217Y-72472419D02*
X110232455Y-72424800D01*
X110232455Y-72424800D02*
X110280074Y-72377180D01*
X110280074Y-72377180D02*
X110327693Y-72281942D01*
X110327693Y-72281942D02*
X110327693Y-72186704D01*
X110327693Y-72186704D02*
X110280074Y-72091466D01*
X110280074Y-72091466D02*
X110232455Y-72043847D01*
X110232455Y-72043847D02*
X110137217Y-71996228D01*
X110137217Y-71996228D02*
X109946741Y-71948609D01*
X109946741Y-71948609D02*
X109851503Y-71900990D01*
X109851503Y-71900990D02*
X109803884Y-71853371D01*
X109803884Y-71853371D02*
X109756265Y-71758133D01*
X109756265Y-71758133D02*
X109756265Y-71662895D01*
X109756265Y-71662895D02*
X109803884Y-71567657D01*
X109803884Y-71567657D02*
X109851503Y-71520038D01*
X109851503Y-71520038D02*
X109946741Y-71472419D01*
X109946741Y-71472419D02*
X110184836Y-71472419D01*
X110184836Y-71472419D02*
X110327693Y-71520038D01*
X110756265Y-72472419D02*
X110756265Y-71472419D01*
X110756265Y-71472419D02*
X110994360Y-71472419D01*
X110994360Y-71472419D02*
X111137217Y-71520038D01*
X111137217Y-71520038D02*
X111232455Y-71615276D01*
X111232455Y-71615276D02*
X111280074Y-71710514D01*
X111280074Y-71710514D02*
X111327693Y-71900990D01*
X111327693Y-71900990D02*
X111327693Y-72043847D01*
X111327693Y-72043847D02*
X111280074Y-72234323D01*
X111280074Y-72234323D02*
X111232455Y-72329561D01*
X111232455Y-72329561D02*
X111137217Y-72424800D01*
X111137217Y-72424800D02*
X110994360Y-72472419D01*
X110994360Y-72472419D02*
X110756265Y-72472419D01*
X111708646Y-72186704D02*
X112184836Y-72186704D01*
X111613408Y-72472419D02*
X111946741Y-71472419D01*
X111946741Y-71472419D02*
X112280074Y-72472419D01*
X112375313Y-72567657D02*
X113137217Y-72567657D01*
X113851503Y-72472419D02*
X113375313Y-72472419D01*
X113375313Y-72472419D02*
X113375313Y-71472419D01*
X81218169Y-84758800D02*
X81332455Y-84796895D01*
X81332455Y-84796895D02*
X81522931Y-84796895D01*
X81522931Y-84796895D02*
X81599122Y-84758800D01*
X81599122Y-84758800D02*
X81637217Y-84720704D01*
X81637217Y-84720704D02*
X81675312Y-84644514D01*
X81675312Y-84644514D02*
X81675312Y-84568323D01*
X81675312Y-84568323D02*
X81637217Y-84492133D01*
X81637217Y-84492133D02*
X81599122Y-84454038D01*
X81599122Y-84454038D02*
X81522931Y-84415942D01*
X81522931Y-84415942D02*
X81370550Y-84377847D01*
X81370550Y-84377847D02*
X81294360Y-84339752D01*
X81294360Y-84339752D02*
X81256265Y-84301657D01*
X81256265Y-84301657D02*
X81218169Y-84225466D01*
X81218169Y-84225466D02*
X81218169Y-84149276D01*
X81218169Y-84149276D02*
X81256265Y-84073085D01*
X81256265Y-84073085D02*
X81294360Y-84034990D01*
X81294360Y-84034990D02*
X81370550Y-83996895D01*
X81370550Y-83996895D02*
X81561027Y-83996895D01*
X81561027Y-83996895D02*
X81675312Y-84034990D01*
X82018170Y-84796895D02*
X82018170Y-83996895D01*
X82018170Y-83996895D02*
X82208646Y-83996895D01*
X82208646Y-83996895D02*
X82322932Y-84034990D01*
X82322932Y-84034990D02*
X82399122Y-84111180D01*
X82399122Y-84111180D02*
X82437217Y-84187371D01*
X82437217Y-84187371D02*
X82475313Y-84339752D01*
X82475313Y-84339752D02*
X82475313Y-84454038D01*
X82475313Y-84454038D02*
X82437217Y-84606419D01*
X82437217Y-84606419D02*
X82399122Y-84682609D01*
X82399122Y-84682609D02*
X82322932Y-84758800D01*
X82322932Y-84758800D02*
X82208646Y-84796895D01*
X82208646Y-84796895D02*
X82018170Y-84796895D01*
X82780074Y-84568323D02*
X83161027Y-84568323D01*
X82703884Y-84796895D02*
X82970551Y-83996895D01*
X82970551Y-83996895D02*
X83237217Y-84796895D01*
X100813408Y-88596895D02*
X100546741Y-88215942D01*
X100356265Y-88596895D02*
X100356265Y-87796895D01*
X100356265Y-87796895D02*
X100661027Y-87796895D01*
X100661027Y-87796895D02*
X100737217Y-87834990D01*
X100737217Y-87834990D02*
X100775312Y-87873085D01*
X100775312Y-87873085D02*
X100813408Y-87949276D01*
X100813408Y-87949276D02*
X100813408Y-88063561D01*
X100813408Y-88063561D02*
X100775312Y-88139752D01*
X100775312Y-88139752D02*
X100737217Y-88177847D01*
X100737217Y-88177847D02*
X100661027Y-88215942D01*
X100661027Y-88215942D02*
X100356265Y-88215942D01*
X101080074Y-87796895D02*
X101613408Y-88596895D01*
X101613408Y-87796895D02*
X101080074Y-88596895D01*
X101727694Y-88673085D02*
X102337217Y-88673085D01*
X102908646Y-88596895D02*
X102527694Y-88596895D01*
X102527694Y-88596895D02*
X102527694Y-87796895D01*
X98180074Y-123872419D02*
X97703884Y-123872419D01*
X97703884Y-123872419D02*
X97656265Y-124348609D01*
X97656265Y-124348609D02*
X97703884Y-124300990D01*
X97703884Y-124300990D02*
X97799122Y-124253371D01*
X97799122Y-124253371D02*
X98037217Y-124253371D01*
X98037217Y-124253371D02*
X98132455Y-124300990D01*
X98132455Y-124300990D02*
X98180074Y-124348609D01*
X98180074Y-124348609D02*
X98227693Y-124443847D01*
X98227693Y-124443847D02*
X98227693Y-124681942D01*
X98227693Y-124681942D02*
X98180074Y-124777180D01*
X98180074Y-124777180D02*
X98132455Y-124824800D01*
X98132455Y-124824800D02*
X98037217Y-124872419D01*
X98037217Y-124872419D02*
X97799122Y-124872419D01*
X97799122Y-124872419D02*
X97703884Y-124824800D01*
X97703884Y-124824800D02*
X97656265Y-124777180D01*
X98513408Y-123872419D02*
X98846741Y-124872419D01*
X98846741Y-124872419D02*
X99180074Y-123872419D01*
X101841979Y-91596895D02*
X102299122Y-91596895D01*
X102070550Y-92396895D02*
X102070550Y-91596895D01*
X102489598Y-91596895D02*
X103022932Y-92396895D01*
X103022932Y-91596895D02*
X102489598Y-92396895D01*
X103137218Y-92473085D02*
X103746741Y-92473085D01*
X104318170Y-92396895D02*
X103937218Y-92396895D01*
X103937218Y-92396895D02*
X103937218Y-91596895D01*
X81407777Y-75059325D02*
X81382006Y-75121542D01*
X81382006Y-75121542D02*
X81268246Y-75220205D01*
X81268246Y-75220205D02*
X81180258Y-75256652D01*
X81180258Y-75256652D02*
X81030052Y-75267326D01*
X81030052Y-75267326D02*
X80905617Y-75215784D01*
X80905617Y-75215784D02*
X80825177Y-75146018D01*
X80825177Y-75146018D02*
X80708291Y-74988264D01*
X80708291Y-74988264D02*
X80653622Y-74856282D01*
X80653622Y-74856282D02*
X80624724Y-74662081D01*
X80624724Y-74662081D02*
X80632272Y-74555870D01*
X80632272Y-74555870D02*
X80683815Y-74431435D01*
X80683815Y-74431435D02*
X80797574Y-74332772D01*
X80797574Y-74332772D02*
X80885563Y-74296326D01*
X80885563Y-74296326D02*
X81035769Y-74285651D01*
X81035769Y-74285651D02*
X81097986Y-74311422D01*
X81840172Y-74983306D02*
X81457488Y-74059427D01*
X81457488Y-74059427D02*
X82368103Y-74764630D01*
X82368103Y-74764630D02*
X81985419Y-73840750D01*
X82948872Y-73802473D02*
X83203994Y-74418393D01*
X82583116Y-73541634D02*
X82636490Y-74292663D01*
X82636490Y-74292663D02*
X83208416Y-74055764D01*
X108868330Y-74607142D02*
X108820711Y-74559523D01*
X108820711Y-74559523D02*
X108773091Y-74416666D01*
X108773091Y-74416666D02*
X108773091Y-74321428D01*
X108773091Y-74321428D02*
X108820711Y-74178571D01*
X108820711Y-74178571D02*
X108915949Y-74083333D01*
X108915949Y-74083333D02*
X109011187Y-74035714D01*
X109011187Y-74035714D02*
X109201663Y-73988095D01*
X109201663Y-73988095D02*
X109344520Y-73988095D01*
X109344520Y-73988095D02*
X109534996Y-74035714D01*
X109534996Y-74035714D02*
X109630234Y-74083333D01*
X109630234Y-74083333D02*
X109725472Y-74178571D01*
X109725472Y-74178571D02*
X109773091Y-74321428D01*
X109773091Y-74321428D02*
X109773091Y-74416666D01*
X109773091Y-74416666D02*
X109725472Y-74559523D01*
X109725472Y-74559523D02*
X109677853Y-74607142D01*
X108773091Y-75559523D02*
X108773091Y-74988095D01*
X108773091Y-75273809D02*
X109773091Y-75273809D01*
X109773091Y-75273809D02*
X109630234Y-75178571D01*
X109630234Y-75178571D02*
X109534996Y-75083333D01*
X109534996Y-75083333D02*
X109487377Y-74988095D01*
X109677853Y-75940476D02*
X109725472Y-75988095D01*
X109725472Y-75988095D02*
X109773091Y-76083333D01*
X109773091Y-76083333D02*
X109773091Y-76321428D01*
X109773091Y-76321428D02*
X109725472Y-76416666D01*
X109725472Y-76416666D02*
X109677853Y-76464285D01*
X109677853Y-76464285D02*
X109582615Y-76511904D01*
X109582615Y-76511904D02*
X109487377Y-76511904D01*
X109487377Y-76511904D02*
X109344520Y-76464285D01*
X109344520Y-76464285D02*
X108773091Y-75892857D01*
X108773091Y-75892857D02*
X108773091Y-76511904D01*
X106366699Y-106018859D02*
X106842889Y-106018859D01*
X106842889Y-106018859D02*
X106842889Y-107018859D01*
X106080984Y-106923621D02*
X106033365Y-106971240D01*
X106033365Y-106971240D02*
X105938127Y-107018859D01*
X105938127Y-107018859D02*
X105700032Y-107018859D01*
X105700032Y-107018859D02*
X105604794Y-106971240D01*
X105604794Y-106971240D02*
X105557175Y-106923621D01*
X105557175Y-106923621D02*
X105509556Y-106828383D01*
X105509556Y-106828383D02*
X105509556Y-106733145D01*
X105509556Y-106733145D02*
X105557175Y-106590288D01*
X105557175Y-106590288D02*
X106128603Y-106018859D01*
X106128603Y-106018859D02*
X105509556Y-106018859D01*
X109734149Y-126853828D02*
X109884355Y-126843153D01*
X109884355Y-126843153D02*
X110104326Y-126752038D01*
X110104326Y-126752038D02*
X110174092Y-126671598D01*
X110174092Y-126671598D02*
X110199863Y-126609380D01*
X110199863Y-126609380D02*
X110207411Y-126503169D01*
X110207411Y-126503169D02*
X110170965Y-126415180D01*
X110170965Y-126415180D02*
X110090525Y-126345415D01*
X110090525Y-126345415D02*
X110028308Y-126319643D01*
X110028308Y-126319643D02*
X109922096Y-126312095D01*
X109922096Y-126312095D02*
X109727896Y-126340993D01*
X109727896Y-126340993D02*
X109621685Y-126333445D01*
X109621685Y-126333445D02*
X109559467Y-126307674D01*
X109559467Y-126307674D02*
X109479027Y-126237908D01*
X109479027Y-126237908D02*
X109442581Y-126149919D01*
X109442581Y-126149919D02*
X109450129Y-126043708D01*
X109450129Y-126043708D02*
X109475900Y-125981491D01*
X109475900Y-125981491D02*
X109545666Y-125901050D01*
X109545666Y-125901050D02*
X109765637Y-125809935D01*
X109765637Y-125809935D02*
X109915843Y-125799260D01*
X110205580Y-125627705D02*
X110808235Y-126460469D01*
X110808235Y-126460469D02*
X110710866Y-125727663D01*
X110710866Y-125727663D02*
X111160189Y-126314685D01*
X111160189Y-126314685D02*
X110997477Y-125299691D01*
X112216051Y-125877333D02*
X111688120Y-126096009D01*
X111952085Y-125986671D02*
X111569402Y-125062791D01*
X111569402Y-125062791D02*
X111536082Y-125231220D01*
X111536082Y-125231220D02*
X111484540Y-125355655D01*
X111484540Y-125355655D02*
X111414774Y-125436095D01*
X103492415Y-77442580D02*
X103492415Y-76633057D01*
X103492415Y-76633057D02*
X103444796Y-76537819D01*
X103444796Y-76537819D02*
X103397177Y-76490200D01*
X103397177Y-76490200D02*
X103301939Y-76442580D01*
X103301939Y-76442580D02*
X103111463Y-76442580D01*
X103111463Y-76442580D02*
X103016225Y-76490200D01*
X103016225Y-76490200D02*
X102968606Y-76537819D01*
X102968606Y-76537819D02*
X102920987Y-76633057D01*
X102920987Y-76633057D02*
X102920987Y-77442580D01*
X102492415Y-77347342D02*
X102444796Y-77394961D01*
X102444796Y-77394961D02*
X102349558Y-77442580D01*
X102349558Y-77442580D02*
X102111463Y-77442580D01*
X102111463Y-77442580D02*
X102016225Y-77394961D01*
X102016225Y-77394961D02*
X101968606Y-77347342D01*
X101968606Y-77347342D02*
X101920987Y-77252104D01*
X101920987Y-77252104D02*
X101920987Y-77156866D01*
X101920987Y-77156866D02*
X101968606Y-77014009D01*
X101968606Y-77014009D02*
X102540034Y-76442580D01*
X102540034Y-76442580D02*
X101920987Y-76442580D01*
X111057141Y-114662180D02*
X111009522Y-114709800D01*
X111009522Y-114709800D02*
X110866665Y-114757419D01*
X110866665Y-114757419D02*
X110771427Y-114757419D01*
X110771427Y-114757419D02*
X110628570Y-114709800D01*
X110628570Y-114709800D02*
X110533332Y-114614561D01*
X110533332Y-114614561D02*
X110485713Y-114519323D01*
X110485713Y-114519323D02*
X110438094Y-114328847D01*
X110438094Y-114328847D02*
X110438094Y-114185990D01*
X110438094Y-114185990D02*
X110485713Y-113995514D01*
X110485713Y-113995514D02*
X110533332Y-113900276D01*
X110533332Y-113900276D02*
X110628570Y-113805038D01*
X110628570Y-113805038D02*
X110771427Y-113757419D01*
X110771427Y-113757419D02*
X110866665Y-113757419D01*
X110866665Y-113757419D02*
X111009522Y-113805038D01*
X111009522Y-113805038D02*
X111057141Y-113852657D01*
X111438094Y-113852657D02*
X111485713Y-113805038D01*
X111485713Y-113805038D02*
X111580951Y-113757419D01*
X111580951Y-113757419D02*
X111819046Y-113757419D01*
X111819046Y-113757419D02*
X111914284Y-113805038D01*
X111914284Y-113805038D02*
X111961903Y-113852657D01*
X111961903Y-113852657D02*
X112009522Y-113947895D01*
X112009522Y-113947895D02*
X112009522Y-114043133D01*
X112009522Y-114043133D02*
X111961903Y-114185990D01*
X111961903Y-114185990D02*
X111390475Y-114757419D01*
X111390475Y-114757419D02*
X112009522Y-114757419D01*
X112628570Y-113757419D02*
X112723808Y-113757419D01*
X112723808Y-113757419D02*
X112819046Y-113805038D01*
X112819046Y-113805038D02*
X112866665Y-113852657D01*
X112866665Y-113852657D02*
X112914284Y-113947895D01*
X112914284Y-113947895D02*
X112961903Y-114138371D01*
X112961903Y-114138371D02*
X112961903Y-114376466D01*
X112961903Y-114376466D02*
X112914284Y-114566942D01*
X112914284Y-114566942D02*
X112866665Y-114662180D01*
X112866665Y-114662180D02*
X112819046Y-114709800D01*
X112819046Y-114709800D02*
X112723808Y-114757419D01*
X112723808Y-114757419D02*
X112628570Y-114757419D01*
X112628570Y-114757419D02*
X112533332Y-114709800D01*
X112533332Y-114709800D02*
X112485713Y-114662180D01*
X112485713Y-114662180D02*
X112438094Y-114566942D01*
X112438094Y-114566942D02*
X112390475Y-114376466D01*
X112390475Y-114376466D02*
X112390475Y-114138371D01*
X112390475Y-114138371D02*
X112438094Y-113947895D01*
X112438094Y-113947895D02*
X112485713Y-113852657D01*
X112485713Y-113852657D02*
X112533332Y-113805038D01*
X112533332Y-113805038D02*
X112628570Y-113757419D01*
X105987930Y-72706666D02*
X105511739Y-73039999D01*
X105987930Y-73278094D02*
X104987930Y-73278094D01*
X104987930Y-73278094D02*
X104987930Y-72897142D01*
X104987930Y-72897142D02*
X105035549Y-72801904D01*
X105035549Y-72801904D02*
X105083168Y-72754285D01*
X105083168Y-72754285D02*
X105178406Y-72706666D01*
X105178406Y-72706666D02*
X105321263Y-72706666D01*
X105321263Y-72706666D02*
X105416501Y-72754285D01*
X105416501Y-72754285D02*
X105464120Y-72801904D01*
X105464120Y-72801904D02*
X105511739Y-72897142D01*
X105511739Y-72897142D02*
X105511739Y-73278094D01*
X104987930Y-71801904D02*
X104987930Y-72278094D01*
X104987930Y-72278094D02*
X105464120Y-72325713D01*
X105464120Y-72325713D02*
X105416501Y-72278094D01*
X105416501Y-72278094D02*
X105368882Y-72182856D01*
X105368882Y-72182856D02*
X105368882Y-71944761D01*
X105368882Y-71944761D02*
X105416501Y-71849523D01*
X105416501Y-71849523D02*
X105464120Y-71801904D01*
X105464120Y-71801904D02*
X105559358Y-71754285D01*
X105559358Y-71754285D02*
X105797453Y-71754285D01*
X105797453Y-71754285D02*
X105892691Y-71801904D01*
X105892691Y-71801904D02*
X105940311Y-71849523D01*
X105940311Y-71849523D02*
X105987930Y-71944761D01*
X105987930Y-71944761D02*
X105987930Y-72182856D01*
X105987930Y-72182856D02*
X105940311Y-72278094D01*
X105940311Y-72278094D02*
X105892691Y-72325713D01*
X92778295Y-100180952D02*
X92778295Y-100657142D01*
X92492580Y-100085714D02*
X93492580Y-100419047D01*
X93492580Y-100419047D02*
X92492580Y-100752380D01*
X92492580Y-101085714D02*
X93492580Y-101085714D01*
X93492580Y-101085714D02*
X92492580Y-101657142D01*
X92492580Y-101657142D02*
X93492580Y-101657142D01*
X93492580Y-101990476D02*
X93492580Y-102561904D01*
X92492580Y-102276190D02*
X93492580Y-102276190D01*
X92492580Y-103419047D02*
X92492580Y-102847619D01*
X92492580Y-103133333D02*
X93492580Y-103133333D01*
X93492580Y-103133333D02*
X93349723Y-103038095D01*
X93349723Y-103038095D02*
X93254485Y-102942857D01*
X93254485Y-102942857D02*
X93206866Y-102847619D01*
X111382142Y-108962180D02*
X111334523Y-109009800D01*
X111334523Y-109009800D02*
X111191666Y-109057419D01*
X111191666Y-109057419D02*
X111096428Y-109057419D01*
X111096428Y-109057419D02*
X110953571Y-109009800D01*
X110953571Y-109009800D02*
X110858333Y-108914561D01*
X110858333Y-108914561D02*
X110810714Y-108819323D01*
X110810714Y-108819323D02*
X110763095Y-108628847D01*
X110763095Y-108628847D02*
X110763095Y-108485990D01*
X110763095Y-108485990D02*
X110810714Y-108295514D01*
X110810714Y-108295514D02*
X110858333Y-108200276D01*
X110858333Y-108200276D02*
X110953571Y-108105038D01*
X110953571Y-108105038D02*
X111096428Y-108057419D01*
X111096428Y-108057419D02*
X111191666Y-108057419D01*
X111191666Y-108057419D02*
X111334523Y-108105038D01*
X111334523Y-108105038D02*
X111382142Y-108152657D01*
X111763095Y-108152657D02*
X111810714Y-108105038D01*
X111810714Y-108105038D02*
X111905952Y-108057419D01*
X111905952Y-108057419D02*
X112144047Y-108057419D01*
X112144047Y-108057419D02*
X112239285Y-108105038D01*
X112239285Y-108105038D02*
X112286904Y-108152657D01*
X112286904Y-108152657D02*
X112334523Y-108247895D01*
X112334523Y-108247895D02*
X112334523Y-108343133D01*
X112334523Y-108343133D02*
X112286904Y-108485990D01*
X112286904Y-108485990D02*
X111715476Y-109057419D01*
X111715476Y-109057419D02*
X112334523Y-109057419D01*
X113239285Y-108057419D02*
X112763095Y-108057419D01*
X112763095Y-108057419D02*
X112715476Y-108533609D01*
X112715476Y-108533609D02*
X112763095Y-108485990D01*
X112763095Y-108485990D02*
X112858333Y-108438371D01*
X112858333Y-108438371D02*
X113096428Y-108438371D01*
X113096428Y-108438371D02*
X113191666Y-108485990D01*
X113191666Y-108485990D02*
X113239285Y-108533609D01*
X113239285Y-108533609D02*
X113286904Y-108628847D01*
X113286904Y-108628847D02*
X113286904Y-108866942D01*
X113286904Y-108866942D02*
X113239285Y-108962180D01*
X113239285Y-108962180D02*
X113191666Y-109009800D01*
X113191666Y-109009800D02*
X113096428Y-109057419D01*
X113096428Y-109057419D02*
X112858333Y-109057419D01*
X112858333Y-109057419D02*
X112763095Y-109009800D01*
X112763095Y-109009800D02*
X112715476Y-108962180D01*
X110323368Y-73337819D02*
X110370987Y-73290200D01*
X110370987Y-73290200D02*
X110513844Y-73242580D01*
X110513844Y-73242580D02*
X110609082Y-73242580D01*
X110609082Y-73242580D02*
X110751939Y-73290200D01*
X110751939Y-73290200D02*
X110847177Y-73385438D01*
X110847177Y-73385438D02*
X110894796Y-73480676D01*
X110894796Y-73480676D02*
X110942415Y-73671152D01*
X110942415Y-73671152D02*
X110942415Y-73814009D01*
X110942415Y-73814009D02*
X110894796Y-74004485D01*
X110894796Y-74004485D02*
X110847177Y-74099723D01*
X110847177Y-74099723D02*
X110751939Y-74194961D01*
X110751939Y-74194961D02*
X110609082Y-74242580D01*
X110609082Y-74242580D02*
X110513844Y-74242580D01*
X110513844Y-74242580D02*
X110370987Y-74194961D01*
X110370987Y-74194961D02*
X110323368Y-74147342D01*
X109990034Y-74242580D02*
X109370987Y-74242580D01*
X109370987Y-74242580D02*
X109704320Y-73861628D01*
X109704320Y-73861628D02*
X109561463Y-73861628D01*
X109561463Y-73861628D02*
X109466225Y-73814009D01*
X109466225Y-73814009D02*
X109418606Y-73766390D01*
X109418606Y-73766390D02*
X109370987Y-73671152D01*
X109370987Y-73671152D02*
X109370987Y-73433057D01*
X109370987Y-73433057D02*
X109418606Y-73337819D01*
X109418606Y-73337819D02*
X109466225Y-73290200D01*
X109466225Y-73290200D02*
X109561463Y-73242580D01*
X109561463Y-73242580D02*
X109847177Y-73242580D01*
X109847177Y-73242580D02*
X109942415Y-73290200D01*
X109942415Y-73290200D02*
X109990034Y-73337819D01*
X108751939Y-74242580D02*
X108656701Y-74242580D01*
X108656701Y-74242580D02*
X108561463Y-74194961D01*
X108561463Y-74194961D02*
X108513844Y-74147342D01*
X108513844Y-74147342D02*
X108466225Y-74052104D01*
X108466225Y-74052104D02*
X108418606Y-73861628D01*
X108418606Y-73861628D02*
X108418606Y-73623533D01*
X108418606Y-73623533D02*
X108466225Y-73433057D01*
X108466225Y-73433057D02*
X108513844Y-73337819D01*
X108513844Y-73337819D02*
X108561463Y-73290200D01*
X108561463Y-73290200D02*
X108656701Y-73242580D01*
X108656701Y-73242580D02*
X108751939Y-73242580D01*
X108751939Y-73242580D02*
X108847177Y-73290200D01*
X108847177Y-73290200D02*
X108894796Y-73337819D01*
X108894796Y-73337819D02*
X108942415Y-73433057D01*
X108942415Y-73433057D02*
X108990034Y-73623533D01*
X108990034Y-73623533D02*
X108990034Y-73861628D01*
X108990034Y-73861628D02*
X108942415Y-74052104D01*
X108942415Y-74052104D02*
X108894796Y-74147342D01*
X108894796Y-74147342D02*
X108847177Y-74194961D01*
X108847177Y-74194961D02*
X108751939Y-74242580D01*
X107807419Y-104361904D02*
X108616942Y-104361904D01*
X108616942Y-104361904D02*
X108712180Y-104314285D01*
X108712180Y-104314285D02*
X108759800Y-104266666D01*
X108759800Y-104266666D02*
X108807419Y-104171428D01*
X108807419Y-104171428D02*
X108807419Y-103980952D01*
X108807419Y-103980952D02*
X108759800Y-103885714D01*
X108759800Y-103885714D02*
X108712180Y-103838095D01*
X108712180Y-103838095D02*
X108616942Y-103790476D01*
X108616942Y-103790476D02*
X107807419Y-103790476D01*
X108140752Y-102885714D02*
X108807419Y-102885714D01*
X107759800Y-103123809D02*
X108474085Y-103361904D01*
X108474085Y-103361904D02*
X108474085Y-102742857D01*
X100107419Y-76752857D02*
X99631228Y-77086190D01*
X100107419Y-77324285D02*
X99107419Y-77324285D01*
X99107419Y-77324285D02*
X99107419Y-76943333D01*
X99107419Y-76943333D02*
X99155038Y-76848095D01*
X99155038Y-76848095D02*
X99202657Y-76800476D01*
X99202657Y-76800476D02*
X99297895Y-76752857D01*
X99297895Y-76752857D02*
X99440752Y-76752857D01*
X99440752Y-76752857D02*
X99535990Y-76800476D01*
X99535990Y-76800476D02*
X99583609Y-76848095D01*
X99583609Y-76848095D02*
X99631228Y-76943333D01*
X99631228Y-76943333D02*
X99631228Y-77324285D01*
X100107419Y-75800476D02*
X100107419Y-76371904D01*
X100107419Y-76086190D02*
X99107419Y-76086190D01*
X99107419Y-76086190D02*
X99250276Y-76181428D01*
X99250276Y-76181428D02*
X99345514Y-76276666D01*
X99345514Y-76276666D02*
X99393133Y-76371904D01*
X99107419Y-75181428D02*
X99107419Y-75086190D01*
X99107419Y-75086190D02*
X99155038Y-74990952D01*
X99155038Y-74990952D02*
X99202657Y-74943333D01*
X99202657Y-74943333D02*
X99297895Y-74895714D01*
X99297895Y-74895714D02*
X99488371Y-74848095D01*
X99488371Y-74848095D02*
X99726466Y-74848095D01*
X99726466Y-74848095D02*
X99916942Y-74895714D01*
X99916942Y-74895714D02*
X100012180Y-74943333D01*
X100012180Y-74943333D02*
X100059800Y-74990952D01*
X100059800Y-74990952D02*
X100107419Y-75086190D01*
X100107419Y-75086190D02*
X100107419Y-75181428D01*
X100107419Y-75181428D02*
X100059800Y-75276666D01*
X100059800Y-75276666D02*
X100012180Y-75324285D01*
X100012180Y-75324285D02*
X99916942Y-75371904D01*
X99916942Y-75371904D02*
X99726466Y-75419523D01*
X99726466Y-75419523D02*
X99488371Y-75419523D01*
X99488371Y-75419523D02*
X99297895Y-75371904D01*
X99297895Y-75371904D02*
X99202657Y-75324285D01*
X99202657Y-75324285D02*
X99155038Y-75276666D01*
X99155038Y-75276666D02*
X99107419Y-75181428D01*
X100388094Y-128992580D02*
X100388094Y-129992580D01*
X100388094Y-129992580D02*
X100149999Y-129992580D01*
X100149999Y-129992580D02*
X100007142Y-129944961D01*
X100007142Y-129944961D02*
X99911904Y-129849723D01*
X99911904Y-129849723D02*
X99864285Y-129754485D01*
X99864285Y-129754485D02*
X99816666Y-129564009D01*
X99816666Y-129564009D02*
X99816666Y-129421152D01*
X99816666Y-129421152D02*
X99864285Y-129230676D01*
X99864285Y-129230676D02*
X99911904Y-129135438D01*
X99911904Y-129135438D02*
X100007142Y-129040200D01*
X100007142Y-129040200D02*
X100149999Y-128992580D01*
X100149999Y-128992580D02*
X100388094Y-128992580D01*
X98864285Y-128992580D02*
X99435713Y-128992580D01*
X99149999Y-128992580D02*
X99149999Y-129992580D01*
X99149999Y-129992580D02*
X99245237Y-129849723D01*
X99245237Y-129849723D02*
X99340475Y-129754485D01*
X99340475Y-129754485D02*
X99435713Y-129706866D01*
X108133333Y-102557419D02*
X107800000Y-102081228D01*
X107561905Y-102557419D02*
X107561905Y-101557419D01*
X107561905Y-101557419D02*
X107942857Y-101557419D01*
X107942857Y-101557419D02*
X108038095Y-101605038D01*
X108038095Y-101605038D02*
X108085714Y-101652657D01*
X108085714Y-101652657D02*
X108133333Y-101747895D01*
X108133333Y-101747895D02*
X108133333Y-101890752D01*
X108133333Y-101890752D02*
X108085714Y-101985990D01*
X108085714Y-101985990D02*
X108038095Y-102033609D01*
X108038095Y-102033609D02*
X107942857Y-102081228D01*
X107942857Y-102081228D02*
X107561905Y-102081228D01*
X109085714Y-102557419D02*
X108514286Y-102557419D01*
X108800000Y-102557419D02*
X108800000Y-101557419D01*
X108800000Y-101557419D02*
X108704762Y-101700276D01*
X108704762Y-101700276D02*
X108609524Y-101795514D01*
X108609524Y-101795514D02*
X108514286Y-101843133D01*
X111138095Y-111757419D02*
X111138095Y-112566942D01*
X111138095Y-112566942D02*
X111185714Y-112662180D01*
X111185714Y-112662180D02*
X111233333Y-112709800D01*
X111233333Y-112709800D02*
X111328571Y-112757419D01*
X111328571Y-112757419D02*
X111519047Y-112757419D01*
X111519047Y-112757419D02*
X111614285Y-112709800D01*
X111614285Y-112709800D02*
X111661904Y-112662180D01*
X111661904Y-112662180D02*
X111709523Y-112566942D01*
X111709523Y-112566942D02*
X111709523Y-111757419D01*
X112328571Y-112185990D02*
X112233333Y-112138371D01*
X112233333Y-112138371D02*
X112185714Y-112090752D01*
X112185714Y-112090752D02*
X112138095Y-111995514D01*
X112138095Y-111995514D02*
X112138095Y-111947895D01*
X112138095Y-111947895D02*
X112185714Y-111852657D01*
X112185714Y-111852657D02*
X112233333Y-111805038D01*
X112233333Y-111805038D02*
X112328571Y-111757419D01*
X112328571Y-111757419D02*
X112519047Y-111757419D01*
X112519047Y-111757419D02*
X112614285Y-111805038D01*
X112614285Y-111805038D02*
X112661904Y-111852657D01*
X112661904Y-111852657D02*
X112709523Y-111947895D01*
X112709523Y-111947895D02*
X112709523Y-111995514D01*
X112709523Y-111995514D02*
X112661904Y-112090752D01*
X112661904Y-112090752D02*
X112614285Y-112138371D01*
X112614285Y-112138371D02*
X112519047Y-112185990D01*
X112519047Y-112185990D02*
X112328571Y-112185990D01*
X112328571Y-112185990D02*
X112233333Y-112233609D01*
X112233333Y-112233609D02*
X112185714Y-112281228D01*
X112185714Y-112281228D02*
X112138095Y-112376466D01*
X112138095Y-112376466D02*
X112138095Y-112566942D01*
X112138095Y-112566942D02*
X112185714Y-112662180D01*
X112185714Y-112662180D02*
X112233333Y-112709800D01*
X112233333Y-112709800D02*
X112328571Y-112757419D01*
X112328571Y-112757419D02*
X112519047Y-112757419D01*
X112519047Y-112757419D02*
X112614285Y-112709800D01*
X112614285Y-112709800D02*
X112661904Y-112662180D01*
X112661904Y-112662180D02*
X112709523Y-112566942D01*
X112709523Y-112566942D02*
X112709523Y-112376466D01*
X112709523Y-112376466D02*
X112661904Y-112281228D01*
X112661904Y-112281228D02*
X112614285Y-112233609D01*
X112614285Y-112233609D02*
X112519047Y-112185990D01*
X99611905Y-71007419D02*
X99611905Y-70007419D01*
X99611905Y-70007419D02*
X99850000Y-70007419D01*
X99850000Y-70007419D02*
X99992857Y-70055038D01*
X99992857Y-70055038D02*
X100088095Y-70150276D01*
X100088095Y-70150276D02*
X100135714Y-70245514D01*
X100135714Y-70245514D02*
X100183333Y-70435990D01*
X100183333Y-70435990D02*
X100183333Y-70578847D01*
X100183333Y-70578847D02*
X100135714Y-70769323D01*
X100135714Y-70769323D02*
X100088095Y-70864561D01*
X100088095Y-70864561D02*
X99992857Y-70959800D01*
X99992857Y-70959800D02*
X99850000Y-71007419D01*
X99850000Y-71007419D02*
X99611905Y-71007419D01*
X101088095Y-70007419D02*
X100611905Y-70007419D01*
X100611905Y-70007419D02*
X100564286Y-70483609D01*
X100564286Y-70483609D02*
X100611905Y-70435990D01*
X100611905Y-70435990D02*
X100707143Y-70388371D01*
X100707143Y-70388371D02*
X100945238Y-70388371D01*
X100945238Y-70388371D02*
X101040476Y-70435990D01*
X101040476Y-70435990D02*
X101088095Y-70483609D01*
X101088095Y-70483609D02*
X101135714Y-70578847D01*
X101135714Y-70578847D02*
X101135714Y-70816942D01*
X101135714Y-70816942D02*
X101088095Y-70912180D01*
X101088095Y-70912180D02*
X101040476Y-70959800D01*
X101040476Y-70959800D02*
X100945238Y-71007419D01*
X100945238Y-71007419D02*
X100707143Y-71007419D01*
X100707143Y-71007419D02*
X100611905Y-70959800D01*
X100611905Y-70959800D02*
X100564286Y-70912180D01*
X111382141Y-110462180D02*
X111334522Y-110509800D01*
X111334522Y-110509800D02*
X111191665Y-110557419D01*
X111191665Y-110557419D02*
X111096427Y-110557419D01*
X111096427Y-110557419D02*
X110953570Y-110509800D01*
X110953570Y-110509800D02*
X110858332Y-110414561D01*
X110858332Y-110414561D02*
X110810713Y-110319323D01*
X110810713Y-110319323D02*
X110763094Y-110128847D01*
X110763094Y-110128847D02*
X110763094Y-109985990D01*
X110763094Y-109985990D02*
X110810713Y-109795514D01*
X110810713Y-109795514D02*
X110858332Y-109700276D01*
X110858332Y-109700276D02*
X110953570Y-109605038D01*
X110953570Y-109605038D02*
X111096427Y-109557419D01*
X111096427Y-109557419D02*
X111191665Y-109557419D01*
X111191665Y-109557419D02*
X111334522Y-109605038D01*
X111334522Y-109605038D02*
X111382141Y-109652657D01*
X112334522Y-110557419D02*
X111763094Y-110557419D01*
X112048808Y-110557419D02*
X112048808Y-109557419D01*
X112048808Y-109557419D02*
X111953570Y-109700276D01*
X111953570Y-109700276D02*
X111858332Y-109795514D01*
X111858332Y-109795514D02*
X111763094Y-109843133D01*
X112810713Y-110557419D02*
X113001189Y-110557419D01*
X113001189Y-110557419D02*
X113096427Y-110509800D01*
X113096427Y-110509800D02*
X113144046Y-110462180D01*
X113144046Y-110462180D02*
X113239284Y-110319323D01*
X113239284Y-110319323D02*
X113286903Y-110128847D01*
X113286903Y-110128847D02*
X113286903Y-109747895D01*
X113286903Y-109747895D02*
X113239284Y-109652657D01*
X113239284Y-109652657D02*
X113191665Y-109605038D01*
X113191665Y-109605038D02*
X113096427Y-109557419D01*
X113096427Y-109557419D02*
X112905951Y-109557419D01*
X112905951Y-109557419D02*
X112810713Y-109605038D01*
X112810713Y-109605038D02*
X112763094Y-109652657D01*
X112763094Y-109652657D02*
X112715475Y-109747895D01*
X112715475Y-109747895D02*
X112715475Y-109985990D01*
X112715475Y-109985990D02*
X112763094Y-110081228D01*
X112763094Y-110081228D02*
X112810713Y-110128847D01*
X112810713Y-110128847D02*
X112905951Y-110176466D01*
X112905951Y-110176466D02*
X113096427Y-110176466D01*
X113096427Y-110176466D02*
X113191665Y-110128847D01*
X113191665Y-110128847D02*
X113239284Y-110081228D01*
X113239284Y-110081228D02*
X113286903Y-109985990D01*
X108682142Y-122062180D02*
X108634523Y-122109800D01*
X108634523Y-122109800D02*
X108491666Y-122157419D01*
X108491666Y-122157419D02*
X108396428Y-122157419D01*
X108396428Y-122157419D02*
X108253571Y-122109800D01*
X108253571Y-122109800D02*
X108158333Y-122014561D01*
X108158333Y-122014561D02*
X108110714Y-121919323D01*
X108110714Y-121919323D02*
X108063095Y-121728847D01*
X108063095Y-121728847D02*
X108063095Y-121585990D01*
X108063095Y-121585990D02*
X108110714Y-121395514D01*
X108110714Y-121395514D02*
X108158333Y-121300276D01*
X108158333Y-121300276D02*
X108253571Y-121205038D01*
X108253571Y-121205038D02*
X108396428Y-121157419D01*
X108396428Y-121157419D02*
X108491666Y-121157419D01*
X108491666Y-121157419D02*
X108634523Y-121205038D01*
X108634523Y-121205038D02*
X108682142Y-121252657D01*
X109634523Y-122157419D02*
X109063095Y-122157419D01*
X109348809Y-122157419D02*
X109348809Y-121157419D01*
X109348809Y-121157419D02*
X109253571Y-121300276D01*
X109253571Y-121300276D02*
X109158333Y-121395514D01*
X109158333Y-121395514D02*
X109063095Y-121443133D01*
X110539285Y-121157419D02*
X110063095Y-121157419D01*
X110063095Y-121157419D02*
X110015476Y-121633609D01*
X110015476Y-121633609D02*
X110063095Y-121585990D01*
X110063095Y-121585990D02*
X110158333Y-121538371D01*
X110158333Y-121538371D02*
X110396428Y-121538371D01*
X110396428Y-121538371D02*
X110491666Y-121585990D01*
X110491666Y-121585990D02*
X110539285Y-121633609D01*
X110539285Y-121633609D02*
X110586904Y-121728847D01*
X110586904Y-121728847D02*
X110586904Y-121966942D01*
X110586904Y-121966942D02*
X110539285Y-122062180D01*
X110539285Y-122062180D02*
X110491666Y-122109800D01*
X110491666Y-122109800D02*
X110396428Y-122157419D01*
X110396428Y-122157419D02*
X110158333Y-122157419D01*
X110158333Y-122157419D02*
X110063095Y-122109800D01*
X110063095Y-122109800D02*
X110015476Y-122062180D01*
X90388094Y-117492580D02*
X90388094Y-118492580D01*
X90388094Y-118492580D02*
X90149999Y-118492580D01*
X90149999Y-118492580D02*
X90007142Y-118444961D01*
X90007142Y-118444961D02*
X89911904Y-118349723D01*
X89911904Y-118349723D02*
X89864285Y-118254485D01*
X89864285Y-118254485D02*
X89816666Y-118064009D01*
X89816666Y-118064009D02*
X89816666Y-117921152D01*
X89816666Y-117921152D02*
X89864285Y-117730676D01*
X89864285Y-117730676D02*
X89911904Y-117635438D01*
X89911904Y-117635438D02*
X90007142Y-117540200D01*
X90007142Y-117540200D02*
X90149999Y-117492580D01*
X90149999Y-117492580D02*
X90388094Y-117492580D01*
X89340475Y-117492580D02*
X89149999Y-117492580D01*
X89149999Y-117492580D02*
X89054761Y-117540200D01*
X89054761Y-117540200D02*
X89007142Y-117587819D01*
X89007142Y-117587819D02*
X88911904Y-117730676D01*
X88911904Y-117730676D02*
X88864285Y-117921152D01*
X88864285Y-117921152D02*
X88864285Y-118302104D01*
X88864285Y-118302104D02*
X88911904Y-118397342D01*
X88911904Y-118397342D02*
X88959523Y-118444961D01*
X88959523Y-118444961D02*
X89054761Y-118492580D01*
X89054761Y-118492580D02*
X89245237Y-118492580D01*
X89245237Y-118492580D02*
X89340475Y-118444961D01*
X89340475Y-118444961D02*
X89388094Y-118397342D01*
X89388094Y-118397342D02*
X89435713Y-118302104D01*
X89435713Y-118302104D02*
X89435713Y-118064009D01*
X89435713Y-118064009D02*
X89388094Y-117968771D01*
X89388094Y-117968771D02*
X89340475Y-117921152D01*
X89340475Y-117921152D02*
X89245237Y-117873533D01*
X89245237Y-117873533D02*
X89054761Y-117873533D01*
X89054761Y-117873533D02*
X88959523Y-117921152D01*
X88959523Y-117921152D02*
X88911904Y-117968771D01*
X88911904Y-117968771D02*
X88864285Y-118064009D01*
X79224725Y-79773573D02*
X78517618Y-79066467D01*
X78517618Y-79066467D02*
X78685977Y-78898108D01*
X78685977Y-78898108D02*
X78820664Y-78830764D01*
X78820664Y-78830764D02*
X78955351Y-78830764D01*
X78955351Y-78830764D02*
X79056366Y-78864436D01*
X79056366Y-78864436D02*
X79224725Y-78965451D01*
X79224725Y-78965451D02*
X79325740Y-79066467D01*
X79325740Y-79066467D02*
X79426755Y-79234825D01*
X79426755Y-79234825D02*
X79460427Y-79335841D01*
X79460427Y-79335841D02*
X79460427Y-79470528D01*
X79460427Y-79470528D02*
X79393084Y-79605215D01*
X79393084Y-79605215D02*
X79224725Y-79773573D01*
X79527771Y-78056314D02*
X79393084Y-78191001D01*
X79393084Y-78191001D02*
X79359412Y-78292016D01*
X79359412Y-78292016D02*
X79359412Y-78359360D01*
X79359412Y-78359360D02*
X79393084Y-78527719D01*
X79393084Y-78527719D02*
X79494099Y-78696077D01*
X79494099Y-78696077D02*
X79763473Y-78965451D01*
X79763473Y-78965451D02*
X79864488Y-78999123D01*
X79864488Y-78999123D02*
X79931832Y-78999123D01*
X79931832Y-78999123D02*
X80032847Y-78965451D01*
X80032847Y-78965451D02*
X80167534Y-78830764D01*
X80167534Y-78830764D02*
X80201206Y-78729749D01*
X80201206Y-78729749D02*
X80201206Y-78662406D01*
X80201206Y-78662406D02*
X80167534Y-78561390D01*
X80167534Y-78561390D02*
X79999175Y-78393032D01*
X79999175Y-78393032D02*
X79898160Y-78359360D01*
X79898160Y-78359360D02*
X79830816Y-78359360D01*
X79830816Y-78359360D02*
X79729801Y-78393032D01*
X79729801Y-78393032D02*
X79595114Y-78527719D01*
X79595114Y-78527719D02*
X79561442Y-78628734D01*
X79561442Y-78628734D02*
X79561442Y-78696077D01*
X79561442Y-78696077D02*
X79595114Y-78797093D01*
X112333333Y-106662180D02*
X112285714Y-106709800D01*
X112285714Y-106709800D02*
X112142857Y-106757419D01*
X112142857Y-106757419D02*
X112047619Y-106757419D01*
X112047619Y-106757419D02*
X111904762Y-106709800D01*
X111904762Y-106709800D02*
X111809524Y-106614561D01*
X111809524Y-106614561D02*
X111761905Y-106519323D01*
X111761905Y-106519323D02*
X111714286Y-106328847D01*
X111714286Y-106328847D02*
X111714286Y-106185990D01*
X111714286Y-106185990D02*
X111761905Y-105995514D01*
X111761905Y-105995514D02*
X111809524Y-105900276D01*
X111809524Y-105900276D02*
X111904762Y-105805038D01*
X111904762Y-105805038D02*
X112047619Y-105757419D01*
X112047619Y-105757419D02*
X112142857Y-105757419D01*
X112142857Y-105757419D02*
X112285714Y-105805038D01*
X112285714Y-105805038D02*
X112333333Y-105852657D01*
X112714286Y-105852657D02*
X112761905Y-105805038D01*
X112761905Y-105805038D02*
X112857143Y-105757419D01*
X112857143Y-105757419D02*
X113095238Y-105757419D01*
X113095238Y-105757419D02*
X113190476Y-105805038D01*
X113190476Y-105805038D02*
X113238095Y-105852657D01*
X113238095Y-105852657D02*
X113285714Y-105947895D01*
X113285714Y-105947895D02*
X113285714Y-106043133D01*
X113285714Y-106043133D02*
X113238095Y-106185990D01*
X113238095Y-106185990D02*
X112666667Y-106757419D01*
X112666667Y-106757419D02*
X113285714Y-106757419D01*
X106412653Y-82762180D02*
X106365034Y-82809800D01*
X106365034Y-82809800D02*
X106222177Y-82857419D01*
X106222177Y-82857419D02*
X106126939Y-82857419D01*
X106126939Y-82857419D02*
X105984082Y-82809800D01*
X105984082Y-82809800D02*
X105888844Y-82714561D01*
X105888844Y-82714561D02*
X105841225Y-82619323D01*
X105841225Y-82619323D02*
X105793606Y-82428847D01*
X105793606Y-82428847D02*
X105793606Y-82285990D01*
X105793606Y-82285990D02*
X105841225Y-82095514D01*
X105841225Y-82095514D02*
X105888844Y-82000276D01*
X105888844Y-82000276D02*
X105984082Y-81905038D01*
X105984082Y-81905038D02*
X106126939Y-81857419D01*
X106126939Y-81857419D02*
X106222177Y-81857419D01*
X106222177Y-81857419D02*
X106365034Y-81905038D01*
X106365034Y-81905038D02*
X106412653Y-81952657D01*
X107365034Y-82857419D02*
X106793606Y-82857419D01*
X107079320Y-82857419D02*
X107079320Y-81857419D01*
X107079320Y-81857419D02*
X106984082Y-82000276D01*
X106984082Y-82000276D02*
X106888844Y-82095514D01*
X106888844Y-82095514D02*
X106793606Y-82143133D01*
X107936463Y-82285990D02*
X107841225Y-82238371D01*
X107841225Y-82238371D02*
X107793606Y-82190752D01*
X107793606Y-82190752D02*
X107745987Y-82095514D01*
X107745987Y-82095514D02*
X107745987Y-82047895D01*
X107745987Y-82047895D02*
X107793606Y-81952657D01*
X107793606Y-81952657D02*
X107841225Y-81905038D01*
X107841225Y-81905038D02*
X107936463Y-81857419D01*
X107936463Y-81857419D02*
X108126939Y-81857419D01*
X108126939Y-81857419D02*
X108222177Y-81905038D01*
X108222177Y-81905038D02*
X108269796Y-81952657D01*
X108269796Y-81952657D02*
X108317415Y-82047895D01*
X108317415Y-82047895D02*
X108317415Y-82095514D01*
X108317415Y-82095514D02*
X108269796Y-82190752D01*
X108269796Y-82190752D02*
X108222177Y-82238371D01*
X108222177Y-82238371D02*
X108126939Y-82285990D01*
X108126939Y-82285990D02*
X107936463Y-82285990D01*
X107936463Y-82285990D02*
X107841225Y-82333609D01*
X107841225Y-82333609D02*
X107793606Y-82381228D01*
X107793606Y-82381228D02*
X107745987Y-82476466D01*
X107745987Y-82476466D02*
X107745987Y-82666942D01*
X107745987Y-82666942D02*
X107793606Y-82762180D01*
X107793606Y-82762180D02*
X107841225Y-82809800D01*
X107841225Y-82809800D02*
X107936463Y-82857419D01*
X107936463Y-82857419D02*
X108126939Y-82857419D01*
X108126939Y-82857419D02*
X108222177Y-82809800D01*
X108222177Y-82809800D02*
X108269796Y-82762180D01*
X108269796Y-82762180D02*
X108317415Y-82666942D01*
X108317415Y-82666942D02*
X108317415Y-82476466D01*
X108317415Y-82476466D02*
X108269796Y-82381228D01*
X108269796Y-82381228D02*
X108222177Y-82333609D01*
X108222177Y-82333609D02*
X108126939Y-82285990D01*
X114357419Y-104656666D02*
X113881228Y-104989999D01*
X114357419Y-105228094D02*
X113357419Y-105228094D01*
X113357419Y-105228094D02*
X113357419Y-104847142D01*
X113357419Y-104847142D02*
X113405038Y-104751904D01*
X113405038Y-104751904D02*
X113452657Y-104704285D01*
X113452657Y-104704285D02*
X113547895Y-104656666D01*
X113547895Y-104656666D02*
X113690752Y-104656666D01*
X113690752Y-104656666D02*
X113785990Y-104704285D01*
X113785990Y-104704285D02*
X113833609Y-104751904D01*
X113833609Y-104751904D02*
X113881228Y-104847142D01*
X113881228Y-104847142D02*
X113881228Y-105228094D01*
X113690752Y-103799523D02*
X114357419Y-103799523D01*
X113309800Y-104037618D02*
X114024085Y-104275713D01*
X114024085Y-104275713D02*
X114024085Y-103656666D01*
X110537819Y-82707142D02*
X110490200Y-82659523D01*
X110490200Y-82659523D02*
X110442580Y-82516666D01*
X110442580Y-82516666D02*
X110442580Y-82421428D01*
X110442580Y-82421428D02*
X110490200Y-82278571D01*
X110490200Y-82278571D02*
X110585438Y-82183333D01*
X110585438Y-82183333D02*
X110680676Y-82135714D01*
X110680676Y-82135714D02*
X110871152Y-82088095D01*
X110871152Y-82088095D02*
X111014009Y-82088095D01*
X111014009Y-82088095D02*
X111204485Y-82135714D01*
X111204485Y-82135714D02*
X111299723Y-82183333D01*
X111299723Y-82183333D02*
X111394961Y-82278571D01*
X111394961Y-82278571D02*
X111442580Y-82421428D01*
X111442580Y-82421428D02*
X111442580Y-82516666D01*
X111442580Y-82516666D02*
X111394961Y-82659523D01*
X111394961Y-82659523D02*
X111347342Y-82707142D01*
X111347342Y-83088095D02*
X111394961Y-83135714D01*
X111394961Y-83135714D02*
X111442580Y-83230952D01*
X111442580Y-83230952D02*
X111442580Y-83469047D01*
X111442580Y-83469047D02*
X111394961Y-83564285D01*
X111394961Y-83564285D02*
X111347342Y-83611904D01*
X111347342Y-83611904D02*
X111252104Y-83659523D01*
X111252104Y-83659523D02*
X111156866Y-83659523D01*
X111156866Y-83659523D02*
X111014009Y-83611904D01*
X111014009Y-83611904D02*
X110442580Y-83040476D01*
X110442580Y-83040476D02*
X110442580Y-83659523D01*
X110442580Y-84611904D02*
X110442580Y-84040476D01*
X110442580Y-84326190D02*
X111442580Y-84326190D01*
X111442580Y-84326190D02*
X111299723Y-84230952D01*
X111299723Y-84230952D02*
X111204485Y-84135714D01*
X111204485Y-84135714D02*
X111156866Y-84040476D01*
X101173844Y-77157419D02*
X100840511Y-76681228D01*
X100602416Y-77157419D02*
X100602416Y-76157419D01*
X100602416Y-76157419D02*
X100983368Y-76157419D01*
X100983368Y-76157419D02*
X101078606Y-76205038D01*
X101078606Y-76205038D02*
X101126225Y-76252657D01*
X101126225Y-76252657D02*
X101173844Y-76347895D01*
X101173844Y-76347895D02*
X101173844Y-76490752D01*
X101173844Y-76490752D02*
X101126225Y-76585990D01*
X101126225Y-76585990D02*
X101078606Y-76633609D01*
X101078606Y-76633609D02*
X100983368Y-76681228D01*
X100983368Y-76681228D02*
X100602416Y-76681228D01*
X101745273Y-76585990D02*
X101650035Y-76538371D01*
X101650035Y-76538371D02*
X101602416Y-76490752D01*
X101602416Y-76490752D02*
X101554797Y-76395514D01*
X101554797Y-76395514D02*
X101554797Y-76347895D01*
X101554797Y-76347895D02*
X101602416Y-76252657D01*
X101602416Y-76252657D02*
X101650035Y-76205038D01*
X101650035Y-76205038D02*
X101745273Y-76157419D01*
X101745273Y-76157419D02*
X101935749Y-76157419D01*
X101935749Y-76157419D02*
X102030987Y-76205038D01*
X102030987Y-76205038D02*
X102078606Y-76252657D01*
X102078606Y-76252657D02*
X102126225Y-76347895D01*
X102126225Y-76347895D02*
X102126225Y-76395514D01*
X102126225Y-76395514D02*
X102078606Y-76490752D01*
X102078606Y-76490752D02*
X102030987Y-76538371D01*
X102030987Y-76538371D02*
X101935749Y-76585990D01*
X101935749Y-76585990D02*
X101745273Y-76585990D01*
X101745273Y-76585990D02*
X101650035Y-76633609D01*
X101650035Y-76633609D02*
X101602416Y-76681228D01*
X101602416Y-76681228D02*
X101554797Y-76776466D01*
X101554797Y-76776466D02*
X101554797Y-76966942D01*
X101554797Y-76966942D02*
X101602416Y-77062180D01*
X101602416Y-77062180D02*
X101650035Y-77109800D01*
X101650035Y-77109800D02*
X101745273Y-77157419D01*
X101745273Y-77157419D02*
X101935749Y-77157419D01*
X101935749Y-77157419D02*
X102030987Y-77109800D01*
X102030987Y-77109800D02*
X102078606Y-77062180D01*
X102078606Y-77062180D02*
X102126225Y-76966942D01*
X102126225Y-76966942D02*
X102126225Y-76776466D01*
X102126225Y-76776466D02*
X102078606Y-76681228D01*
X102078606Y-76681228D02*
X102030987Y-76633609D01*
X102030987Y-76633609D02*
X101935749Y-76585990D01*
X109878330Y-75093333D02*
X109830711Y-75045714D01*
X109830711Y-75045714D02*
X109783091Y-74902857D01*
X109783091Y-74902857D02*
X109783091Y-74807619D01*
X109783091Y-74807619D02*
X109830711Y-74664762D01*
X109830711Y-74664762D02*
X109925949Y-74569524D01*
X109925949Y-74569524D02*
X110021187Y-74521905D01*
X110021187Y-74521905D02*
X110211663Y-74474286D01*
X110211663Y-74474286D02*
X110354520Y-74474286D01*
X110354520Y-74474286D02*
X110544996Y-74521905D01*
X110544996Y-74521905D02*
X110640234Y-74569524D01*
X110640234Y-74569524D02*
X110735472Y-74664762D01*
X110735472Y-74664762D02*
X110783091Y-74807619D01*
X110783091Y-74807619D02*
X110783091Y-74902857D01*
X110783091Y-74902857D02*
X110735472Y-75045714D01*
X110735472Y-75045714D02*
X110687853Y-75093333D01*
X110783091Y-75426667D02*
X110783091Y-76093333D01*
X110783091Y-76093333D02*
X109783091Y-75664762D01*
X116162180Y-83792857D02*
X116209800Y-83840476D01*
X116209800Y-83840476D02*
X116257419Y-83983333D01*
X116257419Y-83983333D02*
X116257419Y-84078571D01*
X116257419Y-84078571D02*
X116209800Y-84221428D01*
X116209800Y-84221428D02*
X116114561Y-84316666D01*
X116114561Y-84316666D02*
X116019323Y-84364285D01*
X116019323Y-84364285D02*
X115828847Y-84411904D01*
X115828847Y-84411904D02*
X115685990Y-84411904D01*
X115685990Y-84411904D02*
X115495514Y-84364285D01*
X115495514Y-84364285D02*
X115400276Y-84316666D01*
X115400276Y-84316666D02*
X115305038Y-84221428D01*
X115305038Y-84221428D02*
X115257419Y-84078571D01*
X115257419Y-84078571D02*
X115257419Y-83983333D01*
X115257419Y-83983333D02*
X115305038Y-83840476D01*
X115305038Y-83840476D02*
X115352657Y-83792857D01*
X115352657Y-83411904D02*
X115305038Y-83364285D01*
X115305038Y-83364285D02*
X115257419Y-83269047D01*
X115257419Y-83269047D02*
X115257419Y-83030952D01*
X115257419Y-83030952D02*
X115305038Y-82935714D01*
X115305038Y-82935714D02*
X115352657Y-82888095D01*
X115352657Y-82888095D02*
X115447895Y-82840476D01*
X115447895Y-82840476D02*
X115543133Y-82840476D01*
X115543133Y-82840476D02*
X115685990Y-82888095D01*
X115685990Y-82888095D02*
X116257419Y-83459523D01*
X116257419Y-83459523D02*
X116257419Y-82840476D01*
X115257419Y-82507142D02*
X115257419Y-81888095D01*
X115257419Y-81888095D02*
X115638371Y-82221428D01*
X115638371Y-82221428D02*
X115638371Y-82078571D01*
X115638371Y-82078571D02*
X115685990Y-81983333D01*
X115685990Y-81983333D02*
X115733609Y-81935714D01*
X115733609Y-81935714D02*
X115828847Y-81888095D01*
X115828847Y-81888095D02*
X116066942Y-81888095D01*
X116066942Y-81888095D02*
X116162180Y-81935714D01*
X116162180Y-81935714D02*
X116209800Y-81983333D01*
X116209800Y-81983333D02*
X116257419Y-82078571D01*
X116257419Y-82078571D02*
X116257419Y-82364285D01*
X116257419Y-82364285D02*
X116209800Y-82459523D01*
X116209800Y-82459523D02*
X116162180Y-82507142D01*
X100864285Y-117492580D02*
X100864285Y-118492580D01*
X100864285Y-118492580D02*
X100626190Y-118492580D01*
X100626190Y-118492580D02*
X100483333Y-118444961D01*
X100483333Y-118444961D02*
X100388095Y-118349723D01*
X100388095Y-118349723D02*
X100340476Y-118254485D01*
X100340476Y-118254485D02*
X100292857Y-118064009D01*
X100292857Y-118064009D02*
X100292857Y-117921152D01*
X100292857Y-117921152D02*
X100340476Y-117730676D01*
X100340476Y-117730676D02*
X100388095Y-117635438D01*
X100388095Y-117635438D02*
X100483333Y-117540200D01*
X100483333Y-117540200D02*
X100626190Y-117492580D01*
X100626190Y-117492580D02*
X100864285Y-117492580D01*
X99340476Y-117492580D02*
X99911904Y-117492580D01*
X99626190Y-117492580D02*
X99626190Y-118492580D01*
X99626190Y-118492580D02*
X99721428Y-118349723D01*
X99721428Y-118349723D02*
X99816666Y-118254485D01*
X99816666Y-118254485D02*
X99911904Y-118206866D01*
X98721428Y-118492580D02*
X98626190Y-118492580D01*
X98626190Y-118492580D02*
X98530952Y-118444961D01*
X98530952Y-118444961D02*
X98483333Y-118397342D01*
X98483333Y-118397342D02*
X98435714Y-118302104D01*
X98435714Y-118302104D02*
X98388095Y-118111628D01*
X98388095Y-118111628D02*
X98388095Y-117873533D01*
X98388095Y-117873533D02*
X98435714Y-117683057D01*
X98435714Y-117683057D02*
X98483333Y-117587819D01*
X98483333Y-117587819D02*
X98530952Y-117540200D01*
X98530952Y-117540200D02*
X98626190Y-117492580D01*
X98626190Y-117492580D02*
X98721428Y-117492580D01*
X98721428Y-117492580D02*
X98816666Y-117540200D01*
X98816666Y-117540200D02*
X98864285Y-117587819D01*
X98864285Y-117587819D02*
X98911904Y-117683057D01*
X98911904Y-117683057D02*
X98959523Y-117873533D01*
X98959523Y-117873533D02*
X98959523Y-118111628D01*
X98959523Y-118111628D02*
X98911904Y-118302104D01*
X98911904Y-118302104D02*
X98864285Y-118397342D01*
X98864285Y-118397342D02*
X98816666Y-118444961D01*
X98816666Y-118444961D02*
X98721428Y-118492580D01*
X114357419Y-102576666D02*
X113881228Y-102909999D01*
X114357419Y-103148094D02*
X113357419Y-103148094D01*
X113357419Y-103148094D02*
X113357419Y-102767142D01*
X113357419Y-102767142D02*
X113405038Y-102671904D01*
X113405038Y-102671904D02*
X113452657Y-102624285D01*
X113452657Y-102624285D02*
X113547895Y-102576666D01*
X113547895Y-102576666D02*
X113690752Y-102576666D01*
X113690752Y-102576666D02*
X113785990Y-102624285D01*
X113785990Y-102624285D02*
X113833609Y-102671904D01*
X113833609Y-102671904D02*
X113881228Y-102767142D01*
X113881228Y-102767142D02*
X113881228Y-103148094D01*
X113357419Y-102243332D02*
X113357419Y-101624285D01*
X113357419Y-101624285D02*
X113738371Y-101957618D01*
X113738371Y-101957618D02*
X113738371Y-101814761D01*
X113738371Y-101814761D02*
X113785990Y-101719523D01*
X113785990Y-101719523D02*
X113833609Y-101671904D01*
X113833609Y-101671904D02*
X113928847Y-101624285D01*
X113928847Y-101624285D02*
X114166942Y-101624285D01*
X114166942Y-101624285D02*
X114262180Y-101671904D01*
X114262180Y-101671904D02*
X114309800Y-101719523D01*
X114309800Y-101719523D02*
X114357419Y-101814761D01*
X114357419Y-101814761D02*
X114357419Y-102100475D01*
X114357419Y-102100475D02*
X114309800Y-102195713D01*
X114309800Y-102195713D02*
X114262180Y-102243332D01*
X108968330Y-79047142D02*
X108920711Y-78999523D01*
X108920711Y-78999523D02*
X108873091Y-78856666D01*
X108873091Y-78856666D02*
X108873091Y-78761428D01*
X108873091Y-78761428D02*
X108920711Y-78618571D01*
X108920711Y-78618571D02*
X109015949Y-78523333D01*
X109015949Y-78523333D02*
X109111187Y-78475714D01*
X109111187Y-78475714D02*
X109301663Y-78428095D01*
X109301663Y-78428095D02*
X109444520Y-78428095D01*
X109444520Y-78428095D02*
X109634996Y-78475714D01*
X109634996Y-78475714D02*
X109730234Y-78523333D01*
X109730234Y-78523333D02*
X109825472Y-78618571D01*
X109825472Y-78618571D02*
X109873091Y-78761428D01*
X109873091Y-78761428D02*
X109873091Y-78856666D01*
X109873091Y-78856666D02*
X109825472Y-78999523D01*
X109825472Y-78999523D02*
X109777853Y-79047142D01*
X108873091Y-79999523D02*
X108873091Y-79428095D01*
X108873091Y-79713809D02*
X109873091Y-79713809D01*
X109873091Y-79713809D02*
X109730234Y-79618571D01*
X109730234Y-79618571D02*
X109634996Y-79523333D01*
X109634996Y-79523333D02*
X109587377Y-79428095D01*
X109873091Y-80332857D02*
X109873091Y-80951904D01*
X109873091Y-80951904D02*
X109492139Y-80618571D01*
X109492139Y-80618571D02*
X109492139Y-80761428D01*
X109492139Y-80761428D02*
X109444520Y-80856666D01*
X109444520Y-80856666D02*
X109396901Y-80904285D01*
X109396901Y-80904285D02*
X109301663Y-80951904D01*
X109301663Y-80951904D02*
X109063568Y-80951904D01*
X109063568Y-80951904D02*
X108968330Y-80904285D01*
X108968330Y-80904285D02*
X108920711Y-80856666D01*
X108920711Y-80856666D02*
X108873091Y-80761428D01*
X108873091Y-80761428D02*
X108873091Y-80475714D01*
X108873091Y-80475714D02*
X108920711Y-80380476D01*
X108920711Y-80380476D02*
X108968330Y-80332857D01*
X110864285Y-117492580D02*
X110864285Y-118492580D01*
X110864285Y-118492580D02*
X110626190Y-118492580D01*
X110626190Y-118492580D02*
X110483333Y-118444961D01*
X110483333Y-118444961D02*
X110388095Y-118349723D01*
X110388095Y-118349723D02*
X110340476Y-118254485D01*
X110340476Y-118254485D02*
X110292857Y-118064009D01*
X110292857Y-118064009D02*
X110292857Y-117921152D01*
X110292857Y-117921152D02*
X110340476Y-117730676D01*
X110340476Y-117730676D02*
X110388095Y-117635438D01*
X110388095Y-117635438D02*
X110483333Y-117540200D01*
X110483333Y-117540200D02*
X110626190Y-117492580D01*
X110626190Y-117492580D02*
X110864285Y-117492580D01*
X109340476Y-117492580D02*
X109911904Y-117492580D01*
X109626190Y-117492580D02*
X109626190Y-118492580D01*
X109626190Y-118492580D02*
X109721428Y-118349723D01*
X109721428Y-118349723D02*
X109816666Y-118254485D01*
X109816666Y-118254485D02*
X109911904Y-118206866D01*
X108388095Y-117492580D02*
X108959523Y-117492580D01*
X108673809Y-117492580D02*
X108673809Y-118492580D01*
X108673809Y-118492580D02*
X108769047Y-118349723D01*
X108769047Y-118349723D02*
X108864285Y-118254485D01*
X108864285Y-118254485D02*
X108959523Y-118206866D01*
X120775274Y-120226426D02*
X121482381Y-120933532D01*
X121482381Y-120933532D02*
X121314022Y-121101891D01*
X121314022Y-121101891D02*
X121179335Y-121169235D01*
X121179335Y-121169235D02*
X121044648Y-121169235D01*
X121044648Y-121169235D02*
X120943633Y-121135563D01*
X120943633Y-121135563D02*
X120775274Y-121034548D01*
X120775274Y-121034548D02*
X120674259Y-120933532D01*
X120674259Y-120933532D02*
X120573244Y-120765174D01*
X120573244Y-120765174D02*
X120539572Y-120664158D01*
X120539572Y-120664158D02*
X120539572Y-120529471D01*
X120539572Y-120529471D02*
X120606915Y-120394784D01*
X120606915Y-120394784D02*
X120775274Y-120226426D01*
X120741602Y-121539624D02*
X120741602Y-121606967D01*
X120741602Y-121606967D02*
X120707931Y-121707983D01*
X120707931Y-121707983D02*
X120539572Y-121876341D01*
X120539572Y-121876341D02*
X120438557Y-121910013D01*
X120438557Y-121910013D02*
X120371213Y-121910013D01*
X120371213Y-121910013D02*
X120270198Y-121876341D01*
X120270198Y-121876341D02*
X120202854Y-121808998D01*
X120202854Y-121808998D02*
X120135511Y-121674311D01*
X120135511Y-121674311D02*
X120135511Y-120866189D01*
X120135511Y-120866189D02*
X119697778Y-121303922D01*
X102761905Y-111657419D02*
X102761905Y-112466942D01*
X102761905Y-112466942D02*
X102809524Y-112562180D01*
X102809524Y-112562180D02*
X102857143Y-112609800D01*
X102857143Y-112609800D02*
X102952381Y-112657419D01*
X102952381Y-112657419D02*
X103142857Y-112657419D01*
X103142857Y-112657419D02*
X103238095Y-112609800D01*
X103238095Y-112609800D02*
X103285714Y-112562180D01*
X103285714Y-112562180D02*
X103333333Y-112466942D01*
X103333333Y-112466942D02*
X103333333Y-111657419D01*
X104333333Y-112657419D02*
X103761905Y-112657419D01*
X104047619Y-112657419D02*
X104047619Y-111657419D01*
X104047619Y-111657419D02*
X103952381Y-111800276D01*
X103952381Y-111800276D02*
X103857143Y-111895514D01*
X103857143Y-111895514D02*
X103761905Y-111943133D01*
X104666667Y-111657419D02*
X105285714Y-111657419D01*
X105285714Y-111657419D02*
X104952381Y-112038371D01*
X104952381Y-112038371D02*
X105095238Y-112038371D01*
X105095238Y-112038371D02*
X105190476Y-112085990D01*
X105190476Y-112085990D02*
X105238095Y-112133609D01*
X105238095Y-112133609D02*
X105285714Y-112228847D01*
X105285714Y-112228847D02*
X105285714Y-112466942D01*
X105285714Y-112466942D02*
X105238095Y-112562180D01*
X105238095Y-112562180D02*
X105190476Y-112609800D01*
X105190476Y-112609800D02*
X105095238Y-112657419D01*
X105095238Y-112657419D02*
X104809524Y-112657419D01*
X104809524Y-112657419D02*
X104714286Y-112609800D01*
X104714286Y-112609800D02*
X104666667Y-112562180D01*
X104887930Y-72706666D02*
X104411739Y-73039999D01*
X104887930Y-73278094D02*
X103887930Y-73278094D01*
X103887930Y-73278094D02*
X103887930Y-72897142D01*
X103887930Y-72897142D02*
X103935549Y-72801904D01*
X103935549Y-72801904D02*
X103983168Y-72754285D01*
X103983168Y-72754285D02*
X104078406Y-72706666D01*
X104078406Y-72706666D02*
X104221263Y-72706666D01*
X104221263Y-72706666D02*
X104316501Y-72754285D01*
X104316501Y-72754285D02*
X104364120Y-72801904D01*
X104364120Y-72801904D02*
X104411739Y-72897142D01*
X104411739Y-72897142D02*
X104411739Y-73278094D01*
X103887930Y-72373332D02*
X103887930Y-71706666D01*
X103887930Y-71706666D02*
X104887930Y-72135237D01*
X108857418Y-113166666D02*
X108857418Y-113642856D01*
X108857418Y-113642856D02*
X107857418Y-113642856D01*
X108190751Y-112404761D02*
X108857418Y-112404761D01*
X107809799Y-112642856D02*
X108524084Y-112880951D01*
X108524084Y-112880951D02*
X108524084Y-112261904D01*
X106606606Y-72357608D02*
X106606606Y-73167131D01*
X106606606Y-73167131D02*
X106654225Y-73262369D01*
X106654225Y-73262369D02*
X106701844Y-73309989D01*
X106701844Y-73309989D02*
X106797082Y-73357608D01*
X106797082Y-73357608D02*
X106987558Y-73357608D01*
X106987558Y-73357608D02*
X107082796Y-73309989D01*
X107082796Y-73309989D02*
X107130415Y-73262369D01*
X107130415Y-73262369D02*
X107178034Y-73167131D01*
X107178034Y-73167131D02*
X107178034Y-72357608D01*
X108178034Y-73357608D02*
X107606606Y-73357608D01*
X107892320Y-73357608D02*
X107892320Y-72357608D01*
X107892320Y-72357608D02*
X107797082Y-72500465D01*
X107797082Y-72500465D02*
X107701844Y-72595703D01*
X107701844Y-72595703D02*
X107606606Y-72643322D01*
X71007419Y-100388094D02*
X70007419Y-100388094D01*
X70007419Y-100388094D02*
X70007419Y-100149999D01*
X70007419Y-100149999D02*
X70055038Y-100007142D01*
X70055038Y-100007142D02*
X70150276Y-99911904D01*
X70150276Y-99911904D02*
X70245514Y-99864285D01*
X70245514Y-99864285D02*
X70435990Y-99816666D01*
X70435990Y-99816666D02*
X70578847Y-99816666D01*
X70578847Y-99816666D02*
X70769323Y-99864285D01*
X70769323Y-99864285D02*
X70864561Y-99911904D01*
X70864561Y-99911904D02*
X70959800Y-100007142D01*
X70959800Y-100007142D02*
X71007419Y-100149999D01*
X71007419Y-100149999D02*
X71007419Y-100388094D01*
X70007419Y-99483332D02*
X70007419Y-98816666D01*
X70007419Y-98816666D02*
X71007419Y-99245237D01*
X104142691Y-79567857D02*
X104190311Y-79615476D01*
X104190311Y-79615476D02*
X104237930Y-79758333D01*
X104237930Y-79758333D02*
X104237930Y-79853571D01*
X104237930Y-79853571D02*
X104190311Y-79996428D01*
X104190311Y-79996428D02*
X104095072Y-80091666D01*
X104095072Y-80091666D02*
X103999834Y-80139285D01*
X103999834Y-80139285D02*
X103809358Y-80186904D01*
X103809358Y-80186904D02*
X103666501Y-80186904D01*
X103666501Y-80186904D02*
X103476025Y-80139285D01*
X103476025Y-80139285D02*
X103380787Y-80091666D01*
X103380787Y-80091666D02*
X103285549Y-79996428D01*
X103285549Y-79996428D02*
X103237930Y-79853571D01*
X103237930Y-79853571D02*
X103237930Y-79758333D01*
X103237930Y-79758333D02*
X103285549Y-79615476D01*
X103285549Y-79615476D02*
X103333168Y-79567857D01*
X104237930Y-78615476D02*
X104237930Y-79186904D01*
X104237930Y-78901190D02*
X103237930Y-78901190D01*
X103237930Y-78901190D02*
X103380787Y-78996428D01*
X103380787Y-78996428D02*
X103476025Y-79091666D01*
X103476025Y-79091666D02*
X103523644Y-79186904D01*
X103237930Y-77758333D02*
X103237930Y-77948809D01*
X103237930Y-77948809D02*
X103285549Y-78044047D01*
X103285549Y-78044047D02*
X103333168Y-78091666D01*
X103333168Y-78091666D02*
X103476025Y-78186904D01*
X103476025Y-78186904D02*
X103666501Y-78234523D01*
X103666501Y-78234523D02*
X104047453Y-78234523D01*
X104047453Y-78234523D02*
X104142691Y-78186904D01*
X104142691Y-78186904D02*
X104190311Y-78139285D01*
X104190311Y-78139285D02*
X104237930Y-78044047D01*
X104237930Y-78044047D02*
X104237930Y-77853571D01*
X104237930Y-77853571D02*
X104190311Y-77758333D01*
X104190311Y-77758333D02*
X104142691Y-77710714D01*
X104142691Y-77710714D02*
X104047453Y-77663095D01*
X104047453Y-77663095D02*
X103809358Y-77663095D01*
X103809358Y-77663095D02*
X103714120Y-77710714D01*
X103714120Y-77710714D02*
X103666501Y-77758333D01*
X103666501Y-77758333D02*
X103618882Y-77853571D01*
X103618882Y-77853571D02*
X103618882Y-78044047D01*
X103618882Y-78044047D02*
X103666501Y-78139285D01*
X103666501Y-78139285D02*
X103714120Y-78186904D01*
X103714120Y-78186904D02*
X103809358Y-78234523D01*
X103938249Y-103773951D02*
X103938249Y-103841294D01*
X103938249Y-103841294D02*
X103870906Y-103975981D01*
X103870906Y-103975981D02*
X103803562Y-104043325D01*
X103803562Y-104043325D02*
X103668875Y-104110668D01*
X103668875Y-104110668D02*
X103534188Y-104110668D01*
X103534188Y-104110668D02*
X103433173Y-104076997D01*
X103433173Y-104076997D02*
X103264814Y-103975981D01*
X103264814Y-103975981D02*
X103163799Y-103874966D01*
X103163799Y-103874966D02*
X103062784Y-103706607D01*
X103062784Y-103706607D02*
X103029112Y-103605592D01*
X103029112Y-103605592D02*
X103029112Y-103470905D01*
X103029112Y-103470905D02*
X103096456Y-103336218D01*
X103096456Y-103336218D02*
X103163799Y-103268875D01*
X103163799Y-103268875D02*
X103298486Y-103201531D01*
X103298486Y-103201531D02*
X103365830Y-103201531D01*
X103534188Y-102898485D02*
X103971921Y-102460753D01*
X103971921Y-102460753D02*
X104005593Y-102965829D01*
X104005593Y-102965829D02*
X104106608Y-102864814D01*
X104106608Y-102864814D02*
X104207623Y-102831142D01*
X104207623Y-102831142D02*
X104274967Y-102831142D01*
X104274967Y-102831142D02*
X104375982Y-102864814D01*
X104375982Y-102864814D02*
X104544341Y-103033172D01*
X104544341Y-103033172D02*
X104578013Y-103134188D01*
X104578013Y-103134188D02*
X104578013Y-103201531D01*
X104578013Y-103201531D02*
X104544341Y-103302546D01*
X104544341Y-103302546D02*
X104342310Y-103504577D01*
X104342310Y-103504577D02*
X104241295Y-103538249D01*
X104241295Y-103538249D02*
X104173952Y-103538249D01*
X114166666Y-82192580D02*
X114642856Y-82192580D01*
X114642856Y-82192580D02*
X114642856Y-83192580D01*
X113357142Y-83192580D02*
X113833332Y-83192580D01*
X113833332Y-83192580D02*
X113880951Y-82716390D01*
X113880951Y-82716390D02*
X113833332Y-82764009D01*
X113833332Y-82764009D02*
X113738094Y-82811628D01*
X113738094Y-82811628D02*
X113499999Y-82811628D01*
X113499999Y-82811628D02*
X113404761Y-82764009D01*
X113404761Y-82764009D02*
X113357142Y-82716390D01*
X113357142Y-82716390D02*
X113309523Y-82621152D01*
X113309523Y-82621152D02*
X113309523Y-82383057D01*
X113309523Y-82383057D02*
X113357142Y-82287819D01*
X113357142Y-82287819D02*
X113404761Y-82240200D01*
X113404761Y-82240200D02*
X113499999Y-82192580D01*
X113499999Y-82192580D02*
X113738094Y-82192580D01*
X113738094Y-82192580D02*
X113833332Y-82240200D01*
X113833332Y-82240200D02*
X113880951Y-82287819D01*
X103587142Y-110482180D02*
X103539523Y-110529800D01*
X103539523Y-110529800D02*
X103396666Y-110577419D01*
X103396666Y-110577419D02*
X103301428Y-110577419D01*
X103301428Y-110577419D02*
X103158571Y-110529800D01*
X103158571Y-110529800D02*
X103063333Y-110434561D01*
X103063333Y-110434561D02*
X103015714Y-110339323D01*
X103015714Y-110339323D02*
X102968095Y-110148847D01*
X102968095Y-110148847D02*
X102968095Y-110005990D01*
X102968095Y-110005990D02*
X103015714Y-109815514D01*
X103015714Y-109815514D02*
X103063333Y-109720276D01*
X103063333Y-109720276D02*
X103158571Y-109625038D01*
X103158571Y-109625038D02*
X103301428Y-109577419D01*
X103301428Y-109577419D02*
X103396666Y-109577419D01*
X103396666Y-109577419D02*
X103539523Y-109625038D01*
X103539523Y-109625038D02*
X103587142Y-109672657D01*
X104539523Y-110577419D02*
X103968095Y-110577419D01*
X104253809Y-110577419D02*
X104253809Y-109577419D01*
X104253809Y-109577419D02*
X104158571Y-109720276D01*
X104158571Y-109720276D02*
X104063333Y-109815514D01*
X104063333Y-109815514D02*
X103968095Y-109863133D01*
X105491904Y-110577419D02*
X104920476Y-110577419D01*
X105206190Y-110577419D02*
X105206190Y-109577419D01*
X105206190Y-109577419D02*
X105110952Y-109720276D01*
X105110952Y-109720276D02*
X105015714Y-109815514D01*
X105015714Y-109815514D02*
X104920476Y-109863133D01*
X109512819Y-82707142D02*
X109465200Y-82659523D01*
X109465200Y-82659523D02*
X109417580Y-82516666D01*
X109417580Y-82516666D02*
X109417580Y-82421428D01*
X109417580Y-82421428D02*
X109465200Y-82278571D01*
X109465200Y-82278571D02*
X109560438Y-82183333D01*
X109560438Y-82183333D02*
X109655676Y-82135714D01*
X109655676Y-82135714D02*
X109846152Y-82088095D01*
X109846152Y-82088095D02*
X109989009Y-82088095D01*
X109989009Y-82088095D02*
X110179485Y-82135714D01*
X110179485Y-82135714D02*
X110274723Y-82183333D01*
X110274723Y-82183333D02*
X110369961Y-82278571D01*
X110369961Y-82278571D02*
X110417580Y-82421428D01*
X110417580Y-82421428D02*
X110417580Y-82516666D01*
X110417580Y-82516666D02*
X110369961Y-82659523D01*
X110369961Y-82659523D02*
X110322342Y-82707142D01*
X110322342Y-83088095D02*
X110369961Y-83135714D01*
X110369961Y-83135714D02*
X110417580Y-83230952D01*
X110417580Y-83230952D02*
X110417580Y-83469047D01*
X110417580Y-83469047D02*
X110369961Y-83564285D01*
X110369961Y-83564285D02*
X110322342Y-83611904D01*
X110322342Y-83611904D02*
X110227104Y-83659523D01*
X110227104Y-83659523D02*
X110131866Y-83659523D01*
X110131866Y-83659523D02*
X109989009Y-83611904D01*
X109989009Y-83611904D02*
X109417580Y-83040476D01*
X109417580Y-83040476D02*
X109417580Y-83659523D01*
X110084247Y-84516666D02*
X109417580Y-84516666D01*
X110465200Y-84278571D02*
X109750914Y-84040476D01*
X109750914Y-84040476D02*
X109750914Y-84659523D01*
X99007419Y-74466666D02*
X98531228Y-74799999D01*
X99007419Y-75038094D02*
X98007419Y-75038094D01*
X98007419Y-75038094D02*
X98007419Y-74657142D01*
X98007419Y-74657142D02*
X98055038Y-74561904D01*
X98055038Y-74561904D02*
X98102657Y-74514285D01*
X98102657Y-74514285D02*
X98197895Y-74466666D01*
X98197895Y-74466666D02*
X98340752Y-74466666D01*
X98340752Y-74466666D02*
X98435990Y-74514285D01*
X98435990Y-74514285D02*
X98483609Y-74561904D01*
X98483609Y-74561904D02*
X98531228Y-74657142D01*
X98531228Y-74657142D02*
X98531228Y-75038094D01*
X99007419Y-73990475D02*
X99007419Y-73799999D01*
X99007419Y-73799999D02*
X98959800Y-73704761D01*
X98959800Y-73704761D02*
X98912180Y-73657142D01*
X98912180Y-73657142D02*
X98769323Y-73561904D01*
X98769323Y-73561904D02*
X98578847Y-73514285D01*
X98578847Y-73514285D02*
X98197895Y-73514285D01*
X98197895Y-73514285D02*
X98102657Y-73561904D01*
X98102657Y-73561904D02*
X98055038Y-73609523D01*
X98055038Y-73609523D02*
X98007419Y-73704761D01*
X98007419Y-73704761D02*
X98007419Y-73895237D01*
X98007419Y-73895237D02*
X98055038Y-73990475D01*
X98055038Y-73990475D02*
X98102657Y-74038094D01*
X98102657Y-74038094D02*
X98197895Y-74085713D01*
X98197895Y-74085713D02*
X98435990Y-74085713D01*
X98435990Y-74085713D02*
X98531228Y-74038094D01*
X98531228Y-74038094D02*
X98578847Y-73990475D01*
X98578847Y-73990475D02*
X98626466Y-73895237D01*
X98626466Y-73895237D02*
X98626466Y-73704761D01*
X98626466Y-73704761D02*
X98578847Y-73609523D01*
X98578847Y-73609523D02*
X98531228Y-73561904D01*
X98531228Y-73561904D02*
X98435990Y-73514285D01*
X104206666Y-113957819D02*
X104254285Y-113910200D01*
X104254285Y-113910200D02*
X104397142Y-113862580D01*
X104397142Y-113862580D02*
X104492380Y-113862580D01*
X104492380Y-113862580D02*
X104635237Y-113910200D01*
X104635237Y-113910200D02*
X104730475Y-114005438D01*
X104730475Y-114005438D02*
X104778094Y-114100676D01*
X104778094Y-114100676D02*
X104825713Y-114291152D01*
X104825713Y-114291152D02*
X104825713Y-114434009D01*
X104825713Y-114434009D02*
X104778094Y-114624485D01*
X104778094Y-114624485D02*
X104730475Y-114719723D01*
X104730475Y-114719723D02*
X104635237Y-114814961D01*
X104635237Y-114814961D02*
X104492380Y-114862580D01*
X104492380Y-114862580D02*
X104397142Y-114862580D01*
X104397142Y-114862580D02*
X104254285Y-114814961D01*
X104254285Y-114814961D02*
X104206666Y-114767342D01*
X103730475Y-113862580D02*
X103539999Y-113862580D01*
X103539999Y-113862580D02*
X103444761Y-113910200D01*
X103444761Y-113910200D02*
X103397142Y-113957819D01*
X103397142Y-113957819D02*
X103301904Y-114100676D01*
X103301904Y-114100676D02*
X103254285Y-114291152D01*
X103254285Y-114291152D02*
X103254285Y-114672104D01*
X103254285Y-114672104D02*
X103301904Y-114767342D01*
X103301904Y-114767342D02*
X103349523Y-114814961D01*
X103349523Y-114814961D02*
X103444761Y-114862580D01*
X103444761Y-114862580D02*
X103635237Y-114862580D01*
X103635237Y-114862580D02*
X103730475Y-114814961D01*
X103730475Y-114814961D02*
X103778094Y-114767342D01*
X103778094Y-114767342D02*
X103825713Y-114672104D01*
X103825713Y-114672104D02*
X103825713Y-114434009D01*
X103825713Y-114434009D02*
X103778094Y-114338771D01*
X103778094Y-114338771D02*
X103730475Y-114291152D01*
X103730475Y-114291152D02*
X103635237Y-114243533D01*
X103635237Y-114243533D02*
X103444761Y-114243533D01*
X103444761Y-114243533D02*
X103349523Y-114291152D01*
X103349523Y-114291152D02*
X103301904Y-114338771D01*
X103301904Y-114338771D02*
X103254285Y-114434009D01*
X127034641Y-90245074D02*
X127023966Y-90094868D01*
X127023966Y-90094868D02*
X126932851Y-89874897D01*
X126932851Y-89874897D02*
X126852411Y-89805131D01*
X126852411Y-89805131D02*
X126790193Y-89779360D01*
X126790193Y-89779360D02*
X126683982Y-89771812D01*
X126683982Y-89771812D02*
X126595993Y-89808258D01*
X126595993Y-89808258D02*
X126526228Y-89888698D01*
X126526228Y-89888698D02*
X126500456Y-89950915D01*
X126500456Y-89950915D02*
X126492908Y-90057127D01*
X126492908Y-90057127D02*
X126521806Y-90251327D01*
X126521806Y-90251327D02*
X126514258Y-90357538D01*
X126514258Y-90357538D02*
X126488487Y-90419756D01*
X126488487Y-90419756D02*
X126418721Y-90500196D01*
X126418721Y-90500196D02*
X126330732Y-90536642D01*
X126330732Y-90536642D02*
X126224521Y-90529094D01*
X126224521Y-90529094D02*
X126162304Y-90503323D01*
X126162304Y-90503323D02*
X126081863Y-90433557D01*
X126081863Y-90433557D02*
X125990748Y-90213586D01*
X125990748Y-90213586D02*
X125980073Y-90063380D01*
X125808518Y-89773643D02*
X126641282Y-89170988D01*
X126641282Y-89170988D02*
X125908476Y-89268357D01*
X125908476Y-89268357D02*
X126495498Y-88819034D01*
X126495498Y-88819034D02*
X125480504Y-88981746D01*
X125371166Y-88717781D02*
X125134266Y-88145855D01*
X125134266Y-88145855D02*
X125613782Y-88308031D01*
X125613782Y-88308031D02*
X125559113Y-88176048D01*
X125559113Y-88176048D02*
X125566661Y-88069837D01*
X125566661Y-88069837D02*
X125592432Y-88007620D01*
X125592432Y-88007620D02*
X125662197Y-87927179D01*
X125662197Y-87927179D02*
X125882169Y-87836064D01*
X125882169Y-87836064D02*
X125988380Y-87843612D01*
X125988380Y-87843612D02*
X126050598Y-87869384D01*
X126050598Y-87869384D02*
X126131038Y-87939149D01*
X126131038Y-87939149D02*
X126240376Y-88203115D01*
X126240376Y-88203115D02*
X126232828Y-88309326D01*
X126232828Y-88309326D02*
X126207057Y-88371544D01*
X112562180Y-83867857D02*
X112609800Y-83915476D01*
X112609800Y-83915476D02*
X112657419Y-84058333D01*
X112657419Y-84058333D02*
X112657419Y-84153571D01*
X112657419Y-84153571D02*
X112609800Y-84296428D01*
X112609800Y-84296428D02*
X112514561Y-84391666D01*
X112514561Y-84391666D02*
X112419323Y-84439285D01*
X112419323Y-84439285D02*
X112228847Y-84486904D01*
X112228847Y-84486904D02*
X112085990Y-84486904D01*
X112085990Y-84486904D02*
X111895514Y-84439285D01*
X111895514Y-84439285D02*
X111800276Y-84391666D01*
X111800276Y-84391666D02*
X111705038Y-84296428D01*
X111705038Y-84296428D02*
X111657419Y-84153571D01*
X111657419Y-84153571D02*
X111657419Y-84058333D01*
X111657419Y-84058333D02*
X111705038Y-83915476D01*
X111705038Y-83915476D02*
X111752657Y-83867857D01*
X111752657Y-83486904D02*
X111705038Y-83439285D01*
X111705038Y-83439285D02*
X111657419Y-83344047D01*
X111657419Y-83344047D02*
X111657419Y-83105952D01*
X111657419Y-83105952D02*
X111705038Y-83010714D01*
X111705038Y-83010714D02*
X111752657Y-82963095D01*
X111752657Y-82963095D02*
X111847895Y-82915476D01*
X111847895Y-82915476D02*
X111943133Y-82915476D01*
X111943133Y-82915476D02*
X112085990Y-82963095D01*
X112085990Y-82963095D02*
X112657419Y-83534523D01*
X112657419Y-83534523D02*
X112657419Y-82915476D01*
X111752657Y-82534523D02*
X111705038Y-82486904D01*
X111705038Y-82486904D02*
X111657419Y-82391666D01*
X111657419Y-82391666D02*
X111657419Y-82153571D01*
X111657419Y-82153571D02*
X111705038Y-82058333D01*
X111705038Y-82058333D02*
X111752657Y-82010714D01*
X111752657Y-82010714D02*
X111847895Y-81963095D01*
X111847895Y-81963095D02*
X111943133Y-81963095D01*
X111943133Y-81963095D02*
X112085990Y-82010714D01*
X112085990Y-82010714D02*
X112657419Y-82582142D01*
X112657419Y-82582142D02*
X112657419Y-81963095D01*
X128992580Y-99611905D02*
X129992580Y-99611905D01*
X129992580Y-99611905D02*
X129992580Y-99850000D01*
X129992580Y-99850000D02*
X129944961Y-99992857D01*
X129944961Y-99992857D02*
X129849723Y-100088095D01*
X129849723Y-100088095D02*
X129754485Y-100135714D01*
X129754485Y-100135714D02*
X129564009Y-100183333D01*
X129564009Y-100183333D02*
X129421152Y-100183333D01*
X129421152Y-100183333D02*
X129230676Y-100135714D01*
X129230676Y-100135714D02*
X129135438Y-100088095D01*
X129135438Y-100088095D02*
X129040200Y-99992857D01*
X129040200Y-99992857D02*
X128992580Y-99850000D01*
X128992580Y-99850000D02*
X128992580Y-99611905D01*
X129992580Y-100516667D02*
X129992580Y-101135714D01*
X129992580Y-101135714D02*
X129611628Y-100802381D01*
X129611628Y-100802381D02*
X129611628Y-100945238D01*
X129611628Y-100945238D02*
X129564009Y-101040476D01*
X129564009Y-101040476D02*
X129516390Y-101088095D01*
X129516390Y-101088095D02*
X129421152Y-101135714D01*
X129421152Y-101135714D02*
X129183057Y-101135714D01*
X129183057Y-101135714D02*
X129087819Y-101088095D01*
X129087819Y-101088095D02*
X129040200Y-101040476D01*
X129040200Y-101040476D02*
X128992580Y-100945238D01*
X128992580Y-100945238D02*
X128992580Y-100659524D01*
X128992580Y-100659524D02*
X129040200Y-100564286D01*
X129040200Y-100564286D02*
X129087819Y-100516667D01*
X101617819Y-111027142D02*
X101570200Y-110979523D01*
X101570200Y-110979523D02*
X101522580Y-110836666D01*
X101522580Y-110836666D02*
X101522580Y-110741428D01*
X101522580Y-110741428D02*
X101570200Y-110598571D01*
X101570200Y-110598571D02*
X101665438Y-110503333D01*
X101665438Y-110503333D02*
X101760676Y-110455714D01*
X101760676Y-110455714D02*
X101951152Y-110408095D01*
X101951152Y-110408095D02*
X102094009Y-110408095D01*
X102094009Y-110408095D02*
X102284485Y-110455714D01*
X102284485Y-110455714D02*
X102379723Y-110503333D01*
X102379723Y-110503333D02*
X102474961Y-110598571D01*
X102474961Y-110598571D02*
X102522580Y-110741428D01*
X102522580Y-110741428D02*
X102522580Y-110836666D01*
X102522580Y-110836666D02*
X102474961Y-110979523D01*
X102474961Y-110979523D02*
X102427342Y-111027142D01*
X101522580Y-111979523D02*
X101522580Y-111408095D01*
X101522580Y-111693809D02*
X102522580Y-111693809D01*
X102522580Y-111693809D02*
X102379723Y-111598571D01*
X102379723Y-111598571D02*
X102284485Y-111503333D01*
X102284485Y-111503333D02*
X102236866Y-111408095D01*
X102522580Y-112598571D02*
X102522580Y-112693809D01*
X102522580Y-112693809D02*
X102474961Y-112789047D01*
X102474961Y-112789047D02*
X102427342Y-112836666D01*
X102427342Y-112836666D02*
X102332104Y-112884285D01*
X102332104Y-112884285D02*
X102141628Y-112931904D01*
X102141628Y-112931904D02*
X101903533Y-112931904D01*
X101903533Y-112931904D02*
X101713057Y-112884285D01*
X101713057Y-112884285D02*
X101617819Y-112836666D01*
X101617819Y-112836666D02*
X101570200Y-112789047D01*
X101570200Y-112789047D02*
X101522580Y-112693809D01*
X101522580Y-112693809D02*
X101522580Y-112598571D01*
X101522580Y-112598571D02*
X101570200Y-112503333D01*
X101570200Y-112503333D02*
X101617819Y-112455714D01*
X101617819Y-112455714D02*
X101713057Y-112408095D01*
X101713057Y-112408095D02*
X101903533Y-112360476D01*
X101903533Y-112360476D02*
X102141628Y-112360476D01*
X102141628Y-112360476D02*
X102332104Y-112408095D01*
X102332104Y-112408095D02*
X102427342Y-112455714D01*
X102427342Y-112455714D02*
X102474961Y-112503333D01*
X102474961Y-112503333D02*
X102522580Y-112598571D01*
X106737653Y-77262180D02*
X106690034Y-77309800D01*
X106690034Y-77309800D02*
X106547177Y-77357419D01*
X106547177Y-77357419D02*
X106451939Y-77357419D01*
X106451939Y-77357419D02*
X106309082Y-77309800D01*
X106309082Y-77309800D02*
X106213844Y-77214561D01*
X106213844Y-77214561D02*
X106166225Y-77119323D01*
X106166225Y-77119323D02*
X106118606Y-76928847D01*
X106118606Y-76928847D02*
X106118606Y-76785990D01*
X106118606Y-76785990D02*
X106166225Y-76595514D01*
X106166225Y-76595514D02*
X106213844Y-76500276D01*
X106213844Y-76500276D02*
X106309082Y-76405038D01*
X106309082Y-76405038D02*
X106451939Y-76357419D01*
X106451939Y-76357419D02*
X106547177Y-76357419D01*
X106547177Y-76357419D02*
X106690034Y-76405038D01*
X106690034Y-76405038D02*
X106737653Y-76452657D01*
X107690034Y-77357419D02*
X107118606Y-77357419D01*
X107404320Y-77357419D02*
X107404320Y-76357419D01*
X107404320Y-76357419D02*
X107309082Y-76500276D01*
X107309082Y-76500276D02*
X107213844Y-76595514D01*
X107213844Y-76595514D02*
X107118606Y-76643133D01*
X108547177Y-76690752D02*
X108547177Y-77357419D01*
X108309082Y-76309800D02*
X108070987Y-77024085D01*
X108070987Y-77024085D02*
X108690034Y-77024085D01*
X120226426Y-79224725D02*
X120933532Y-78517618D01*
X120933532Y-78517618D02*
X121101891Y-78685977D01*
X121101891Y-78685977D02*
X121169235Y-78820664D01*
X121169235Y-78820664D02*
X121169235Y-78955351D01*
X121169235Y-78955351D02*
X121135563Y-79056366D01*
X121135563Y-79056366D02*
X121034548Y-79224725D01*
X121034548Y-79224725D02*
X120933532Y-79325740D01*
X120933532Y-79325740D02*
X120765174Y-79426755D01*
X120765174Y-79426755D02*
X120664158Y-79460427D01*
X120664158Y-79460427D02*
X120529471Y-79460427D01*
X120529471Y-79460427D02*
X120394784Y-79393084D01*
X120394784Y-79393084D02*
X120226426Y-79224725D01*
X121707983Y-79763473D02*
X121236578Y-80234877D01*
X121808998Y-79325740D02*
X121135563Y-79662458D01*
X121135563Y-79662458D02*
X121573296Y-80100190D01*
X79773573Y-120775274D02*
X79066467Y-121482381D01*
X79066467Y-121482381D02*
X78898108Y-121314022D01*
X78898108Y-121314022D02*
X78830764Y-121179335D01*
X78830764Y-121179335D02*
X78830764Y-121044648D01*
X78830764Y-121044648D02*
X78864436Y-120943633D01*
X78864436Y-120943633D02*
X78965451Y-120775274D01*
X78965451Y-120775274D02*
X79066467Y-120674259D01*
X79066467Y-120674259D02*
X79234825Y-120573244D01*
X79234825Y-120573244D02*
X79335841Y-120539572D01*
X79335841Y-120539572D02*
X79470528Y-120539572D01*
X79470528Y-120539572D02*
X79605215Y-120606915D01*
X79605215Y-120606915D02*
X79773573Y-120775274D01*
X78561390Y-120371213D02*
X78595062Y-120472228D01*
X78595062Y-120472228D02*
X78595062Y-120539572D01*
X78595062Y-120539572D02*
X78561390Y-120640587D01*
X78561390Y-120640587D02*
X78527719Y-120674259D01*
X78527719Y-120674259D02*
X78426703Y-120707931D01*
X78426703Y-120707931D02*
X78359360Y-120707931D01*
X78359360Y-120707931D02*
X78258345Y-120674259D01*
X78258345Y-120674259D02*
X78123658Y-120539572D01*
X78123658Y-120539572D02*
X78089986Y-120438557D01*
X78089986Y-120438557D02*
X78089986Y-120371213D01*
X78089986Y-120371213D02*
X78123658Y-120270198D01*
X78123658Y-120270198D02*
X78157329Y-120236526D01*
X78157329Y-120236526D02*
X78258345Y-120202854D01*
X78258345Y-120202854D02*
X78325688Y-120202854D01*
X78325688Y-120202854D02*
X78426703Y-120236526D01*
X78426703Y-120236526D02*
X78561390Y-120371213D01*
X78561390Y-120371213D02*
X78662406Y-120404885D01*
X78662406Y-120404885D02*
X78729749Y-120404885D01*
X78729749Y-120404885D02*
X78830764Y-120371213D01*
X78830764Y-120371213D02*
X78965451Y-120236526D01*
X78965451Y-120236526D02*
X78999123Y-120135511D01*
X78999123Y-120135511D02*
X78999123Y-120068167D01*
X78999123Y-120068167D02*
X78965451Y-119967152D01*
X78965451Y-119967152D02*
X78830764Y-119832465D01*
X78830764Y-119832465D02*
X78729749Y-119798793D01*
X78729749Y-119798793D02*
X78662406Y-119798793D01*
X78662406Y-119798793D02*
X78561390Y-119832465D01*
X78561390Y-119832465D02*
X78426703Y-119967152D01*
X78426703Y-119967152D02*
X78393032Y-120068167D01*
X78393032Y-120068167D02*
X78393032Y-120135511D01*
X78393032Y-120135511D02*
X78426703Y-120236526D01*
X93488095Y-126057419D02*
X93488095Y-126866942D01*
X93488095Y-126866942D02*
X93535714Y-126962180D01*
X93535714Y-126962180D02*
X93583333Y-127009800D01*
X93583333Y-127009800D02*
X93678571Y-127057419D01*
X93678571Y-127057419D02*
X93869047Y-127057419D01*
X93869047Y-127057419D02*
X93964285Y-127009800D01*
X93964285Y-127009800D02*
X94011904Y-126962180D01*
X94011904Y-126962180D02*
X94059523Y-126866942D01*
X94059523Y-126866942D02*
X94059523Y-126057419D01*
X94440476Y-126057419D02*
X95107142Y-126057419D01*
X95107142Y-126057419D02*
X94678571Y-127057419D01*
X114166666Y-83317580D02*
X114642856Y-83317580D01*
X114642856Y-83317580D02*
X114642856Y-84317580D01*
X113404761Y-84317580D02*
X113595237Y-84317580D01*
X113595237Y-84317580D02*
X113690475Y-84269961D01*
X113690475Y-84269961D02*
X113738094Y-84222342D01*
X113738094Y-84222342D02*
X113833332Y-84079485D01*
X113833332Y-84079485D02*
X113880951Y-83889009D01*
X113880951Y-83889009D02*
X113880951Y-83508057D01*
X113880951Y-83508057D02*
X113833332Y-83412819D01*
X113833332Y-83412819D02*
X113785713Y-83365200D01*
X113785713Y-83365200D02*
X113690475Y-83317580D01*
X113690475Y-83317580D02*
X113499999Y-83317580D01*
X113499999Y-83317580D02*
X113404761Y-83365200D01*
X113404761Y-83365200D02*
X113357142Y-83412819D01*
X113357142Y-83412819D02*
X113309523Y-83508057D01*
X113309523Y-83508057D02*
X113309523Y-83746152D01*
X113309523Y-83746152D02*
X113357142Y-83841390D01*
X113357142Y-83841390D02*
X113404761Y-83889009D01*
X113404761Y-83889009D02*
X113499999Y-83936628D01*
X113499999Y-83936628D02*
X113690475Y-83936628D01*
X113690475Y-83936628D02*
X113785713Y-83889009D01*
X113785713Y-83889009D02*
X113833332Y-83841390D01*
X113833332Y-83841390D02*
X113880951Y-83746152D01*
X105517819Y-112003333D02*
X105470200Y-111955714D01*
X105470200Y-111955714D02*
X105422580Y-111812857D01*
X105422580Y-111812857D02*
X105422580Y-111717619D01*
X105422580Y-111717619D02*
X105470200Y-111574762D01*
X105470200Y-111574762D02*
X105565438Y-111479524D01*
X105565438Y-111479524D02*
X105660676Y-111431905D01*
X105660676Y-111431905D02*
X105851152Y-111384286D01*
X105851152Y-111384286D02*
X105994009Y-111384286D01*
X105994009Y-111384286D02*
X106184485Y-111431905D01*
X106184485Y-111431905D02*
X106279723Y-111479524D01*
X106279723Y-111479524D02*
X106374961Y-111574762D01*
X106374961Y-111574762D02*
X106422580Y-111717619D01*
X106422580Y-111717619D02*
X106422580Y-111812857D01*
X106422580Y-111812857D02*
X106374961Y-111955714D01*
X106374961Y-111955714D02*
X106327342Y-112003333D01*
X105994009Y-112574762D02*
X106041628Y-112479524D01*
X106041628Y-112479524D02*
X106089247Y-112431905D01*
X106089247Y-112431905D02*
X106184485Y-112384286D01*
X106184485Y-112384286D02*
X106232104Y-112384286D01*
X106232104Y-112384286D02*
X106327342Y-112431905D01*
X106327342Y-112431905D02*
X106374961Y-112479524D01*
X106374961Y-112479524D02*
X106422580Y-112574762D01*
X106422580Y-112574762D02*
X106422580Y-112765238D01*
X106422580Y-112765238D02*
X106374961Y-112860476D01*
X106374961Y-112860476D02*
X106327342Y-112908095D01*
X106327342Y-112908095D02*
X106232104Y-112955714D01*
X106232104Y-112955714D02*
X106184485Y-112955714D01*
X106184485Y-112955714D02*
X106089247Y-112908095D01*
X106089247Y-112908095D02*
X106041628Y-112860476D01*
X106041628Y-112860476D02*
X105994009Y-112765238D01*
X105994009Y-112765238D02*
X105994009Y-112574762D01*
X105994009Y-112574762D02*
X105946390Y-112479524D01*
X105946390Y-112479524D02*
X105898771Y-112431905D01*
X105898771Y-112431905D02*
X105803533Y-112384286D01*
X105803533Y-112384286D02*
X105613057Y-112384286D01*
X105613057Y-112384286D02*
X105517819Y-112431905D01*
X105517819Y-112431905D02*
X105470200Y-112479524D01*
X105470200Y-112479524D02*
X105422580Y-112574762D01*
X105422580Y-112574762D02*
X105422580Y-112765238D01*
X105422580Y-112765238D02*
X105470200Y-112860476D01*
X105470200Y-112860476D02*
X105517819Y-112908095D01*
X105517819Y-112908095D02*
X105613057Y-112955714D01*
X105613057Y-112955714D02*
X105803533Y-112955714D01*
X105803533Y-112955714D02*
X105898771Y-112908095D01*
X105898771Y-112908095D02*
X105946390Y-112860476D01*
X105946390Y-112860476D02*
X105994009Y-112765238D01*
X107392415Y-82892580D02*
X107392415Y-82083057D01*
X107392415Y-82083057D02*
X107344796Y-81987819D01*
X107344796Y-81987819D02*
X107297177Y-81940200D01*
X107297177Y-81940200D02*
X107201939Y-81892580D01*
X107201939Y-81892580D02*
X107011463Y-81892580D01*
X107011463Y-81892580D02*
X106916225Y-81940200D01*
X106916225Y-81940200D02*
X106868606Y-81987819D01*
X106868606Y-81987819D02*
X106820987Y-82083057D01*
X106820987Y-82083057D02*
X106820987Y-82892580D01*
X106297177Y-81892580D02*
X106106701Y-81892580D01*
X106106701Y-81892580D02*
X106011463Y-81940200D01*
X106011463Y-81940200D02*
X105963844Y-81987819D01*
X105963844Y-81987819D02*
X105868606Y-82130676D01*
X105868606Y-82130676D02*
X105820987Y-82321152D01*
X105820987Y-82321152D02*
X105820987Y-82702104D01*
X105820987Y-82702104D02*
X105868606Y-82797342D01*
X105868606Y-82797342D02*
X105916225Y-82844961D01*
X105916225Y-82844961D02*
X106011463Y-82892580D01*
X106011463Y-82892580D02*
X106201939Y-82892580D01*
X106201939Y-82892580D02*
X106297177Y-82844961D01*
X106297177Y-82844961D02*
X106344796Y-82797342D01*
X106344796Y-82797342D02*
X106392415Y-82702104D01*
X106392415Y-82702104D02*
X106392415Y-82464009D01*
X106392415Y-82464009D02*
X106344796Y-82368771D01*
X106344796Y-82368771D02*
X106297177Y-82321152D01*
X106297177Y-82321152D02*
X106201939Y-82273533D01*
X106201939Y-82273533D02*
X106011463Y-82273533D01*
X106011463Y-82273533D02*
X105916225Y-82321152D01*
X105916225Y-82321152D02*
X105868606Y-82368771D01*
X105868606Y-82368771D02*
X105820987Y-82464009D01*
X73985847Y-87781396D02*
X73887184Y-87895156D01*
X73887184Y-87895156D02*
X73796069Y-88115127D01*
X73796069Y-88115127D02*
X73803617Y-88221339D01*
X73803617Y-88221339D02*
X73829388Y-88283556D01*
X73829388Y-88283556D02*
X73899154Y-88363996D01*
X73899154Y-88363996D02*
X73987142Y-88400442D01*
X73987142Y-88400442D02*
X74093354Y-88392894D01*
X74093354Y-88392894D02*
X74155571Y-88367123D01*
X74155571Y-88367123D02*
X74236011Y-88297357D01*
X74236011Y-88297357D02*
X74352898Y-88139603D01*
X74352898Y-88139603D02*
X74433338Y-88069838D01*
X74433338Y-88069838D02*
X74495555Y-88044066D01*
X74495555Y-88044066D02*
X74601767Y-88036518D01*
X74601767Y-88036518D02*
X74689755Y-88072964D01*
X74689755Y-88072964D02*
X74759521Y-88153405D01*
X74759521Y-88153405D02*
X74785292Y-88215622D01*
X74785292Y-88215622D02*
X74792840Y-88321833D01*
X74792840Y-88321833D02*
X74701725Y-88541805D01*
X74701725Y-88541805D02*
X74603062Y-88655564D01*
X74519495Y-88981747D02*
X73504500Y-88819035D01*
X73504500Y-88819035D02*
X74091522Y-89268358D01*
X74091522Y-89268358D02*
X73358716Y-89170989D01*
X73358716Y-89170989D02*
X74191481Y-89773644D01*
X73975931Y-90045158D02*
X74001702Y-90107375D01*
X74001702Y-90107375D02*
X74009250Y-90213587D01*
X74009250Y-90213587D02*
X73918135Y-90433558D01*
X73918135Y-90433558D02*
X73837695Y-90503323D01*
X73837695Y-90503323D02*
X73775478Y-90529095D01*
X73775478Y-90529095D02*
X73669266Y-90536643D01*
X73669266Y-90536643D02*
X73581278Y-90500197D01*
X73581278Y-90500197D02*
X73467518Y-90401534D01*
X73467518Y-90401534D02*
X73158263Y-89654926D01*
X73158263Y-89654926D02*
X72921364Y-90226852D01*
X113692580Y-88911905D02*
X112883057Y-88911905D01*
X112883057Y-88911905D02*
X112787819Y-88959524D01*
X112787819Y-88959524D02*
X112740200Y-89007143D01*
X112740200Y-89007143D02*
X112692580Y-89102381D01*
X112692580Y-89102381D02*
X112692580Y-89292857D01*
X112692580Y-89292857D02*
X112740200Y-89388095D01*
X112740200Y-89388095D02*
X112787819Y-89435714D01*
X112787819Y-89435714D02*
X112883057Y-89483333D01*
X112883057Y-89483333D02*
X113692580Y-89483333D01*
X112692580Y-90483333D02*
X112692580Y-89911905D01*
X112692580Y-90197619D02*
X113692580Y-90197619D01*
X113692580Y-90197619D02*
X113549723Y-90102381D01*
X113549723Y-90102381D02*
X113454485Y-90007143D01*
X113454485Y-90007143D02*
X113406866Y-89911905D01*
X113692580Y-91102381D02*
X113692580Y-91197619D01*
X113692580Y-91197619D02*
X113644961Y-91292857D01*
X113644961Y-91292857D02*
X113597342Y-91340476D01*
X113597342Y-91340476D02*
X113502104Y-91388095D01*
X113502104Y-91388095D02*
X113311628Y-91435714D01*
X113311628Y-91435714D02*
X113073533Y-91435714D01*
X113073533Y-91435714D02*
X112883057Y-91388095D01*
X112883057Y-91388095D02*
X112787819Y-91340476D01*
X112787819Y-91340476D02*
X112740200Y-91292857D01*
X112740200Y-91292857D02*
X112692580Y-91197619D01*
X112692580Y-91197619D02*
X112692580Y-91102381D01*
X112692580Y-91102381D02*
X112740200Y-91007143D01*
X112740200Y-91007143D02*
X112787819Y-90959524D01*
X112787819Y-90959524D02*
X112883057Y-90911905D01*
X112883057Y-90911905D02*
X113073533Y-90864286D01*
X113073533Y-90864286D02*
X113311628Y-90864286D01*
X113311628Y-90864286D02*
X113502104Y-90911905D01*
X113502104Y-90911905D02*
X113597342Y-90959524D01*
X113597342Y-90959524D02*
X113644961Y-91007143D01*
X113644961Y-91007143D02*
X113692580Y-91102381D01*
%TO.C,CN4*%
X82812403Y-75600838D02*
X86092175Y-74242312D01*
D11*
X83845648Y-78095313D02*
X84955430Y-80774563D01*
X86103480Y-83546202D02*
X86907115Y-85486349D01*
X88811800Y-88323417D02*
X89737527Y-87939968D01*
D10*
X87293218Y-73744823D02*
X94915224Y-70587685D01*
D11*
X95047986Y-85740303D02*
X99669232Y-83826121D01*
D12*
X86764980Y-74005048D02*
G75*
G02*
X86564980Y-74005048I-100000J0D01*
G01*
X86564980Y-74005048D02*
G75*
G02*
X86764980Y-74005048I100000J0D01*
G01*
D10*
%TO.C,C12*%
X108830511Y-75350000D02*
X108830511Y-75050000D01*
X109630511Y-75050000D02*
X109630511Y-75350000D01*
%TO.C,L2*%
X103690033Y-105496278D02*
G75*
G02*
X108712836Y-105503210I2509966J-1043721D01*
G01*
X108709999Y-107520000D02*
G75*
G02*
X103687196Y-107513068I-2509966J1043721D01*
G01*
D12*
X109070000Y-107580000D02*
G75*
G02*
X108970000Y-107580000I-50000J0D01*
G01*
X108970000Y-107580000D02*
G75*
G02*
X109070000Y-107580000I50000J0D01*
G01*
D10*
%TO.C,SW1*%
X105764173Y-127242888D02*
X107562785Y-131585122D01*
X105764173Y-127242888D02*
X115187744Y-123339517D01*
X107562785Y-131585122D02*
X116986357Y-127681751D01*
X115187744Y-123339517D02*
X116986357Y-127681751D01*
%TO.C,U2*%
X101630511Y-73850000D02*
X101630511Y-73900000D01*
X101630511Y-75950000D02*
X101630511Y-75900000D01*
X103480511Y-75950000D02*
X101630511Y-75950000D01*
X103830511Y-73850000D02*
X101630511Y-73850000D01*
X103830511Y-73850000D02*
X103830511Y-73900000D01*
D12*
X103780511Y-75950000D02*
G75*
G02*
X103680511Y-75950000I-50000J0D01*
G01*
X103680511Y-75950000D02*
G75*
G02*
X103780511Y-75950000I50000J0D01*
G01*
D13*
%TO.C,C20*%
X111559419Y-113790000D02*
X111840579Y-113790000D01*
X111559419Y-114810000D02*
X111840579Y-114810000D01*
D10*
%TO.C,R5*%
X105130511Y-72690000D02*
X105130511Y-72390000D01*
X105930511Y-72390000D02*
X105930511Y-72690000D01*
%TO.C,ANT1*%
X100600000Y-89400000D02*
X75600000Y-89400000D01*
X75600000Y-114400000D01*
X100600000Y-114400000D01*
X100600000Y-89400000D01*
D13*
%TO.C,C25*%
X111884420Y-108090000D02*
X112165580Y-108090000D01*
X111884420Y-109110000D02*
X112165580Y-109110000D01*
D10*
%TO.C,C30*%
X109580511Y-73300000D02*
X109880511Y-73300000D01*
X109880511Y-74100000D02*
X109580511Y-74100000D01*
%TO.C,U4*%
X112150000Y-102100000D02*
X110950000Y-102100000D01*
X112150000Y-103950000D02*
X112150000Y-103250000D01*
X112150000Y-105100000D02*
X110550000Y-105100000D01*
D12*
X110650000Y-102100000D02*
G75*
G02*
X110550000Y-102100000I-50000J0D01*
G01*
X110550000Y-102100000D02*
G75*
G02*
X110650000Y-102100000I50000J0D01*
G01*
D10*
%TO.C,R10*%
X99250000Y-76260000D02*
X99250000Y-75960000D01*
X100050000Y-75960000D02*
X100050000Y-76260000D01*
%TO.C,D1*%
X97400000Y-128800000D02*
X97400000Y-130200000D01*
X97500000Y-126900000D02*
X102500000Y-126900000D01*
X102150000Y-132100000D02*
X97500000Y-132100000D01*
X102600000Y-128800000D02*
X102600000Y-130200000D01*
D12*
X102550000Y-132100000D02*
G75*
G02*
X102450000Y-132100000I-50000J0D01*
G01*
X102450000Y-132100000D02*
G75*
G02*
X102550000Y-132100000I50000J0D01*
G01*
D10*
%TO.C,R1*%
X108150000Y-101700000D02*
X108450000Y-101700000D01*
X108450000Y-102500000D02*
X108150000Y-102500000D01*
%TO.C,U8*%
X111199999Y-111000000D02*
X111199999Y-111150000D01*
X111199999Y-113250000D02*
X111199999Y-113400000D01*
X111199999Y-113400000D02*
X112449999Y-113400000D01*
X112799999Y-111000000D02*
X111199999Y-111000000D01*
X112799999Y-111150000D02*
X112799999Y-111000000D01*
D12*
X112749999Y-113400000D02*
G75*
G02*
X112649999Y-113400000I-50000J0D01*
G01*
X112649999Y-113400000D02*
G75*
G02*
X112749999Y-113400000I50000J0D01*
G01*
D10*
%TO.C,D5*%
X97400000Y-71200000D02*
X97400000Y-69800000D01*
X97850000Y-67900000D02*
X102500000Y-67900000D01*
X102500000Y-73100000D02*
X97500000Y-73100000D01*
X102600000Y-71200000D02*
X102600000Y-69800000D01*
D12*
X97550000Y-67900000D02*
G75*
G02*
X97450000Y-67900000I-50000J0D01*
G01*
X97450000Y-67900000D02*
G75*
G02*
X97550000Y-67900000I50000J0D01*
G01*
D13*
%TO.C,C19*%
X111884419Y-109590000D02*
X112165579Y-109590000D01*
X111884419Y-110610000D02*
X112165579Y-110610000D01*
%TO.C,C15*%
X109184420Y-121190000D02*
X109465580Y-121190000D01*
X109184420Y-122210000D02*
X109465580Y-122210000D01*
D10*
%TO.C,D9*%
X87400000Y-117300000D02*
X87400000Y-118700000D01*
X87500000Y-115400000D02*
X92500000Y-115400000D01*
X92150000Y-120600000D02*
X87500000Y-120600000D01*
X92600000Y-117300000D02*
X92600000Y-118700000D01*
D12*
X92550000Y-120600000D02*
G75*
G02*
X92450000Y-120600000I-50000J0D01*
G01*
X92450000Y-120600000D02*
G75*
G02*
X92550000Y-120600000I50000J0D01*
G01*
D10*
%TO.C,D6*%
X75781593Y-78822152D02*
X79069639Y-75534105D01*
X77796847Y-81473802D02*
X76806898Y-80483853D01*
X81473802Y-77796847D02*
X80483853Y-76806898D01*
X82746595Y-79211061D02*
X79211061Y-82746595D01*
D12*
X75584105Y-79069639D02*
G75*
G02*
X75484105Y-79069639I-50000J0D01*
G01*
X75484105Y-79069639D02*
G75*
G02*
X75584105Y-79069639I50000J0D01*
G01*
D13*
%TO.C,C2*%
X112640580Y-105790000D02*
X112359420Y-105790000D01*
X112640580Y-106810000D02*
X112359420Y-106810000D01*
%TO.C,C18*%
X107196091Y-81890000D02*
X106914931Y-81890000D01*
X107196091Y-82910000D02*
X106914931Y-82910000D01*
D10*
%TO.C,R4*%
X113500000Y-104640000D02*
X113500000Y-104340000D01*
X114300000Y-104340000D02*
X114300000Y-104640000D01*
%TO.C,C21*%
X110500000Y-83450000D02*
X110500000Y-83150000D01*
X111300000Y-83150000D02*
X111300000Y-83450000D01*
%TO.C,R8*%
X101190511Y-76300000D02*
X101490511Y-76300000D01*
X101490511Y-77100000D02*
X101190511Y-77100000D01*
%TO.C,C7*%
X109840511Y-75360000D02*
X109840511Y-75060000D01*
X110640511Y-75060000D02*
X110640511Y-75360000D01*
D13*
%TO.C,C23*%
X115290000Y-83009420D02*
X115290000Y-83290580D01*
X116310000Y-83009420D02*
X116310000Y-83290580D01*
D10*
%TO.C,D10*%
X97400000Y-117300000D02*
X97400000Y-118700000D01*
X97500000Y-115400000D02*
X102500000Y-115400000D01*
X102150000Y-120600000D02*
X97500000Y-120600000D01*
X102600000Y-117300000D02*
X102600000Y-118700000D01*
D12*
X102550000Y-120600000D02*
G75*
G02*
X102450000Y-120600000I-50000J0D01*
G01*
X102450000Y-120600000D02*
G75*
G02*
X102550000Y-120600000I50000J0D01*
G01*
D10*
%TO.C,R3*%
X113500000Y-102560000D02*
X113500000Y-102260000D01*
X114300000Y-102260000D02*
X114300000Y-102560000D01*
%TO.C,C13*%
X108930511Y-79790000D02*
X108930511Y-79490000D01*
X109730511Y-79490000D02*
X109730511Y-79790000D01*
%TO.C,D11*%
X107400000Y-117300000D02*
X107400000Y-118700000D01*
X107500000Y-115400000D02*
X112500000Y-115400000D01*
X112150000Y-120600000D02*
X107500000Y-120600000D01*
X112600000Y-117300000D02*
X112600000Y-118700000D01*
D12*
X112550000Y-120600000D02*
G75*
G02*
X112450000Y-120600000I-50000J0D01*
G01*
X112450000Y-120600000D02*
G75*
G02*
X112550000Y-120600000I50000J0D01*
G01*
D10*
%TO.C,D2*%
X117253405Y-120788939D02*
X120788939Y-117253405D01*
X118526198Y-122203153D02*
X119516147Y-123193102D01*
X122203153Y-118526198D02*
X123193102Y-119516147D01*
X124218407Y-121177848D02*
X120930361Y-124465895D01*
D12*
X124515895Y-120930361D02*
G75*
G02*
X124415895Y-120930361I-50000J0D01*
G01*
X124415895Y-120930361D02*
G75*
G02*
X124515895Y-120930361I50000J0D01*
G01*
D10*
%TO.C,U13*%
X102849999Y-111252500D02*
X102849999Y-112852500D01*
X105049999Y-111252500D02*
X105049999Y-113252500D01*
D12*
X102899999Y-113152500D02*
G75*
G02*
X102799999Y-113152500I-50000J0D01*
G01*
X102799999Y-113152500D02*
G75*
G02*
X102899999Y-113152500I50000J0D01*
G01*
D10*
%TO.C,R7*%
X104030511Y-72690000D02*
X104030511Y-72390000D01*
X104830511Y-72390000D02*
X104830511Y-72690000D01*
%TO.C,L4*%
X106799999Y-114500000D02*
X106799999Y-111500000D01*
X109999999Y-114200000D02*
X109999999Y-111500000D01*
D12*
X110049999Y-114500000D02*
G75*
G02*
X109949999Y-114500000I-50000J0D01*
G01*
X109949999Y-114500000D02*
G75*
G02*
X110049999Y-114500000I50000J0D01*
G01*
D10*
%TO.C,U1*%
X106268511Y-74100189D02*
X106268511Y-76050189D01*
X106268511Y-76050189D02*
X108468511Y-76050189D01*
X108468511Y-73840189D02*
X106518511Y-73840189D01*
X108468511Y-76050189D02*
X108468511Y-73840189D01*
D12*
X106318511Y-73840189D02*
G75*
G02*
X106218511Y-73840189I-50000J0D01*
G01*
X106218511Y-73840189D02*
G75*
G02*
X106318511Y-73840189I50000J0D01*
G01*
D10*
%TO.C,D7*%
X67900000Y-102150000D02*
X67900000Y-97500000D01*
X71200000Y-97400000D02*
X69800000Y-97400000D01*
X71200000Y-102600000D02*
X69800000Y-102600000D01*
X73100000Y-97500000D02*
X73100000Y-102500000D01*
D12*
X67950000Y-102500000D02*
G75*
G02*
X67850000Y-102500000I-50000J0D01*
G01*
X67850000Y-102500000D02*
G75*
G02*
X67950000Y-102500000I50000J0D01*
G01*
D13*
%TO.C,C16*%
X103270511Y-78784420D02*
X103270511Y-79065580D01*
X104290511Y-78784420D02*
X104290511Y-79065580D01*
%TO.C,C3*%
X103095543Y-103065010D02*
X103465010Y-102695543D01*
X104134990Y-104104457D02*
X104504457Y-103734990D01*
D10*
%TO.C,L5*%
X113850000Y-82250000D02*
X114150000Y-82250000D01*
X114150000Y-83050000D02*
X113850000Y-83050000D01*
%TO.C,C11*%
X104030000Y-109720000D02*
X104330000Y-109720000D01*
X104330000Y-110520000D02*
X104030000Y-110520000D01*
%TO.C,C24*%
X109475000Y-83450000D02*
X109475000Y-83150000D01*
X110275000Y-83150000D02*
X110275000Y-83450000D01*
%TO.C,R9*%
X98150000Y-74450000D02*
X98150000Y-74150000D01*
X98950000Y-74150000D02*
X98950000Y-74450000D01*
%TO.C,C9*%
X103940000Y-113920000D02*
X104240000Y-113920000D01*
X104240000Y-114720000D02*
X103940000Y-114720000D01*
%TO.C,SW3*%
X127795409Y-91192745D02*
X125881992Y-86573347D01*
X129643402Y-86638909D02*
X129069377Y-85253089D01*
X130012954Y-86485835D02*
X129643402Y-86638909D01*
X130408769Y-88486668D02*
X130778320Y-88333594D01*
X130778320Y-88333594D02*
X130012954Y-86485835D01*
X130982794Y-89872487D02*
X130408769Y-88486668D01*
D13*
%TO.C,C22*%
X111690000Y-83084420D02*
X111690000Y-83365580D01*
X112710000Y-83084420D02*
X112710000Y-83365580D01*
D10*
%TO.C,D3*%
X126900000Y-102500000D02*
X126900000Y-97500000D01*
X128800000Y-97400000D02*
X130200000Y-97400000D01*
X128800000Y-102600000D02*
X130200000Y-102600000D01*
X132100000Y-97850000D02*
X132100000Y-102500000D01*
D12*
X132150000Y-97500000D02*
G75*
G02*
X132050000Y-97500000I-50000J0D01*
G01*
X132050000Y-97500000D02*
G75*
G02*
X132150000Y-97500000I50000J0D01*
G01*
D10*
%TO.C,C10*%
X101580000Y-111770000D02*
X101580000Y-111470000D01*
X102380000Y-111470000D02*
X102380000Y-111770000D01*
%TO.C,C14*%
X107180511Y-76500000D02*
X107480511Y-76500000D01*
X107480511Y-77300000D02*
X107180511Y-77300000D01*
%TO.C,D4*%
X118526198Y-77796847D02*
X119516147Y-76806898D01*
X120788939Y-82746595D02*
X117253405Y-79211061D01*
X121177848Y-75781593D02*
X124465895Y-79069639D01*
X122203153Y-81473802D02*
X123193102Y-80483853D01*
D12*
X120980361Y-75534105D02*
G75*
G02*
X120880361Y-75534105I-50000J0D01*
G01*
X120880361Y-75534105D02*
G75*
G02*
X120980361Y-75534105I50000J0D01*
G01*
D10*
%TO.C,D8*%
X77796847Y-118526198D02*
X76806898Y-119516147D01*
X78822152Y-124218407D02*
X75534105Y-120930361D01*
X79211061Y-117253405D02*
X82746595Y-120788939D01*
X81473802Y-122203153D02*
X80483853Y-123193102D01*
D12*
X79119639Y-124465895D02*
G75*
G02*
X79019639Y-124465895I-50000J0D01*
G01*
X79019639Y-124465895D02*
G75*
G02*
X79119639Y-124465895I50000J0D01*
G01*
D10*
%TO.C,U7*%
X94750000Y-127500000D02*
X93750000Y-127500000D01*
X94750000Y-129700000D02*
X93450000Y-129700000D01*
D12*
X93500000Y-127500000D02*
G75*
G02*
X93400000Y-127500000I-50000J0D01*
G01*
X93400000Y-127500000D02*
G75*
G02*
X93500000Y-127500000I50000J0D01*
G01*
D10*
%TO.C,L6*%
X113850000Y-83375000D02*
X114150000Y-83375000D01*
X114150000Y-84175000D02*
X113850000Y-84175000D01*
%TO.C,C8*%
X105480000Y-112270000D02*
X105480000Y-111970000D01*
X106280000Y-111970000D02*
X106280000Y-112270000D01*
%TO.C,U9*%
X105630511Y-81250000D02*
X105630511Y-81450000D01*
X105630511Y-81450000D02*
X107630511Y-81450000D01*
X107630511Y-78250000D02*
X106030511Y-78250000D01*
X107630511Y-78450000D02*
X107630511Y-78250000D01*
X107630511Y-81450000D02*
X107630511Y-81250000D01*
D12*
X105780511Y-78250000D02*
G75*
G02*
X105680511Y-78250000I-50000J0D01*
G01*
X105680511Y-78250000D02*
G75*
G02*
X105780511Y-78250000I50000J0D01*
G01*
D10*
%TO.C,SW2*%
X69221680Y-88333594D02*
X69591231Y-88486668D01*
X69591231Y-88486668D02*
X69017206Y-89872487D01*
X69987046Y-86485835D02*
X69221680Y-88333594D01*
X70356598Y-86638909D02*
X69987046Y-86485835D01*
X70930623Y-85253089D02*
X70356598Y-86638909D01*
X74118008Y-86573347D02*
X72204591Y-91192745D01*
%TO.C,U10*%
X106050000Y-85050000D02*
X106050000Y-87550000D01*
X119650000Y-87600000D02*
X120300000Y-85050000D01*
X120300000Y-85050000D02*
X106050000Y-85050000D01*
%TD*%
%LPC*%
D14*
%TO.C,CN4*%
X87200737Y-75298479D03*
X88217004Y-74877527D03*
X89233272Y-74456576D03*
X90249539Y-74035624D03*
X91265807Y-73614672D03*
X92282074Y-73193720D03*
X93298342Y-72772769D03*
X94314609Y-72351817D03*
D15*
X90317142Y-87499641D03*
D16*
X94286189Y-85936787D03*
D17*
X83621825Y-76797149D03*
D18*
X95503741Y-72400458D03*
D19*
X87723760Y-87274984D03*
X99697239Y-82315407D03*
%TD*%
D20*
%TO.C,TP8*%
X107400000Y-71500000D03*
%TD*%
D21*
%TO.C,C12*%
X109230511Y-74690000D03*
X109230511Y-75710000D03*
%TD*%
D20*
%TO.C,TP1*%
X103500000Y-122900000D03*
%TD*%
D22*
%TO.C,L2*%
X108725000Y-106500000D03*
X103675000Y-106500000D03*
%TD*%
D23*
%TO.C,SW1*%
X107708353Y-125246951D03*
X110055007Y-124274935D03*
X112401661Y-123302919D03*
%TD*%
D24*
%TO.C,U2*%
X104280511Y-75650000D03*
X104280511Y-75150000D03*
X104280511Y-74650000D03*
X104280511Y-74150000D03*
X101180511Y-74150000D03*
X101180511Y-74650000D03*
X101180511Y-75150000D03*
X101180511Y-75650000D03*
%TD*%
D20*
%TO.C,TP14*%
X90800000Y-126400000D03*
%TD*%
D25*
%TO.C,C20*%
X110924999Y-114300000D03*
X112474999Y-114300000D03*
%TD*%
D21*
%TO.C,R5*%
X105530511Y-72030000D03*
X105530511Y-73050000D03*
%TD*%
D20*
%TO.C,TP2*%
X115400000Y-119900000D03*
%TD*%
D26*
%TO.C,ANT1*%
X86415000Y-100015000D03*
%TD*%
D25*
%TO.C,C25*%
X111250000Y-108600000D03*
X112800000Y-108600000D03*
%TD*%
D27*
%TO.C,C30*%
X110240511Y-73700000D03*
X109220511Y-73700000D03*
%TD*%
D28*
%TO.C,U4*%
X110200000Y-102650000D03*
X110200000Y-103600000D03*
X110200000Y-104550000D03*
X112500000Y-104550000D03*
X112500000Y-102650000D03*
%TD*%
D20*
%TO.C,TP5*%
X118700000Y-83300000D03*
%TD*%
D29*
%TO.C,R10*%
X99650000Y-76620000D03*
X99650000Y-75600000D03*
%TD*%
D30*
%TO.C,D1*%
X102450000Y-131150000D03*
X102450000Y-127850000D03*
X97550000Y-127850000D03*
X97550000Y-131150000D03*
%TD*%
D31*
%TO.C,R1*%
X107790000Y-102100000D03*
X108810000Y-102100000D03*
%TD*%
D32*
%TO.C,U8*%
X113099999Y-112850000D03*
X113099999Y-112200000D03*
X113099999Y-111550000D03*
D33*
X110899999Y-111550000D03*
X110899999Y-112200000D03*
X110899999Y-112850000D03*
%TD*%
D20*
%TO.C,TP7*%
X112500000Y-77500000D03*
%TD*%
D30*
%TO.C,D5*%
X97550000Y-68850000D03*
X97550000Y-72150000D03*
X102450000Y-72150000D03*
X102450000Y-68850000D03*
%TD*%
D25*
%TO.C,C19*%
X111249999Y-110100000D03*
X112799999Y-110100000D03*
%TD*%
%TO.C,C15*%
X108550000Y-121700000D03*
X110100000Y-121700000D03*
%TD*%
D30*
%TO.C,D9*%
X92450000Y-119650000D03*
X92450000Y-116350000D03*
X87550000Y-116350000D03*
X87550000Y-119650000D03*
%TD*%
D34*
%TO.C,D6*%
X76241212Y-79706035D03*
X78574665Y-82039488D03*
X82039488Y-78574665D03*
X79706035Y-76241212D03*
%TD*%
D35*
%TO.C,C2*%
X113275000Y-106300000D03*
X111725000Y-106300000D03*
%TD*%
%TO.C,C18*%
X107830511Y-82400000D03*
X106280511Y-82400000D03*
%TD*%
D21*
%TO.C,R4*%
X113900000Y-103980000D03*
X113900000Y-105000000D03*
%TD*%
%TO.C,C21*%
X110900000Y-82790000D03*
X110900000Y-83810000D03*
%TD*%
D27*
%TO.C,R8*%
X101850511Y-76700000D03*
X100830511Y-76700000D03*
%TD*%
D20*
%TO.C,TP9*%
X108900000Y-71500000D03*
%TD*%
D21*
%TO.C,C7*%
X110240511Y-74700000D03*
X110240511Y-75720000D03*
%TD*%
D36*
%TO.C,C23*%
X115800000Y-82375000D03*
X115800000Y-83925000D03*
%TD*%
D30*
%TO.C,D10*%
X102450000Y-119650000D03*
X102450000Y-116350000D03*
X97550000Y-116350000D03*
X97550000Y-119650000D03*
%TD*%
D21*
%TO.C,R3*%
X113900000Y-101900000D03*
X113900000Y-102920000D03*
%TD*%
D20*
%TO.C,TP10*%
X82700000Y-81500000D03*
%TD*%
D21*
%TO.C,C13*%
X109330511Y-79130000D03*
X109330511Y-80150000D03*
%TD*%
D30*
%TO.C,D11*%
X112450000Y-119650000D03*
X112450000Y-116350000D03*
X107550000Y-116350000D03*
X107550000Y-119650000D03*
%TD*%
D37*
%TO.C,D2*%
X123758788Y-120293965D03*
X121425335Y-117960512D03*
X117960512Y-121425335D03*
X120293965Y-123758788D03*
%TD*%
D38*
%TO.C,U13*%
X103199998Y-113205000D03*
X103699999Y-113205000D03*
X104199999Y-113205000D03*
X104700000Y-113205000D03*
X104700000Y-111300000D03*
X104199999Y-111300000D03*
X103699999Y-111300000D03*
X103199998Y-111300000D03*
D39*
X103949999Y-112252500D03*
%TD*%
D21*
%TO.C,R7*%
X104430511Y-72030000D03*
X104430511Y-73050000D03*
%TD*%
D40*
%TO.C,L4*%
X108399999Y-114100000D03*
X108399999Y-111900000D03*
%TD*%
D41*
%TO.C,U1*%
X106606511Y-74200000D03*
X106606511Y-74700126D03*
X106606511Y-75200252D03*
X106606511Y-75700378D03*
D42*
X107118448Y-75712189D03*
X107618574Y-75712189D03*
D41*
X108130511Y-75700378D03*
X108130511Y-75200252D03*
X108130511Y-74700126D03*
X108130511Y-74200000D03*
D42*
X107618574Y-74188189D03*
X107118448Y-74188189D03*
%TD*%
D43*
%TO.C,D7*%
X68850000Y-102450000D03*
X72150000Y-102450000D03*
X72150000Y-97550000D03*
X68850000Y-97550000D03*
%TD*%
D20*
%TO.C,TP12*%
X83900000Y-86500000D03*
%TD*%
D36*
%TO.C,C16*%
X103780511Y-78150000D03*
X103780511Y-79700000D03*
%TD*%
D44*
%TO.C,C3*%
X103128249Y-104071751D03*
X104471751Y-102728249D03*
%TD*%
D20*
%TO.C,TP6*%
X102200000Y-108600000D03*
%TD*%
D27*
%TO.C,L5*%
X114510000Y-82650000D03*
X113490000Y-82650000D03*
%TD*%
D31*
%TO.C,C11*%
X103670000Y-110120000D03*
X104690000Y-110120000D03*
%TD*%
D21*
%TO.C,C24*%
X109875000Y-82790000D03*
X109875000Y-83810000D03*
%TD*%
%TO.C,R9*%
X98550000Y-73790000D03*
X98550000Y-74810000D03*
%TD*%
D20*
%TO.C,TP4*%
X103400000Y-97600000D03*
%TD*%
%TO.C,TP18*%
X103600000Y-88700000D03*
%TD*%
D27*
%TO.C,C9*%
X104600000Y-114320000D03*
X103580000Y-114320000D03*
%TD*%
D45*
%TO.C,SW3*%
X128474508Y-90153780D03*
X127096847Y-86827812D03*
X129814133Y-89598888D03*
X128436472Y-86272920D03*
%TD*%
D36*
%TO.C,C22*%
X112200000Y-82450000D03*
X112200000Y-84000000D03*
%TD*%
D43*
%TO.C,D3*%
X131150000Y-97550000D03*
X127850000Y-97550000D03*
X127850000Y-102450000D03*
X131150000Y-102450000D03*
%TD*%
D21*
%TO.C,C10*%
X101980000Y-111110000D03*
X101980000Y-112130000D03*
%TD*%
D20*
%TO.C,TP13*%
X83900000Y-83500000D03*
%TD*%
%TO.C,TP19*%
X103600000Y-90700000D03*
%TD*%
D31*
%TO.C,C14*%
X106820511Y-76900000D03*
X107840511Y-76900000D03*
%TD*%
D46*
%TO.C,D4*%
X120293965Y-76241212D03*
X117960512Y-78574665D03*
X121425335Y-82039488D03*
X123758788Y-79706035D03*
%TD*%
D20*
%TO.C,TP3*%
X98300000Y-123000000D03*
%TD*%
%TO.C,TP11*%
X100300000Y-123000000D03*
%TD*%
D47*
%TO.C,D8*%
X79706035Y-123758788D03*
X82039488Y-121425335D03*
X78574665Y-117960512D03*
X76241212Y-120293965D03*
%TD*%
D48*
%TO.C,U7*%
X92950000Y-127950000D03*
X92950000Y-128600000D03*
X92950000Y-129250000D03*
X95250000Y-129250000D03*
X95250000Y-128600000D03*
X95250000Y-127950000D03*
%TD*%
D27*
%TO.C,L6*%
X114510000Y-83775000D03*
X113490000Y-83775000D03*
%TD*%
D21*
%TO.C,C8*%
X105880000Y-111610000D03*
X105880000Y-112630000D03*
%TD*%
D49*
%TO.C,U9*%
X105280511Y-78900000D03*
X105280511Y-79850000D03*
X105280511Y-80800000D03*
X107980511Y-80800000D03*
X107980511Y-78900000D03*
%TD*%
D50*
%TO.C,SW2*%
X72903153Y-86827812D03*
X71525492Y-90153780D03*
X71563528Y-86272920D03*
X70185867Y-89598888D03*
%TD*%
D20*
%TO.C,TP16*%
X72000000Y-94200000D03*
%TD*%
%TO.C,TP17*%
X75500000Y-83300000D03*
%TD*%
D51*
%TO.C,U10*%
X118230000Y-86400000D03*
X115690000Y-86400000D03*
X113150000Y-86400000D03*
X110610000Y-86400000D03*
X108070000Y-86400000D03*
%TD*%
D20*
%TO.C,TP15*%
X103000000Y-84100000D03*
%TD*%
D51*
%TO.C,B7*%
X106350000Y-122850000D03*
X93700000Y-122850000D03*
%TD*%
D52*
%TO.C,CN3*%
X124185000Y-105860000D03*
X125201000Y-110940000D03*
X123169000Y-110940000D03*
%TD*%
%LPD*%
M02*
