%TF.GenerationSoftware,KiCad,Pcbnew,9.0.0*%
%TF.CreationDate,2025-02-26T14:35:45+01:00*%
%TF.ProjectId,relativeGPS,72656c61-7469-4766-9547-50532e6b6963,rev?*%
%TF.SameCoordinates,Original*%
%TF.FileFunction,Soldermask,Top*%
%TF.FilePolarity,Negative*%
%FSLAX46Y46*%
G04 Gerber Fmt 4.6, Leading zero omitted, Abs format (unit mm)*
G04 Created by KiCad (PCBNEW 9.0.0) date 2025-02-26 14:35:45*
%MOMM*%
%LPD*%
G01*
G04 APERTURE LIST*
G04 Aperture macros list*
%AMRoundRect*
0 Rectangle with rounded corners*
0 $1 Rounding radius*
0 $2 $3 $4 $5 $6 $7 $8 $9 X,Y pos of 4 corners*
0 Add a 4 corners polygon primitive as box body*
4,1,4,$2,$3,$4,$5,$6,$7,$8,$9,$2,$3,0*
0 Add four circle primitives for the rounded corners*
1,1,$1+$1,$2,$3*
1,1,$1+$1,$4,$5*
1,1,$1+$1,$6,$7*
1,1,$1+$1,$8,$9*
0 Add four rect primitives between the rounded corners*
20,1,$1+$1,$2,$3,$4,$5,0*
20,1,$1+$1,$4,$5,$6,$7,0*
20,1,$1+$1,$6,$7,$8,$9,0*
20,1,$1+$1,$8,$9,$2,$3,0*%
%AMRotRect*
0 Rectangle, with rotation*
0 The origin of the aperture is its center*
0 $1 length*
0 $2 width*
0 $3 Rotation angle, in degrees counterclockwise*
0 Add horizontal line*
21,1,$1,$2,0,0,$3*%
G04 Aperture macros list end*
%ADD10RotRect,0.700000X1.100000X22.500000*%
%ADD11RotRect,0.900000X0.930000X22.500000*%
%ADD12RotRect,1.050000X0.780000X22.500000*%
%ADD13RotRect,1.140000X1.830000X22.500000*%
%ADD14RotRect,0.860000X2.800000X22.500000*%
%ADD15RotRect,0.700000X3.330000X22.500000*%
%ADD16R,1.000000X1.000000*%
%ADD17RoundRect,0.135000X-0.185000X0.135000X-0.185000X-0.135000X0.185000X-0.135000X0.185000X0.135000X0*%
%ADD18R,1.450000X1.500000*%
%ADD19C,1.500000*%
%ADD20RoundRect,0.033333X0.391667X0.116667X-0.391667X0.116667X-0.391667X-0.116667X0.391667X-0.116667X0*%
%ADD21RoundRect,0.225000X-0.225000X-0.250000X0.225000X-0.250000X0.225000X0.250000X-0.225000X0.250000X0*%
%ADD22C,1.400000*%
%ADD23RoundRect,0.135000X0.135000X0.185000X-0.135000X0.185000X-0.135000X-0.185000X0.135000X-0.185000X0*%
%ADD24R,1.200000X0.600000*%
%ADD25RoundRect,0.135000X0.185000X-0.135000X0.185000X0.135000X-0.185000X0.135000X-0.185000X-0.135000X0*%
%ADD26R,1.500000X0.900000*%
%ADD27RoundRect,0.135000X-0.135000X-0.185000X0.135000X-0.185000X0.135000X0.185000X-0.135000X0.185000X0*%
%ADD28RoundRect,0.100000X0.350000X0.100000X-0.350000X0.100000X-0.350000X-0.100000X0.350000X-0.100000X0*%
%ADD29RoundRect,0.100000X-0.350000X-0.100000X0.350000X-0.100000X0.350000X0.100000X-0.350000X0.100000X0*%
%ADD30RotRect,1.500000X0.900000X45.000000*%
%ADD31RoundRect,0.225000X0.225000X0.250000X-0.225000X0.250000X-0.225000X-0.250000X0.225000X-0.250000X0*%
%ADD32RoundRect,0.225000X-0.250000X0.225000X-0.250000X-0.225000X0.250000X-0.225000X0.250000X0.225000X0*%
%ADD33RotRect,1.500000X0.900000X225.000000*%
%ADD34R,0.254000X0.711200*%
%ADD35R,1.295400X0.711200*%
%ADD36RoundRect,0.200000X1.150000X-0.200000X1.150000X0.200000X-1.150000X0.200000X-1.150000X-0.200000X0*%
%ADD37R,0.381000X0.355600*%
%ADD38R,0.355600X0.381000*%
%ADD39R,0.900000X1.500000*%
%ADD40RoundRect,0.250000X0.159099X-0.512652X0.512652X-0.159099X-0.159099X0.512652X-0.512652X0.159099X0*%
%ADD41RoundRect,0.262500X0.409942X-0.303743X0.075094X0.504652X-0.409942X0.303743X-0.075094X-0.504652X0*%
%ADD42RotRect,1.500000X0.900000X315.000000*%
%ADD43RotRect,1.500000X0.900000X135.000000*%
%ADD44R,0.720000X0.350000*%
%ADD45RoundRect,0.055000X0.445000X0.220000X-0.445000X0.220000X-0.445000X-0.220000X0.445000X-0.220000X0*%
%ADD46RoundRect,0.262500X-0.075094X0.504652X-0.409942X-0.303743X0.075094X-0.504652X0.409942X0.303743X0*%
%ADD47C,2.000000*%
%ADD48C,0.991000*%
G04 APERTURE END LIST*
D10*
%TO.C,CN4*%
X87200737Y-75298479D03*
X88217004Y-74877527D03*
X89233272Y-74456576D03*
X90249539Y-74035624D03*
X91265807Y-73614672D03*
X92282074Y-73193720D03*
X93298342Y-72772769D03*
X94314609Y-72351817D03*
D11*
X90317142Y-87499641D03*
D12*
X94286189Y-85936787D03*
D13*
X83621825Y-76797149D03*
D14*
X95503741Y-72400458D03*
D15*
X87723760Y-87274984D03*
X99697239Y-82315407D03*
%TD*%
D16*
%TO.C,TP8*%
X107400000Y-71500000D03*
%TD*%
D17*
%TO.C,C12*%
X109230511Y-74690000D03*
X109230511Y-75710000D03*
%TD*%
D16*
%TO.C,TP1*%
X103500000Y-122900000D03*
%TD*%
D18*
%TO.C,L2*%
X108725000Y-106500000D03*
X103675000Y-106500000D03*
%TD*%
D19*
%TO.C,SW1*%
X107708353Y-125246951D03*
X110055007Y-124274935D03*
X112401661Y-123302919D03*
%TD*%
D20*
%TO.C,U2*%
X104280511Y-75650000D03*
X104280511Y-75150000D03*
X104280511Y-74650000D03*
X104280511Y-74150000D03*
X101180511Y-74150000D03*
X101180511Y-74650000D03*
X101180511Y-75150000D03*
X101180511Y-75650000D03*
%TD*%
D16*
%TO.C,TP14*%
X90800000Y-126400000D03*
%TD*%
D21*
%TO.C,C20*%
X110924999Y-114300000D03*
X112474999Y-114300000D03*
%TD*%
D17*
%TO.C,R5*%
X105530511Y-72030000D03*
X105530511Y-73050000D03*
%TD*%
D16*
%TO.C,TP2*%
X115400000Y-119900000D03*
%TD*%
D22*
%TO.C,ANT1*%
X86415000Y-100015000D03*
%TD*%
D21*
%TO.C,C25*%
X111250000Y-108600000D03*
X112800000Y-108600000D03*
%TD*%
D23*
%TO.C,C30*%
X110240511Y-73700000D03*
X109220511Y-73700000D03*
%TD*%
D24*
%TO.C,U4*%
X110200000Y-102650000D03*
X110200000Y-103600000D03*
X110200000Y-104550000D03*
X112500000Y-104550000D03*
X112500000Y-102650000D03*
%TD*%
D16*
%TO.C,TP5*%
X118700000Y-83300000D03*
%TD*%
D25*
%TO.C,R10*%
X99650000Y-76620000D03*
X99650000Y-75600000D03*
%TD*%
D26*
%TO.C,D1*%
X102450000Y-131150000D03*
X102450000Y-127850000D03*
X97550000Y-127850000D03*
X97550000Y-131150000D03*
%TD*%
D27*
%TO.C,R1*%
X107790000Y-102100000D03*
X108810000Y-102100000D03*
%TD*%
D28*
%TO.C,U8*%
X113099999Y-112850000D03*
X113099999Y-112200000D03*
X113099999Y-111550000D03*
D29*
X110899999Y-111550000D03*
X110899999Y-112200000D03*
X110899999Y-112850000D03*
%TD*%
D16*
%TO.C,TP7*%
X112500000Y-77500000D03*
%TD*%
D26*
%TO.C,D5*%
X97550000Y-68850000D03*
X97550000Y-72150000D03*
X102450000Y-72150000D03*
X102450000Y-68850000D03*
%TD*%
D21*
%TO.C,C19*%
X111249999Y-110100000D03*
X112799999Y-110100000D03*
%TD*%
%TO.C,C15*%
X108550000Y-121700000D03*
X110100000Y-121700000D03*
%TD*%
D26*
%TO.C,D9*%
X92450000Y-119650000D03*
X92450000Y-116350000D03*
X87550000Y-116350000D03*
X87550000Y-119650000D03*
%TD*%
D30*
%TO.C,D6*%
X76241212Y-79706035D03*
X78574665Y-82039488D03*
X82039488Y-78574665D03*
X79706035Y-76241212D03*
%TD*%
D31*
%TO.C,C2*%
X113275000Y-106300000D03*
X111725000Y-106300000D03*
%TD*%
%TO.C,C18*%
X107830511Y-82400000D03*
X106280511Y-82400000D03*
%TD*%
D17*
%TO.C,R4*%
X113900000Y-103980000D03*
X113900000Y-105000000D03*
%TD*%
%TO.C,C21*%
X110900000Y-82790000D03*
X110900000Y-83810000D03*
%TD*%
D23*
%TO.C,R8*%
X101850511Y-76700000D03*
X100830511Y-76700000D03*
%TD*%
D16*
%TO.C,TP9*%
X108900000Y-71500000D03*
%TD*%
D17*
%TO.C,C7*%
X110240511Y-74700000D03*
X110240511Y-75720000D03*
%TD*%
D32*
%TO.C,C23*%
X115800000Y-82375000D03*
X115800000Y-83925000D03*
%TD*%
D26*
%TO.C,D10*%
X102450000Y-119650000D03*
X102450000Y-116350000D03*
X97550000Y-116350000D03*
X97550000Y-119650000D03*
%TD*%
D17*
%TO.C,R3*%
X113900000Y-101900000D03*
X113900000Y-102920000D03*
%TD*%
D16*
%TO.C,TP10*%
X82700000Y-81500000D03*
%TD*%
D17*
%TO.C,C13*%
X109330511Y-79130000D03*
X109330511Y-80150000D03*
%TD*%
D26*
%TO.C,D11*%
X112450000Y-119650000D03*
X112450000Y-116350000D03*
X107550000Y-116350000D03*
X107550000Y-119650000D03*
%TD*%
D33*
%TO.C,D2*%
X123758788Y-120293965D03*
X121425335Y-117960512D03*
X117960512Y-121425335D03*
X120293965Y-123758788D03*
%TD*%
D34*
%TO.C,U13*%
X103199998Y-113205000D03*
X103699999Y-113205000D03*
X104199999Y-113205000D03*
X104700000Y-113205000D03*
X104700000Y-111300000D03*
X104199999Y-111300000D03*
X103699999Y-111300000D03*
X103199998Y-111300000D03*
D35*
X103949999Y-112252500D03*
%TD*%
D17*
%TO.C,R7*%
X104430511Y-72030000D03*
X104430511Y-73050000D03*
%TD*%
D36*
%TO.C,L4*%
X108399999Y-114100000D03*
X108399999Y-111900000D03*
%TD*%
D37*
%TO.C,U1*%
X106606511Y-74200000D03*
X106606511Y-74700126D03*
X106606511Y-75200252D03*
X106606511Y-75700378D03*
D38*
X107118448Y-75712189D03*
X107618574Y-75712189D03*
D37*
X108130511Y-75700378D03*
X108130511Y-75200252D03*
X108130511Y-74700126D03*
X108130511Y-74200000D03*
D38*
X107618574Y-74188189D03*
X107118448Y-74188189D03*
%TD*%
D39*
%TO.C,D7*%
X68850000Y-102450000D03*
X72150000Y-102450000D03*
X72150000Y-97550000D03*
X68850000Y-97550000D03*
%TD*%
D16*
%TO.C,TP12*%
X83900000Y-86500000D03*
%TD*%
D32*
%TO.C,C16*%
X103780511Y-78150000D03*
X103780511Y-79700000D03*
%TD*%
D40*
%TO.C,C3*%
X103128249Y-104071751D03*
X104471751Y-102728249D03*
%TD*%
D16*
%TO.C,TP6*%
X102200000Y-108600000D03*
%TD*%
D23*
%TO.C,L5*%
X114510000Y-82650000D03*
X113490000Y-82650000D03*
%TD*%
D27*
%TO.C,C11*%
X103670000Y-110120000D03*
X104690000Y-110120000D03*
%TD*%
D17*
%TO.C,C24*%
X109875000Y-82790000D03*
X109875000Y-83810000D03*
%TD*%
%TO.C,R9*%
X98550000Y-73790000D03*
X98550000Y-74810000D03*
%TD*%
D16*
%TO.C,TP4*%
X103400000Y-97600000D03*
%TD*%
%TO.C,TP18*%
X103600000Y-88700000D03*
%TD*%
D23*
%TO.C,C9*%
X104600000Y-114320000D03*
X103580000Y-114320000D03*
%TD*%
D41*
%TO.C,SW3*%
X128474508Y-90153780D03*
X127096847Y-86827812D03*
X129814133Y-89598888D03*
X128436472Y-86272920D03*
%TD*%
D32*
%TO.C,C22*%
X112200000Y-82450000D03*
X112200000Y-84000000D03*
%TD*%
D39*
%TO.C,D3*%
X131150000Y-97550000D03*
X127850000Y-97550000D03*
X127850000Y-102450000D03*
X131150000Y-102450000D03*
%TD*%
D17*
%TO.C,C10*%
X101980000Y-111110000D03*
X101980000Y-112130000D03*
%TD*%
D16*
%TO.C,TP13*%
X83900000Y-83500000D03*
%TD*%
%TO.C,TP19*%
X103600000Y-90700000D03*
%TD*%
D27*
%TO.C,C14*%
X106820511Y-76900000D03*
X107840511Y-76900000D03*
%TD*%
D42*
%TO.C,D4*%
X120293965Y-76241212D03*
X117960512Y-78574665D03*
X121425335Y-82039488D03*
X123758788Y-79706035D03*
%TD*%
D16*
%TO.C,TP3*%
X98300000Y-123000000D03*
%TD*%
%TO.C,TP11*%
X100300000Y-123000000D03*
%TD*%
D43*
%TO.C,D8*%
X79706035Y-123758788D03*
X82039488Y-121425335D03*
X78574665Y-117960512D03*
X76241212Y-120293965D03*
%TD*%
D44*
%TO.C,U7*%
X92950000Y-127950000D03*
X92950000Y-128600000D03*
X92950000Y-129250000D03*
X95250000Y-129250000D03*
X95250000Y-128600000D03*
X95250000Y-127950000D03*
%TD*%
D23*
%TO.C,L6*%
X114510000Y-83775000D03*
X113490000Y-83775000D03*
%TD*%
D17*
%TO.C,C8*%
X105880000Y-111610000D03*
X105880000Y-112630000D03*
%TD*%
D45*
%TO.C,U9*%
X105280511Y-78900000D03*
X105280511Y-79850000D03*
X105280511Y-80800000D03*
X107980511Y-80800000D03*
X107980511Y-78900000D03*
%TD*%
D46*
%TO.C,SW2*%
X72903153Y-86827812D03*
X71525492Y-90153780D03*
X71563528Y-86272920D03*
X70185867Y-89598888D03*
%TD*%
D16*
%TO.C,TP16*%
X72000000Y-94200000D03*
%TD*%
%TO.C,TP17*%
X75500000Y-83300000D03*
%TD*%
D47*
%TO.C,U10*%
X118230000Y-86400000D03*
X115690000Y-86400000D03*
X113150000Y-86400000D03*
X110610000Y-86400000D03*
X108070000Y-86400000D03*
%TD*%
D16*
%TO.C,TP15*%
X103000000Y-84100000D03*
%TD*%
D47*
%TO.C,B7*%
X106350000Y-122850000D03*
X93700000Y-122850000D03*
%TD*%
D48*
%TO.C,CN3*%
X124185000Y-105860000D03*
X125201000Y-110940000D03*
X123169000Y-110940000D03*
%TD*%
M02*
