%TF.GenerationSoftware,KiCad,Pcbnew,9.0.0*%
%TF.CreationDate,2025-02-26T14:35:45+01:00*%
%TF.ProjectId,relativeGPS,72656c61-7469-4766-9547-50532e6b6963,rev?*%
%TF.SameCoordinates,Original*%
%TF.FileFunction,Copper,L4,Bot*%
%TF.FilePolarity,Positive*%
%FSLAX46Y46*%
G04 Gerber Fmt 4.6, Leading zero omitted, Abs format (unit mm)*
G04 Created by KiCad (PCBNEW 9.0.0) date 2025-02-26 14:35:45*
%MOMM*%
%LPD*%
G01*
G04 APERTURE LIST*
G04 Aperture macros list*
%AMRoundRect*
0 Rectangle with rounded corners*
0 $1 Rounding radius*
0 $2 $3 $4 $5 $6 $7 $8 $9 X,Y pos of 4 corners*
0 Add a 4 corners polygon primitive as box body*
4,1,4,$2,$3,$4,$5,$6,$7,$8,$9,$2,$3,0*
0 Add four circle primitives for the rounded corners*
1,1,$1+$1,$2,$3*
1,1,$1+$1,$4,$5*
1,1,$1+$1,$6,$7*
1,1,$1+$1,$8,$9*
0 Add four rect primitives between the rounded corners*
20,1,$1+$1,$2,$3,$4,$5,0*
20,1,$1+$1,$4,$5,$6,$7,0*
20,1,$1+$1,$6,$7,$8,$9,0*
20,1,$1+$1,$8,$9,$2,$3,0*%
G04 Aperture macros list end*
%TA.AperFunction,ComponentPad*%
%ADD10C,1.500000*%
%TD*%
%TA.AperFunction,ComponentPad*%
%ADD11C,1.400000*%
%TD*%
%TA.AperFunction,ComponentPad*%
%ADD12C,2.000000*%
%TD*%
%TA.AperFunction,SMDPad,CuDef*%
%ADD13RoundRect,0.135000X0.185000X-0.135000X0.185000X0.135000X-0.185000X0.135000X-0.185000X-0.135000X0*%
%TD*%
%TA.AperFunction,SMDPad,CuDef*%
%ADD14RoundRect,0.135000X-0.135000X-0.185000X0.135000X-0.185000X0.135000X0.185000X-0.135000X0.185000X0*%
%TD*%
%TA.AperFunction,SMDPad,CuDef*%
%ADD15RoundRect,0.135000X-0.185000X0.135000X-0.185000X-0.135000X0.185000X-0.135000X0.185000X0.135000X0*%
%TD*%
%TA.AperFunction,SMDPad,CuDef*%
%ADD16R,2.790000X0.740000*%
%TD*%
%TA.AperFunction,SMDPad,CuDef*%
%ADD17RoundRect,0.135000X0.135000X0.185000X-0.135000X0.185000X-0.135000X-0.185000X0.135000X-0.185000X0*%
%TD*%
%TA.AperFunction,SMDPad,CuDef*%
%ADD18RoundRect,0.250000X0.250000X-0.250000X0.250000X0.250000X-0.250000X0.250000X-0.250000X-0.250000X0*%
%TD*%
%TA.AperFunction,SMDPad,CuDef*%
%ADD19R,0.400000X0.500000*%
%TD*%
%TA.AperFunction,SMDPad,CuDef*%
%ADD20RoundRect,0.225000X0.250000X-0.225000X0.250000X0.225000X-0.250000X0.225000X-0.250000X-0.225000X0*%
%TD*%
%TA.AperFunction,SMDPad,CuDef*%
%ADD21R,0.375000X0.300000*%
%TD*%
%TA.AperFunction,SMDPad,CuDef*%
%ADD22R,1.500000X1.000000*%
%TD*%
%TA.AperFunction,SMDPad,CuDef*%
%ADD23R,1.100000X1.300000*%
%TD*%
%TA.AperFunction,SMDPad,CuDef*%
%ADD24R,0.660000X0.410000*%
%TD*%
%TA.AperFunction,SMDPad,CuDef*%
%ADD25R,0.900000X1.600000*%
%TD*%
%TA.AperFunction,SMDPad,CuDef*%
%ADD26C,0.787000*%
%TD*%
%TA.AperFunction,SMDPad,CuDef*%
%ADD27R,0.250000X0.250000*%
%TD*%
%TA.AperFunction,SMDPad,CuDef*%
%ADD28RoundRect,0.075000X-0.700000X-0.075000X0.700000X-0.075000X0.700000X0.075000X-0.700000X0.075000X0*%
%TD*%
%TA.AperFunction,SMDPad,CuDef*%
%ADD29RoundRect,0.075000X-0.075000X-0.700000X0.075000X-0.700000X0.075000X0.700000X-0.075000X0.700000X0*%
%TD*%
%TA.AperFunction,ViaPad*%
%ADD30C,0.600000*%
%TD*%
%TA.AperFunction,Conductor*%
%ADD31C,0.150000*%
%TD*%
%TA.AperFunction,Conductor*%
%ADD32C,0.300000*%
%TD*%
G04 APERTURE END LIST*
D10*
%TO.P,SW1,1*%
%TO.N,unconnected-(SW1-Pad1)*%
X107708353Y-125246951D03*
%TO.P,SW1,2*%
%TO.N,+BATT*%
X110055007Y-124274935D03*
%TO.P,SW1,3*%
%TO.N,+3V0*%
X112401661Y-123302919D03*
%TD*%
D11*
%TO.P,ANT1,1*%
%TO.N,Net-(ANT1-Pad1)*%
X86415000Y-100015000D03*
%TD*%
D12*
%TO.P,U10,1,GND*%
%TO.N,GND*%
X118230000Y-86400000D03*
%TO.P,U10,2,TX*%
%TO.N,/RYLR998_TX*%
X115690000Y-86400000D03*
%TO.P,U10,3,RX*%
%TO.N,/RYLR998_RX*%
X113150000Y-86400000D03*
%TO.P,U10,4,NRST*%
%TO.N,/RYLR998_NRST*%
X110610000Y-86400000D03*
%TO.P,U10,5,VDD*%
%TO.N,Net-(U10-VDD)*%
X108070000Y-86400000D03*
%TD*%
D13*
%TO.P,R15,1*%
%TO.N,/SD_CLK*%
X85700000Y-74500000D03*
%TO.P,R15,2*%
%TO.N,Net-(CN4-CLK)*%
X85700000Y-73480000D03*
%TD*%
D14*
%TO.P,C6,1*%
%TO.N,/GPS/3V3_TESEO_FILTERED*%
X84300000Y-79000000D03*
%TO.P,C6,2*%
%TO.N,GND*%
X85320000Y-79000000D03*
%TD*%
D15*
%TO.P,C35,1*%
%TO.N,+3.3V*%
X86900000Y-115780000D03*
%TO.P,C35,2*%
%TO.N,GND*%
X86900000Y-116800000D03*
%TD*%
D13*
%TO.P,R6,1*%
%TO.N,/GPS/ANTOFF*%
X84300000Y-92410000D03*
%TO.P,R6,2*%
%TO.N,GND*%
X84300000Y-91390000D03*
%TD*%
D14*
%TO.P,C28,1*%
%TO.N,+3.3V*%
X69999999Y-103700000D03*
%TO.P,C28,2*%
%TO.N,Net-(U12-STBY)*%
X71019999Y-103700000D03*
%TD*%
D16*
%TO.P,CN1,1,1*%
%TO.N,unconnected-(CN1-Pad1)*%
X123680000Y-100660000D03*
%TO.P,CN1,2,2*%
%TO.N,unconnected-(CN1-Pad2)*%
X127750000Y-100660000D03*
%TO.P,CN1,3,VCC*%
%TO.N,+3.3V*%
X123680000Y-99390000D03*
%TO.P,CN1,4,SWDIO*%
%TO.N,/SWDIO*%
X127750000Y-99390000D03*
%TO.P,CN1,5,GND*%
%TO.N,GND*%
X123680000Y-98120000D03*
%TO.P,CN1,6,SWCLK*%
%TO.N,/SWCLK*%
X127750000Y-98120000D03*
%TO.P,CN1,7,GND*%
%TO.N,GND*%
X123680000Y-96850000D03*
%TO.P,CN1,8,SWO*%
%TO.N,unconnected-(CN1-SWO-Pad8)*%
X127750000Y-96850000D03*
%TO.P,CN1,9,9*%
%TO.N,unconnected-(CN1-Pad9)*%
X123680000Y-95580000D03*
%TO.P,CN1,10,10*%
%TO.N,unconnected-(CN1-Pad10)*%
X127750000Y-95580000D03*
%TO.P,CN1,11,GNDDETECT*%
%TO.N,GND*%
X123680000Y-94310000D03*
%TO.P,CN1,12,NRST*%
%TO.N,/NRST*%
X127750000Y-94310000D03*
%TO.P,CN1,13,VCP_TX*%
%TO.N,/UART_RX*%
X123680000Y-93040000D03*
%TO.P,CN1,14,VCP_RX*%
%TO.N,/UART_TX*%
X127750000Y-93040000D03*
%TD*%
D17*
%TO.P,C34,1*%
%TO.N,+3.3V*%
X84610000Y-103700000D03*
%TO.P,C34,2*%
%TO.N,GND*%
X83590000Y-103700000D03*
%TD*%
D15*
%TO.P,R11,1*%
%TO.N,+3.3V*%
X93300000Y-70780000D03*
%TO.P,R11,2*%
%TO.N,/SD_DAT0*%
X93300000Y-71800000D03*
%TD*%
D18*
%TO.P,SW4,1*%
%TO.N,/NRST*%
X72250000Y-102250000D03*
X72250000Y-97750000D03*
%TO.P,SW4,2*%
%TO.N,GND*%
X68750000Y-102250000D03*
X68750000Y-97750000D03*
%TD*%
D19*
%TO.P,L3,1,1*%
%TO.N,+3.3V_GPS*%
X85200000Y-77900000D03*
%TO.P,L3,2,2*%
%TO.N,/GPS/3V3_TESEO_FILTERED*%
X84400000Y-77900000D03*
%TD*%
D13*
%TO.P,C4,1*%
%TO.N,Net-(U5-OUT)*%
X85300000Y-92420000D03*
%TO.P,C4,2*%
%TO.N,Net-(U6-RF_IN)*%
X85300000Y-91400000D03*
%TD*%
D20*
%TO.P,R2,1*%
%TO.N,Net-(U3-PON)*%
X83000000Y-94250000D03*
%TO.P,R2,2*%
%TO.N,/GPS/ANTOFF*%
X83000000Y-92700000D03*
%TD*%
D17*
%TO.P,C33,1*%
%TO.N,+3.3V*%
X78110000Y-103700000D03*
%TO.P,C33,2*%
%TO.N,GND*%
X77090000Y-103700000D03*
%TD*%
D15*
%TO.P,C31,1*%
%TO.N,+3.3V*%
X74800000Y-115690000D03*
%TO.P,C31,2*%
%TO.N,GND*%
X74800000Y-116710000D03*
%TD*%
%TO.P,C32,1*%
%TO.N,+3.3V*%
X73400000Y-108490000D03*
%TO.P,C32,2*%
%TO.N,GND*%
X73400000Y-109510000D03*
%TD*%
%TO.P,R13,1*%
%TO.N,+3.3V*%
X86800000Y-72900000D03*
%TO.P,R13,2*%
%TO.N,/SD_DAT2*%
X86800000Y-73920000D03*
%TD*%
D21*
%TO.P,U5,1,IN*%
%TO.N,Net-(U3-OUT)*%
X84987500Y-94500000D03*
%TO.P,U5,2,GND*%
%TO.N,GND*%
X84700000Y-94000000D03*
%TO.P,U5,3,GND*%
X84700000Y-93500000D03*
%TO.P,U5,4,OUT*%
%TO.N,Net-(U5-OUT)*%
X85275000Y-93500000D03*
%TO.P,U5,5,GND*%
%TO.N,GND*%
X85275000Y-94000000D03*
%TD*%
D22*
%TO.P,CN2,1*%
%TO.N,/GPS/3V3_RF*%
X80900000Y-92850000D03*
%TO.P,CN2,2*%
%TO.N,Net-(U3-PON)*%
X80900000Y-94150000D03*
%TD*%
D13*
%TO.P,C1,1*%
%TO.N,Net-(ANT1-Pad1)*%
X84800000Y-99720000D03*
%TO.P,C1,2*%
%TO.N,Net-(C1-Pad2)*%
X84800000Y-98700000D03*
%TD*%
D15*
%TO.P,C36,1*%
%TO.N,+3.3V*%
X73700000Y-115690000D03*
%TO.P,C36,2*%
%TO.N,GND*%
X73700000Y-116710000D03*
%TD*%
D23*
%TO.P,U12,1,STBY*%
%TO.N,Net-(U12-STBY)*%
X71425000Y-105150000D03*
%TO.P,U12,2,GND*%
%TO.N,GND*%
X71425000Y-107250000D03*
%TO.P,U12,3,Out*%
%TO.N,Net-(U11-PH0-OSC_IN)*%
X69775000Y-107250000D03*
%TO.P,U12,4,VCC*%
%TO.N,+3.3V*%
X69775000Y-105150000D03*
%TD*%
D24*
%TO.P,L1,1,1*%
%TO.N,Net-(C1-Pad2)*%
X85000000Y-97710000D03*
%TO.P,L1,2,2*%
%TO.N,Net-(U3-IN)*%
X85000000Y-96700000D03*
%TD*%
D12*
%TO.P,B7,1*%
%TO.N,+BATT*%
X106350000Y-122850000D03*
%TO.P,B7,2*%
%TO.N,GND*%
X93700000Y-122850000D03*
%TD*%
D14*
%TO.P,C26,1*%
%TO.N,+3.3V*%
X90190000Y-70900000D03*
%TO.P,C26,2*%
%TO.N,GND*%
X91210000Y-70900000D03*
%TD*%
D15*
%TO.P,R12,1*%
%TO.N,+3.3V*%
X94600000Y-70800000D03*
%TO.P,R12,2*%
%TO.N,/SD_DAT1*%
X94600000Y-71820000D03*
%TD*%
D25*
%TO.P,U6,1,GND*%
%TO.N,GND*%
X77500000Y-80600000D03*
%TO.P,U6,2,TX*%
%TO.N,/TESEO_TX*%
X78600000Y-80600000D03*
%TO.P,U6,3,RX*%
%TO.N,/TESEO_RX*%
X79700000Y-80600000D03*
%TO.P,U6,4,PPS*%
%TO.N,unconnected-(U6-PPS-Pad4)*%
X80800000Y-80600000D03*
%TO.P,U6,5,Wake_up*%
%TO.N,/TESEO_WKUP*%
X81900000Y-80600000D03*
%TO.P,U6,6,Vbat*%
%TO.N,/GPS/3V3_TESEO_FILTERED*%
X83000000Y-80600000D03*
%TO.P,U6,7,VCC_IO*%
X84100000Y-80600000D03*
%TO.P,U6,8,VCC*%
X85200000Y-80600000D03*
%TO.P,U6,9,NRST*%
%TO.N,/TESEO_NRST*%
X86300000Y-80600000D03*
%TO.P,U6,10,GND_RF*%
%TO.N,GND*%
X86400000Y-89800000D03*
%TO.P,U6,11,RF_IN*%
%TO.N,Net-(U6-RF_IN)*%
X85300000Y-89800000D03*
%TO.P,U6,12,GND_RF*%
%TO.N,GND*%
X84200000Y-89800000D03*
%TO.P,U6,13,AntOFF*%
%TO.N,/GPS/ANTOFF*%
X83100000Y-89800000D03*
%TO.P,U6,14,VCC_RF*%
%TO.N,/GPS/3V3_RF*%
X82000000Y-89800000D03*
%TO.P,U6,15,NC*%
%TO.N,unconnected-(U6-NC-Pad15)*%
X80900000Y-89800000D03*
%TO.P,U6,16,SDA*%
%TO.N,/SDA*%
X79800000Y-89800000D03*
%TO.P,U6,17,SCL*%
%TO.N,/SCL*%
X78700000Y-89800000D03*
%TO.P,U6,18,NC*%
%TO.N,unconnected-(U6-NC-Pad18)*%
X77600000Y-89800000D03*
%TD*%
D26*
%TO.P,CN3,1,VDD*%
%TO.N,+3.3V*%
X124820000Y-107130000D03*
%TO.P,CN3,2,SWDIO*%
%TO.N,/SWDIO*%
X123550000Y-107130000D03*
%TO.P,CN3,3,NRST*%
%TO.N,/NRST*%
X124820000Y-108400000D03*
%TO.P,CN3,4,SWCLK*%
%TO.N,/SWCLK*%
X123550000Y-108400000D03*
%TO.P,CN3,5,GND*%
%TO.N,GND*%
X124820000Y-109670000D03*
%TO.P,CN3,6,SWO*%
%TO.N,unconnected-(CN3-SWO-Pad6)*%
X123550000Y-109670000D03*
%TD*%
D17*
%TO.P,C29,1*%
%TO.N,/NRST*%
X73300000Y-111400000D03*
%TO.P,C29,2*%
%TO.N,GND*%
X72280000Y-111400000D03*
%TD*%
D15*
%TO.P,C5,1*%
%TO.N,+3.3V_GPS*%
X86400000Y-77890000D03*
%TO.P,C5,2*%
%TO.N,GND*%
X86400000Y-78910000D03*
%TD*%
%TO.P,R14,1*%
%TO.N,+3.3V*%
X88200000Y-70790000D03*
%TO.P,R14,2*%
%TO.N,/SD_DAT3*%
X88200000Y-71810000D03*
%TD*%
%TO.P,C17,1*%
%TO.N,+3.3V*%
X75900000Y-116790000D03*
%TO.P,C17,2*%
%TO.N,GND*%
X75900000Y-117810000D03*
%TD*%
D14*
%TO.P,C27,1*%
%TO.N,+3.3V*%
X90190000Y-71900000D03*
%TO.P,C27,2*%
%TO.N,GND*%
X91210000Y-71900000D03*
%TD*%
D27*
%TO.P,U3,1,GND*%
%TO.N,GND*%
X84600000Y-95400000D03*
%TO.P,U3,2,VCC*%
%TO.N,/GPS/3V3_RF*%
X85000000Y-95400000D03*
%TO.P,U3,3,OUT*%
%TO.N,Net-(U3-OUT)*%
X85400000Y-95400000D03*
%TO.P,U3,4,GNDRF*%
%TO.N,GND*%
X85400000Y-95800000D03*
%TO.P,U3,5,IN*%
%TO.N,Net-(U3-IN)*%
X85000000Y-95800000D03*
%TO.P,U3,6,PON*%
%TO.N,Net-(U3-PON)*%
X84600000Y-95800000D03*
%TD*%
D28*
%TO.P,U11,1,VBAT*%
%TO.N,+3.3V*%
X74950000Y-114700000D03*
%TO.P,U11,2,PC13*%
%TO.N,unconnected-(U11-PC13-Pad2)*%
X74950000Y-114200000D03*
%TO.P,U11,3,PC14-OSC32_IN*%
%TO.N,unconnected-(U11-PC14-OSC32_IN-Pad3)*%
X74950000Y-113700000D03*
%TO.P,U11,4,PC15-OSC32_OUT*%
%TO.N,unconnected-(U11-PC15-OSC32_OUT-Pad4)*%
X74950000Y-113200000D03*
%TO.P,U11,5,PH0-OSC_IN*%
%TO.N,Net-(U11-PH0-OSC_IN)*%
X74950000Y-112700000D03*
%TO.P,U11,6,PH1-OSC_OUT*%
%TO.N,unconnected-(U11-PH1-OSC_OUT-Pad6)*%
X74950000Y-112200000D03*
%TO.P,U11,7,NRST*%
%TO.N,/NRST*%
X74950000Y-111700000D03*
%TO.P,U11,8,PC0*%
%TO.N,unconnected-(U11-PC0-Pad8)*%
X74950000Y-111200000D03*
%TO.P,U11,9,PC1*%
%TO.N,unconnected-(U11-PC1-Pad9)*%
X74950000Y-110700000D03*
%TO.P,U11,10,PC2*%
%TO.N,unconnected-(U11-PC2-Pad10)*%
X74950000Y-110200000D03*
%TO.P,U11,11,PC3*%
%TO.N,unconnected-(U11-PC3-Pad11)*%
X74950000Y-109700000D03*
%TO.P,U11,12,VSSA*%
%TO.N,GND*%
X74950000Y-109200000D03*
%TO.P,U11,13,VDDA*%
%TO.N,+3.3V*%
X74950000Y-108700000D03*
%TO.P,U11,14,PA0*%
%TO.N,unconnected-(U11-PA0-Pad14)*%
X74950000Y-108200000D03*
%TO.P,U11,15,PA1*%
%TO.N,unconnected-(U11-PA1-Pad15)*%
X74950000Y-107700000D03*
%TO.P,U11,16,PA2*%
%TO.N,/UART_TX*%
X74950000Y-107200000D03*
D29*
%TO.P,U11,17,PA3*%
%TO.N,/UART_RX*%
X76875000Y-105275000D03*
%TO.P,U11,18,VSS*%
%TO.N,GND*%
X77375000Y-105275000D03*
%TO.P,U11,19,VDD*%
%TO.N,+3.3V*%
X77875000Y-105275000D03*
%TO.P,U11,20,PA4*%
%TO.N,unconnected-(U11-PA4-Pad20)*%
X78375000Y-105275000D03*
%TO.P,U11,21,PA5*%
%TO.N,/BUTTON_1*%
X78875000Y-105275000D03*
%TO.P,U11,22,PA6*%
%TO.N,unconnected-(U11-PA6-Pad22)*%
X79375000Y-105275000D03*
%TO.P,U11,23,PA7*%
%TO.N,unconnected-(U11-PA7-Pad23)*%
X79875000Y-105275000D03*
%TO.P,U11,24,PC4*%
%TO.N,/TESEO_RX*%
X80375000Y-105275000D03*
%TO.P,U11,25,PC5*%
%TO.N,/TESEO_TX*%
X80875000Y-105275000D03*
%TO.P,U11,26,PB0*%
%TO.N,unconnected-(U11-PB0-Pad26)*%
X81375000Y-105275000D03*
%TO.P,U11,27,PB1*%
%TO.N,/TESEO_WKUP*%
X81875000Y-105275000D03*
%TO.P,U11,28,PB2*%
%TO.N,/TESEO_NRST*%
X82375000Y-105275000D03*
%TO.P,U11,29,PB10*%
%TO.N,unconnected-(U11-PB10-Pad29)*%
X82875000Y-105275000D03*
%TO.P,U11,30,PB11*%
%TO.N,unconnected-(U11-PB11-Pad30)*%
X83375000Y-105275000D03*
%TO.P,U11,31,VSS*%
%TO.N,GND*%
X83875000Y-105275000D03*
%TO.P,U11,32,VDD*%
%TO.N,+3.3V*%
X84375000Y-105275000D03*
D28*
%TO.P,U11,33,PB12*%
%TO.N,/3V3_RYLR_EN*%
X86300000Y-107200000D03*
%TO.P,U11,34,PB13*%
%TO.N,/MAG_ACC_DRDY*%
X86300000Y-107700000D03*
%TO.P,U11,35,PB14*%
%TO.N,/MAG_ACC_INT1*%
X86300000Y-108200000D03*
%TO.P,U11,36,PB15*%
%TO.N,/LED_DATA*%
X86300000Y-108700000D03*
%TO.P,U11,37,PC6*%
%TO.N,/MAG_ACC_INT2*%
X86300000Y-109200000D03*
%TO.P,U11,38,PC7*%
%TO.N,/3V3_TESEO_EN*%
X86300000Y-109700000D03*
%TO.P,U11,39,PC8*%
%TO.N,/SD_DAT0*%
X86300000Y-110200000D03*
%TO.P,U11,40,PC9*%
%TO.N,/SD_DAT1*%
X86300000Y-110700000D03*
%TO.P,U11,41,PA8*%
%TO.N,/SD_DETECT*%
X86300000Y-111200000D03*
%TO.P,U11,42,PA9*%
%TO.N,/RYLR998_RX*%
X86300000Y-111700000D03*
%TO.P,U11,43,PA10*%
%TO.N,/RYLR998_TX*%
X86300000Y-112200000D03*
%TO.P,U11,44,PA11*%
%TO.N,/RYLR998_NRST*%
X86300000Y-112700000D03*
%TO.P,U11,45,PA12*%
%TO.N,/1V8_ACC_MAG_EN*%
X86300000Y-113200000D03*
%TO.P,U11,46,PA13*%
%TO.N,/SWDIO*%
X86300000Y-113700000D03*
%TO.P,U11,47,VSS*%
%TO.N,GND*%
X86300000Y-114200000D03*
%TO.P,U11,48,VDD*%
%TO.N,+3.3V*%
X86300000Y-114700000D03*
D29*
%TO.P,U11,49,PA14*%
%TO.N,/SWCLK*%
X84375000Y-116625000D03*
%TO.P,U11,50,PA15*%
%TO.N,unconnected-(U11-PA15-Pad50)*%
X83875000Y-116625000D03*
%TO.P,U11,51,PC10*%
%TO.N,/SD_DAT2*%
X83375000Y-116625000D03*
%TO.P,U11,52,PC11*%
%TO.N,/SD_DAT3*%
X82875000Y-116625000D03*
%TO.P,U11,53,PC12*%
%TO.N,/SD_CLK*%
X82375000Y-116625000D03*
%TO.P,U11,54,PD2*%
%TO.N,/SD_CMD*%
X81875000Y-116625000D03*
%TO.P,U11,55,PB3*%
%TO.N,unconnected-(U11-PB3-Pad55)*%
X81375000Y-116625000D03*
%TO.P,U11,56,PB4*%
%TO.N,unconnected-(U11-PB4-Pad56)*%
X80875000Y-116625000D03*
%TO.P,U11,57,PB5*%
%TO.N,unconnected-(U11-PB5-Pad57)*%
X80375000Y-116625000D03*
%TO.P,U11,58,PB6*%
%TO.N,/SCL*%
X79875000Y-116625000D03*
%TO.P,U11,59,PB7*%
%TO.N,/SDA*%
X79375000Y-116625000D03*
%TO.P,U11,60,PH3-BOOT0*%
%TO.N,unconnected-(U11-PH3-BOOT0-Pad60)*%
X78875000Y-116625000D03*
%TO.P,U11,61,PB8*%
%TO.N,/BUTTON_2*%
X78375000Y-116625000D03*
%TO.P,U11,62,PB9*%
%TO.N,unconnected-(U11-PB9-Pad62)*%
X77875000Y-116625000D03*
%TO.P,U11,63,VSS*%
%TO.N,GND*%
X77375000Y-116625000D03*
%TO.P,U11,64,VDD*%
%TO.N,+3.3V*%
X76875000Y-116625000D03*
%TD*%
D30*
%TO.N,GND*%
X113800000Y-110100000D03*
X76300000Y-103700000D03*
X93700000Y-95900000D03*
X105500000Y-110100000D03*
X125700000Y-94300000D03*
X88700000Y-91400000D03*
X100300000Y-124100000D03*
X109200000Y-76500000D03*
X109000000Y-103600000D03*
X111899999Y-112000000D03*
X96800000Y-73300000D03*
X106300000Y-81300000D03*
X93700000Y-105500000D03*
X97500000Y-117400000D03*
X100600000Y-82000000D03*
X103600000Y-101900000D03*
X93700000Y-91300000D03*
X113300000Y-107400000D03*
X127900000Y-88600000D03*
X93700000Y-101500000D03*
X73400000Y-110300000D03*
X92500000Y-109000000D03*
X71400000Y-108500000D03*
X108412960Y-73530726D03*
X81600000Y-95800000D03*
X83786799Y-96550000D03*
X85000000Y-101300000D03*
X88700000Y-101600000D03*
X83800000Y-95400000D03*
X70500000Y-97500000D03*
X102500000Y-71100000D03*
X107500000Y-117400000D03*
X86100000Y-98000000D03*
X77700000Y-101200000D03*
X86100000Y-95800000D03*
X77900000Y-112700000D03*
X83800000Y-98200000D03*
X111899999Y-112700000D03*
X91900000Y-128600000D03*
X105430511Y-75725000D03*
X87200000Y-78900000D03*
X92000000Y-72100000D03*
X93400000Y-110100000D03*
X92001985Y-70775000D03*
X82300000Y-107800000D03*
X106300000Y-79800000D03*
X105100000Y-112400000D03*
X107430511Y-74950000D03*
X108500000Y-79900000D03*
X69800000Y-108800000D03*
X87900000Y-99100000D03*
X72300000Y-88600000D03*
X116800000Y-83900000D03*
X88600000Y-105700000D03*
X75200000Y-117400000D03*
X98700000Y-107000000D03*
X79705380Y-119005381D03*
X128656587Y-103156587D03*
X111300000Y-121600000D03*
X77800000Y-91500000D03*
X77100000Y-81900000D03*
X73350000Y-113275000D03*
X83800000Y-100000000D03*
X125700000Y-96800000D03*
X87600000Y-101000000D03*
X98800000Y-101600000D03*
X87100000Y-98300000D03*
X107800000Y-77600000D03*
X97600000Y-128900000D03*
X82300000Y-77100000D03*
X86400000Y-91300000D03*
X118550000Y-122100000D03*
X89100000Y-116400000D03*
X98600000Y-112600000D03*
X83550000Y-102850000D03*
X89200000Y-88200000D03*
X103800000Y-80600000D03*
X72800000Y-112125000D03*
X125700000Y-109650000D03*
X87713096Y-117277379D03*
X122300000Y-81300000D03*
X84200000Y-88500000D03*
X98900000Y-91100000D03*
X98700000Y-96000000D03*
X87709620Y-114190380D03*
X77600000Y-95800000D03*
X86100000Y-94000000D03*
X88400000Y-95900000D03*
%TO.N,+5V*%
X105900000Y-110800000D03*
X114099999Y-112200000D03*
X102500000Y-113300000D03*
X110899999Y-111000000D03*
%TO.N,/GPS/3V3_TESEO_FILTERED*%
X83300000Y-79000000D03*
%TO.N,+1V8*%
X103300000Y-75100000D03*
X106400000Y-72000000D03*
X107000000Y-78600000D03*
%TO.N,+3.3V*%
X74975000Y-102900000D03*
X90000000Y-72800000D03*
X93600000Y-69625000D03*
X94100000Y-128500000D03*
X123250000Y-102600000D03*
X99400000Y-73800000D03*
X87700000Y-115000000D03*
X100000000Y-77500000D03*
X75700000Y-115900000D03*
X102000000Y-110300000D03*
X69150000Y-104000000D03*
X73400000Y-107700000D03*
X124300000Y-103650000D03*
%TO.N,/3V3_RYLR_EN*%
X105500000Y-113800000D03*
X83900000Y-115000000D03*
X93600000Y-117400000D03*
%TO.N,/3V3_TESEO_EN*%
X93000000Y-118100000D03*
X107100000Y-102800000D03*
X89100000Y-117300000D03*
%TO.N,/SCL*%
X78722044Y-115000000D03*
X93500000Y-83900000D03*
X78700000Y-88050000D03*
X98750000Y-75600000D03*
%TO.N,/SDA*%
X97800000Y-74800000D03*
X79800000Y-87350000D03*
X76696987Y-115359231D03*
X92646270Y-83650311D03*
%TO.N,/MAG_ACC_INT1*%
X101600000Y-80700000D03*
X107100000Y-73500000D03*
X91500000Y-88506587D03*
%TO.N,/MAG_ACC_DRDY*%
X90680252Y-88393745D03*
%TO.N,/MAG_ACC_INT2*%
X102350000Y-81100000D03*
X107767170Y-73058541D03*
X92303686Y-88695497D03*
%TO.N,/TESEO_RX*%
X73300000Y-92600000D03*
%TO.N,/TESEO_TX*%
X76175000Y-82200000D03*
%TO.N,/NRST*%
X80000000Y-115100000D03*
X82000000Y-117900000D03*
%TO.N,/UART_RX*%
X125550000Y-93000000D03*
X81197995Y-118531773D03*
X81595624Y-115202621D03*
X126606587Y-105206587D03*
%TO.N,/1V8_ACC_MAG_EN*%
X95900000Y-115100000D03*
X102650000Y-86700000D03*
X93000000Y-115100000D03*
%TO.N,/RYLR998_RX*%
X105300000Y-83600000D03*
%TO.N,/RYLR998_TX*%
X105900000Y-84700000D03*
X109724087Y-84700913D03*
%TO.N,/UART_TX*%
X80795922Y-115180699D03*
X80600000Y-118000000D03*
X126950000Y-92100000D03*
X127350000Y-104550000D03*
%TO.N,/SWDIO*%
X82584456Y-118492228D03*
X86013973Y-115686027D03*
%TO.N,/SWCLK*%
X84700000Y-117775000D03*
X122706587Y-112493413D03*
X125850000Y-97900000D03*
X122025000Y-113500000D03*
X83300000Y-118850000D03*
X122600000Y-108750000D03*
%TO.N,/SD_DAT0*%
X93700000Y-73800000D03*
%TO.N,/SD_DAT3*%
X88200000Y-73400000D03*
X96000000Y-86600000D03*
X92100000Y-86600000D03*
%TO.N,/SD_CMD*%
X87600000Y-81800000D03*
%TO.N,/SD_DETECT*%
X94077360Y-86850000D03*
X102650000Y-83100000D03*
%TO.N,/SD_DAT1*%
X94700000Y-73500000D03*
%TO.N,/SD_DAT2*%
X86400000Y-75700000D03*
X90475001Y-86355839D03*
X95924999Y-87396479D03*
%TO.N,Net-(D2-DOUT)*%
X125500000Y-116850000D03*
X126950000Y-115200000D03*
%TO.N,Net-(D4-DOUT)*%
X110200000Y-71050000D03*
X107200000Y-69400000D03*
%TO.N,Net-(D5-DOUT)*%
X81150000Y-74750000D03*
X82900000Y-74250000D03*
%TO.N,Net-(D6-DOUT)*%
X68850000Y-95250000D03*
X71000000Y-93100000D03*
%TO.N,Net-(D7-DOUT)*%
X78750000Y-120350000D03*
X77450000Y-120300000D03*
%TO.N,/BUTTON_1*%
X70500000Y-91100000D03*
%TO.N,/BUTTON_2*%
X130000000Y-92450000D03*
%TO.N,/LED_DATA*%
X85750000Y-117775000D03*
X88100000Y-121400000D03*
X88100000Y-123600000D03*
%TO.N,+3V0*%
X109900000Y-112950000D03*
X102700000Y-78300000D03*
%TO.N,Net-(CN4-CLK)*%
X85800000Y-72600000D03*
%TO.N,+3.3V_GPS*%
X98800000Y-86200000D03*
X87113377Y-77935881D03*
%TO.N,+3.3V_LORA*%
X104300000Y-108400000D03*
X116800000Y-82400000D03*
%TD*%
D31*
%TO.N,Net-(ANT1-Pad1)*%
X86415000Y-100015000D02*
X85095000Y-100015000D01*
X85095000Y-100015000D02*
X84800000Y-99720000D01*
%TO.N,Net-(C1-Pad2)*%
X84800000Y-98300000D02*
X85000000Y-98100000D01*
X85000000Y-98100000D02*
X85000000Y-97710000D01*
X84800000Y-98700000D02*
X84800000Y-98300000D01*
D32*
%TO.N,GND*%
X84200000Y-89800000D02*
X84200000Y-88500000D01*
X73400000Y-109510000D02*
X73400000Y-110300000D01*
X77375000Y-105275000D02*
X77375000Y-103985000D01*
X75510000Y-117810000D02*
X75900000Y-117810000D01*
X83590000Y-103700000D02*
X83590000Y-102890000D01*
X87900000Y-100700000D02*
X87600000Y-101000000D01*
X71775000Y-108875000D02*
X71400000Y-108500000D01*
D31*
X77500000Y-80700000D02*
X77400000Y-80800000D01*
X77500000Y-80600000D02*
X77500000Y-80700000D01*
D32*
X77375000Y-103985000D02*
X77090000Y-103700000D01*
D31*
X123680000Y-96850000D02*
X123680000Y-98120000D01*
D32*
X86300000Y-114200000D02*
X87700000Y-114200000D01*
X75200000Y-117400000D02*
X75200000Y-117500000D01*
X77090000Y-103700000D02*
X76300000Y-103700000D01*
X77375000Y-117503120D02*
X77068120Y-117810000D01*
X86400000Y-89800000D02*
X86400000Y-91300000D01*
X74800000Y-116710000D02*
X74800000Y-117100000D01*
D31*
X68750000Y-102250000D02*
X68750000Y-97750000D01*
D32*
X83800000Y-98200000D02*
X83800000Y-96563201D01*
D31*
X124820000Y-109670000D02*
X125680000Y-109670000D01*
D32*
X70925000Y-112226040D02*
X70925000Y-109526040D01*
X77068120Y-117810000D02*
X75900000Y-117810000D01*
D31*
X84600000Y-95400000D02*
X83800000Y-95400000D01*
D32*
X85410000Y-78910000D02*
X85320000Y-79000000D01*
X85000000Y-101300000D02*
X85000000Y-101229634D01*
X86100000Y-98000000D02*
X86800000Y-98000000D01*
X86900000Y-116800000D02*
X87235717Y-116800000D01*
X72280000Y-111400000D02*
X72280000Y-111605000D01*
X87700000Y-114200000D02*
X87709620Y-114190380D01*
X75100000Y-117400000D02*
X75200000Y-117400000D01*
X71425000Y-108475000D02*
X71400000Y-108500000D01*
X71775000Y-110895000D02*
X71775000Y-108875000D01*
X73350000Y-113275000D02*
X71973960Y-113275000D01*
X87600000Y-101000000D02*
X87300000Y-101300000D01*
X86100000Y-95800000D02*
X86100000Y-98000000D01*
X83875000Y-103985000D02*
X83590000Y-103700000D01*
X87900000Y-99100000D02*
X87900000Y-100700000D01*
X86100000Y-94000000D02*
X86100000Y-91600000D01*
D31*
X84200000Y-89800000D02*
X84200000Y-91290000D01*
D32*
X84700000Y-93500000D02*
X84700000Y-94000000D01*
X91410001Y-72100000D02*
X91210001Y-71900000D01*
X85275000Y-94000000D02*
X86100000Y-94000000D01*
X77500000Y-81500000D02*
X77100000Y-81900000D01*
X83590000Y-102890000D02*
X83550000Y-102850000D01*
X85000000Y-101229634D02*
X83800000Y-100029634D01*
X87100000Y-98300000D02*
X87900000Y-99100000D01*
X86800000Y-98000000D02*
X87100000Y-98300000D01*
D31*
X85400000Y-95800000D02*
X86100000Y-95800000D01*
D32*
X72280000Y-111605000D02*
X72800000Y-112125000D01*
X73400000Y-109510000D02*
X73710000Y-109200000D01*
X83800000Y-100029634D02*
X83800000Y-100000000D01*
X75200000Y-117500000D02*
X75510000Y-117810000D01*
X71973960Y-113275000D02*
X70925000Y-112226040D01*
X87190000Y-78910000D02*
X87200000Y-78900000D01*
D31*
X123680000Y-94310000D02*
X125690000Y-94310000D01*
X84200000Y-91290000D02*
X84300000Y-91390000D01*
D32*
X91876985Y-70900000D02*
X92001985Y-70775000D01*
X74800000Y-117100000D02*
X75100000Y-117400000D01*
X86100000Y-91600000D02*
X86400000Y-91300000D01*
D31*
X125680000Y-109670000D02*
X125700000Y-109650000D01*
D32*
X86100000Y-95800000D02*
X86100000Y-94000000D01*
D31*
X125690000Y-94310000D02*
X125700000Y-94300000D01*
D32*
X85070366Y-101300000D02*
X85070366Y-101300000D01*
X73700000Y-116710000D02*
X74800000Y-116710000D01*
X83800000Y-96563201D02*
X83786799Y-96550000D01*
X87300000Y-101300000D02*
X85000000Y-101300000D01*
X70925000Y-109526040D02*
X70198960Y-108800000D01*
X86400000Y-78910000D02*
X87190000Y-78910000D01*
X92000000Y-72100000D02*
X91410001Y-72100000D01*
X72280000Y-111400000D02*
X71775000Y-110895000D01*
X70198960Y-108800000D02*
X69800000Y-108800000D01*
X91210001Y-71900000D02*
X91210001Y-70900000D01*
X73710000Y-109200000D02*
X74950000Y-109200000D01*
D31*
X125650000Y-96850000D02*
X125700000Y-96800000D01*
D32*
X68750000Y-97750000D02*
X70250000Y-97750000D01*
X70250000Y-97750000D02*
X70500000Y-97500000D01*
X86400000Y-78910000D02*
X85410000Y-78910000D01*
X71425000Y-107250000D02*
X71425000Y-108475000D01*
X85275000Y-94000000D02*
X84700000Y-94000000D01*
X91210000Y-70900000D02*
X91876985Y-70900000D01*
X83875000Y-105275000D02*
X83875000Y-103985000D01*
X77500000Y-80600000D02*
X77500000Y-81500000D01*
X87235717Y-116800000D02*
X87713096Y-117277379D01*
D31*
X123680000Y-96850000D02*
X125650000Y-96850000D01*
D32*
X83800000Y-100000000D02*
X83800000Y-98200000D01*
X77375000Y-116625000D02*
X77375000Y-117503120D01*
D31*
%TO.N,Net-(U6-RF_IN)*%
X85300000Y-91400000D02*
X85300000Y-89800000D01*
%TO.N,Net-(U5-OUT)*%
X85300000Y-93000000D02*
X85275000Y-93025000D01*
X85300000Y-92420000D02*
X85300000Y-93000000D01*
X85275000Y-93025000D02*
X85275000Y-93500000D01*
D32*
%TO.N,/GPS/3V3_TESEO_FILTERED*%
X83000000Y-80600000D02*
X83000000Y-80300000D01*
D31*
X84300000Y-79000000D02*
X83300000Y-79000000D01*
D32*
X84300000Y-79000000D02*
X84300000Y-78000000D01*
X84300000Y-79000000D02*
X84300000Y-80400000D01*
X85200000Y-79900000D02*
X84300000Y-79000000D01*
X84300000Y-78000000D02*
X84400000Y-77900000D01*
X83000000Y-80300000D02*
X84300000Y-79000000D01*
X84300000Y-80400000D02*
X84100000Y-80600000D01*
X85200000Y-80600000D02*
X85200000Y-79900000D01*
%TO.N,+3.3V*%
X73610000Y-108700000D02*
X73400000Y-108490000D01*
X86900000Y-115300000D02*
X86300000Y-114700000D01*
X77875000Y-105275000D02*
X77875000Y-106175000D01*
X69775000Y-104625000D02*
X69150000Y-104000000D01*
X78110000Y-103700000D02*
X78110000Y-103410000D01*
X74950000Y-108700000D02*
X73610000Y-108700000D01*
X88310000Y-70900000D02*
X88200000Y-70790000D01*
X86920000Y-115780000D02*
X87700000Y-115000000D01*
X94600000Y-70800000D02*
X93320000Y-70800000D01*
D31*
X122660000Y-99390000D02*
X123680000Y-99390000D01*
D32*
X76490000Y-116790000D02*
X75900000Y-116790000D01*
X75900000Y-116790000D02*
X75900000Y-116100000D01*
X75490000Y-115690000D02*
X75700000Y-115900000D01*
D31*
X124300000Y-103750000D02*
X124300000Y-103650000D01*
D32*
X90000000Y-72089999D02*
X90189999Y-71900000D01*
D31*
X125213500Y-104663500D02*
X124850000Y-104300000D01*
D32*
X84375000Y-106425000D02*
X84375000Y-105275000D01*
X93600000Y-70480000D02*
X93300000Y-70780000D01*
X77800000Y-103100000D02*
X77600000Y-102900000D01*
X90189999Y-70900000D02*
X90189999Y-71900000D01*
X76700000Y-116800000D02*
X76500000Y-116800000D01*
X86900000Y-115780000D02*
X86900000Y-115300000D01*
X77600000Y-102900000D02*
X74975000Y-102900000D01*
X73700000Y-115690000D02*
X74800000Y-115690000D01*
X69775000Y-104475000D02*
X70000000Y-104250000D01*
X78300000Y-106600000D02*
X84200000Y-106600000D01*
X74800000Y-115690000D02*
X75490000Y-115690000D01*
X84375000Y-105275000D02*
X84375000Y-103935000D01*
D31*
X124850000Y-104300000D02*
X124300000Y-103750000D01*
D32*
X84200000Y-106600000D02*
X84375000Y-106425000D01*
X69775000Y-105150000D02*
X69775000Y-104475000D01*
D31*
X123250000Y-102600000D02*
X122010000Y-101360000D01*
D32*
X74950000Y-115050000D02*
X74800000Y-115200000D01*
X74800000Y-115200000D02*
X74800000Y-115690000D01*
X86800000Y-72190000D02*
X88200000Y-70790000D01*
X77875000Y-105275000D02*
X77875000Y-103935000D01*
X77875000Y-106175000D02*
X78300000Y-106600000D01*
D31*
X124820000Y-107130000D02*
X125213500Y-106736500D01*
D32*
X70000000Y-104250000D02*
X70000000Y-103700000D01*
D31*
X125213500Y-106736500D02*
X125213500Y-104663500D01*
D32*
X74950000Y-114700000D02*
X74950000Y-115050000D01*
X75900000Y-116100000D02*
X75700000Y-115900000D01*
X93320000Y-70800000D02*
X93300000Y-70780000D01*
X73400000Y-108490000D02*
X73400000Y-107700000D01*
X76500000Y-116800000D02*
X76490000Y-116790000D01*
X90189999Y-70900000D02*
X88310000Y-70900000D01*
X93600000Y-69625000D02*
X93600000Y-70480000D01*
X76875000Y-116625000D02*
X76700000Y-116800000D01*
X84375000Y-103935000D02*
X84610000Y-103700000D01*
X69775000Y-105150000D02*
X69775000Y-104625000D01*
X86800000Y-72900000D02*
X86800000Y-72190000D01*
X90000000Y-72800000D02*
X90000000Y-72089999D01*
D31*
X122010000Y-100040000D02*
X122660000Y-99390000D01*
D32*
X77875000Y-103935000D02*
X78110000Y-103700000D01*
X86900000Y-115780000D02*
X86920000Y-115780000D01*
D31*
X122010000Y-101360000D02*
X122010000Y-100040000D01*
D32*
X78110000Y-103410000D02*
X77800000Y-103100000D01*
D31*
%TO.N,Net-(U3-PON)*%
X84600000Y-95800000D02*
X84500000Y-95800000D01*
X84325000Y-95975000D02*
X83561827Y-95975000D01*
X83561827Y-95975000D02*
X83000000Y-95413173D01*
X83000000Y-95413173D02*
X83000000Y-94250000D01*
X83000000Y-94250000D02*
X81000000Y-94250000D01*
X84500000Y-95800000D02*
X84325000Y-95975000D01*
X81000000Y-94250000D02*
X80900000Y-94150000D01*
%TO.N,/GPS/3V3_RF*%
X82500000Y-93500000D02*
X81850000Y-92850000D01*
X80900000Y-92850000D02*
X80900000Y-92200000D01*
X85000000Y-95400000D02*
X85000000Y-95100000D01*
X84000000Y-94400000D02*
X84000000Y-94061658D01*
X81850000Y-92850000D02*
X80900000Y-92850000D01*
X80900000Y-92200000D02*
X82000000Y-91100000D01*
X83438342Y-93500000D02*
X82500000Y-93500000D01*
X84525000Y-94925000D02*
X84000000Y-94400000D01*
X85000000Y-95100000D02*
X84825000Y-94925000D01*
X82000000Y-91100000D02*
X82000000Y-89800000D01*
X84000000Y-94061658D02*
X83438342Y-93500000D01*
X85000000Y-95400000D02*
X84950000Y-95350000D01*
X84825000Y-94925000D02*
X84525000Y-94925000D01*
%TO.N,/3V3_RYLR_EN*%
X94500000Y-117400000D02*
X95700000Y-116200000D01*
X104300000Y-115100000D02*
X104900000Y-115100000D01*
X98400000Y-115100000D02*
X104300000Y-115100000D01*
X105500000Y-114500000D02*
X105500000Y-113800000D01*
X95700000Y-116200000D02*
X97300000Y-116200000D01*
X83900000Y-108825001D02*
X85525001Y-107200000D01*
X93600000Y-117400000D02*
X94500000Y-117400000D01*
X85525001Y-107200000D02*
X86300000Y-107200000D01*
X83900000Y-115000000D02*
X83900000Y-108825001D01*
X104900000Y-115100000D02*
X105500000Y-114500000D01*
X98200000Y-115300000D02*
X98400000Y-115100000D01*
X97300000Y-116200000D02*
X98200000Y-115300000D01*
%TO.N,Net-(U3-IN)*%
X85000000Y-96700000D02*
X85000000Y-95800000D01*
%TO.N,/3V3_TESEO_EN*%
X86700000Y-117900000D02*
X88500000Y-117900000D01*
X107100000Y-102800000D02*
X106700000Y-103200000D01*
X84900000Y-115205026D02*
X85400000Y-115705026D01*
X85525001Y-109700000D02*
X84900000Y-110325001D01*
X85400000Y-116000000D02*
X86300000Y-116900000D01*
X93000000Y-118100000D02*
X104000000Y-118100000D01*
X86300000Y-117500000D02*
X86700000Y-117900000D01*
X84900000Y-110325001D02*
X84900000Y-115205026D01*
X88500000Y-117900000D02*
X89100000Y-117300000D01*
X106700000Y-103200000D02*
X106700000Y-115400000D01*
X86300000Y-109700000D02*
X85525001Y-109700000D01*
X106700000Y-115400000D02*
X104000000Y-118100000D01*
X86300000Y-116900000D02*
X86300000Y-117500000D01*
X85400000Y-115705026D02*
X85400000Y-116000000D01*
%TO.N,/GPS/ANTOFF*%
X83000000Y-92700000D02*
X83500000Y-92700000D01*
X83500000Y-92700000D02*
X83790000Y-92410000D01*
X83100000Y-91300000D02*
X83100000Y-89800000D01*
X83000000Y-91400000D02*
X83100000Y-91300000D01*
X83790000Y-92410000D02*
X84300000Y-92410000D01*
X83000000Y-92700000D02*
X83000000Y-91400000D01*
%TO.N,/SCL*%
X78700000Y-89800000D02*
X78700000Y-88050000D01*
X98750000Y-78350000D02*
X98750000Y-75600000D01*
X78947044Y-115225000D02*
X79247054Y-115225000D01*
X79247054Y-115225000D02*
X79875000Y-115852946D01*
X78722044Y-115000000D02*
X78947044Y-115225000D01*
X93500000Y-83600000D02*
X98750000Y-78350000D01*
X79875000Y-115852946D02*
X79875000Y-116625000D01*
X93500000Y-83900000D02*
X93500000Y-83600000D01*
%TO.N,/SDA*%
X78375000Y-115575000D02*
X79097054Y-115575000D01*
X92646270Y-83640557D02*
X97800000Y-78486827D01*
X79800000Y-89800000D02*
X79800000Y-87350000D01*
X97800000Y-78486827D02*
X97800000Y-74800000D01*
X78159231Y-115359231D02*
X78375000Y-115575000D01*
X76696987Y-115359231D02*
X78159231Y-115359231D01*
X92646270Y-83650311D02*
X92646270Y-83640557D01*
X79097054Y-115575000D02*
X79375000Y-115852946D01*
X79375000Y-115852946D02*
X79375000Y-116625000D01*
%TO.N,/MAG_ACC_INT1*%
X91500000Y-105800000D02*
X89100000Y-108200000D01*
X91500000Y-88506587D02*
X91500000Y-105800000D01*
X89100000Y-108200000D02*
X86300000Y-108200000D01*
X106300000Y-75600000D02*
X106300000Y-76000000D01*
X103000000Y-79300000D02*
X101600000Y-80700000D01*
X106300000Y-76000000D02*
X103000000Y-79300000D01*
X106300000Y-74300000D02*
X106300000Y-75600000D01*
X107100000Y-73500000D02*
X106300000Y-74300000D01*
%TO.N,/MAG_ACC_DRDY*%
X90600000Y-105400000D02*
X88300000Y-107700000D01*
X90600000Y-88473997D02*
X90600000Y-105400000D01*
X88300000Y-107700000D02*
X86300000Y-107700000D01*
X90680252Y-88393745D02*
X90600000Y-88473997D01*
%TO.N,/MAG_ACC_INT2*%
X106649999Y-76144975D02*
X104047487Y-78747487D01*
X107113173Y-74300000D02*
X107000000Y-74300000D01*
X106794974Y-74300000D02*
X106650000Y-74444974D01*
X107000000Y-74300000D02*
X106800000Y-74300000D01*
X106650000Y-74444974D02*
X106650000Y-74800000D01*
X106650000Y-76144975D02*
X106649999Y-76144975D01*
X104047487Y-78747487D02*
X102350000Y-80444974D01*
X106650000Y-74800000D02*
X106650000Y-76144975D01*
X107767170Y-73646003D02*
X107113173Y-74300000D01*
X106800000Y-74300000D02*
X106794974Y-74300000D01*
X107767170Y-73058541D02*
X107767170Y-73646003D01*
X92303686Y-106096314D02*
X89200000Y-109200000D01*
X92303686Y-88695497D02*
X92303686Y-106096314D01*
X102350000Y-80444974D02*
X102350000Y-81100000D01*
X89200000Y-109200000D02*
X86300000Y-109200000D01*
%TO.N,Net-(U3-OUT)*%
X85400000Y-95000000D02*
X85400000Y-95400000D01*
X84987500Y-94500000D02*
X84987500Y-94587500D01*
X84987500Y-94587500D02*
X85400000Y-95000000D01*
%TO.N,/TESEO_RX*%
X79575000Y-79525000D02*
X76775000Y-79525000D01*
X80375000Y-97425000D02*
X80375000Y-105275000D01*
X79700000Y-80600000D02*
X79700000Y-79650000D01*
X75600000Y-80700000D02*
X75600000Y-92650000D01*
X79700000Y-79650000D02*
X79575000Y-79525000D01*
X73300000Y-92600000D02*
X75550000Y-92600000D01*
X75600000Y-92650000D02*
X80375000Y-97425000D01*
X76775000Y-79525000D02*
X75600000Y-80700000D01*
X75550000Y-92600000D02*
X75600000Y-92650000D01*
%TO.N,/TESEO_WKUP*%
X81875000Y-97775000D02*
X81875000Y-105275000D01*
X81900000Y-80600000D02*
X81900000Y-82100000D01*
X76525000Y-87475000D02*
X76525000Y-92425000D01*
X76525000Y-92425000D02*
X81875000Y-97775000D01*
X81900000Y-82100000D02*
X76525000Y-87475000D01*
%TO.N,/TESEO_TX*%
X75950000Y-92505026D02*
X75950000Y-85600000D01*
X75950000Y-85600000D02*
X77775000Y-83775000D01*
X76175000Y-82200000D02*
X77750000Y-83775000D01*
X80875000Y-105275000D02*
X80875000Y-97430026D01*
X78600000Y-82950000D02*
X78600000Y-80600000D01*
X80875000Y-97430026D02*
X75950000Y-92505026D01*
X77775000Y-83775000D02*
X78600000Y-82950000D01*
X77750000Y-83775000D02*
X77775000Y-83775000D01*
%TO.N,/TESEO_NRST*%
X76875000Y-87625000D02*
X76875000Y-92275000D01*
X84300000Y-83550000D02*
X80950000Y-83550000D01*
X86300000Y-80600000D02*
X86300000Y-81550000D01*
X76875000Y-92275000D02*
X82375000Y-97775000D01*
X82375000Y-97775000D02*
X82375000Y-105275000D01*
X86300000Y-81550000D02*
X84300000Y-83550000D01*
X80950000Y-83550000D02*
X76875000Y-87625000D01*
%TO.N,/NRST*%
X82916852Y-119775000D02*
X120014948Y-119775000D01*
X129700000Y-95235000D02*
X128775000Y-94310000D01*
X80000000Y-115100000D02*
X80000000Y-113250000D01*
X78450000Y-111700000D02*
X74950000Y-111700000D01*
X126275000Y-108775000D02*
X125900000Y-108400000D01*
X74950000Y-111700000D02*
X73600000Y-111700000D01*
X122950000Y-114505025D02*
X126275000Y-111180025D01*
X129700000Y-101300000D02*
X129700000Y-95235000D01*
X80000000Y-113250000D02*
X78450000Y-111700000D01*
X82000000Y-118858148D02*
X82916852Y-119775000D01*
X126275000Y-111180025D02*
X126275000Y-108775000D01*
X82000000Y-117900000D02*
X82000000Y-118858148D01*
X72250000Y-102250000D02*
X72250000Y-97750000D01*
X120014948Y-119775000D02*
X122950000Y-116839948D01*
X73600000Y-111700000D02*
X73300000Y-111400000D01*
X72700000Y-102700000D02*
X72250000Y-102250000D01*
X125900000Y-108400000D02*
X125900000Y-105100000D01*
X73300000Y-111400000D02*
X72700000Y-110800000D01*
X128775000Y-94310000D02*
X127750000Y-94310000D01*
X72700000Y-110800000D02*
X72700000Y-102700000D01*
X125900000Y-105100000D02*
X129700000Y-101300000D01*
X125900000Y-108400000D02*
X124820000Y-108400000D01*
X122950000Y-116839948D02*
X122950000Y-114505025D01*
%TO.N,/UART_RX*%
X82771877Y-120125000D02*
X85400000Y-120125000D01*
X81600000Y-112580027D02*
X76875000Y-107855027D01*
X125510000Y-93040000D02*
X123680000Y-93040000D01*
X123300000Y-116984923D02*
X123300000Y-114650000D01*
X85400000Y-120125000D02*
X120159922Y-120125000D01*
X123300000Y-114650000D02*
X126625000Y-111325000D01*
X125550000Y-93000000D02*
X125510000Y-93040000D01*
X126625000Y-105225000D02*
X126606587Y-105206587D01*
X81600000Y-115198245D02*
X81600000Y-112580027D01*
X81595624Y-115202621D02*
X81600000Y-115198245D01*
X81197995Y-118551117D02*
X82771877Y-120125000D01*
X120159922Y-120125000D02*
X123300000Y-116984923D01*
X126625000Y-111325000D02*
X126625000Y-109800000D01*
X81197995Y-118531773D02*
X81197995Y-118551117D01*
X76875000Y-107855027D02*
X76875000Y-105275000D01*
X126625000Y-109800000D02*
X126625000Y-105225000D01*
%TO.N,/1V8_ACC_MAG_EN*%
X97200000Y-115100000D02*
X95900000Y-115100000D01*
X93000000Y-115100000D02*
X91100000Y-113200000D01*
X99900000Y-92600000D02*
X99900000Y-112400000D01*
X91100000Y-113200000D02*
X86300000Y-113200000D01*
X102650000Y-86700000D02*
X102650000Y-86750000D01*
X100800000Y-88600000D02*
X99900000Y-89500000D01*
X99900000Y-89500000D02*
X99900000Y-92600000D01*
X102650000Y-86750000D02*
X100800000Y-88600000D01*
X99900000Y-112400000D02*
X98100000Y-114200000D01*
X98100000Y-114200000D02*
X97200000Y-115100000D01*
%TO.N,/RYLR998_RX*%
X113150000Y-86400000D02*
X110850000Y-84100000D01*
X96000000Y-84100000D02*
X94652360Y-85447640D01*
X94650000Y-109950000D02*
X94650000Y-86949999D01*
X105300000Y-84100000D02*
X105300000Y-83600000D01*
X94652360Y-85447640D02*
X94652360Y-86949999D01*
X86300000Y-111700000D02*
X92900000Y-111700000D01*
X110850000Y-84100000D02*
X105300000Y-84100000D01*
X105300000Y-84100000D02*
X96000000Y-84100000D01*
X92900000Y-111700000D02*
X94650000Y-109950000D01*
%TO.N,/RYLR998_NRST*%
X95350000Y-87242309D02*
X95350000Y-110350000D01*
X104300000Y-84800000D02*
X96294974Y-84800000D01*
X107200000Y-84800000D02*
X106500000Y-85500000D01*
X110610000Y-86400000D02*
X109010000Y-84800000D01*
X95352360Y-87239949D02*
X95350000Y-87242309D01*
X109010000Y-84800000D02*
X107200000Y-84800000D01*
X93000000Y-112700000D02*
X86300000Y-112700000D01*
X95350000Y-110350000D02*
X93000000Y-112700000D01*
X106500000Y-85500000D02*
X105000000Y-85500000D01*
X105000000Y-85500000D02*
X104300000Y-84800000D01*
X95352360Y-85742614D02*
X95352360Y-87239949D01*
X96294974Y-84800000D02*
X95352360Y-85742614D01*
%TO.N,/RYLR998_TX*%
X109473174Y-84450000D02*
X106800000Y-84450000D01*
X109724087Y-84700913D02*
X109473174Y-84450000D01*
X93000000Y-112200000D02*
X86300000Y-112200000D01*
X106150000Y-84450000D02*
X105900000Y-84700000D01*
X95002360Y-87094974D02*
X95000000Y-87097334D01*
X95002360Y-85597640D02*
X95002360Y-87094974D01*
X95000000Y-110200000D02*
X93000000Y-112200000D01*
X106800000Y-84450000D02*
X106150000Y-84450000D01*
X105900000Y-84700000D02*
X105850000Y-84700000D01*
X105850000Y-84700000D02*
X105600000Y-84450000D01*
X95000000Y-87097334D02*
X95000000Y-110200000D01*
X105600000Y-84450000D02*
X96150000Y-84450000D01*
X96150000Y-84450000D02*
X95002360Y-85597640D01*
%TO.N,/UART_TX*%
X127750000Y-93040000D02*
X127750000Y-92900000D01*
X80795922Y-115180699D02*
X80800000Y-115176621D01*
X127350000Y-111094974D02*
X127350000Y-104550000D01*
X80800000Y-112275001D02*
X75724999Y-107200000D01*
X80600000Y-118746951D02*
X82328049Y-120475000D01*
X123650000Y-114794974D02*
X127350000Y-111094974D01*
X123650000Y-117129896D02*
X123650000Y-114794974D01*
X75724999Y-107200000D02*
X74950000Y-107200000D01*
X82328049Y-120475000D02*
X120304896Y-120475000D01*
X120304896Y-120475000D02*
X123650000Y-117129896D01*
X80600000Y-118000000D02*
X80600000Y-118746951D01*
X127750000Y-92900000D02*
X126950000Y-92100000D01*
X80800000Y-115176621D02*
X80800000Y-112275001D01*
%TO.N,/SWDIO*%
X82584456Y-118492228D02*
X82584456Y-118947629D01*
X122600000Y-116694974D02*
X122600000Y-113200000D01*
X125750000Y-99900000D02*
X126260000Y-99390000D01*
X121800000Y-112400000D02*
X121800000Y-107950000D01*
X122600000Y-113200000D02*
X121800000Y-112400000D01*
X85250000Y-114922054D02*
X85250000Y-113977946D01*
X83061827Y-119425000D02*
X83775000Y-119425000D01*
X126260000Y-99390000D02*
X127750000Y-99390000D01*
X119894974Y-119400000D02*
X122600000Y-116694974D01*
X122620000Y-107130000D02*
X123550000Y-107130000D01*
X121800000Y-107950000D02*
X122620000Y-107130000D01*
X85250000Y-113977946D02*
X85527946Y-113700000D01*
X83800000Y-119400000D02*
X119894974Y-119400000D01*
X83775000Y-119425000D02*
X83800000Y-119400000D01*
X86013973Y-115686027D02*
X85250000Y-114922054D01*
X82584456Y-118947629D02*
X83061827Y-119425000D01*
X85527946Y-113700000D02*
X86300000Y-113700000D01*
X125750000Y-101200000D02*
X125750000Y-99900000D01*
X122650000Y-107100000D02*
X122650000Y-104300000D01*
X122620000Y-107130000D02*
X122650000Y-107100000D01*
X122650000Y-104300000D02*
X125750000Y-101200000D01*
%TO.N,/SWCLK*%
X122650000Y-108750000D02*
X123000000Y-108400000D01*
X127750000Y-98120000D02*
X126070000Y-98120000D01*
X122600000Y-108750000D02*
X122650000Y-108750000D01*
X123000000Y-108400000D02*
X123550000Y-108400000D01*
X122706587Y-112493413D02*
X122200000Y-111986826D01*
X119750000Y-119050000D02*
X83500000Y-119050000D01*
X84700000Y-117775000D02*
X84700000Y-116950000D01*
X122025000Y-113500000D02*
X122250000Y-113725000D01*
X122200000Y-111986826D02*
X122200000Y-109200000D01*
X122200000Y-109200000D02*
X122600000Y-108800000D01*
X84700000Y-116950000D02*
X84375000Y-116625000D01*
X83500000Y-119050000D02*
X83300000Y-118850000D01*
X122250000Y-113725000D02*
X122250000Y-116550000D01*
X122250000Y-116550000D02*
X119750000Y-119050000D01*
X122600000Y-108800000D02*
X122600000Y-108750000D01*
X126070000Y-98120000D02*
X125850000Y-97900000D01*
%TO.N,/SD_DAT0*%
X91600000Y-75900000D02*
X91600000Y-84900000D01*
X93300000Y-73400000D02*
X93300000Y-71800000D01*
X92878686Y-88933670D02*
X92700000Y-89112356D01*
X91600000Y-84900000D02*
X92878686Y-86178686D01*
X93700000Y-73800000D02*
X91600000Y-75900000D01*
X93700000Y-73800000D02*
X93300000Y-73400000D01*
X92700000Y-89112356D02*
X92700000Y-106800000D01*
X89300000Y-110200000D02*
X86300000Y-110200000D01*
X92878686Y-86178686D02*
X92878686Y-88933670D01*
X92700000Y-106800000D02*
X89300000Y-110200000D01*
%TO.N,/SD_DAT3*%
X96800000Y-113100000D02*
X91200000Y-118700000D01*
X91200000Y-118700000D02*
X84032972Y-118700000D01*
X84032972Y-118700000D02*
X82875000Y-117542028D01*
X88200000Y-75600000D02*
X88200000Y-73400000D01*
X91000000Y-78400000D02*
X88200000Y-75600000D01*
X96000000Y-86600000D02*
X96800000Y-87400000D01*
X96800000Y-87400000D02*
X96800000Y-113100000D01*
X82875000Y-117542028D02*
X82875000Y-116625000D01*
X92100000Y-86600000D02*
X91000000Y-85500000D01*
X88200000Y-73400000D02*
X88200000Y-71810000D01*
X91000000Y-85500000D02*
X91000000Y-78400000D01*
%TO.N,/SD_CMD*%
X88300000Y-88113173D02*
X89300000Y-89113173D01*
X88300000Y-82500000D02*
X88300000Y-88113173D01*
X89300000Y-102200000D02*
X82600000Y-108900000D01*
X87600000Y-81800000D02*
X88300000Y-82500000D01*
X89300000Y-89113173D02*
X89300000Y-102200000D01*
X82600000Y-115125001D02*
X81875000Y-115850001D01*
X81875000Y-115850001D02*
X81875000Y-116625000D01*
X82600000Y-108900000D02*
X82600000Y-115125001D01*
%TO.N,/SD_DETECT*%
X94300000Y-108200000D02*
X94300000Y-89322640D01*
X96503611Y-83100000D02*
X102650000Y-83100000D01*
X94077360Y-85526251D02*
X96503611Y-83100000D01*
X86300000Y-111200000D02*
X91300000Y-111200000D01*
X94077360Y-86850000D02*
X94077360Y-85526251D01*
X94077360Y-108422640D02*
X94300000Y-108200000D01*
X91300000Y-111200000D02*
X94077360Y-108422640D01*
X94300000Y-89322640D02*
X94077360Y-89100000D01*
X94077360Y-86850000D02*
X94077360Y-89100000D01*
%TO.N,/SD_CLK*%
X86100000Y-76600000D02*
X85700000Y-76200000D01*
X86700000Y-76600000D02*
X86100000Y-76600000D01*
X82375000Y-116625000D02*
X82375000Y-115844976D01*
X89775000Y-102219974D02*
X89775000Y-79675000D01*
X85700000Y-76200000D02*
X85700000Y-74500000D01*
X83000000Y-115219976D02*
X83000000Y-108994974D01*
X82375000Y-115844976D02*
X83000000Y-115219976D01*
X89775000Y-79675000D02*
X86700000Y-76600000D01*
X83000000Y-108994974D02*
X89775000Y-102219974D01*
%TO.N,/SD_DAT1*%
X94600000Y-73400000D02*
X94600000Y-71820000D01*
X94700000Y-73500000D02*
X94600000Y-73400000D01*
X93228686Y-86028686D02*
X93228686Y-89078644D01*
X93228686Y-89078644D02*
X93050000Y-89257330D01*
X89800000Y-110700000D02*
X86300000Y-110700000D01*
X93050000Y-107450000D02*
X89800000Y-110700000D01*
X94275000Y-74038173D02*
X91950000Y-76363173D01*
X91950000Y-76363173D02*
X91950000Y-84750000D01*
X94700000Y-73500000D02*
X94275000Y-73925000D01*
X94275000Y-73925000D02*
X94275000Y-74038173D01*
X93050000Y-89257330D02*
X93050000Y-107450000D01*
X91950000Y-84750000D02*
X93228686Y-86028686D01*
%TO.N,/SD_DAT2*%
X84177946Y-118350000D02*
X83375000Y-117547054D01*
X95924999Y-87396479D02*
X96400000Y-87871480D01*
X86400000Y-74320000D02*
X86800000Y-73920000D01*
X90475001Y-86355839D02*
X90600000Y-86230840D01*
X90600000Y-79900000D02*
X86400000Y-75700000D01*
X90650000Y-118350000D02*
X84177946Y-118350000D01*
X96400000Y-112600000D02*
X90650000Y-118350000D01*
X86400000Y-75700000D02*
X86400000Y-74320000D01*
X83375000Y-117547054D02*
X83375000Y-116625000D01*
X90600000Y-86230840D02*
X90600000Y-79900000D01*
X96400000Y-87871480D02*
X96400000Y-112600000D01*
%TO.N,Net-(D2-DOUT)*%
X125500000Y-116650000D02*
X126950000Y-115200000D01*
X125500000Y-116850000D02*
X125500000Y-116650000D01*
%TO.N,Net-(D4-DOUT)*%
X108850000Y-71050000D02*
X107200000Y-69400000D01*
X110200000Y-71050000D02*
X108850000Y-71050000D01*
%TO.N,Net-(D5-DOUT)*%
X82900000Y-74250000D02*
X81650000Y-74250000D01*
X81650000Y-74250000D02*
X81150000Y-74750000D01*
%TO.N,Net-(D6-DOUT)*%
X68850000Y-95250000D02*
X71000000Y-93100000D01*
%TO.N,Net-(D7-DOUT)*%
X77450000Y-120300000D02*
X78700000Y-120300000D01*
X78700000Y-120300000D02*
X78750000Y-120350000D01*
%TO.N,/BUTTON_1*%
X70500000Y-91100000D02*
X78875000Y-99475000D01*
X78875000Y-99475000D02*
X78875000Y-105275000D01*
%TO.N,/BUTTON_2*%
X80711827Y-120825000D02*
X120449870Y-120825000D01*
X130050000Y-92500000D02*
X130000000Y-92450000D01*
X120449870Y-120825000D02*
X124000000Y-117274870D01*
X78375000Y-116625000D02*
X78375000Y-118488174D01*
X127925000Y-111025000D02*
X127925000Y-104788173D01*
X79243413Y-119356587D02*
X80711827Y-120825000D01*
X124000000Y-117274870D02*
X124000000Y-114950000D01*
X78375000Y-118488174D02*
X79243413Y-119356587D01*
X124000000Y-114950000D02*
X127925000Y-111025000D01*
X130050000Y-102663173D02*
X130050000Y-92500000D01*
X127925000Y-104788173D02*
X130050000Y-102663173D01*
%TO.N,/LED_DATA*%
X84500000Y-115300000D02*
X84800000Y-115600000D01*
X86300000Y-108700000D02*
X85150000Y-108700000D01*
X84500000Y-109350000D02*
X84500000Y-115300000D01*
X88100000Y-123600000D02*
X88100000Y-121400000D01*
X84800000Y-116200000D02*
X85750000Y-117150000D01*
X85750000Y-117150000D02*
X85750000Y-117775000D01*
X84800000Y-115600000D02*
X84800000Y-116200000D01*
X85150000Y-108700000D02*
X84500000Y-109350000D01*
D32*
%TO.N,Net-(U12-STBY)*%
X71019998Y-103700000D02*
X71019998Y-104019999D01*
X71425001Y-104425001D02*
X71425001Y-105150001D01*
X71019998Y-104019999D02*
X71425001Y-104425001D01*
D31*
%TO.N,Net-(CN4-CLK)*%
X85700000Y-72700000D02*
X85700000Y-73480000D01*
X85800000Y-72600000D02*
X85700000Y-72700000D01*
%TO.N,Net-(U11-PH0-OSC_IN)*%
X71350000Y-112050000D02*
X72000000Y-112700000D01*
X69774999Y-107249999D02*
X69774999Y-107774999D01*
X72000000Y-112700000D02*
X74950000Y-112700000D01*
X71350000Y-109350000D02*
X71350000Y-112050000D01*
X69774999Y-107774999D02*
X71350000Y-109350000D01*
D32*
%TO.N,+3.3V_GPS*%
X86390000Y-77900000D02*
X86400000Y-77890000D01*
X86400000Y-77890000D02*
X87067496Y-77890000D01*
X87067496Y-77890000D02*
X87113377Y-77935881D01*
X85200000Y-77900000D02*
X86390000Y-77900000D01*
%TD*%
M02*
