%TF.GenerationSoftware,KiCad,Pcbnew,9.0.0*%
%TF.CreationDate,2025-02-26T14:49:23+01:00*%
%TF.ProjectId,relativeGPS,72656c61-7469-4766-9547-50532e6b6963,rev?*%
%TF.SameCoordinates,Original*%
%TF.FileFunction,Paste,Bot*%
%TF.FilePolarity,Positive*%
%FSLAX46Y46*%
G04 Gerber Fmt 4.6, Leading zero omitted, Abs format (unit mm)*
G04 Created by KiCad (PCBNEW 9.0.0) date 2025-02-26 14:49:23*
%MOMM*%
%LPD*%
G01*
G04 APERTURE LIST*
G04 Aperture macros list*
%AMRoundRect*
0 Rectangle with rounded corners*
0 $1 Rounding radius*
0 $2 $3 $4 $5 $6 $7 $8 $9 X,Y pos of 4 corners*
0 Add a 4 corners polygon primitive as box body*
4,1,4,$2,$3,$4,$5,$6,$7,$8,$9,$2,$3,0*
0 Add four circle primitives for the rounded corners*
1,1,$1+$1,$2,$3*
1,1,$1+$1,$4,$5*
1,1,$1+$1,$6,$7*
1,1,$1+$1,$8,$9*
0 Add four rect primitives between the rounded corners*
20,1,$1+$1,$2,$3,$4,$5,0*
20,1,$1+$1,$4,$5,$6,$7,0*
20,1,$1+$1,$6,$7,$8,$9,0*
20,1,$1+$1,$8,$9,$2,$3,0*%
G04 Aperture macros list end*
%ADD10C,0.150000*%
%ADD11RoundRect,0.135000X0.185000X-0.135000X0.185000X0.135000X-0.185000X0.135000X-0.185000X-0.135000X0*%
%ADD12RoundRect,0.135000X-0.135000X-0.185000X0.135000X-0.185000X0.135000X0.185000X-0.135000X0.185000X0*%
%ADD13RoundRect,0.135000X-0.185000X0.135000X-0.185000X-0.135000X0.185000X-0.135000X0.185000X0.135000X0*%
%ADD14R,2.790000X0.740000*%
%ADD15RoundRect,0.135000X0.135000X0.185000X-0.135000X0.185000X-0.135000X-0.185000X0.135000X-0.185000X0*%
%ADD16RoundRect,0.250000X0.250000X-0.250000X0.250000X0.250000X-0.250000X0.250000X-0.250000X-0.250000X0*%
%ADD17R,0.400000X0.500000*%
%ADD18RoundRect,0.225000X0.250000X-0.225000X0.250000X0.225000X-0.250000X0.225000X-0.250000X-0.225000X0*%
%ADD19R,0.375000X0.300000*%
%ADD20R,1.100000X1.300000*%
%ADD21R,0.660000X0.410000*%
%ADD22R,0.900000X1.600000*%
%ADD23RoundRect,0.075000X-0.700000X-0.075000X0.700000X-0.075000X0.700000X0.075000X-0.700000X0.075000X0*%
%ADD24RoundRect,0.075000X-0.075000X-0.700000X0.075000X-0.700000X0.075000X0.700000X-0.075000X0.700000X0*%
G04 APERTURE END LIST*
D10*
%TO.C,U3*%
X84650000Y-95400000D02*
G75*
G02*
X84550000Y-95400000I-50000J0D01*
G01*
X84550000Y-95400000D02*
G75*
G02*
X84650000Y-95400000I50000J0D01*
G01*
X84650000Y-95800000D02*
G75*
G02*
X84550000Y-95800000I-50000J0D01*
G01*
X84550000Y-95800000D02*
G75*
G02*
X84650000Y-95800000I50000J0D01*
G01*
X85050000Y-95400000D02*
G75*
G02*
X84950000Y-95400000I-50000J0D01*
G01*
X84950000Y-95400000D02*
G75*
G02*
X85050000Y-95400000I50000J0D01*
G01*
X85050000Y-95800000D02*
G75*
G02*
X84950000Y-95800000I-50000J0D01*
G01*
X84950000Y-95800000D02*
G75*
G02*
X85050000Y-95800000I50000J0D01*
G01*
X85450000Y-95400000D02*
G75*
G02*
X85350000Y-95400000I-50000J0D01*
G01*
X85350000Y-95400000D02*
G75*
G02*
X85450000Y-95400000I50000J0D01*
G01*
X85450000Y-95800000D02*
G75*
G02*
X85350000Y-95800000I-50000J0D01*
G01*
X85350000Y-95800000D02*
G75*
G02*
X85450000Y-95800000I50000J0D01*
G01*
%TD*%
D11*
%TO.C,R15*%
X85700000Y-74500000D03*
X85700000Y-73480000D03*
%TD*%
D12*
%TO.C,C6*%
X84300000Y-79000000D03*
X85320000Y-79000000D03*
%TD*%
D13*
%TO.C,C35*%
X86900000Y-115780000D03*
X86900000Y-116800000D03*
%TD*%
D11*
%TO.C,R6*%
X84300000Y-92410000D03*
X84300000Y-91390000D03*
%TD*%
D12*
%TO.C,C28*%
X69999999Y-103700000D03*
X71019999Y-103700000D03*
%TD*%
D14*
%TO.C,CN1*%
X123680000Y-100660000D03*
X127750000Y-100660000D03*
X123680000Y-99390000D03*
X127750000Y-99390000D03*
X123680000Y-98120000D03*
X127750000Y-98120000D03*
X123680000Y-96850000D03*
X127750000Y-96850000D03*
X123680000Y-95580000D03*
X127750000Y-95580000D03*
X123680000Y-94310000D03*
X127750000Y-94310000D03*
X123680000Y-93040000D03*
X127750000Y-93040000D03*
%TD*%
D15*
%TO.C,C34*%
X84610000Y-103700000D03*
X83590000Y-103700000D03*
%TD*%
D13*
%TO.C,R11*%
X93300000Y-70780000D03*
X93300000Y-71800000D03*
%TD*%
D16*
%TO.C,SW4*%
X72250000Y-102250000D03*
X72250000Y-97750000D03*
X68750000Y-102250000D03*
X68750000Y-97750000D03*
%TD*%
D17*
%TO.C,L3*%
X85200000Y-77900000D03*
X84400000Y-77900000D03*
%TD*%
D11*
%TO.C,C4*%
X85300000Y-92420000D03*
X85300000Y-91400000D03*
%TD*%
D18*
%TO.C,R2*%
X83000000Y-94250000D03*
X83000000Y-92700000D03*
%TD*%
D15*
%TO.C,C33*%
X78110000Y-103700000D03*
X77090000Y-103700000D03*
%TD*%
D13*
%TO.C,C31*%
X74800000Y-115690000D03*
X74800000Y-116710000D03*
%TD*%
%TO.C,C32*%
X73400000Y-108490000D03*
X73400000Y-109510000D03*
%TD*%
%TO.C,R13*%
X86800000Y-72900000D03*
X86800000Y-73920000D03*
%TD*%
D19*
%TO.C,U5*%
X84987500Y-94500000D03*
X84700000Y-94000000D03*
X84700000Y-93500000D03*
X85275000Y-93500000D03*
X85275000Y-94000000D03*
%TD*%
D11*
%TO.C,C1*%
X84800000Y-99720000D03*
X84800000Y-98700000D03*
%TD*%
D13*
%TO.C,C36*%
X73700000Y-115690000D03*
X73700000Y-116710000D03*
%TD*%
D20*
%TO.C,U12*%
X71425000Y-105150000D03*
X71425000Y-107250000D03*
X69775000Y-107250000D03*
X69775000Y-105150000D03*
%TD*%
D21*
%TO.C,L1*%
X85000000Y-97710000D03*
X85000000Y-96700000D03*
%TD*%
D12*
%TO.C,C26*%
X90190000Y-70900000D03*
X91210000Y-70900000D03*
%TD*%
D13*
%TO.C,R12*%
X94600000Y-70800000D03*
X94600000Y-71820000D03*
%TD*%
D22*
%TO.C,U6*%
X77500000Y-80600000D03*
X78600000Y-80600000D03*
X79700000Y-80600000D03*
X80800000Y-80600000D03*
X81900000Y-80600000D03*
X83000000Y-80600000D03*
X84100000Y-80600000D03*
X85200000Y-80600000D03*
X86300000Y-80600000D03*
X86400000Y-89800000D03*
X85300000Y-89800000D03*
X84200000Y-89800000D03*
X83100000Y-89800000D03*
X82000000Y-89800000D03*
X80900000Y-89800000D03*
X79800000Y-89800000D03*
X78700000Y-89800000D03*
X77600000Y-89800000D03*
%TD*%
D15*
%TO.C,C29*%
X73300000Y-111400000D03*
X72280000Y-111400000D03*
%TD*%
D13*
%TO.C,C5*%
X86400000Y-77890000D03*
X86400000Y-78910000D03*
%TD*%
%TO.C,R14*%
X88200000Y-70790000D03*
X88200000Y-71810000D03*
%TD*%
%TO.C,C17*%
X75900000Y-116790000D03*
X75900000Y-117810000D03*
%TD*%
D12*
%TO.C,C27*%
X90190000Y-71900000D03*
X91210000Y-71900000D03*
%TD*%
D23*
%TO.C,U11*%
X74950000Y-114700000D03*
X74950000Y-114200000D03*
X74950000Y-113700000D03*
X74950000Y-113200000D03*
X74950000Y-112700000D03*
X74950000Y-112200000D03*
X74950000Y-111700000D03*
X74950000Y-111200000D03*
X74950000Y-110700000D03*
X74950000Y-110200000D03*
X74950000Y-109700000D03*
X74950000Y-109200000D03*
X74950000Y-108700000D03*
X74950000Y-108200000D03*
X74950000Y-107700000D03*
X74950000Y-107200000D03*
D24*
X76875000Y-105275000D03*
X77375000Y-105275000D03*
X77875000Y-105275000D03*
X78375000Y-105275000D03*
X78875000Y-105275000D03*
X79375000Y-105275000D03*
X79875000Y-105275000D03*
X80375000Y-105275000D03*
X80875000Y-105275000D03*
X81375000Y-105275000D03*
X81875000Y-105275000D03*
X82375000Y-105275000D03*
X82875000Y-105275000D03*
X83375000Y-105275000D03*
X83875000Y-105275000D03*
X84375000Y-105275000D03*
D23*
X86300000Y-107200000D03*
X86300000Y-107700000D03*
X86300000Y-108200000D03*
X86300000Y-108700000D03*
X86300000Y-109200000D03*
X86300000Y-109700000D03*
X86300000Y-110200000D03*
X86300000Y-110700000D03*
X86300000Y-111200000D03*
X86300000Y-111700000D03*
X86300000Y-112200000D03*
X86300000Y-112700000D03*
X86300000Y-113200000D03*
X86300000Y-113700000D03*
X86300000Y-114200000D03*
X86300000Y-114700000D03*
D24*
X84375000Y-116625000D03*
X83875000Y-116625000D03*
X83375000Y-116625000D03*
X82875000Y-116625000D03*
X82375000Y-116625000D03*
X81875000Y-116625000D03*
X81375000Y-116625000D03*
X80875000Y-116625000D03*
X80375000Y-116625000D03*
X79875000Y-116625000D03*
X79375000Y-116625000D03*
X78875000Y-116625000D03*
X78375000Y-116625000D03*
X77875000Y-116625000D03*
X77375000Y-116625000D03*
X76875000Y-116625000D03*
%TD*%
M02*
