%TF.GenerationSoftware,KiCad,Pcbnew,9.0.0*%
%TF.CreationDate,2025-03-02T11:40:43+01:00*%
%TF.ProjectId,relativeGPS,72656c61-7469-4766-9547-50532e6b6963,rev?*%
%TF.SameCoordinates,Original*%
%TF.FileFunction,Copper,L1,Top*%
%TF.FilePolarity,Positive*%
%FSLAX46Y46*%
G04 Gerber Fmt 4.6, Leading zero omitted, Abs format (unit mm)*
G04 Created by KiCad (PCBNEW 9.0.0) date 2025-03-02 11:40:43*
%MOMM*%
%LPD*%
G01*
G04 APERTURE LIST*
G04 Aperture macros list*
%AMRoundRect*
0 Rectangle with rounded corners*
0 $1 Rounding radius*
0 $2 $3 $4 $5 $6 $7 $8 $9 X,Y pos of 4 corners*
0 Add a 4 corners polygon primitive as box body*
4,1,4,$2,$3,$4,$5,$6,$7,$8,$9,$2,$3,0*
0 Add four circle primitives for the rounded corners*
1,1,$1+$1,$2,$3*
1,1,$1+$1,$4,$5*
1,1,$1+$1,$6,$7*
1,1,$1+$1,$8,$9*
0 Add four rect primitives between the rounded corners*
20,1,$1+$1,$2,$3,$4,$5,0*
20,1,$1+$1,$4,$5,$6,$7,0*
20,1,$1+$1,$6,$7,$8,$9,0*
20,1,$1+$1,$8,$9,$2,$3,0*%
%AMRotRect*
0 Rectangle, with rotation*
0 The origin of the aperture is its center*
0 $1 length*
0 $2 width*
0 $3 Rotation angle, in degrees counterclockwise*
0 Add horizontal line*
21,1,$1,$2,0,0,$3*%
G04 Aperture macros list end*
%TA.AperFunction,TestPad*%
%ADD10R,0.720000X0.350000*%
%TD*%
%TA.AperFunction,TestPad*%
%ADD11R,1.000000X1.000000*%
%TD*%
%TA.AperFunction,SMDPad,CuDef*%
%ADD12RoundRect,0.135000X-0.185000X0.135000X-0.185000X-0.135000X0.185000X-0.135000X0.185000X0.135000X0*%
%TD*%
%TA.AperFunction,SMDPad,CuDef*%
%ADD13R,1.450000X1.500000*%
%TD*%
%TA.AperFunction,ComponentPad*%
%ADD14C,1.500000*%
%TD*%
%TA.AperFunction,SMDPad,CuDef*%
%ADD15RoundRect,0.033333X0.391667X0.116667X-0.391667X0.116667X-0.391667X-0.116667X0.391667X-0.116667X0*%
%TD*%
%TA.AperFunction,SMDPad,CuDef*%
%ADD16RoundRect,0.225000X-0.225000X-0.250000X0.225000X-0.250000X0.225000X0.250000X-0.225000X0.250000X0*%
%TD*%
%TA.AperFunction,ComponentPad*%
%ADD17C,1.400000*%
%TD*%
%TA.AperFunction,SMDPad,CuDef*%
%ADD18RoundRect,0.135000X0.135000X0.185000X-0.135000X0.185000X-0.135000X-0.185000X0.135000X-0.185000X0*%
%TD*%
%TA.AperFunction,SMDPad,CuDef*%
%ADD19R,1.200000X0.600000*%
%TD*%
%TA.AperFunction,SMDPad,CuDef*%
%ADD20RoundRect,0.135000X0.185000X-0.135000X0.185000X0.135000X-0.185000X0.135000X-0.185000X-0.135000X0*%
%TD*%
%TA.AperFunction,SMDPad,CuDef*%
%ADD21R,1.500000X0.900000*%
%TD*%
%TA.AperFunction,SMDPad,CuDef*%
%ADD22RoundRect,0.135000X-0.135000X-0.185000X0.135000X-0.185000X0.135000X0.185000X-0.135000X0.185000X0*%
%TD*%
%TA.AperFunction,SMDPad,CuDef*%
%ADD23RoundRect,0.100000X0.350000X0.100000X-0.350000X0.100000X-0.350000X-0.100000X0.350000X-0.100000X0*%
%TD*%
%TA.AperFunction,SMDPad,CuDef*%
%ADD24RoundRect,0.100000X-0.350000X-0.100000X0.350000X-0.100000X0.350000X0.100000X-0.350000X0.100000X0*%
%TD*%
%TA.AperFunction,SMDPad,CuDef*%
%ADD25RotRect,1.500000X0.900000X45.000000*%
%TD*%
%TA.AperFunction,SMDPad,CuDef*%
%ADD26RoundRect,0.225000X0.225000X0.250000X-0.225000X0.250000X-0.225000X-0.250000X0.225000X-0.250000X0*%
%TD*%
%TA.AperFunction,SMDPad,CuDef*%
%ADD27RotRect,0.700000X1.100000X22.500000*%
%TD*%
%TA.AperFunction,SMDPad,CuDef*%
%ADD28RotRect,0.900000X0.930000X22.500000*%
%TD*%
%TA.AperFunction,SMDPad,CuDef*%
%ADD29RotRect,1.050000X0.780000X22.500000*%
%TD*%
%TA.AperFunction,SMDPad,CuDef*%
%ADD30RotRect,1.140000X1.830000X22.500000*%
%TD*%
%TA.AperFunction,SMDPad,CuDef*%
%ADD31RotRect,0.860000X2.800000X22.500000*%
%TD*%
%TA.AperFunction,SMDPad,CuDef*%
%ADD32RotRect,0.700000X3.330000X22.500000*%
%TD*%
%TA.AperFunction,SMDPad,CuDef*%
%ADD33RoundRect,0.225000X-0.250000X0.225000X-0.250000X-0.225000X0.250000X-0.225000X0.250000X0.225000X0*%
%TD*%
%TA.AperFunction,SMDPad,CuDef*%
%ADD34RotRect,1.500000X0.900000X225.000000*%
%TD*%
%TA.AperFunction,SMDPad,CuDef*%
%ADD35R,0.254000X0.711200*%
%TD*%
%TA.AperFunction,SMDPad,CuDef*%
%ADD36R,1.295400X0.711200*%
%TD*%
%TA.AperFunction,SMDPad,CuDef*%
%ADD37RoundRect,0.200000X1.150000X-0.200000X1.150000X0.200000X-1.150000X0.200000X-1.150000X-0.200000X0*%
%TD*%
%TA.AperFunction,SMDPad,CuDef*%
%ADD38R,0.381000X0.355600*%
%TD*%
%TA.AperFunction,SMDPad,CuDef*%
%ADD39R,0.355600X0.381000*%
%TD*%
%TA.AperFunction,SMDPad,CuDef*%
%ADD40R,0.900000X1.500000*%
%TD*%
%TA.AperFunction,SMDPad,CuDef*%
%ADD41RoundRect,0.250000X0.159099X-0.512652X0.512652X-0.159099X-0.159099X0.512652X-0.512652X0.159099X0*%
%TD*%
%TA.AperFunction,SMDPad,CuDef*%
%ADD42RoundRect,0.262500X0.409942X-0.303743X0.075094X0.504652X-0.409942X0.303743X-0.075094X-0.504652X0*%
%TD*%
%TA.AperFunction,SMDPad,CuDef*%
%ADD43RotRect,1.500000X0.900000X315.000000*%
%TD*%
%TA.AperFunction,SMDPad,CuDef*%
%ADD44RotRect,1.500000X0.900000X135.000000*%
%TD*%
%TA.AperFunction,SMDPad,CuDef*%
%ADD45RoundRect,0.055000X0.445000X0.220000X-0.445000X0.220000X-0.445000X-0.220000X0.445000X-0.220000X0*%
%TD*%
%TA.AperFunction,SMDPad,CuDef*%
%ADD46RoundRect,0.262500X-0.075094X0.504652X-0.409942X-0.303743X0.075094X-0.504652X0.409942X0.303743X0*%
%TD*%
%TA.AperFunction,ComponentPad*%
%ADD47C,2.000000*%
%TD*%
%TA.AperFunction,ViaPad*%
%ADD48C,0.600000*%
%TD*%
%TA.AperFunction,Conductor*%
%ADD49C,0.300000*%
%TD*%
%TA.AperFunction,Conductor*%
%ADD50C,0.150000*%
%TD*%
%TA.AperFunction,Conductor*%
%ADD51C,0.500000*%
%TD*%
%TA.AperFunction,Conductor*%
%ADD52C,0.200000*%
%TD*%
G04 APERTURE END LIST*
D10*
%TO.P,U7,1,VCCA*%
%TO.N,+3.3V*%
X92950000Y-127950000D03*
%TO.P,U7,2,GND*%
%TO.N,GND*%
X92950000Y-128600000D03*
%TO.P,U7,3,A*%
%TO.N,/LED_DATA*%
X92950000Y-129250000D03*
%TO.P,U7,4,B*%
%TO.N,Net-(D1-DIN)*%
X95250000Y-129250000D03*
%TO.P,U7,5,DIR*%
%TO.N,+3.3V*%
X95250000Y-128600000D03*
%TO.P,U7,6,VCCB*%
%TO.N,+5V*%
X95250000Y-127950000D03*
%TD*%
D11*
%TO.P,TP8,1*%
%TO.N,/MAG_ACC/LSM_SCL*%
X107400000Y-71500000D03*
%TD*%
D12*
%TO.P,C12,1*%
%TO.N,+1V8*%
X109230511Y-74690000D03*
%TO.P,C12,2*%
%TO.N,GND*%
X109230511Y-75710000D03*
%TD*%
D11*
%TO.P,TP1,1*%
%TO.N,+BATT*%
X103500000Y-122900000D03*
%TD*%
D13*
%TO.P,L2,1,1*%
%TO.N,Net-(U4-SW)*%
X108725000Y-106500000D03*
%TO.P,L2,2,2*%
%TO.N,+3.3V_GPS*%
X103675000Y-106500000D03*
%TD*%
D14*
%TO.P,SW1,1*%
%TO.N,unconnected-(SW1-Pad1)*%
X107708353Y-125246951D03*
%TO.P,SW1,2*%
%TO.N,+BATT*%
X110055007Y-124274935D03*
%TO.P,SW1,3*%
%TO.N,+3V0*%
X112401661Y-123302919D03*
%TD*%
D15*
%TO.P,U2,1,GND*%
%TO.N,GND*%
X104280511Y-75650000D03*
%TO.P,U2,2,VREF1*%
%TO.N,+1V8*%
X104280511Y-75150000D03*
%TO.P,U2,3,SCL1*%
%TO.N,/MAG_ACC/LSM_SCL*%
X104280511Y-74650000D03*
%TO.P,U2,4,SDA1*%
%TO.N,/MAG_ACC/LSM_SDA*%
X104280511Y-74150000D03*
%TO.P,U2,5,SDA2*%
%TO.N,/SDA*%
X101180511Y-74150000D03*
%TO.P,U2,6,SCL2*%
%TO.N,/SCL*%
X101180511Y-74650000D03*
%TO.P,U2,7,VREF2*%
%TO.N,Net-(U2-EN)*%
X101180511Y-75150000D03*
%TO.P,U2,8,EN*%
X101180511Y-75650000D03*
%TD*%
D11*
%TO.P,TP14,1*%
%TO.N,/LED_DATA*%
X90800000Y-126400000D03*
%TD*%
D16*
%TO.P,C20,1*%
%TO.N,+3V0*%
X110924999Y-114300000D03*
%TO.P,C20,2*%
%TO.N,GND*%
X112474999Y-114300000D03*
%TD*%
D12*
%TO.P,R5,1*%
%TO.N,+1V8*%
X105530511Y-72030000D03*
%TO.P,R5,2*%
%TO.N,/MAG_ACC/LSM_SCL*%
X105530511Y-73050000D03*
%TD*%
D11*
%TO.P,TP2,1*%
%TO.N,+3V0*%
X115400000Y-119900000D03*
%TD*%
D17*
%TO.P,ANT1,1*%
%TO.N,Net-(ANT1-Pad1)*%
X86415000Y-100015000D03*
%TD*%
D16*
%TO.P,C25,1*%
%TO.N,+5V*%
X111250000Y-108600000D03*
%TO.P,C25,2*%
%TO.N,GND*%
X112800000Y-108600000D03*
%TD*%
D18*
%TO.P,C30,1*%
%TO.N,+1V8*%
X110240511Y-73700000D03*
%TO.P,C30,2*%
%TO.N,GND*%
X109220511Y-73700000D03*
%TD*%
D19*
%TO.P,U4,1,EN*%
%TO.N,Net-(U4-EN)*%
X110200000Y-102650000D03*
%TO.P,U4,2,GND*%
%TO.N,GND*%
X110200000Y-103600000D03*
%TO.P,U4,3,SW*%
%TO.N,Net-(U4-SW)*%
X110200000Y-104550000D03*
%TO.P,U4,4,IN*%
%TO.N,+5V*%
X112500000Y-104550000D03*
%TO.P,U4,5,FB*%
%TO.N,Net-(U4-FB)*%
X112500000Y-102650000D03*
%TD*%
D11*
%TO.P,TP5,1*%
%TO.N,+3.3V_LORA*%
X118700000Y-83300000D03*
%TD*%
D20*
%TO.P,R10,1*%
%TO.N,+3.3V*%
X99650000Y-76620000D03*
%TO.P,R10,2*%
%TO.N,/SCL*%
X99650000Y-75600000D03*
%TD*%
D21*
%TO.P,D1,1,VDD*%
%TO.N,+5V*%
X102450000Y-131150000D03*
%TO.P,D1,2,DOUT*%
%TO.N,Net-(D1-DOUT)*%
X102450000Y-127850000D03*
%TO.P,D1,3,GND*%
%TO.N,GND*%
X97550000Y-127850000D03*
%TO.P,D1,4,DIN*%
%TO.N,Net-(D1-DIN)*%
X97550000Y-131150000D03*
%TD*%
D22*
%TO.P,R1,1*%
%TO.N,/3V3_TESEO_EN*%
X107790000Y-102100000D03*
%TO.P,R1,2*%
%TO.N,Net-(U4-EN)*%
X108810000Y-102100000D03*
%TD*%
D23*
%TO.P,U8,1,VIN*%
%TO.N,+3V0*%
X113099999Y-112850000D03*
%TO.P,U8,2,FB*%
%TO.N,+5V*%
X113099999Y-112200000D03*
%TO.P,U8,3,GND*%
%TO.N,GND*%
X113099999Y-111550000D03*
D24*
%TO.P,U8,4,VOUT*%
%TO.N,+5V*%
X110899999Y-111550000D03*
%TO.P,U8,5,L*%
%TO.N,Net-(U8-L)*%
X110899999Y-112200000D03*
%TO.P,U8,6,EN*%
%TO.N,+3V0*%
X110899999Y-112850000D03*
%TD*%
D11*
%TO.P,TP7,1*%
%TO.N,+1V8*%
X112500000Y-77500000D03*
%TD*%
D21*
%TO.P,D5,1,VDD*%
%TO.N,+5V*%
X97550000Y-68850000D03*
%TO.P,D5,2,DOUT*%
%TO.N,Net-(D5-DOUT)*%
X97550000Y-72150000D03*
%TO.P,D5,3,GND*%
%TO.N,GND*%
X102450000Y-72150000D03*
%TO.P,D5,4,DIN*%
%TO.N,Net-(D4-DOUT)*%
X102450000Y-68850000D03*
%TD*%
D16*
%TO.P,C19,1*%
%TO.N,+5V*%
X111249999Y-110100000D03*
%TO.P,C19,2*%
%TO.N,GND*%
X112799999Y-110100000D03*
%TD*%
%TO.P,C15,1*%
%TO.N,+BATT*%
X108550000Y-121700000D03*
%TO.P,C15,2*%
%TO.N,GND*%
X110100000Y-121700000D03*
%TD*%
D21*
%TO.P,D9,1,VDD*%
%TO.N,+5V*%
X92450000Y-119650000D03*
%TO.P,D9,2,DOUT*%
%TO.N,Net-(D10-DIN)*%
X92450000Y-116350000D03*
%TO.P,D9,3,GND*%
%TO.N,GND*%
X87550000Y-116350000D03*
%TO.P,D9,4,DIN*%
%TO.N,Net-(D8-DOUT)*%
X87550000Y-119650000D03*
%TD*%
D25*
%TO.P,D6,1,VDD*%
%TO.N,+5V*%
X76241212Y-79706035D03*
%TO.P,D6,2,DOUT*%
%TO.N,Net-(D6-DOUT)*%
X78574665Y-82039488D03*
%TO.P,D6,3,GND*%
%TO.N,GND*%
X82039488Y-78574665D03*
%TO.P,D6,4,DIN*%
%TO.N,Net-(D5-DOUT)*%
X79706035Y-76241212D03*
%TD*%
D26*
%TO.P,C2,1*%
%TO.N,GND*%
X113275000Y-106300000D03*
%TO.P,C2,2*%
%TO.N,+5V*%
X111725000Y-106300000D03*
%TD*%
D27*
%TO.P,CN4,1,DAT2*%
%TO.N,/SD_DAT2*%
X87200737Y-75298479D03*
%TO.P,CN4,2,CD/DAT3*%
%TO.N,/SD_DAT3*%
X88217004Y-74877527D03*
%TO.P,CN4,3,CMD*%
%TO.N,/SD_CMD*%
X89233272Y-74456576D03*
%TO.P,CN4,4,VDD*%
%TO.N,+3.3V*%
X90249539Y-74035624D03*
%TO.P,CN4,5,CLK*%
%TO.N,Net-(CN4-CLK)*%
X91265807Y-73614672D03*
%TO.P,CN4,6,VSS*%
%TO.N,GND*%
X92282074Y-73193719D03*
%TO.P,CN4,7,DAT0*%
%TO.N,/SD_DAT0*%
X93298342Y-72772769D03*
%TO.P,CN4,8,DAT1*%
%TO.N,/SD_DAT1*%
X94314609Y-72351817D03*
D28*
%TO.P,CN4,9,VSS*%
%TO.N,GND*%
X90317142Y-87499641D03*
D29*
%TO.P,CN4,10,DETECT_SW*%
%TO.N,/SD_DETECT*%
X94286189Y-85936787D03*
D30*
%TO.P,CN4,P1,SHIELD*%
%TO.N,GND*%
X83621825Y-76797149D03*
D31*
%TO.P,CN4,P2,SHIELD*%
X95503741Y-72400458D03*
D32*
%TO.P,CN4,P3,SHIELD*%
X87723760Y-87274984D03*
%TO.P,CN4,P4,SHIELD*%
X99697239Y-82315407D03*
%TD*%
D26*
%TO.P,C18,1*%
%TO.N,Net-(U9-NR)*%
X107830511Y-82400000D03*
%TO.P,C18,2*%
%TO.N,GND*%
X106280511Y-82400000D03*
%TD*%
D12*
%TO.P,R4,1*%
%TO.N,Net-(U4-FB)*%
X113900000Y-103980000D03*
%TO.P,R4,2*%
%TO.N,GND*%
X113900000Y-105000000D03*
%TD*%
%TO.P,C21,1*%
%TO.N,Net-(U10-VDD)*%
X110900000Y-82790000D03*
%TO.P,C21,2*%
%TO.N,Net-(C21-Pad2)*%
X110900000Y-83810000D03*
%TD*%
D18*
%TO.P,R8,1*%
%TO.N,+3.3V*%
X101850511Y-76700000D03*
%TO.P,R8,2*%
%TO.N,Net-(U2-EN)*%
X100830511Y-76700000D03*
%TD*%
D11*
%TO.P,TP9,1*%
%TO.N,/MAG_ACC/LSM_SDA*%
X108900000Y-71500000D03*
%TD*%
D12*
%TO.P,C7,1*%
%TO.N,+1V8*%
X110240511Y-74700000D03*
%TO.P,C7,2*%
%TO.N,GND*%
X110240511Y-75720000D03*
%TD*%
D33*
%TO.P,C23,1*%
%TO.N,+3.3V_LORA*%
X115800000Y-82375000D03*
%TO.P,C23,2*%
%TO.N,GND*%
X115800000Y-83925000D03*
%TD*%
D21*
%TO.P,D10,1,VDD*%
%TO.N,+5V*%
X102450000Y-119650000D03*
%TO.P,D10,2,DOUT*%
%TO.N,Net-(D10-DOUT)*%
X102450000Y-116350000D03*
%TO.P,D10,3,GND*%
%TO.N,GND*%
X97550000Y-116350000D03*
%TO.P,D10,4,DIN*%
%TO.N,Net-(D10-DIN)*%
X97550000Y-119650000D03*
%TD*%
D12*
%TO.P,R3,1*%
%TO.N,Net-(U4-SW)*%
X113900000Y-101900000D03*
%TO.P,R3,2*%
%TO.N,Net-(U4-FB)*%
X113900000Y-102920000D03*
%TD*%
D11*
%TO.P,TP10,1*%
%TO.N,/GPS/3V3_TESEO_FILTERED*%
X82700000Y-81500000D03*
%TD*%
D12*
%TO.P,C13,1*%
%TO.N,+1V8*%
X109330511Y-79130000D03*
%TO.P,C13,2*%
%TO.N,GND*%
X109330511Y-80150000D03*
%TD*%
D21*
%TO.P,D11,1,VDD*%
%TO.N,+5V*%
X112450000Y-119650000D03*
%TO.P,D11,2,DOUT*%
%TO.N,unconnected-(D11-DOUT-Pad2)*%
X112450000Y-116350000D03*
%TO.P,D11,3,GND*%
%TO.N,GND*%
X107550000Y-116350000D03*
%TO.P,D11,4,DIN*%
%TO.N,Net-(D10-DOUT)*%
X107550000Y-119650000D03*
%TD*%
D34*
%TO.P,D2,1,VDD*%
%TO.N,+5V*%
X123758788Y-120293965D03*
%TO.P,D2,2,DOUT*%
%TO.N,Net-(D2-DOUT)*%
X121425335Y-117960512D03*
%TO.P,D2,3,GND*%
%TO.N,GND*%
X117960512Y-121425335D03*
%TO.P,D2,4,DIN*%
%TO.N,Net-(D1-DOUT)*%
X120293965Y-123758788D03*
%TD*%
D35*
%TO.P,U13,1,VIN*%
%TO.N,+5V*%
X103199998Y-113205000D03*
%TO.P,U13,2,GND*%
%TO.N,GND*%
X103699999Y-113205000D03*
%TO.P,U13,3,BYP*%
%TO.N,Net-(U13-BYP)*%
X104199999Y-113205000D03*
%TO.P,U13,4,EN2*%
%TO.N,/3V3_RYLR_EN*%
X104700000Y-113205000D03*
%TO.P,U13,5,EN1*%
%TO.N,+5V*%
X104700000Y-111300000D03*
%TO.P,U13,6,NC*%
%TO.N,unconnected-(U13-NC-Pad6)*%
X104199999Y-111300000D03*
%TO.P,U13,7,VOUT2*%
%TO.N,+3.3V_LORA*%
X103699999Y-111300000D03*
%TO.P,U13,8,VOUT1*%
%TO.N,+3.3V*%
X103199998Y-111300000D03*
D36*
%TO.P,U13,9,PAD*%
%TO.N,GND*%
X103949999Y-112252500D03*
%TD*%
D12*
%TO.P,R7,1*%
%TO.N,+1V8*%
X104430511Y-72030000D03*
%TO.P,R7,2*%
%TO.N,/MAG_ACC/LSM_SDA*%
X104430511Y-73050000D03*
%TD*%
D37*
%TO.P,L4,1,1*%
%TO.N,+3V0*%
X108399999Y-114100000D03*
%TO.P,L4,2,2*%
%TO.N,Net-(U8-L)*%
X108399999Y-111900000D03*
%TD*%
D38*
%TO.P,U1,1,SCL/SPC*%
%TO.N,/MAG_ACC/LSM_SCL*%
X106606511Y-74200000D03*
%TO.P,U1,2,CS*%
%TO.N,+1V8*%
X106606511Y-74700126D03*
%TO.P,U1,3,NC*%
%TO.N,unconnected-(U1-NC-Pad3)*%
X106606511Y-75200252D03*
%TO.P,U1,4,SDA/SDI/SDO*%
%TO.N,/MAG_ACC/LSM_SDA*%
X106606511Y-75700378D03*
D39*
%TO.P,U1,5,C1*%
%TO.N,Net-(U1-C1)*%
X107118448Y-75712189D03*
%TO.P,U1,6,GND*%
%TO.N,GND*%
X107618574Y-75712189D03*
D38*
%TO.P,U1,7,DRDY/MAG_INT*%
%TO.N,/MAG_ACC_DRDY*%
X108130511Y-75700378D03*
%TO.P,U1,8,GND*%
%TO.N,GND*%
X108130511Y-75200252D03*
%TO.P,U1,9,VDD*%
%TO.N,+1V8*%
X108130511Y-74700126D03*
%TO.P,U1,10,VDD_IO*%
X108130511Y-74200000D03*
D39*
%TO.P,U1,11,INT2_XL*%
%TO.N,/MAG_ACC_INT2*%
X107618574Y-74188189D03*
%TO.P,U1,12,INT1_XL*%
%TO.N,/MAG_ACC_INT1*%
X107118448Y-74188189D03*
%TD*%
D40*
%TO.P,D7,1,VDD*%
%TO.N,+5V*%
X68850000Y-102450000D03*
%TO.P,D7,2,DOUT*%
%TO.N,Net-(D7-DOUT)*%
X72150000Y-102450000D03*
%TO.P,D7,3,GND*%
%TO.N,GND*%
X72150000Y-97550000D03*
%TO.P,D7,4,DIN*%
%TO.N,Net-(D6-DOUT)*%
X68850000Y-97550000D03*
%TD*%
D11*
%TO.P,TP12,1*%
%TO.N,/SCL*%
X83900000Y-86500000D03*
%TD*%
D33*
%TO.P,C16,1*%
%TO.N,+3V0*%
X103780511Y-78150000D03*
%TO.P,C16,2*%
%TO.N,GND*%
X103780511Y-79700000D03*
%TD*%
D41*
%TO.P,C3,1*%
%TO.N,+3.3V_GPS*%
X103128249Y-104071751D03*
%TO.P,C3,2*%
%TO.N,GND*%
X104471751Y-102728249D03*
%TD*%
D11*
%TO.P,TP6,1*%
%TO.N,+3.3V*%
X102200000Y-108600000D03*
%TD*%
D18*
%TO.P,L5,1,1*%
%TO.N,+3.3V_LORA*%
X114510000Y-82650000D03*
%TO.P,L5,2,2*%
%TO.N,Net-(U10-VDD)*%
X113490000Y-82650000D03*
%TD*%
D22*
%TO.P,C11,1*%
%TO.N,+3.3V_LORA*%
X103670000Y-110120000D03*
%TO.P,C11,2*%
%TO.N,GND*%
X104690000Y-110120000D03*
%TD*%
D12*
%TO.P,C24,1*%
%TO.N,Net-(U10-VDD)*%
X109875000Y-82790000D03*
%TO.P,C24,2*%
%TO.N,Net-(C21-Pad2)*%
X109875000Y-83810000D03*
%TD*%
%TO.P,R9,1*%
%TO.N,+3.3V*%
X98550000Y-73790000D03*
%TO.P,R9,2*%
%TO.N,/SDA*%
X98550000Y-74810000D03*
%TD*%
D11*
%TO.P,TP4,1*%
%TO.N,+3.3V_GPS*%
X103400000Y-97600000D03*
%TD*%
%TO.P,TP18,1*%
%TO.N,/RYLR998_RX*%
X103600000Y-88700000D03*
%TD*%
D18*
%TO.P,C9,1*%
%TO.N,Net-(U13-BYP)*%
X104600000Y-114320000D03*
%TO.P,C9,2*%
%TO.N,GND*%
X103580000Y-114320000D03*
%TD*%
D42*
%TO.P,SW3,1*%
%TO.N,GND*%
X128474508Y-90153780D03*
X127096847Y-86827812D03*
%TO.P,SW3,2*%
%TO.N,/BUTTON_2*%
X129814133Y-89598888D03*
X128436472Y-86272920D03*
%TD*%
D33*
%TO.P,C22,1*%
%TO.N,Net-(U10-VDD)*%
X112200000Y-82450000D03*
%TO.P,C22,2*%
%TO.N,Net-(C21-Pad2)*%
X112200000Y-84000000D03*
%TD*%
D40*
%TO.P,D3,1,VDD*%
%TO.N,+5V*%
X131150000Y-97550000D03*
%TO.P,D3,2,DOUT*%
%TO.N,Net-(D3-DOUT)*%
X127850000Y-97550000D03*
%TO.P,D3,3,GND*%
%TO.N,GND*%
X127850000Y-102450000D03*
%TO.P,D3,4,DIN*%
%TO.N,Net-(D2-DOUT)*%
X131150000Y-102450000D03*
%TD*%
D12*
%TO.P,C10,1*%
%TO.N,+3.3V*%
X101980000Y-111110000D03*
%TO.P,C10,2*%
%TO.N,GND*%
X101980000Y-112130000D03*
%TD*%
D11*
%TO.P,TP13,1*%
%TO.N,/SDA*%
X83900000Y-83500000D03*
%TD*%
%TO.P,TP19,1*%
%TO.N,/RYLR998_TX*%
X103600000Y-90700000D03*
%TD*%
D22*
%TO.P,C14,1*%
%TO.N,Net-(U1-C1)*%
X106820511Y-76900000D03*
%TO.P,C14,2*%
%TO.N,GND*%
X107840511Y-76900000D03*
%TD*%
D43*
%TO.P,D4,1,VDD*%
%TO.N,+5V*%
X120293965Y-76241212D03*
%TO.P,D4,2,DOUT*%
%TO.N,Net-(D4-DOUT)*%
X117960512Y-78574665D03*
%TO.P,D4,3,GND*%
%TO.N,GND*%
X121425335Y-82039488D03*
%TO.P,D4,4,DIN*%
%TO.N,Net-(D3-DOUT)*%
X123758788Y-79706035D03*
%TD*%
D11*
%TO.P,TP3,1*%
%TO.N,+5V*%
X98300000Y-123000000D03*
%TD*%
%TO.P,TP11,1*%
%TO.N,GND*%
X100300000Y-123000000D03*
%TD*%
D44*
%TO.P,D8,1,VDD*%
%TO.N,+5V*%
X79706035Y-123758788D03*
%TO.P,D8,2,DOUT*%
%TO.N,Net-(D8-DOUT)*%
X82039488Y-121425335D03*
%TO.P,D8,3,GND*%
%TO.N,GND*%
X78574665Y-117960512D03*
%TO.P,D8,4,DIN*%
%TO.N,Net-(D7-DOUT)*%
X76241212Y-120293965D03*
%TD*%
D18*
%TO.P,L6,1,1*%
%TO.N,GND*%
X114510000Y-83775000D03*
%TO.P,L6,2,2*%
%TO.N,Net-(C21-Pad2)*%
X113490000Y-83775000D03*
%TD*%
D12*
%TO.P,C8,1*%
%TO.N,+5V*%
X105880000Y-111610000D03*
%TO.P,C8,2*%
%TO.N,GND*%
X105880000Y-112630000D03*
%TD*%
D45*
%TO.P,U9,1,VIN*%
%TO.N,+3V0*%
X105280511Y-78900000D03*
%TO.P,U9,2,GND*%
%TO.N,GND*%
X105280511Y-79850000D03*
%TO.P,U9,3,EN*%
%TO.N,/1V8_ACC_MAG_EN*%
X105280511Y-80800000D03*
%TO.P,U9,4,NR*%
%TO.N,Net-(U9-NR)*%
X107980511Y-80800000D03*
%TO.P,U9,5,VOUT*%
%TO.N,+1V8*%
X107980511Y-78900000D03*
%TD*%
D46*
%TO.P,SW2,1*%
%TO.N,GND*%
X72903153Y-86827812D03*
X71525492Y-90153780D03*
%TO.P,SW2,2*%
%TO.N,/BUTTON_1*%
X71563528Y-86272920D03*
X70185867Y-89598888D03*
%TD*%
D11*
%TO.P,TP16,1*%
%TO.N,/TESEO_RX*%
X72000000Y-94200000D03*
%TD*%
%TO.P,TP17,1*%
%TO.N,/TESEO_TX*%
X75500000Y-83300000D03*
%TD*%
D47*
%TO.P,U10,1,GND*%
%TO.N,GND*%
X118230000Y-86400000D03*
%TO.P,U10,2,TX*%
%TO.N,/RYLR998_TX*%
X115690000Y-86400000D03*
%TO.P,U10,3,RX*%
%TO.N,/RYLR998_RX*%
X113150000Y-86400000D03*
%TO.P,U10,4,NRST*%
%TO.N,/RYLR998_NRST*%
X110610000Y-86400000D03*
%TO.P,U10,5,VDD*%
%TO.N,Net-(U10-VDD)*%
X108070000Y-86400000D03*
%TD*%
D11*
%TO.P,TP15,1*%
%TO.N,/SD_DETECT*%
X103000000Y-84100000D03*
%TD*%
D47*
%TO.P,B7,1*%
%TO.N,+BATT*%
X106350000Y-122850000D03*
%TO.P,B7,2*%
%TO.N,GND*%
X93700000Y-122850000D03*
%TD*%
D48*
%TO.N,GND*%
X113800000Y-110100000D03*
X76300000Y-103700000D03*
X93700000Y-95900000D03*
X105500000Y-110100000D03*
X125700000Y-94300000D03*
X88700000Y-91400000D03*
X100300000Y-124100000D03*
X109200000Y-76500000D03*
X109000000Y-103600000D03*
X111899999Y-112000000D03*
X96800000Y-73300000D03*
X106300000Y-81300000D03*
X93700000Y-105500000D03*
X97500000Y-117400000D03*
X100600000Y-82000000D03*
X103600000Y-101900000D03*
X93700000Y-91300000D03*
X113300000Y-107400000D03*
X127900000Y-88600000D03*
X93700000Y-101500000D03*
X73400000Y-110300000D03*
X92500000Y-109000000D03*
X71400000Y-108500000D03*
X108412960Y-73530726D03*
X81600000Y-95800000D03*
X83786799Y-96550000D03*
X85000000Y-101300000D03*
X88700000Y-101600000D03*
X83800000Y-95400000D03*
X70500000Y-97500000D03*
X102500000Y-71100000D03*
X107500000Y-117400000D03*
X86100000Y-98000000D03*
X77700000Y-101200000D03*
X86100000Y-95800000D03*
X77900000Y-112700000D03*
X83800000Y-98200000D03*
X111899999Y-112700000D03*
X91900000Y-128600000D03*
X105430511Y-75725000D03*
X87200000Y-78900000D03*
X92000000Y-72100000D03*
X93400000Y-110100000D03*
X92001985Y-70775000D03*
X82300000Y-107800000D03*
X106300000Y-79800000D03*
X105100000Y-112400000D03*
X107430511Y-74950000D03*
X108500000Y-79900000D03*
X69800000Y-108800000D03*
X87900000Y-99100000D03*
X72300000Y-88600000D03*
X116800000Y-83900000D03*
X88600000Y-105700000D03*
X75200000Y-117400000D03*
X98700000Y-107000000D03*
X79705380Y-119005381D03*
X128656587Y-103156587D03*
X111300000Y-121600000D03*
X77800000Y-91500000D03*
X77100000Y-81900000D03*
X73350000Y-113275000D03*
X83800000Y-100000000D03*
X125700000Y-96800000D03*
X87600000Y-101000000D03*
X98800000Y-101600000D03*
X87100000Y-98300000D03*
X107800000Y-77600000D03*
X97600000Y-128900000D03*
X82300000Y-77100000D03*
X86400000Y-91300000D03*
X118550000Y-122100000D03*
X89100000Y-116400000D03*
X98600000Y-112600000D03*
X83550000Y-102850000D03*
X89200000Y-88200000D03*
X103800000Y-80600000D03*
X72800000Y-112125000D03*
X125700000Y-109650000D03*
X87713096Y-117277379D03*
X122300000Y-81300000D03*
X84200000Y-88500000D03*
X98900000Y-91100000D03*
X98700000Y-96000000D03*
X87709620Y-114190380D03*
X77600000Y-95800000D03*
X86100000Y-94000000D03*
X88400000Y-95900000D03*
%TO.N,+5V*%
X105900000Y-110800000D03*
X114099999Y-112200000D03*
X102500000Y-113300000D03*
X110899999Y-111000000D03*
%TO.N,/GPS/3V3_TESEO_FILTERED*%
X83300000Y-79000000D03*
%TO.N,+1V8*%
X103300000Y-75100000D03*
X106400000Y-72000000D03*
X107000000Y-78600000D03*
%TO.N,+3.3V*%
X74975000Y-102900000D03*
X90000000Y-72800000D03*
X93600000Y-69625000D03*
X94100000Y-128500000D03*
X123250000Y-102600000D03*
X99400000Y-73800000D03*
X87700000Y-115000000D03*
X100000000Y-77500000D03*
X75700000Y-115900000D03*
X102000000Y-110300000D03*
X69150000Y-104000000D03*
X73400000Y-107700000D03*
X124300000Y-103650000D03*
%TO.N,/3V3_RYLR_EN*%
X105500000Y-113800000D03*
X83900000Y-115000000D03*
X93600000Y-117400000D03*
%TO.N,/3V3_TESEO_EN*%
X93000000Y-118100000D03*
X107100000Y-102800000D03*
X89100000Y-117300000D03*
%TO.N,/SCL*%
X78722044Y-115000000D03*
X93500000Y-83900000D03*
X78700000Y-88050000D03*
X98750000Y-75600000D03*
%TO.N,/SDA*%
X97800000Y-74800000D03*
X79800000Y-87350000D03*
X76696987Y-115359231D03*
X92646270Y-83650311D03*
%TO.N,/MAG_ACC_INT1*%
X101600000Y-80700000D03*
X107100000Y-73500000D03*
X91500000Y-88506587D03*
%TO.N,/MAG_ACC_DRDY*%
X90680252Y-88393745D03*
%TO.N,/MAG_ACC_INT2*%
X102350000Y-81100000D03*
X107767170Y-73058541D03*
X92303686Y-88695497D03*
%TO.N,/TESEO_RX*%
X73300000Y-92600000D03*
%TO.N,/TESEO_TX*%
X76175000Y-82200000D03*
%TO.N,/NRST*%
X80000000Y-115100000D03*
X82000000Y-117900000D03*
%TO.N,/UART_RX*%
X125550000Y-93000000D03*
X81197995Y-118531773D03*
X81595624Y-115202621D03*
X126606587Y-105206587D03*
%TO.N,/1V8_ACC_MAG_EN*%
X95900000Y-115100000D03*
X102650000Y-86700000D03*
X93000000Y-115100000D03*
%TO.N,/RYLR998_RX*%
X105300000Y-83600000D03*
%TO.N,/RYLR998_TX*%
X105900000Y-84700000D03*
X109724087Y-84700913D03*
%TO.N,/UART_TX*%
X80795922Y-115180699D03*
X80600000Y-118000000D03*
X126950000Y-92100000D03*
X127350000Y-104550000D03*
%TO.N,/SWDIO*%
X82584456Y-118492228D03*
X86013973Y-115686027D03*
%TO.N,/SWCLK*%
X84700000Y-117775000D03*
X122706587Y-112493413D03*
X125850000Y-97900000D03*
X122025000Y-113500000D03*
X83300000Y-118850000D03*
X122600000Y-108750000D03*
%TO.N,/SD_DAT0*%
X93700000Y-73800000D03*
%TO.N,/SD_DAT3*%
X88200000Y-73400000D03*
X96000000Y-86600000D03*
X92100000Y-86600000D03*
%TO.N,/SD_CMD*%
X87600000Y-81800000D03*
%TO.N,/SD_DETECT*%
X94077360Y-86850000D03*
X102650000Y-83100000D03*
%TO.N,/SD_DAT1*%
X94700000Y-73500000D03*
%TO.N,/SD_DAT2*%
X86400000Y-75700000D03*
X90475001Y-86355839D03*
X95924999Y-87396479D03*
%TO.N,Net-(D2-DOUT)*%
X125500000Y-116850000D03*
X126950000Y-115200000D03*
%TO.N,Net-(D4-DOUT)*%
X110200000Y-71050000D03*
X107200000Y-69400000D03*
%TO.N,Net-(D5-DOUT)*%
X81150000Y-74750000D03*
X82900000Y-74250000D03*
%TO.N,Net-(D6-DOUT)*%
X68850000Y-95250000D03*
X71000000Y-93100000D03*
%TO.N,Net-(D7-DOUT)*%
X78750000Y-120350000D03*
X77450000Y-120300000D03*
%TO.N,/BUTTON_1*%
X70500000Y-91100000D03*
%TO.N,/BUTTON_2*%
X130000000Y-92450000D03*
%TO.N,/LED_DATA*%
X85750000Y-117775000D03*
X88100000Y-121400000D03*
X88100000Y-123600000D03*
%TO.N,+3V0*%
X109900000Y-112950000D03*
X102700000Y-78300000D03*
%TO.N,Net-(CN4-CLK)*%
X85800000Y-72600000D03*
%TO.N,+3.3V_GPS*%
X98800000Y-86200000D03*
X87113377Y-77935881D03*
%TO.N,+3.3V_LORA*%
X104300000Y-108400000D03*
X116800000Y-82400000D03*
%TD*%
D49*
%TO.N,GND*%
X102900000Y-112200000D02*
X102600000Y-112200000D01*
X110200000Y-103600000D02*
X109000000Y-103600000D01*
X102600000Y-112200000D02*
X102530000Y-112130000D01*
X111899999Y-112000000D02*
X111899999Y-111000000D01*
X103699999Y-114200001D02*
X103580000Y-114320000D01*
X108582234Y-73700000D02*
X108412960Y-73530726D01*
D50*
X107618574Y-76118574D02*
X107840511Y-76340511D01*
D49*
X112474999Y-113775000D02*
X112199999Y-113500000D01*
X104710000Y-110100000D02*
X104690000Y-110120000D01*
X104952500Y-112252500D02*
X105100000Y-112400000D01*
X112199999Y-113500000D02*
X111899999Y-113200000D01*
X70550000Y-97550000D02*
X72150000Y-97550000D01*
X102952500Y-112252500D02*
X102900000Y-112200000D01*
D50*
X107618574Y-75712189D02*
X107618574Y-76118574D01*
D49*
X109230511Y-75710000D02*
X109230511Y-76469489D01*
X109230511Y-76469489D02*
X109200000Y-76500000D01*
X112474999Y-114300000D02*
X112474999Y-113775000D01*
X103699999Y-113205000D02*
X103699999Y-112502500D01*
X118550000Y-122014823D02*
X117960512Y-121425335D01*
X118550000Y-122100000D02*
X118550000Y-122014823D01*
X113275000Y-106300000D02*
X113275000Y-105625000D01*
X115650000Y-83775000D02*
X115800000Y-83925000D01*
X103699999Y-112502500D02*
X103949999Y-112252500D01*
X96403283Y-73300000D02*
X96800000Y-73300000D01*
X113275000Y-107375000D02*
X113300000Y-107400000D01*
D50*
X107680763Y-75200252D02*
X107430511Y-74950000D01*
D49*
X90317142Y-87499641D02*
X89616783Y-88200000D01*
X106250000Y-79850000D02*
X106300000Y-79800000D01*
X128200000Y-89879272D02*
X128200000Y-88900000D01*
X72600000Y-88300000D02*
X72300000Y-88600000D01*
X88648776Y-88200000D02*
X89200000Y-88200000D01*
D50*
X109110000Y-75710000D02*
X108600252Y-75200252D01*
X107618574Y-75712189D02*
X107618574Y-75138063D01*
D49*
X121560512Y-82039488D02*
X122300000Y-81300000D01*
X112800000Y-107900000D02*
X113300000Y-107400000D01*
D50*
X100300000Y-123000000D02*
X100300000Y-124100000D01*
D49*
X103780511Y-79700000D02*
X104400000Y-79700000D01*
X105280511Y-79850000D02*
X106250000Y-79850000D01*
X102450000Y-71150000D02*
X102500000Y-71100000D01*
X103780511Y-80580511D02*
X103800000Y-80600000D01*
D50*
X128556587Y-103156587D02*
X127850000Y-102450000D01*
X105355511Y-75650000D02*
X105430511Y-75725000D01*
D49*
X112799999Y-110100000D02*
X113800000Y-110100000D01*
X109220511Y-73700000D02*
X108582234Y-73700000D01*
X92000000Y-72911646D02*
X92000000Y-72100000D01*
X107550000Y-116350000D02*
X107550000Y-117350000D01*
X102530000Y-112130000D02*
X101980000Y-112130000D01*
X103949999Y-112252500D02*
X104952500Y-112252500D01*
X99697239Y-82315407D02*
X100284593Y-82315407D01*
X106280511Y-81319489D02*
X106300000Y-81300000D01*
X92950000Y-128600000D02*
X91900000Y-128600000D01*
X112349999Y-111550000D02*
X113099999Y-111550000D01*
X113275000Y-106300000D02*
X113275000Y-107375000D01*
X128200000Y-88900000D02*
X127900000Y-88600000D01*
X106280511Y-82400000D02*
X106280511Y-81319489D01*
X87550000Y-116350000D02*
X89050000Y-116350000D01*
D51*
X110100000Y-121700000D02*
X111200000Y-121700000D01*
D49*
X72300000Y-88950000D02*
X72300000Y-88600000D01*
X100284593Y-82315407D02*
X100600000Y-82000000D01*
D50*
X108600252Y-75200252D02*
X108130511Y-75200252D01*
D49*
X97550000Y-117350000D02*
X97500000Y-117400000D01*
X104428249Y-102728249D02*
X103600000Y-101900000D01*
X111899999Y-112000000D02*
X112349999Y-111550000D01*
D50*
X107840511Y-76340511D02*
X107840511Y-76900000D01*
X127096847Y-86827812D02*
X127400000Y-87130965D01*
D49*
X112799999Y-110100000D02*
X112800000Y-108600000D01*
D50*
X104280511Y-75650000D02*
X105355511Y-75650000D01*
D49*
X92282074Y-73193720D02*
X92000000Y-72911646D01*
X111899999Y-112700000D02*
X111899999Y-112000000D01*
X97550000Y-128850000D02*
X97600000Y-128900000D01*
X109330511Y-80150000D02*
X108750000Y-80150000D01*
X97550000Y-127850000D02*
X97550000Y-128850000D01*
D50*
X128656587Y-103156587D02*
X128556587Y-103156587D01*
D49*
X105330000Y-112630000D02*
X105100000Y-112400000D01*
X83621825Y-76797149D02*
X83318974Y-77100000D01*
X127400000Y-87130965D02*
X127400000Y-88100000D01*
X111899999Y-111000000D02*
X112799999Y-110100000D01*
X72600000Y-87130965D02*
X72600000Y-88300000D01*
X113275000Y-105625000D02*
X113900000Y-105000000D01*
X110240511Y-75720000D02*
X109240511Y-75720000D01*
D50*
X108130511Y-75200252D02*
X107680763Y-75200252D01*
D49*
X102450000Y-72150000D02*
X102450000Y-71150000D01*
X105500000Y-110100000D02*
X104710000Y-110100000D01*
X109240511Y-75720000D02*
X109230511Y-75710000D01*
D50*
X109230511Y-75710000D02*
X109110000Y-75710000D01*
D49*
X79705380Y-119005381D02*
X79619534Y-119005381D01*
D50*
X107618574Y-75138063D02*
X107430511Y-74950000D01*
D49*
X83318974Y-77100000D02*
X82300000Y-77100000D01*
D51*
X111200000Y-121700000D02*
X111300000Y-121600000D01*
D49*
X111899999Y-113200000D02*
X111899999Y-112700000D01*
X114510000Y-83775000D02*
X115650000Y-83775000D01*
X71525492Y-90153780D02*
X71525492Y-89724508D01*
X89616783Y-88200000D02*
X89200000Y-88200000D01*
X79619534Y-119005381D02*
X78574665Y-117960512D01*
X121425335Y-82039488D02*
X121560512Y-82039488D01*
X107840511Y-77559489D02*
X107800000Y-77600000D01*
X72903153Y-86827812D02*
X72600000Y-87130965D01*
X89050000Y-116350000D02*
X89100000Y-116400000D01*
X97550000Y-116350000D02*
X97550000Y-117350000D01*
X105880000Y-112630000D02*
X105330000Y-112630000D01*
X87723760Y-87274984D02*
X88648776Y-88200000D01*
X116775000Y-83925000D02*
X116800000Y-83900000D01*
X104471751Y-102728249D02*
X104428249Y-102728249D01*
X103949999Y-112252500D02*
X102952500Y-112252500D01*
X115800000Y-83925000D02*
X116775000Y-83925000D01*
X107840511Y-76900000D02*
X107840511Y-77559489D01*
X108750000Y-80150000D02*
X108500000Y-79900000D01*
X103699999Y-113205000D02*
X103699999Y-114200001D01*
X104400000Y-79700000D02*
X104550000Y-79850000D01*
X112800000Y-108600000D02*
X112800000Y-107900000D01*
X107550000Y-117350000D02*
X107500000Y-117400000D01*
X82039488Y-78574665D02*
X82300000Y-78314153D01*
X127400000Y-88100000D02*
X127900000Y-88600000D01*
X71525492Y-89724508D02*
X72300000Y-88950000D01*
X95503741Y-72400458D02*
X96403283Y-73300000D01*
X70500000Y-97500000D02*
X70550000Y-97550000D01*
X82300000Y-78314153D02*
X82300000Y-77100000D01*
X103780511Y-79700000D02*
X103780511Y-80580511D01*
D50*
X128474508Y-90153780D02*
X128200000Y-89879272D01*
D49*
X104550000Y-79850000D02*
X105280511Y-79850000D01*
%TO.N,+5V*%
X102450000Y-119650000D02*
X102450000Y-124750000D01*
X113099998Y-112200000D02*
X113099999Y-112200000D01*
X111250000Y-108600000D02*
X111250000Y-106775000D01*
X73750000Y-116869239D02*
X75205761Y-118325000D01*
X126150000Y-111900000D02*
X127950000Y-110100000D01*
X75205761Y-118325000D02*
X77025000Y-118325000D01*
X82250000Y-74828619D02*
X82250000Y-73980761D01*
X114099999Y-112200000D02*
X114099999Y-118000001D01*
X96250000Y-121050000D02*
X93850000Y-121050000D01*
X102500000Y-113300000D02*
X101350000Y-114450000D01*
X91050000Y-119650000D02*
X86941212Y-123758788D01*
X101350000Y-114450000D02*
X101350000Y-118550000D01*
X120143965Y-120293965D02*
X123758788Y-120293965D01*
X77372584Y-79706035D02*
X82250000Y-74828619D01*
X72050000Y-113350000D02*
X72050000Y-105650000D01*
X129600000Y-100850000D02*
X131150000Y-99300000D01*
X97550000Y-68850000D02*
X99100000Y-68850000D01*
X90300000Y-69650000D02*
X92400000Y-69650000D01*
X69750000Y-99450000D02*
X69750000Y-93430761D01*
X73350000Y-89830761D02*
X73350000Y-88450000D01*
X82630761Y-73600000D02*
X83200000Y-73600000D01*
X92400000Y-69650000D02*
X93200000Y-68850000D01*
X97100000Y-121050000D02*
X96600000Y-121050000D01*
X101050000Y-126150000D02*
X101050000Y-129750000D01*
X112500000Y-105000000D02*
X112500000Y-104550000D01*
D50*
X105880000Y-111610000D02*
X105880000Y-110820000D01*
D49*
X73750000Y-115050000D02*
X72050000Y-113350000D01*
X78100000Y-119400000D02*
X77025000Y-118325000D01*
X114099999Y-118000001D02*
X112450000Y-119650000D01*
X79706035Y-123758788D02*
X78100000Y-122152753D01*
X73350000Y-88450000D02*
X74150000Y-87650000D01*
X73750000Y-115050000D02*
X73750000Y-116869239D01*
X111725000Y-106300000D02*
X111725000Y-105775000D01*
X97100000Y-121050000D02*
X96950000Y-121050000D01*
X86941212Y-123758788D02*
X79706035Y-123758788D01*
X103199998Y-113205000D02*
X102595000Y-113205000D01*
X96600000Y-123000000D02*
X96600000Y-121400000D01*
X95250000Y-127950000D02*
X95250000Y-125750000D01*
X105950000Y-110800000D02*
X106350000Y-110400000D01*
X86131347Y-71108852D02*
X88841148Y-71108852D01*
X111725000Y-105775000D02*
X112500000Y-105000000D01*
X111249999Y-110100000D02*
X111250000Y-108600000D01*
X88841148Y-71108852D02*
X90300000Y-69650000D01*
X101050000Y-129750000D02*
X102450000Y-131150000D01*
X126150000Y-117902753D02*
X126150000Y-111900000D01*
X96600000Y-121400000D02*
X96250000Y-121050000D01*
X75200000Y-80747247D02*
X76241212Y-79706035D01*
X96600000Y-121400000D02*
X96600000Y-121050000D01*
X99100000Y-68850000D02*
X100450000Y-70200000D01*
X75200000Y-81600000D02*
X75200000Y-80747247D01*
X111249999Y-110100000D02*
X111249999Y-110650000D01*
D52*
X98300000Y-123000000D02*
X96600000Y-123000000D01*
D49*
X106350000Y-110400000D02*
X110299999Y-110400000D01*
X101350000Y-118550000D02*
X102450000Y-119650000D01*
D50*
X105310000Y-111610000D02*
X105880000Y-111610000D01*
D49*
X117250000Y-74000000D02*
X118052753Y-74000000D01*
X102450000Y-124750000D02*
X101050000Y-126150000D01*
X74150000Y-87650000D02*
X74150000Y-82650000D01*
X111249999Y-110650000D02*
X110899999Y-111000000D01*
X113100000Y-72550000D02*
X115800000Y-72550000D01*
X117850001Y-118000001D02*
X120143965Y-120293965D01*
X102595000Y-113205000D02*
X102500000Y-113300000D01*
X72050000Y-105650000D02*
X68850000Y-102450000D01*
X101350000Y-118550000D02*
X98850000Y-121050000D01*
X127950000Y-106350000D02*
X129600000Y-104700000D01*
X111250000Y-106775000D02*
X111725000Y-106300000D01*
X105900000Y-110800000D02*
X105950000Y-110800000D01*
X110750000Y-70200000D02*
X113100000Y-72550000D01*
X93200000Y-68850000D02*
X97550000Y-68850000D01*
X82250000Y-73980761D02*
X82630761Y-73600000D01*
X110299999Y-110400000D02*
X110899999Y-111000000D01*
X100450000Y-70200000D02*
X110750000Y-70200000D01*
X96950000Y-121050000D02*
X96600000Y-121400000D01*
X85247749Y-71552251D02*
X86131347Y-71108852D01*
D50*
X105880000Y-110820000D02*
X105900000Y-110800000D01*
D49*
X113099999Y-112200000D02*
X114099999Y-112200000D01*
X96600000Y-121050000D02*
X96250000Y-121050000D01*
X127950000Y-110100000D02*
X127950000Y-106350000D01*
X114099999Y-118000001D02*
X117850001Y-118000001D01*
X68850000Y-102450000D02*
X68850000Y-100350000D01*
X93850000Y-121050000D02*
X92450000Y-119650000D01*
X131150000Y-99300000D02*
X131150000Y-97550000D01*
X74150000Y-82650000D02*
X75200000Y-81600000D01*
X123758788Y-120293965D02*
X126150000Y-117902753D01*
X115800000Y-72550000D02*
X117250000Y-74000000D01*
D50*
X104700000Y-111300000D02*
X105000000Y-111300000D01*
D49*
X118052753Y-74000000D02*
X120293965Y-76241212D01*
X129600000Y-104700000D02*
X129600000Y-100850000D01*
X110899999Y-111550000D02*
X110899999Y-111000000D01*
D50*
X105000000Y-111300000D02*
X105310000Y-111610000D01*
D49*
X96600000Y-124400000D02*
X96600000Y-123000000D01*
X92450000Y-119650000D02*
X91050000Y-119650000D01*
X78100000Y-122152753D02*
X78100000Y-119400000D01*
X76241212Y-79706035D02*
X77372584Y-79706035D01*
X69750000Y-93430761D02*
X73350000Y-89830761D01*
X95250000Y-125750000D02*
X96600000Y-124400000D01*
X83200000Y-73600000D02*
X85247749Y-71552251D01*
X98850000Y-121050000D02*
X97100000Y-121050000D01*
X68850000Y-100350000D02*
X69750000Y-99450000D01*
D50*
%TO.N,/GPS/3V3_TESEO_FILTERED*%
X82700000Y-79800000D02*
X82700000Y-81500000D01*
X83300000Y-79000000D02*
X83300000Y-79200000D01*
X83300000Y-79200000D02*
X82700000Y-79800000D01*
D49*
%TO.N,+1V8*%
X111200000Y-75100000D02*
X110800000Y-74700000D01*
X105530511Y-72030000D02*
X106370000Y-72030000D01*
X110240511Y-73700000D02*
X110240511Y-74700000D01*
X104430511Y-72030000D02*
X105530511Y-72030000D01*
D52*
X112500000Y-77500000D02*
X111600000Y-76600000D01*
D50*
X108130511Y-74700126D02*
X108130511Y-74200000D01*
X105738463Y-75150000D02*
X106188337Y-74700126D01*
D49*
X108600000Y-78900000D02*
X108830000Y-79130000D01*
D52*
X111600000Y-76600000D02*
X111200000Y-76600000D01*
D49*
X109330511Y-78469489D02*
X111200000Y-76600000D01*
X108830000Y-79130000D02*
X109330511Y-79130000D01*
D50*
X104280511Y-75150000D02*
X105738463Y-75150000D01*
D49*
X107300000Y-78900000D02*
X107000000Y-78600000D01*
X111200000Y-76600000D02*
X111200000Y-75100000D01*
X109240511Y-74700000D02*
X109230511Y-74690000D01*
X110240511Y-74700000D02*
X109240511Y-74700000D01*
D50*
X103300000Y-75100000D02*
X103469297Y-75100000D01*
D49*
X109330511Y-79130000D02*
X109330511Y-78469489D01*
X107980511Y-78900000D02*
X108600000Y-78900000D01*
D50*
X103469297Y-75100000D02*
X103519297Y-75150000D01*
D49*
X107980511Y-78900000D02*
X107300000Y-78900000D01*
X106370000Y-72030000D02*
X106400000Y-72000000D01*
D50*
X108130511Y-74700126D02*
X109220385Y-74700126D01*
X103519297Y-75150000D02*
X104280511Y-75150000D01*
X109220385Y-74700126D02*
X109230511Y-74690000D01*
X106188337Y-74700126D02*
X106606511Y-74700126D01*
D49*
X110800000Y-74700000D02*
X110240511Y-74700000D01*
D50*
%TO.N,+3.3V*%
X124300000Y-103650000D02*
X123250000Y-102600000D01*
D49*
X102700000Y-111300000D02*
X102510000Y-111110000D01*
X95250000Y-128600000D02*
X94200000Y-128600000D01*
X94200000Y-128600000D02*
X94100000Y-128500000D01*
X101980000Y-110320000D02*
X102000000Y-110300000D01*
X99390000Y-73790000D02*
X99400000Y-73800000D01*
X90249539Y-74035624D02*
X90100000Y-73886085D01*
X101980000Y-111110000D02*
X101980000Y-110320000D01*
X99650000Y-77150000D02*
X100000000Y-77500000D01*
X102510000Y-111110000D02*
X101980000Y-111110000D01*
D52*
X102200000Y-108600000D02*
X102200000Y-110100000D01*
D49*
X99650000Y-76620000D02*
X99650000Y-77150000D01*
X90100000Y-73886085D02*
X90100000Y-72900000D01*
X101050511Y-77500000D02*
X101850511Y-76700000D01*
X98550000Y-73790000D02*
X99390000Y-73790000D01*
X90100000Y-72900000D02*
X90000000Y-72800000D01*
X103199998Y-111300000D02*
X102700000Y-111300000D01*
X93550000Y-127950000D02*
X94100000Y-128500000D01*
X92950000Y-127950000D02*
X93550000Y-127950000D01*
D52*
X102200000Y-110100000D02*
X102000000Y-110300000D01*
D49*
X100000000Y-77500000D02*
X101050511Y-77500000D01*
D50*
%TO.N,Net-(U1-C1)*%
X107118448Y-75712189D02*
X107118448Y-76081552D01*
X107118448Y-76081552D02*
X106820511Y-76379489D01*
X106820511Y-76379489D02*
X106820511Y-76900000D01*
%TO.N,/3V3_RYLR_EN*%
X83900000Y-115000000D02*
X86141119Y-115000000D01*
X104700000Y-113205000D02*
X105105000Y-113205000D01*
X86141119Y-115000000D02*
X86741119Y-115600000D01*
X105105000Y-113205000D02*
X105500000Y-113600000D01*
X89700000Y-115600000D02*
X91500000Y-117400000D01*
X105500000Y-113600000D02*
X105500000Y-113800000D01*
X86741119Y-115600000D02*
X89700000Y-115600000D01*
X91500000Y-117400000D02*
X93600000Y-117400000D01*
D49*
%TO.N,Net-(U4-SW)*%
X111100000Y-104550000D02*
X110200000Y-104550000D01*
X113900000Y-101900000D02*
X111650000Y-101900000D01*
X108725000Y-105475000D02*
X108725000Y-106500000D01*
X109650000Y-104550000D02*
X108725000Y-105475000D01*
X110200000Y-104550000D02*
X109650000Y-104550000D01*
X111650000Y-101900000D02*
X111300000Y-102250000D01*
X111300000Y-104350000D02*
X111100000Y-104550000D01*
X111300000Y-102250000D02*
X111300000Y-104350000D01*
D50*
%TO.N,/3V3_TESEO_EN*%
X91500000Y-118100000D02*
X93000000Y-118100000D01*
X89100000Y-117300000D02*
X90000000Y-117300000D01*
X90000000Y-117300000D02*
X90700000Y-117300000D01*
X107790000Y-102110000D02*
X107100000Y-102800000D01*
X107790000Y-102100000D02*
X107790000Y-102110000D01*
X90700000Y-117300000D02*
X91300000Y-117900000D01*
X91300000Y-117900000D02*
X91500000Y-118100000D01*
%TO.N,Net-(U4-EN)*%
X110200000Y-102650000D02*
X109550000Y-102650000D01*
X109550000Y-102650000D02*
X109000000Y-102100000D01*
X109000000Y-102100000D02*
X108810000Y-102100000D01*
D49*
%TO.N,Net-(U4-FB)*%
X113250000Y-102650000D02*
X112500000Y-102650000D01*
X113900000Y-103980000D02*
X113900000Y-102920000D01*
X113520000Y-102920000D02*
X113250000Y-102650000D01*
X113900000Y-102920000D02*
X113520000Y-102920000D01*
D50*
%TO.N,/MAG_ACC/LSM_SCL*%
X105530511Y-73050000D02*
X105530511Y-73950000D01*
X105743489Y-74650000D02*
X106193489Y-74200000D01*
X105430511Y-74400000D02*
X105430511Y-74650000D01*
X105530511Y-73050000D02*
X106164588Y-73050000D01*
X105430511Y-74450000D02*
X105230511Y-74650000D01*
X105230511Y-74650000D02*
X105430511Y-74650000D01*
X105430511Y-74650000D02*
X105630511Y-74650000D01*
X105430511Y-74050000D02*
X105430511Y-74400000D01*
X105630511Y-74650000D02*
X105743489Y-74650000D01*
X105430511Y-74400000D02*
X105430511Y-74450000D01*
X104280511Y-74650000D02*
X105230511Y-74650000D01*
X106164588Y-73050000D02*
X107400000Y-71814588D01*
X105530511Y-73950000D02*
X105430511Y-74050000D01*
X107400000Y-71814588D02*
X107400000Y-71500000D01*
X106193489Y-74200000D02*
X106606511Y-74200000D01*
X105430511Y-74450000D02*
X105630511Y-74650000D01*
%TO.N,/MAG_ACC/LSM_SDA*%
X104280511Y-73650000D02*
X104280511Y-74150000D01*
X106606511Y-75700378D02*
X106006889Y-76300000D01*
X104831527Y-70724000D02*
X103834511Y-71721016D01*
X102700000Y-75600000D02*
X102700000Y-74700000D01*
X103250000Y-74150000D02*
X104280511Y-74150000D01*
X102700000Y-74700000D02*
X103250000Y-74150000D01*
X108124000Y-70724000D02*
X104831527Y-70724000D01*
X106006889Y-76300000D02*
X103400000Y-76300000D01*
X104430511Y-73500000D02*
X104430511Y-73050000D01*
X103834511Y-71721016D02*
X103834511Y-72454000D01*
X103834511Y-72454000D02*
X104430511Y-73050000D01*
X103400000Y-76300000D02*
X102700000Y-75600000D01*
X108900000Y-71500000D02*
X108124000Y-70724000D01*
X104280511Y-73650000D02*
X104430511Y-73500000D01*
%TO.N,Net-(U2-EN)*%
X101180511Y-75650000D02*
X101180511Y-76350000D01*
X101180511Y-75150000D02*
X101180511Y-75650000D01*
X101180511Y-76350000D02*
X100830511Y-76700000D01*
%TO.N,/SCL*%
X91300000Y-84650000D02*
X90750000Y-85200000D01*
X99650000Y-75600000D02*
X98750000Y-75600000D01*
X80450000Y-88050000D02*
X78700000Y-88050000D01*
X74500000Y-88890988D02*
X75340988Y-88050000D01*
X100600000Y-74650000D02*
X101180511Y-74650000D01*
X83900000Y-85200000D02*
X83300000Y-85200000D01*
X92000000Y-84400000D02*
X91750000Y-84650000D01*
X99650000Y-75600000D02*
X100600000Y-74650000D01*
X75340988Y-88050000D02*
X78700000Y-88050000D01*
X92525311Y-84400000D02*
X92000000Y-84400000D01*
X78722044Y-115000000D02*
X77150929Y-115000000D01*
X83300000Y-85200000D02*
X80450000Y-88050000D01*
X91750000Y-84650000D02*
X91300000Y-84650000D01*
X93500000Y-83900000D02*
X93174689Y-84225311D01*
X74500000Y-91150000D02*
X74500000Y-88890988D01*
X74400000Y-111055026D02*
X74400000Y-91250000D01*
X74400000Y-91250000D02*
X74500000Y-91150000D01*
X76925929Y-114775000D02*
X75169974Y-114775000D01*
X74950000Y-114555026D02*
X74950000Y-111605025D01*
X74950000Y-111605025D02*
X74400000Y-111055026D01*
X90750000Y-85200000D02*
X83900000Y-85200000D01*
X75169974Y-114775000D02*
X74950000Y-114555026D01*
X93174689Y-84225311D02*
X92700000Y-84225311D01*
X83900000Y-86500000D02*
X83900000Y-85200000D01*
X77150929Y-115000000D02*
X76925929Y-114775000D01*
X92700000Y-84225311D02*
X92525311Y-84400000D01*
%TO.N,/SDA*%
X75250000Y-115350000D02*
X74600000Y-114700000D01*
X92000000Y-84000000D02*
X91700000Y-84000000D01*
X74150000Y-90444975D02*
X74150000Y-88746014D01*
X74050000Y-111200000D02*
X74050000Y-90544975D01*
X97810000Y-74810000D02*
X97800000Y-74800000D01*
X92646270Y-83650311D02*
X92349689Y-83650311D01*
X74600000Y-111750000D02*
X74050000Y-111200000D01*
X83900000Y-84800000D02*
X82350000Y-84800000D01*
X92349689Y-83650311D02*
X92000000Y-84000000D01*
X99390000Y-74810000D02*
X100050000Y-74150000D01*
X82350000Y-84800000D02*
X79800000Y-87350000D01*
X100050000Y-74150000D02*
X101180511Y-74150000D01*
X76662756Y-115325000D02*
X75275000Y-115325000D01*
X74050000Y-90544975D02*
X74150000Y-90444975D01*
X98550000Y-74810000D02*
X97810000Y-74810000D01*
X90800000Y-84300000D02*
X90300000Y-84800000D01*
X74600000Y-114700000D02*
X74600000Y-111750000D01*
X74150000Y-88746014D02*
X75546014Y-87350000D01*
X75546014Y-87350000D02*
X79800000Y-87350000D01*
X76696987Y-115359231D02*
X76662756Y-115325000D01*
X90300000Y-84800000D02*
X83900000Y-84800000D01*
X83900000Y-83500000D02*
X83900000Y-84800000D01*
X75275000Y-115325000D02*
X75250000Y-115350000D01*
X98550000Y-74810000D02*
X99390000Y-74810000D01*
X91400000Y-84300000D02*
X90800000Y-84300000D01*
X91700000Y-84000000D02*
X91400000Y-84300000D01*
%TO.N,/MAG_ACC_INT1*%
X97725000Y-87783148D02*
X97186669Y-88321479D01*
X97186669Y-88321479D02*
X95653446Y-88321479D01*
X93280025Y-88475000D02*
X92925522Y-88120497D01*
X107118448Y-74188189D02*
X107118448Y-73518448D01*
X100844975Y-84850000D02*
X98544974Y-84850000D01*
X98544974Y-84850000D02*
X97725000Y-85669974D01*
X101600000Y-80700000D02*
X101600000Y-84094975D01*
X97725000Y-85669974D02*
X97725000Y-87783148D01*
X92925522Y-88120497D02*
X91886090Y-88120497D01*
X95653446Y-88321479D02*
X95499925Y-88475000D01*
X107118448Y-73518448D02*
X107100000Y-73500000D01*
X101600000Y-84094975D02*
X100844975Y-84850000D01*
X91886090Y-88120497D02*
X91500000Y-88506587D01*
X95499925Y-88475000D02*
X93280025Y-88475000D01*
%TO.N,/MAG_ACC_DRDY*%
X108385511Y-77827662D02*
X108385511Y-75955378D01*
X104600000Y-77000000D02*
X104800000Y-77200000D01*
X95508472Y-87971479D02*
X97041694Y-87971479D01*
X97375000Y-87638173D02*
X97375000Y-85524999D01*
X101175000Y-81088173D02*
X101025000Y-80938173D01*
X101025000Y-80938173D02*
X101025000Y-78775000D01*
X102800000Y-77000000D02*
X104600000Y-77000000D01*
X101025000Y-78775000D02*
X102800000Y-77000000D01*
X93425000Y-88125000D02*
X95354951Y-88125000D01*
X101175000Y-84025000D02*
X101175000Y-81088173D01*
X92280547Y-87770497D02*
X93070497Y-87770497D01*
X100700000Y-84500000D02*
X101175000Y-84025000D01*
X95354951Y-88125000D02*
X95508472Y-87971479D01*
X104800000Y-77200000D02*
X105000000Y-77200000D01*
X97375000Y-85524999D02*
X98399999Y-84500000D01*
X106913173Y-77700000D02*
X107388173Y-78175000D01*
X98399999Y-84500000D02*
X100700000Y-84500000D01*
X105500000Y-77700000D02*
X106913173Y-77700000D01*
X90680252Y-88393745D02*
X91373997Y-87700000D01*
X93070497Y-87770497D02*
X93425000Y-88125000D01*
X92210050Y-87700000D02*
X92280547Y-87770497D01*
X105000000Y-77200000D02*
X105500000Y-77700000D01*
X97041694Y-87971479D02*
X97375000Y-87638173D01*
X107388173Y-78175000D02*
X108038173Y-78175000D01*
X91373997Y-87700000D02*
X92210050Y-87700000D01*
X108385511Y-75955378D02*
X108130511Y-75700378D01*
X108038173Y-78175000D02*
X108385511Y-77827662D01*
%TO.N,/MAG_ACC_INT2*%
X92303686Y-88695497D02*
X92433189Y-88825000D01*
X107618574Y-73794599D02*
X107767170Y-73646003D01*
X101950000Y-84239949D02*
X101950000Y-81500000D01*
X92433189Y-88825000D02*
X97178123Y-88825000D01*
X98075000Y-87928123D02*
X98075000Y-85814948D01*
X98075000Y-85814948D02*
X98689948Y-85200000D01*
X100989949Y-85200000D02*
X101950000Y-84239949D01*
X97178123Y-88825000D02*
X98075000Y-87928123D01*
X107618574Y-74188189D02*
X107618574Y-73794599D01*
X98689948Y-85200000D02*
X100989949Y-85200000D01*
X101950000Y-81500000D02*
X102350000Y-81100000D01*
X107767170Y-73646003D02*
X107767170Y-73058541D01*
%TO.N,/TESEO_RX*%
X72000000Y-94200000D02*
X72000000Y-93900000D01*
X72000000Y-93900000D02*
X73300000Y-92600000D01*
%TO.N,/TESEO_TX*%
X75500000Y-82875000D02*
X76175000Y-82200000D01*
X75500000Y-83300000D02*
X75500000Y-82875000D01*
%TO.N,/NRST*%
X80893600Y-119106773D02*
X80000000Y-118213173D01*
X81436168Y-119106773D02*
X80893600Y-119106773D01*
X81850000Y-118083842D02*
X82000000Y-117933842D01*
X82000000Y-118542941D02*
X81436168Y-119106773D01*
X80000000Y-118213173D02*
X80000000Y-115100000D01*
X82000000Y-117933842D02*
X82000000Y-117900000D01*
X82000000Y-117900000D02*
X82000000Y-118542941D01*
%TO.N,Net-(U9-NR)*%
X107830511Y-81600000D02*
X107830511Y-82400000D01*
X107980511Y-81450000D02*
X107830511Y-81600000D01*
X107980511Y-80800000D02*
X107980511Y-81450000D01*
D51*
%TO.N,Net-(U8-L)*%
X108399999Y-111900000D02*
X108699999Y-112200000D01*
X108699999Y-112200000D02*
X110900000Y-112200000D01*
D50*
%TO.N,/UART_RX*%
X126606587Y-94056587D02*
X125550000Y-93000000D01*
X81500000Y-116395990D02*
X81197995Y-116697995D01*
X81500000Y-115905026D02*
X81500000Y-116395990D01*
X81197995Y-116697995D02*
X81197995Y-118531773D01*
X81595624Y-115809402D02*
X81500000Y-115905026D01*
X126606587Y-105206587D02*
X126606587Y-94056587D01*
X81595624Y-115202621D02*
X81595624Y-115809402D01*
%TO.N,/1V8_ACC_MAG_EN*%
X95900000Y-115100000D02*
X93000000Y-115100000D01*
X104100000Y-85250000D02*
X102650000Y-86700000D01*
X104100000Y-82300000D02*
X104100000Y-85250000D01*
X105280511Y-80800000D02*
X104100000Y-81980511D01*
X104100000Y-81980511D02*
X104100000Y-82300000D01*
D49*
%TO.N,Net-(U10-VDD)*%
X109875000Y-82790000D02*
X109710000Y-82790000D01*
X113290000Y-82450000D02*
X113490000Y-82650000D01*
X111240000Y-82450000D02*
X110900000Y-82790000D01*
X108070000Y-84430000D02*
X108070000Y-86400000D01*
X112200000Y-82450000D02*
X113290000Y-82450000D01*
X109710000Y-82790000D02*
X108070000Y-84430000D01*
X112200000Y-82450000D02*
X111240000Y-82450000D01*
X109875000Y-82790000D02*
X110900000Y-82790000D01*
%TO.N,Net-(C21-Pad2)*%
X109875000Y-83810000D02*
X110900000Y-83810000D01*
X112200000Y-84000000D02*
X111500000Y-84000000D01*
X112200000Y-84000000D02*
X113265000Y-84000000D01*
X111310000Y-83810000D02*
X111500000Y-84000000D01*
X110900000Y-83810000D02*
X111310000Y-83810000D01*
X113265000Y-84000000D02*
X113490000Y-83775000D01*
D50*
%TO.N,/RYLR998_RX*%
X105300000Y-83600000D02*
X104500000Y-84400000D01*
X103600000Y-86600000D02*
X103600000Y-88700000D01*
X104500000Y-85700000D02*
X103600000Y-86600000D01*
X104500000Y-84400000D02*
X104500000Y-85700000D01*
%TO.N,/RYLR998_TX*%
X105900000Y-84700000D02*
X105900000Y-84800000D01*
X109748174Y-84725000D02*
X114015000Y-84725000D01*
X114015000Y-84725000D02*
X115690000Y-86400000D01*
X105900000Y-84800000D02*
X104600000Y-86100000D01*
X104600000Y-89700000D02*
X103600000Y-90700000D01*
X109724087Y-84700913D02*
X109748174Y-84725000D01*
X104600000Y-86100000D02*
X104600000Y-89700000D01*
%TO.N,/UART_TX*%
X126956587Y-104156587D02*
X127350000Y-104550000D01*
X126950000Y-92100000D02*
X126956587Y-92106587D01*
X126956587Y-92106587D02*
X126956587Y-104156587D01*
X80600000Y-115376621D02*
X80600000Y-118000000D01*
X80795922Y-115180699D02*
X80600000Y-115376621D01*
%TO.N,/SWDIO*%
X84500000Y-117200000D02*
X83876684Y-117200000D01*
X86013973Y-115686027D02*
X84500000Y-117200000D01*
X83876684Y-117200000D02*
X82584456Y-118492228D01*
D52*
%TO.N,+BATT*%
X103500000Y-122900000D02*
X106300000Y-122900000D01*
D51*
X108550000Y-121700000D02*
X107500000Y-121700000D01*
X108630072Y-122850000D02*
X110055007Y-124274935D01*
X107500000Y-121700000D02*
X106350000Y-122850000D01*
D52*
X106300000Y-122900000D02*
X106350000Y-122850000D01*
D51*
X106350000Y-122850000D02*
X108630072Y-122850000D01*
D50*
%TO.N,/SWCLK*%
X84375000Y-117775000D02*
X83300000Y-118850000D01*
X122025000Y-113175000D02*
X122025000Y-113500000D01*
X125850000Y-97900000D02*
X125650000Y-98100000D01*
X125300000Y-106600000D02*
X125650000Y-106250000D01*
X123800000Y-107550000D02*
X124350000Y-107550000D01*
X124350000Y-107550000D02*
X124450000Y-107450000D01*
X125650000Y-98100000D02*
X125650000Y-105100000D01*
X84700000Y-117775000D02*
X84375000Y-117775000D01*
X124450000Y-107450000D02*
X125300000Y-106600000D01*
X122706587Y-112493413D02*
X122025000Y-113175000D01*
X122600000Y-108750000D02*
X123800000Y-107550000D01*
X125650000Y-106250000D02*
X125650000Y-105100000D01*
%TO.N,/SD_DAT0*%
X93298342Y-73398342D02*
X93700000Y-73800000D01*
X93298342Y-72772769D02*
X93298342Y-73398342D01*
%TO.N,/SD_DAT3*%
X88217004Y-73417004D02*
X88217004Y-74877527D01*
X92100000Y-86600000D02*
X92570497Y-87070497D01*
X95140533Y-86600000D02*
X96000000Y-86600000D01*
X88200000Y-73400000D02*
X88217004Y-73417004D01*
X93483977Y-87070497D02*
X93838480Y-87425000D01*
X92570497Y-87070497D02*
X93483977Y-87070497D01*
X93838480Y-87425000D02*
X94315533Y-87425000D01*
X94315533Y-87425000D02*
X95140533Y-86600000D01*
%TO.N,/SD_CMD*%
X86100000Y-77300000D02*
X86700000Y-76700000D01*
X86100000Y-80300000D02*
X86100000Y-77300000D01*
X86700000Y-76700000D02*
X88400000Y-76700000D01*
X87600000Y-81800000D02*
X86100000Y-80300000D01*
X89500000Y-75600000D02*
X89500000Y-74723304D01*
X89500000Y-74723304D02*
X89233272Y-74456576D01*
X88400000Y-76700000D02*
X89500000Y-75600000D01*
%TO.N,/SD_DETECT*%
X102650000Y-83750000D02*
X103000000Y-84100000D01*
X102650000Y-83100000D02*
X102650000Y-83750000D01*
X94286189Y-85936787D02*
X94286189Y-86641171D01*
X94286189Y-86641171D02*
X94077360Y-86850000D01*
%TO.N,/SD_DAT1*%
X94314609Y-73114609D02*
X94700000Y-73500000D01*
X94314609Y-72351817D02*
X94314609Y-73114609D01*
%TO.N,/SD_DAT2*%
X93693506Y-87775000D02*
X93339003Y-87420497D01*
X94825000Y-87775000D02*
X93693506Y-87775000D01*
X92425522Y-87420497D02*
X92305025Y-87300000D01*
X95924999Y-87396479D02*
X95203521Y-87396479D01*
X86400000Y-75700000D02*
X86799216Y-75700000D01*
X93339003Y-87420497D02*
X92425522Y-87420497D01*
X90939560Y-86820398D02*
X90475001Y-86355839D01*
X91200465Y-87300000D02*
X90939560Y-87039095D01*
X90939560Y-87039095D02*
X90939560Y-86820398D01*
X86799216Y-75700000D02*
X87200737Y-75298479D01*
X92305025Y-87300000D02*
X91200465Y-87300000D01*
X95203521Y-87396479D02*
X94825000Y-87775000D01*
%TO.N,Net-(D1-DIN)*%
X97550000Y-131150000D02*
X97550000Y-130150000D01*
X96650000Y-129250000D02*
X95250000Y-129250000D01*
X97550000Y-130150000D02*
X96650000Y-129250000D01*
%TO.N,Net-(D1-DOUT)*%
X111950000Y-127850000D02*
X102450000Y-127850000D01*
X117600000Y-125100000D02*
X115700000Y-127000000D01*
X120293965Y-123758788D02*
X118952753Y-125100000D01*
X118952753Y-125100000D02*
X117600000Y-125100000D01*
X112800000Y-127000000D02*
X111950000Y-127850000D01*
X115700000Y-127000000D02*
X112800000Y-127000000D01*
%TO.N,Net-(D2-DOUT)*%
X130200000Y-106100000D02*
X131150000Y-105150000D01*
X131150000Y-105150000D02*
X131150000Y-102450000D01*
X128800000Y-112800000D02*
X128800000Y-110600000D01*
X122535847Y-116850000D02*
X121425335Y-117960512D01*
X130200000Y-109200000D02*
X130200000Y-106100000D01*
X125500000Y-116850000D02*
X122535847Y-116850000D01*
X126950000Y-115200000D02*
X126950000Y-114650000D01*
X128800000Y-110600000D02*
X130200000Y-109200000D01*
X126950000Y-114650000D02*
X128800000Y-112800000D01*
%TO.N,Net-(D3-DOUT)*%
X125200000Y-83300000D02*
X125900000Y-84000000D01*
X127850000Y-91750000D02*
X127850000Y-97550000D01*
X123758788Y-79706035D02*
X125200000Y-81147247D01*
X125200000Y-81147247D02*
X125200000Y-83300000D01*
X125900000Y-84000000D02*
X125900000Y-89800000D01*
X125900000Y-89800000D02*
X127850000Y-91750000D01*
%TO.N,Net-(D4-DOUT)*%
X110435847Y-71050000D02*
X110200000Y-71050000D01*
X106650000Y-68850000D02*
X102450000Y-68850000D01*
X117960512Y-78574665D02*
X110435847Y-71050000D01*
X107200000Y-69400000D02*
X106650000Y-68850000D01*
%TO.N,Net-(D5-DOUT)*%
X96300000Y-70200000D02*
X97550000Y-71450000D01*
X82900000Y-74250000D02*
X83336827Y-74250000D01*
X89000000Y-71800000D02*
X90600000Y-70200000D01*
X79706035Y-76241212D02*
X81147247Y-74800000D01*
X82850000Y-74250000D02*
X82900000Y-74250000D01*
X97550000Y-71450000D02*
X97550000Y-72150000D01*
X83336827Y-74250000D02*
X85786827Y-71800000D01*
X90600000Y-70200000D02*
X96300000Y-70200000D01*
X85786827Y-71800000D02*
X89000000Y-71800000D01*
X81147247Y-74800000D02*
X81150000Y-74750000D01*
%TO.N,Net-(D6-DOUT)*%
X73800000Y-90300000D02*
X73800000Y-88601040D01*
X71000000Y-93100000D02*
X73800000Y-90300000D01*
X74575000Y-87826040D02*
X74575000Y-86039153D01*
X68850000Y-97550000D02*
X68850000Y-95250000D01*
X74575000Y-86039153D02*
X78574665Y-82039488D01*
X73800000Y-88601040D02*
X74575000Y-87826040D01*
%TO.N,Net-(D7-DOUT)*%
X76301040Y-117000000D02*
X75986827Y-117000000D01*
X75986827Y-117000000D02*
X74250000Y-115263173D01*
X72475000Y-102775000D02*
X72150000Y-102450000D01*
X78750000Y-119448960D02*
X76301040Y-117000000D01*
X76241212Y-120293965D02*
X76241212Y-120241212D01*
X76241212Y-120293965D02*
X77443965Y-120293965D01*
X74250000Y-112200000D02*
X72475000Y-110425000D01*
X77443965Y-120293965D02*
X77450000Y-120300000D01*
X78750000Y-120350000D02*
X78750000Y-119448960D01*
X72475000Y-110425000D02*
X72475000Y-102775000D01*
X74250000Y-115263173D02*
X74250000Y-112200000D01*
%TO.N,Net-(D8-DOUT)*%
X83914823Y-119550000D02*
X82039488Y-121425335D01*
X87450000Y-119550000D02*
X83914823Y-119550000D01*
X87550000Y-119650000D02*
X87450000Y-119550000D01*
%TO.N,Net-(D10-DIN)*%
X93950000Y-116350000D02*
X95000000Y-117400000D01*
X95000000Y-117400000D02*
X95000000Y-118600000D01*
X92450000Y-116350000D02*
X93950000Y-116350000D01*
X95000000Y-118600000D02*
X96050000Y-119650000D01*
X96050000Y-119650000D02*
X97550000Y-119650000D01*
%TO.N,Net-(D10-DOUT)*%
X105000000Y-118500000D02*
X106150000Y-119650000D01*
X106150000Y-119650000D02*
X107550000Y-119650000D01*
X102450000Y-116350000D02*
X104150000Y-116350000D01*
X104150000Y-116350000D02*
X105000000Y-117200000D01*
X105000000Y-117200000D02*
X105000000Y-118500000D01*
%TO.N,/BUTTON_1*%
X70500000Y-91028266D02*
X70185867Y-90714133D01*
X70500000Y-91100000D02*
X70500000Y-91028266D01*
X70185867Y-89598888D02*
X70201112Y-89598888D01*
X70201112Y-89598888D02*
X70550000Y-89250000D01*
X71300000Y-86536448D02*
X71563528Y-86272920D01*
X70550000Y-89250000D02*
X70550000Y-88200000D01*
X71300000Y-87450000D02*
X71300000Y-86536448D01*
X70550000Y-88200000D02*
X71300000Y-87450000D01*
X70185867Y-90714133D02*
X70185867Y-89598888D01*
%TO.N,/BUTTON_2*%
X129500000Y-88500000D02*
X129500000Y-89284755D01*
X129500000Y-89284755D02*
X129814133Y-89598888D01*
X129814133Y-89598888D02*
X129814133Y-92264133D01*
X129814133Y-92264133D02*
X130000000Y-92450000D01*
X128750000Y-87750000D02*
X129500000Y-88500000D01*
X128750000Y-86586448D02*
X128750000Y-87750000D01*
X128436472Y-86272920D02*
X128750000Y-86586448D01*
%TO.N,/LED_DATA*%
X92950000Y-129250000D02*
X91736827Y-129250000D01*
X88575000Y-118925000D02*
X88575000Y-120925000D01*
X91736827Y-129250000D02*
X89843413Y-127356587D01*
X85750000Y-117775000D02*
X87425000Y-117775000D01*
X90800000Y-126400000D02*
X89843413Y-127356587D01*
X89843413Y-127356587D02*
X88100000Y-125613173D01*
X87425000Y-117775000D02*
X88575000Y-118925000D01*
X88575000Y-120925000D02*
X88100000Y-121400000D01*
X88100000Y-125613173D02*
X88100000Y-123600000D01*
D52*
%TO.N,+3V0*%
X112959000Y-121641000D02*
X114700000Y-119900000D01*
D49*
X110000000Y-112850000D02*
X109900000Y-112950000D01*
X105280511Y-78900000D02*
X104700000Y-78900000D01*
X111749999Y-115125000D02*
X110924999Y-114300000D01*
D51*
X112401661Y-121641000D02*
X110924999Y-120164338D01*
D49*
X110899999Y-114275000D02*
X110924999Y-114300000D01*
X113099999Y-112850000D02*
X113299998Y-113049999D01*
X110899999Y-112850000D02*
X110899999Y-114275000D01*
D52*
X114700000Y-119900000D02*
X115400000Y-119900000D01*
D49*
X102700000Y-78300000D02*
X102900000Y-78300000D01*
X113299998Y-114769409D02*
X112944407Y-115125000D01*
X103950000Y-78150000D02*
X103780511Y-78150000D01*
X104700000Y-78900000D02*
X103950000Y-78150000D01*
D51*
X112401661Y-123302919D02*
X112401661Y-121641000D01*
D49*
X103730511Y-78100000D02*
X103780511Y-78150000D01*
D51*
X110924999Y-120164338D02*
X110924999Y-114300000D01*
D49*
X110899999Y-112850000D02*
X110000000Y-112850000D01*
X113299998Y-113049999D02*
X113299998Y-114769409D01*
X103100000Y-78100000D02*
X103730511Y-78100000D01*
X102900000Y-78300000D02*
X103100000Y-78100000D01*
D51*
X110724999Y-114100000D02*
X110924999Y-114300000D01*
D52*
X112401661Y-121641000D02*
X112959000Y-121641000D01*
D51*
X108399999Y-114100000D02*
X110724999Y-114100000D01*
D49*
X112944407Y-115125000D02*
X111749999Y-115125000D01*
D50*
%TO.N,Net-(CN4-CLK)*%
X86200000Y-72200000D02*
X85800000Y-72600000D01*
X90446451Y-72200000D02*
X86200000Y-72200000D01*
X91265807Y-73019356D02*
X90446451Y-72200000D01*
X91265807Y-73614672D02*
X91265807Y-73019356D01*
D49*
%TO.N,Net-(U13-BYP)*%
X104199999Y-113205000D02*
X104199999Y-113919999D01*
X104199999Y-113919999D02*
X104600000Y-114320000D01*
%TO.N,+3.3V_GPS*%
X103675000Y-106500000D02*
X103675000Y-104618502D01*
D52*
X103400000Y-97600000D02*
X102200000Y-97600000D01*
D49*
X99800000Y-87200000D02*
X101150000Y-87200000D01*
X102200000Y-88250000D02*
X102200000Y-97600000D01*
X102200000Y-103143502D02*
X103128249Y-104071751D01*
X103675000Y-104618502D02*
X103128249Y-104071751D01*
X101150000Y-87200000D02*
X102200000Y-88250000D01*
X102200000Y-97600000D02*
X102200000Y-103143502D01*
X98800000Y-86200000D02*
X99800000Y-87200000D01*
%TO.N,+3.3V_LORA*%
X103670000Y-110120000D02*
X103699999Y-110149999D01*
X104300000Y-108400000D02*
X104300000Y-108900000D01*
X115800000Y-82375000D02*
X114785000Y-82375000D01*
X103670000Y-109530000D02*
X103670000Y-110120000D01*
X103699999Y-110149999D02*
X103699999Y-111300000D01*
D52*
X118700000Y-83300000D02*
X117700000Y-83300000D01*
D49*
X114785000Y-82375000D02*
X114510000Y-82650000D01*
X116800000Y-82400000D02*
X115825000Y-82400000D01*
D52*
X117700000Y-83300000D02*
X116800000Y-82400000D01*
D49*
X115825000Y-82400000D02*
X115800000Y-82375000D01*
X104300000Y-108900000D02*
X103670000Y-109530000D01*
%TD*%
%TA.AperFunction,Conductor*%
%TO.N,GND*%
G36*
X100693039Y-89269685D02*
G01*
X100738794Y-89322489D01*
X100750000Y-89374000D01*
X100750000Y-114426000D01*
X100730315Y-114493039D01*
X100677511Y-114538794D01*
X100626000Y-114550000D01*
X87954803Y-114550000D01*
X87901149Y-114535623D01*
X87900696Y-114536719D01*
X87893188Y-114533609D01*
X87893186Y-114533608D01*
X87765892Y-114499500D01*
X87634108Y-114499500D01*
X87506814Y-114533608D01*
X87499304Y-114536719D01*
X87498850Y-114535623D01*
X87445197Y-114550000D01*
X84154803Y-114550000D01*
X84101149Y-114535623D01*
X84100696Y-114536719D01*
X84093188Y-114533609D01*
X84093186Y-114533608D01*
X83965892Y-114499500D01*
X83834108Y-114499500D01*
X83706814Y-114533608D01*
X83699304Y-114536719D01*
X83698850Y-114535623D01*
X83645197Y-114550000D01*
X78976847Y-114550000D01*
X78923193Y-114535623D01*
X78922740Y-114536719D01*
X78915232Y-114533609D01*
X78915230Y-114533608D01*
X78787936Y-114499500D01*
X78656152Y-114499500D01*
X78528858Y-114533608D01*
X78521348Y-114536719D01*
X78520894Y-114535623D01*
X78467241Y-114550000D01*
X77127310Y-114550000D01*
X77079859Y-114540561D01*
X76980729Y-114499500D01*
X75574000Y-114499500D01*
X75506961Y-114479815D01*
X75461206Y-114427011D01*
X75450000Y-114375500D01*
X75450000Y-103077384D01*
X75454225Y-103045291D01*
X75475500Y-102965892D01*
X75475500Y-102834108D01*
X75454225Y-102754706D01*
X75450000Y-102722614D01*
X75450000Y-99926304D01*
X85514500Y-99926304D01*
X85514500Y-100103695D01*
X85549103Y-100277658D01*
X85549106Y-100277667D01*
X85616983Y-100441540D01*
X85616990Y-100441553D01*
X85715535Y-100589034D01*
X85715538Y-100589038D01*
X85840961Y-100714461D01*
X85840965Y-100714464D01*
X85988446Y-100813009D01*
X85988459Y-100813016D01*
X86111363Y-100863923D01*
X86152334Y-100880894D01*
X86152336Y-100880894D01*
X86152341Y-100880896D01*
X86326304Y-100915499D01*
X86326307Y-100915500D01*
X86326309Y-100915500D01*
X86503693Y-100915500D01*
X86503694Y-100915499D01*
X86561682Y-100903964D01*
X86677658Y-100880896D01*
X86677661Y-100880894D01*
X86677666Y-100880894D01*
X86841547Y-100813013D01*
X86989035Y-100714464D01*
X87114464Y-100589035D01*
X87213013Y-100441547D01*
X87280894Y-100277666D01*
X87315500Y-100103691D01*
X87315500Y-99926309D01*
X87315500Y-99926306D01*
X87315499Y-99926304D01*
X87280896Y-99752341D01*
X87280893Y-99752332D01*
X87213016Y-99588459D01*
X87213009Y-99588446D01*
X87114464Y-99440965D01*
X87114461Y-99440961D01*
X86989038Y-99315538D01*
X86989034Y-99315535D01*
X86841553Y-99216990D01*
X86841540Y-99216983D01*
X86677667Y-99149106D01*
X86677658Y-99149103D01*
X86503694Y-99114500D01*
X86503691Y-99114500D01*
X86326309Y-99114500D01*
X86326306Y-99114500D01*
X86152341Y-99149103D01*
X86152332Y-99149106D01*
X85988459Y-99216983D01*
X85988446Y-99216990D01*
X85840965Y-99315535D01*
X85840961Y-99315538D01*
X85715538Y-99440961D01*
X85715535Y-99440965D01*
X85616990Y-99588446D01*
X85616983Y-99588459D01*
X85549106Y-99752332D01*
X85549103Y-99752341D01*
X85514500Y-99926304D01*
X75450000Y-99926304D01*
X75450000Y-89374000D01*
X75469685Y-89306961D01*
X75522489Y-89261206D01*
X75574000Y-89250000D01*
X100626000Y-89250000D01*
X100693039Y-89269685D01*
G37*
%TD.AperFunction*%
%TD*%
%TA.AperFunction,Conductor*%
%TO.N,+5V*%
G36*
X113043039Y-104269685D02*
G01*
X113088794Y-104322489D01*
X113100000Y-104374000D01*
X113100000Y-104756503D01*
X113080315Y-104823542D01*
X113072828Y-104833965D01*
X112499999Y-105550000D01*
X112149996Y-106700011D01*
X111700000Y-108300001D01*
X111700000Y-110380746D01*
X111699714Y-110382585D01*
X111699969Y-110383531D01*
X111694163Y-110418344D01*
X111633128Y-110610164D01*
X111602648Y-110660245D01*
X111539513Y-110723382D01*
X111539508Y-110723389D01*
X111480200Y-110826112D01*
X111480199Y-110826117D01*
X111449499Y-110940691D01*
X111449499Y-111168035D01*
X111443662Y-111205632D01*
X111351361Y-111495722D01*
X111348329Y-111504177D01*
X111301379Y-111621552D01*
X111258205Y-111676486D01*
X111192184Y-111699358D01*
X111186248Y-111699500D01*
X111167289Y-111699500D01*
X111119838Y-111690062D01*
X111112486Y-111687016D01*
X111073187Y-111676486D01*
X110972475Y-111649500D01*
X110972472Y-111649500D01*
X110450413Y-111649500D01*
X110383374Y-111629815D01*
X110377959Y-111626130D01*
X109300000Y-110850000D01*
X107050000Y-110850000D01*
X106237221Y-111854021D01*
X106179741Y-111893741D01*
X106140843Y-111900000D01*
X105618925Y-111900000D01*
X105581939Y-111894356D01*
X104799997Y-111649999D01*
X104792825Y-111648904D01*
X104792538Y-111648950D01*
X104791839Y-111648754D01*
X104790703Y-111648581D01*
X104790724Y-111648442D01*
X104758551Y-111639434D01*
X104701411Y-111614204D01*
X104648035Y-111569118D01*
X104627508Y-111502332D01*
X104627498Y-111500770D01*
X104627498Y-111074000D01*
X104647183Y-111006961D01*
X104699987Y-110961206D01*
X104751498Y-110950000D01*
X104799999Y-110950000D01*
X104800000Y-110950000D01*
X105114299Y-110669137D01*
X105177401Y-110639145D01*
X105246704Y-110648031D01*
X105258921Y-110654211D01*
X105268213Y-110659576D01*
X105268215Y-110659576D01*
X105268216Y-110659577D01*
X105420943Y-110700500D01*
X105420945Y-110700500D01*
X105579055Y-110700500D01*
X105579057Y-110700500D01*
X105731784Y-110659577D01*
X105868716Y-110580520D01*
X105980520Y-110468716D01*
X106059577Y-110331784D01*
X106100500Y-110179057D01*
X106100500Y-110020943D01*
X106069858Y-109906585D01*
X106071521Y-109836739D01*
X106107005Y-109782037D01*
X107123785Y-108873425D01*
X107184607Y-108843820D01*
X109950000Y-108350000D01*
X110889317Y-105729799D01*
X110923659Y-105678969D01*
X111800000Y-104900000D01*
X111883824Y-104355145D01*
X111913473Y-104291878D01*
X111972621Y-104254685D01*
X112006382Y-104250000D01*
X112976000Y-104250000D01*
X113043039Y-104269685D01*
G37*
%TD.AperFunction*%
%TD*%
M02*
