%TF.GenerationSoftware,KiCad,Pcbnew,9.0.0*%
%TF.CreationDate,2025-03-02T11:40:43+01:00*%
%TF.ProjectId,relativeGPS,72656c61-7469-4766-9547-50532e6b6963,rev?*%
%TF.SameCoordinates,Original*%
%TF.FileFunction,Copper,L2,Inr*%
%TF.FilePolarity,Positive*%
%FSLAX46Y46*%
G04 Gerber Fmt 4.6, Leading zero omitted, Abs format (unit mm)*
G04 Created by KiCad (PCBNEW 9.0.0) date 2025-03-02 11:40:43*
%MOMM*%
%LPD*%
G01*
G04 APERTURE LIST*
%TA.AperFunction,ComponentPad*%
%ADD10C,1.500000*%
%TD*%
%TA.AperFunction,ComponentPad*%
%ADD11C,1.400000*%
%TD*%
%TA.AperFunction,ComponentPad*%
%ADD12C,2.000000*%
%TD*%
%TA.AperFunction,ViaPad*%
%ADD13C,0.600000*%
%TD*%
G04 APERTURE END LIST*
D10*
%TO.N,unconnected-(SW1-Pad1)*%
%TO.C,SW1*%
X107708353Y-125246951D03*
%TO.N,+BATT*%
X110055007Y-124274935D03*
%TO.N,+3V0*%
X112401661Y-123302919D03*
%TD*%
D11*
%TO.N,Net-(ANT1-Pad1)*%
%TO.C,ANT1*%
X86415000Y-100015000D03*
%TD*%
D12*
%TO.N,GND*%
%TO.C,U10*%
X118230000Y-86400000D03*
%TO.N,/RYLR998_TX*%
X115690000Y-86400000D03*
%TO.N,/RYLR998_RX*%
X113150000Y-86400000D03*
%TO.N,/RYLR998_NRST*%
X110610000Y-86400000D03*
%TO.N,Net-(U10-VDD)*%
X108070000Y-86400000D03*
%TD*%
%TO.N,+BATT*%
%TO.C,B7*%
X106350000Y-122850000D03*
%TO.N,GND*%
X93700000Y-122850000D03*
%TD*%
D13*
%TO.N,GND*%
X113800000Y-110100000D03*
X76300000Y-103700000D03*
X93700000Y-95900000D03*
X105500000Y-110100000D03*
X125700000Y-94300000D03*
X88700000Y-91400000D03*
X100300000Y-124100000D03*
X109200000Y-76500000D03*
X109000000Y-103600000D03*
X111899999Y-112000000D03*
X96800000Y-73300000D03*
X106300000Y-81300000D03*
X93700000Y-105500000D03*
X97500000Y-117400000D03*
X100600000Y-82000000D03*
X103600000Y-101900000D03*
X93700000Y-91300000D03*
X113300000Y-107400000D03*
X127900000Y-88600000D03*
X93700000Y-101500000D03*
X73400000Y-110300000D03*
X92500000Y-109000000D03*
X71400000Y-108500000D03*
X108412960Y-73530726D03*
X81600000Y-95800000D03*
X83786799Y-96550000D03*
X85000000Y-101300000D03*
X88700000Y-101600000D03*
X83800000Y-95400000D03*
X70500000Y-97500000D03*
X102500000Y-71100000D03*
X107500000Y-117400000D03*
X86100000Y-98000000D03*
X77700000Y-101200000D03*
X86100000Y-95800000D03*
X77900000Y-112700000D03*
X83800000Y-98200000D03*
X111899999Y-112700000D03*
X91900000Y-128600000D03*
X105430511Y-75725000D03*
X87200000Y-78900000D03*
X92000000Y-72100000D03*
X93400000Y-110100000D03*
X92001985Y-70775000D03*
X82300000Y-107800000D03*
X106300000Y-79800000D03*
X105100000Y-112400000D03*
X107430511Y-74950000D03*
X108500000Y-79900000D03*
X69800000Y-108800000D03*
X87900000Y-99100000D03*
X72300000Y-88600000D03*
X116800000Y-83900000D03*
X88600000Y-105700000D03*
X75200000Y-117400000D03*
X98700000Y-107000000D03*
X79705380Y-119005381D03*
X128656587Y-103156587D03*
X111300000Y-121600000D03*
X77800000Y-91500000D03*
X77100000Y-81900000D03*
X73350000Y-113275000D03*
X83800000Y-100000000D03*
X125700000Y-96800000D03*
X87600000Y-101000000D03*
X98800000Y-101600000D03*
X87100000Y-98300000D03*
X107800000Y-77600000D03*
X97600000Y-128900000D03*
X82300000Y-77100000D03*
X86400000Y-91300000D03*
X118550000Y-122100000D03*
X89100000Y-116400000D03*
X98600000Y-112600000D03*
X83550000Y-102850000D03*
X89200000Y-88200000D03*
X103800000Y-80600000D03*
X72800000Y-112125000D03*
X125700000Y-109650000D03*
X87713096Y-117277379D03*
X122300000Y-81300000D03*
X84200000Y-88500000D03*
X98900000Y-91100000D03*
X98700000Y-96000000D03*
X87709620Y-114190380D03*
X77600000Y-95800000D03*
X86100000Y-94000000D03*
X88400000Y-95900000D03*
%TO.N,+5V*%
X105900000Y-110800000D03*
X114099999Y-112200000D03*
X102500000Y-113300000D03*
X110899999Y-111000000D03*
%TO.N,/GPS/3V3_TESEO_FILTERED*%
X83300000Y-79000000D03*
%TO.N,+1V8*%
X103300000Y-75100000D03*
X106400000Y-72000000D03*
X107000000Y-78600000D03*
%TO.N,+3.3V*%
X74975000Y-102900000D03*
X90000000Y-72800000D03*
X93600000Y-69625000D03*
X94100000Y-128500000D03*
X123250000Y-102600000D03*
X99400000Y-73800000D03*
X87700000Y-115000000D03*
X100000000Y-77500000D03*
X75700000Y-115900000D03*
X102000000Y-110300000D03*
X69150000Y-104000000D03*
X73400000Y-107700000D03*
X124300000Y-103650000D03*
%TO.N,/3V3_RYLR_EN*%
X105500000Y-113800000D03*
X83900000Y-115000000D03*
X93600000Y-117400000D03*
%TO.N,/3V3_TESEO_EN*%
X93000000Y-118100000D03*
X107100000Y-102800000D03*
X89100000Y-117300000D03*
%TO.N,/SCL*%
X78722044Y-115000000D03*
X93500000Y-83900000D03*
X78700000Y-88050000D03*
X98750000Y-75600000D03*
%TO.N,/SDA*%
X97800000Y-74800000D03*
X79800000Y-87350000D03*
X76696987Y-115359231D03*
X92646270Y-83650311D03*
%TO.N,/MAG_ACC_INT1*%
X101600000Y-80700000D03*
X107100000Y-73500000D03*
X91500000Y-88506587D03*
%TO.N,/MAG_ACC_DRDY*%
X90680252Y-88393745D03*
%TO.N,/MAG_ACC_INT2*%
X102350000Y-81100000D03*
X107767170Y-73058541D03*
X92303686Y-88695497D03*
%TO.N,/TESEO_RX*%
X73300000Y-92600000D03*
%TO.N,/TESEO_TX*%
X76175000Y-82200000D03*
%TO.N,/NRST*%
X80000000Y-115100000D03*
X82000000Y-117900000D03*
%TO.N,/UART_RX*%
X125550000Y-93000000D03*
X81197995Y-118531773D03*
X81595624Y-115202621D03*
X126606587Y-105206587D03*
%TO.N,/1V8_ACC_MAG_EN*%
X95900000Y-115100000D03*
X102650000Y-86700000D03*
X93000000Y-115100000D03*
%TO.N,/RYLR998_RX*%
X105300000Y-83600000D03*
%TO.N,/RYLR998_TX*%
X105900000Y-84700000D03*
X109724087Y-84700913D03*
%TO.N,/UART_TX*%
X80795922Y-115180699D03*
X80600000Y-118000000D03*
X126950000Y-92100000D03*
X127350000Y-104550000D03*
%TO.N,/SWDIO*%
X82584456Y-118492228D03*
X86013973Y-115686027D03*
%TO.N,/SWCLK*%
X84700000Y-117775000D03*
X122706587Y-112493413D03*
X125850000Y-97900000D03*
X122025000Y-113500000D03*
X83300000Y-118850000D03*
X122600000Y-108750000D03*
%TO.N,/SD_DAT0*%
X93700000Y-73800000D03*
%TO.N,/SD_DAT3*%
X88200000Y-73400000D03*
X96000000Y-86600000D03*
X92100000Y-86600000D03*
%TO.N,/SD_CMD*%
X87600000Y-81800000D03*
%TO.N,/SD_DETECT*%
X94077360Y-86850000D03*
X102650000Y-83100000D03*
%TO.N,/SD_DAT1*%
X94700000Y-73500000D03*
%TO.N,/SD_DAT2*%
X86400000Y-75700000D03*
X90475001Y-86355839D03*
X95924999Y-87396479D03*
%TO.N,Net-(D2-DOUT)*%
X125500000Y-116850000D03*
X126950000Y-115200000D03*
%TO.N,Net-(D4-DOUT)*%
X110200000Y-71050000D03*
X107200000Y-69400000D03*
%TO.N,Net-(D5-DOUT)*%
X81150000Y-74750000D03*
X82900000Y-74250000D03*
%TO.N,Net-(D6-DOUT)*%
X68850000Y-95250000D03*
X71000000Y-93100000D03*
%TO.N,Net-(D7-DOUT)*%
X78750000Y-120350000D03*
X77450000Y-120300000D03*
%TO.N,/BUTTON_1*%
X70500000Y-91100000D03*
%TO.N,/BUTTON_2*%
X130000000Y-92450000D03*
%TO.N,/LED_DATA*%
X85750000Y-117775000D03*
X88100000Y-121400000D03*
X88100000Y-123600000D03*
%TO.N,+3V0*%
X109900000Y-112950000D03*
X102700000Y-78300000D03*
%TO.N,Net-(CN4-CLK)*%
X85800000Y-72600000D03*
%TO.N,+3.3V_GPS*%
X98800000Y-86200000D03*
X87113377Y-77935881D03*
%TO.N,+3.3V_LORA*%
X104300000Y-108400000D03*
X116800000Y-82400000D03*
%TD*%
%TA.AperFunction,Conductor*%
%TO.N,GND*%
G36*
X100551850Y-67805265D02*
G01*
X100577600Y-67806144D01*
X101646532Y-67842660D01*
X101650652Y-67842872D01*
X102743417Y-67917619D01*
X102747599Y-67917977D01*
X103837179Y-68029989D01*
X103841292Y-68030483D01*
X104926411Y-68179629D01*
X104930539Y-68180268D01*
X106009906Y-68366370D01*
X106014065Y-68367161D01*
X106129119Y-68391069D01*
X106709080Y-68511587D01*
X106770711Y-68544498D01*
X106804765Y-68605507D01*
X106800430Y-68675242D01*
X106759082Y-68731563D01*
X106752742Y-68736093D01*
X106689713Y-68778208D01*
X106689707Y-68778213D01*
X106578213Y-68889707D01*
X106578210Y-68889711D01*
X106490609Y-69020814D01*
X106490602Y-69020827D01*
X106430264Y-69166498D01*
X106430261Y-69166510D01*
X106399500Y-69321153D01*
X106399500Y-69478846D01*
X106430261Y-69633489D01*
X106430264Y-69633501D01*
X106490602Y-69779172D01*
X106490609Y-69779185D01*
X106578210Y-69910288D01*
X106578213Y-69910292D01*
X106689707Y-70021786D01*
X106689711Y-70021789D01*
X106820814Y-70109390D01*
X106820827Y-70109397D01*
X106890242Y-70138149D01*
X106966503Y-70169737D01*
X107121153Y-70200499D01*
X107121156Y-70200500D01*
X107121158Y-70200500D01*
X107278844Y-70200500D01*
X107278845Y-70200499D01*
X107433497Y-70169737D01*
X107579179Y-70109394D01*
X107710289Y-70021789D01*
X107821789Y-69910289D01*
X107909394Y-69779179D01*
X107969737Y-69633497D01*
X108000500Y-69478842D01*
X108000500Y-69321158D01*
X108000500Y-69321155D01*
X108000499Y-69321153D01*
X107992498Y-69280932D01*
X107969737Y-69166503D01*
X107948283Y-69114707D01*
X107909397Y-69020827D01*
X107909390Y-69020814D01*
X107902453Y-69010432D01*
X107895070Y-68986854D01*
X107883772Y-68964883D01*
X107884813Y-68954095D01*
X107881575Y-68943754D01*
X107888111Y-68919928D01*
X107890485Y-68895336D01*
X107897193Y-68886824D01*
X107900060Y-68876374D01*
X107918439Y-68859864D01*
X107933732Y-68840460D01*
X107943976Y-68836925D01*
X107952039Y-68829684D01*
X107976424Y-68825732D01*
X107999782Y-68817675D01*
X108016304Y-68819270D01*
X108021009Y-68818508D01*
X108034911Y-68821066D01*
X108154655Y-68850247D01*
X108158675Y-68851299D01*
X109213378Y-69146813D01*
X109217431Y-69148023D01*
X110261394Y-69479362D01*
X110265374Y-69480701D01*
X111297409Y-69847487D01*
X111301292Y-69848941D01*
X112320260Y-70250770D01*
X112324172Y-70252391D01*
X113328738Y-70688736D01*
X113332592Y-70690489D01*
X113597552Y-70816498D01*
X114321695Y-71160884D01*
X114325444Y-71162746D01*
X115297945Y-71666656D01*
X115301645Y-71668654D01*
X115696379Y-71890602D01*
X116256359Y-72205463D01*
X116260013Y-72207601D01*
X117195792Y-72776661D01*
X117199372Y-72778922D01*
X117690374Y-73100970D01*
X118100142Y-73369737D01*
X118115235Y-73379636D01*
X118118728Y-73382014D01*
X119013514Y-74013623D01*
X119016895Y-74016097D01*
X119515415Y-74394136D01*
X119889625Y-74677909D01*
X119892955Y-74680525D01*
X120742563Y-75371732D01*
X120745801Y-75374460D01*
X121571275Y-76094237D01*
X121574419Y-76097073D01*
X122374910Y-76844678D01*
X122377954Y-76847621D01*
X123152378Y-77622045D01*
X123155321Y-77625089D01*
X123902926Y-78425580D01*
X123905762Y-78428724D01*
X124625539Y-79254198D01*
X124628267Y-79257436D01*
X125319474Y-80107044D01*
X125322090Y-80110374D01*
X125647993Y-80540141D01*
X125895486Y-80866510D01*
X125983889Y-80983086D01*
X125986383Y-80986495D01*
X126121711Y-81178211D01*
X126617980Y-81881264D01*
X126620363Y-81884764D01*
X127221077Y-82800627D01*
X127223338Y-82804207D01*
X127792398Y-83739986D01*
X127794536Y-83743640D01*
X128331338Y-84698342D01*
X128333350Y-84702068D01*
X128837242Y-85674534D01*
X128839125Y-85678326D01*
X129309510Y-86667407D01*
X129311263Y-86671261D01*
X129747608Y-87675827D01*
X129749229Y-87679739D01*
X129999705Y-88314903D01*
X130122877Y-88627246D01*
X130151042Y-88698666D01*
X130152523Y-88702622D01*
X130172702Y-88759397D01*
X130519292Y-89734609D01*
X130520642Y-89738622D01*
X130851974Y-90782564D01*
X130853186Y-90786621D01*
X131083968Y-91610292D01*
X131145026Y-91828211D01*
X131148688Y-91841279D01*
X131149759Y-91845371D01*
X131363335Y-92721786D01*
X131409073Y-92909472D01*
X131410005Y-92913602D01*
X131632838Y-93985933D01*
X131633629Y-93990093D01*
X131819726Y-95069432D01*
X131820374Y-95073616D01*
X131969510Y-96158662D01*
X131970015Y-96162866D01*
X132082020Y-97252382D01*
X132082381Y-97256601D01*
X132157124Y-98349291D01*
X132157341Y-98353519D01*
X132194735Y-99448149D01*
X132194807Y-99452383D01*
X132194807Y-100547616D01*
X132194735Y-100551850D01*
X132157341Y-101646480D01*
X132157124Y-101650708D01*
X132082381Y-102743398D01*
X132082020Y-102747617D01*
X131970015Y-103837133D01*
X131969510Y-103841337D01*
X131820374Y-104926383D01*
X131819726Y-104930567D01*
X131633629Y-106009906D01*
X131632838Y-106014066D01*
X131410005Y-107086397D01*
X131409073Y-107090527D01*
X131149760Y-108154624D01*
X131148688Y-108158720D01*
X130853186Y-109213378D01*
X130851974Y-109217435D01*
X130520642Y-110261377D01*
X130519292Y-110265390D01*
X130152527Y-111297368D01*
X130151042Y-111301333D01*
X129749229Y-112320260D01*
X129747608Y-112324172D01*
X129311263Y-113328738D01*
X129309510Y-113332592D01*
X128839125Y-114321673D01*
X128837242Y-114325465D01*
X128333350Y-115297931D01*
X128331338Y-115301657D01*
X127794536Y-116256359D01*
X127792398Y-116260013D01*
X127223338Y-117195792D01*
X127221077Y-117199372D01*
X126620363Y-118115235D01*
X126617980Y-118118735D01*
X125986389Y-119013496D01*
X125983889Y-119016913D01*
X125322090Y-119889625D01*
X125319474Y-119892955D01*
X124628267Y-120742563D01*
X124625539Y-120745801D01*
X123905762Y-121571275D01*
X123902926Y-121574419D01*
X123155321Y-122374910D01*
X123152378Y-122377954D01*
X122377954Y-123152378D01*
X122374910Y-123155321D01*
X121574419Y-123902926D01*
X121571275Y-123905762D01*
X120745801Y-124625539D01*
X120742563Y-124628267D01*
X119892955Y-125319474D01*
X119889625Y-125322090D01*
X119016913Y-125983889D01*
X119013496Y-125986389D01*
X118118735Y-126617980D01*
X118115235Y-126620363D01*
X117199372Y-127221077D01*
X117195792Y-127223338D01*
X116260013Y-127792398D01*
X116256359Y-127794536D01*
X115301657Y-128331338D01*
X115297931Y-128333350D01*
X114325465Y-128837242D01*
X114321673Y-128839125D01*
X113332592Y-129309510D01*
X113328738Y-129311263D01*
X112324172Y-129747608D01*
X112320260Y-129749229D01*
X111301333Y-130151042D01*
X111297368Y-130152527D01*
X110265390Y-130519292D01*
X110261377Y-130520642D01*
X109217435Y-130851974D01*
X109213378Y-130853186D01*
X108158720Y-131148688D01*
X108154624Y-131149760D01*
X107090527Y-131409073D01*
X107086397Y-131410005D01*
X106014066Y-131632838D01*
X106009906Y-131633629D01*
X104930567Y-131819726D01*
X104926383Y-131820374D01*
X103841337Y-131969510D01*
X103837133Y-131970015D01*
X102747617Y-132082020D01*
X102743398Y-132082381D01*
X101650708Y-132157124D01*
X101646480Y-132157341D01*
X100551851Y-132194735D01*
X100547617Y-132194807D01*
X99452383Y-132194807D01*
X99448149Y-132194735D01*
X98353519Y-132157341D01*
X98349291Y-132157124D01*
X97256601Y-132082381D01*
X97252382Y-132082020D01*
X96162866Y-131970015D01*
X96158662Y-131969510D01*
X95073616Y-131820374D01*
X95069432Y-131819726D01*
X93990093Y-131633629D01*
X93985933Y-131632838D01*
X92913602Y-131410005D01*
X92909472Y-131409073D01*
X91845375Y-131149760D01*
X91841279Y-131148688D01*
X90786621Y-130853186D01*
X90782564Y-130851974D01*
X89738622Y-130520642D01*
X89734609Y-130519292D01*
X88702631Y-130152527D01*
X88698666Y-130151042D01*
X87679739Y-129749229D01*
X87675827Y-129747608D01*
X86671261Y-129311263D01*
X86667407Y-129309510D01*
X85678326Y-128839125D01*
X85674534Y-128837242D01*
X85072252Y-128525164D01*
X84871520Y-128421153D01*
X93299500Y-128421153D01*
X93299500Y-128578846D01*
X93330261Y-128733489D01*
X93330264Y-128733501D01*
X93390602Y-128879172D01*
X93390609Y-128879185D01*
X93478210Y-129010288D01*
X93478213Y-129010292D01*
X93589707Y-129121786D01*
X93589711Y-129121789D01*
X93720814Y-129209390D01*
X93720827Y-129209397D01*
X93866498Y-129269735D01*
X93866503Y-129269737D01*
X94021153Y-129300499D01*
X94021156Y-129300500D01*
X94021158Y-129300500D01*
X94178844Y-129300500D01*
X94178845Y-129300499D01*
X94333497Y-129269737D01*
X94479179Y-129209394D01*
X94610289Y-129121789D01*
X94721789Y-129010289D01*
X94809394Y-128879179D01*
X94869737Y-128733497D01*
X94900500Y-128578842D01*
X94900500Y-128421158D01*
X94900500Y-128421155D01*
X94900499Y-128421153D01*
X94882840Y-128332375D01*
X94869737Y-128266503D01*
X94869735Y-128266498D01*
X94809397Y-128120827D01*
X94809390Y-128120814D01*
X94721789Y-127989711D01*
X94721786Y-127989707D01*
X94610292Y-127878213D01*
X94610288Y-127878210D01*
X94479185Y-127790609D01*
X94479172Y-127790602D01*
X94333501Y-127730264D01*
X94333489Y-127730261D01*
X94178845Y-127699500D01*
X94178842Y-127699500D01*
X94021158Y-127699500D01*
X94021155Y-127699500D01*
X93866510Y-127730261D01*
X93866498Y-127730264D01*
X93720827Y-127790602D01*
X93720814Y-127790609D01*
X93589711Y-127878210D01*
X93589707Y-127878213D01*
X93478213Y-127989707D01*
X93478210Y-127989711D01*
X93390609Y-128120814D01*
X93390602Y-128120827D01*
X93330264Y-128266498D01*
X93330261Y-128266510D01*
X93299500Y-128421153D01*
X84871520Y-128421153D01*
X84702068Y-128333350D01*
X84698342Y-128331338D01*
X83743640Y-127794536D01*
X83739986Y-127792398D01*
X82804207Y-127223338D01*
X82800627Y-127221077D01*
X81884764Y-126620363D01*
X81881264Y-126617980D01*
X81290220Y-126200776D01*
X80986495Y-125986383D01*
X80983086Y-125983889D01*
X80110374Y-125322090D01*
X80107044Y-125319474D01*
X79257436Y-124628267D01*
X79254198Y-124625539D01*
X78428724Y-123905762D01*
X78425581Y-123902926D01*
X78107322Y-123605694D01*
X78107317Y-123605690D01*
X78016800Y-123521153D01*
X87299500Y-123521153D01*
X87299500Y-123678846D01*
X87330261Y-123833489D01*
X87330264Y-123833501D01*
X87390602Y-123979172D01*
X87390609Y-123979185D01*
X87478210Y-124110288D01*
X87478213Y-124110292D01*
X87589707Y-124221786D01*
X87589711Y-124221789D01*
X87720814Y-124309390D01*
X87720827Y-124309397D01*
X87864680Y-124368982D01*
X87866503Y-124369737D01*
X88008625Y-124398007D01*
X88021153Y-124400499D01*
X88021156Y-124400500D01*
X88021158Y-124400500D01*
X88178844Y-124400500D01*
X88178845Y-124400499D01*
X88333497Y-124369737D01*
X88469138Y-124313553D01*
X88479172Y-124309397D01*
X88479172Y-124309396D01*
X88479179Y-124309394D01*
X88610289Y-124221789D01*
X88721789Y-124110289D01*
X88809394Y-123979179D01*
X88869737Y-123833497D01*
X88900500Y-123678842D01*
X88900500Y-123521158D01*
X88900500Y-123521155D01*
X88900499Y-123521153D01*
X88879592Y-123416047D01*
X88869737Y-123366503D01*
X88869735Y-123366498D01*
X88809397Y-123220827D01*
X88809390Y-123220814D01*
X88721789Y-123089711D01*
X88721786Y-123089707D01*
X88610292Y-122978213D01*
X88610288Y-122978210D01*
X88479185Y-122890609D01*
X88479172Y-122890602D01*
X88360955Y-122841636D01*
X88333501Y-122830264D01*
X88333489Y-122830261D01*
X88178845Y-122799500D01*
X88178842Y-122799500D01*
X88021158Y-122799500D01*
X88021155Y-122799500D01*
X87866510Y-122830261D01*
X87866498Y-122830264D01*
X87720827Y-122890602D01*
X87720814Y-122890609D01*
X87589711Y-122978210D01*
X87589707Y-122978213D01*
X87478213Y-123089707D01*
X87478210Y-123089711D01*
X87390609Y-123220814D01*
X87390602Y-123220827D01*
X87330264Y-123366498D01*
X87330261Y-123366510D01*
X87299500Y-123521153D01*
X78016800Y-123521153D01*
X77625089Y-123155321D01*
X77622045Y-123152378D01*
X77201614Y-122731947D01*
X92200000Y-122731947D01*
X92200000Y-122968052D01*
X92236934Y-123201247D01*
X92309897Y-123425802D01*
X92417087Y-123636174D01*
X92477338Y-123719104D01*
X92477340Y-123719105D01*
X93155799Y-123040646D01*
X93164185Y-123071942D01*
X93239885Y-123203058D01*
X93346942Y-123310115D01*
X93478058Y-123385815D01*
X93509352Y-123394200D01*
X92830893Y-124072658D01*
X92913828Y-124132914D01*
X93124197Y-124240102D01*
X93348752Y-124313065D01*
X93348751Y-124313065D01*
X93581948Y-124350000D01*
X93818052Y-124350000D01*
X94051247Y-124313065D01*
X94275802Y-124240102D01*
X94486163Y-124132918D01*
X94486169Y-124132914D01*
X94569104Y-124072658D01*
X94569105Y-124072658D01*
X93890646Y-123394200D01*
X93921942Y-123385815D01*
X94053058Y-123310115D01*
X94160115Y-123203058D01*
X94235815Y-123071942D01*
X94244200Y-123040647D01*
X94922658Y-123719105D01*
X94922658Y-123719104D01*
X94982914Y-123636169D01*
X94982918Y-123636163D01*
X95090102Y-123425802D01*
X95163065Y-123201247D01*
X95200000Y-122968052D01*
X95200000Y-122731947D01*
X95199993Y-122731902D01*
X104849500Y-122731902D01*
X104849500Y-122968097D01*
X104886446Y-123201368D01*
X104959433Y-123425996D01*
X105007921Y-123521158D01*
X105066657Y-123636433D01*
X105205483Y-123827510D01*
X105372490Y-123994517D01*
X105563567Y-124133343D01*
X105599915Y-124151863D01*
X105774003Y-124240566D01*
X105774005Y-124240566D01*
X105774008Y-124240568D01*
X105880806Y-124275269D01*
X105998631Y-124313553D01*
X106231903Y-124350500D01*
X106231908Y-124350500D01*
X106468096Y-124350500D01*
X106516155Y-124342887D01*
X106563258Y-124335427D01*
X106632549Y-124344381D01*
X106686002Y-124389377D01*
X106706642Y-124456128D01*
X106687918Y-124523442D01*
X106682974Y-124530785D01*
X106638828Y-124591546D01*
X106549470Y-124766921D01*
X106488643Y-124954124D01*
X106457853Y-125148528D01*
X106457853Y-125345373D01*
X106488643Y-125539777D01*
X106549470Y-125726980D01*
X106638829Y-125902356D01*
X106754525Y-126061597D01*
X106893707Y-126200779D01*
X107052948Y-126316475D01*
X107135808Y-126358694D01*
X107228323Y-126405833D01*
X107228325Y-126405833D01*
X107228328Y-126405835D01*
X107328670Y-126438438D01*
X107415526Y-126466660D01*
X107609931Y-126497451D01*
X107609936Y-126497451D01*
X107806775Y-126497451D01*
X108001179Y-126466660D01*
X108188378Y-126405835D01*
X108363758Y-126316475D01*
X108522999Y-126200779D01*
X108662181Y-126061597D01*
X108777877Y-125902356D01*
X108867237Y-125726976D01*
X108928062Y-125539777D01*
X108944844Y-125433819D01*
X108958853Y-125345373D01*
X108958853Y-125246617D01*
X108978538Y-125179578D01*
X109031342Y-125133823D01*
X109100500Y-125123879D01*
X109164056Y-125152904D01*
X109170534Y-125158936D01*
X109240361Y-125228763D01*
X109399602Y-125344459D01*
X109482462Y-125386678D01*
X109574977Y-125433817D01*
X109574979Y-125433817D01*
X109574982Y-125433819D01*
X109675324Y-125466422D01*
X109762180Y-125494644D01*
X109956585Y-125525435D01*
X109956590Y-125525435D01*
X110153429Y-125525435D01*
X110347833Y-125494644D01*
X110535032Y-125433819D01*
X110710412Y-125344459D01*
X110869653Y-125228763D01*
X111008835Y-125089581D01*
X111124531Y-124930340D01*
X111213891Y-124754960D01*
X111274716Y-124567761D01*
X111276988Y-124553419D01*
X111305507Y-124373357D01*
X111305507Y-124274601D01*
X111325192Y-124207562D01*
X111377996Y-124161807D01*
X111447154Y-124151863D01*
X111510710Y-124180888D01*
X111517188Y-124186920D01*
X111587015Y-124256747D01*
X111746256Y-124372443D01*
X111829116Y-124414662D01*
X111921631Y-124461801D01*
X111921633Y-124461801D01*
X111921636Y-124461803D01*
X112021978Y-124494406D01*
X112108834Y-124522628D01*
X112303239Y-124553419D01*
X112303244Y-124553419D01*
X112500083Y-124553419D01*
X112694487Y-124522628D01*
X112881686Y-124461803D01*
X113057066Y-124372443D01*
X113216307Y-124256747D01*
X113355489Y-124117565D01*
X113471185Y-123958324D01*
X113560545Y-123782944D01*
X113621370Y-123595745D01*
X113622360Y-123589497D01*
X113652161Y-123401341D01*
X113652161Y-123204496D01*
X113621370Y-123010092D01*
X113582545Y-122890602D01*
X113560545Y-122822894D01*
X113560543Y-122822891D01*
X113560543Y-122822889D01*
X113471184Y-122647513D01*
X113457049Y-122628058D01*
X113355489Y-122488273D01*
X113216307Y-122349091D01*
X113057066Y-122233395D01*
X112992504Y-122200499D01*
X112881690Y-122144036D01*
X112694487Y-122083209D01*
X112500083Y-122052419D01*
X112500078Y-122052419D01*
X112303244Y-122052419D01*
X112303239Y-122052419D01*
X112108834Y-122083209D01*
X111921631Y-122144036D01*
X111746255Y-122233395D01*
X111690364Y-122274003D01*
X111587015Y-122349091D01*
X111587013Y-122349093D01*
X111587012Y-122349093D01*
X111447835Y-122488270D01*
X111447835Y-122488271D01*
X111447833Y-122488273D01*
X111440307Y-122498632D01*
X111332137Y-122647513D01*
X111242778Y-122822889D01*
X111181951Y-123010092D01*
X111151161Y-123204496D01*
X111151161Y-123303253D01*
X111131476Y-123370292D01*
X111078672Y-123416047D01*
X111009514Y-123425991D01*
X110945958Y-123396966D01*
X110939480Y-123390934D01*
X110869655Y-123321109D01*
X110869653Y-123321107D01*
X110710412Y-123205411D01*
X110702240Y-123201247D01*
X110535036Y-123116052D01*
X110347833Y-123055225D01*
X110153429Y-123024435D01*
X110153424Y-123024435D01*
X109956590Y-123024435D01*
X109956585Y-123024435D01*
X109762180Y-123055225D01*
X109574977Y-123116052D01*
X109399601Y-123205411D01*
X109308748Y-123271420D01*
X109240361Y-123321107D01*
X109240359Y-123321109D01*
X109240358Y-123321109D01*
X109101181Y-123460286D01*
X109101181Y-123460287D01*
X109101179Y-123460289D01*
X109056957Y-123521155D01*
X108985483Y-123619529D01*
X108896124Y-123794905D01*
X108835297Y-123982108D01*
X108804507Y-124176512D01*
X108804507Y-124275269D01*
X108784822Y-124342308D01*
X108732018Y-124388063D01*
X108662860Y-124398007D01*
X108599304Y-124368982D01*
X108592826Y-124362950D01*
X108523001Y-124293125D01*
X108522999Y-124293123D01*
X108363758Y-124177427D01*
X108313586Y-124151863D01*
X108188382Y-124088068D01*
X108001179Y-124027241D01*
X107806775Y-123996451D01*
X107806770Y-123996451D01*
X107615138Y-123996451D01*
X107548099Y-123976766D01*
X107502344Y-123923962D01*
X107492400Y-123854804D01*
X107514820Y-123799565D01*
X107526896Y-123782944D01*
X107633343Y-123636433D01*
X107740568Y-123425992D01*
X107813553Y-123201368D01*
X107831238Y-123089711D01*
X107850500Y-122968097D01*
X107850500Y-122731902D01*
X107813553Y-122498631D01*
X107740566Y-122274003D01*
X107674343Y-122144035D01*
X107633343Y-122063567D01*
X107494517Y-121872490D01*
X107327510Y-121705483D01*
X107136433Y-121566657D01*
X106925996Y-121459433D01*
X106701368Y-121386446D01*
X106468097Y-121349500D01*
X106468092Y-121349500D01*
X106231908Y-121349500D01*
X106231903Y-121349500D01*
X105998631Y-121386446D01*
X105774003Y-121459433D01*
X105563566Y-121566657D01*
X105480047Y-121627338D01*
X105372490Y-121705483D01*
X105372488Y-121705485D01*
X105372487Y-121705485D01*
X105205485Y-121872487D01*
X105205485Y-121872488D01*
X105205483Y-121872490D01*
X105178018Y-121910292D01*
X105066657Y-122063566D01*
X104959433Y-122274003D01*
X104886446Y-122498631D01*
X104849500Y-122731902D01*
X95199993Y-122731902D01*
X95163065Y-122498752D01*
X95090102Y-122274197D01*
X94982914Y-122063828D01*
X94922658Y-121980894D01*
X94922658Y-121980893D01*
X94244200Y-122659352D01*
X94235815Y-122628058D01*
X94160115Y-122496942D01*
X94053058Y-122389885D01*
X93921942Y-122314185D01*
X93890646Y-122305799D01*
X94569105Y-121627340D01*
X94569104Y-121627338D01*
X94486174Y-121567087D01*
X94275802Y-121459897D01*
X94051247Y-121386934D01*
X94051248Y-121386934D01*
X93818052Y-121350000D01*
X93581948Y-121350000D01*
X93348752Y-121386934D01*
X93124197Y-121459897D01*
X92913830Y-121567084D01*
X92830894Y-121627340D01*
X93509353Y-122305799D01*
X93478058Y-122314185D01*
X93346942Y-122389885D01*
X93239885Y-122496942D01*
X93164185Y-122628058D01*
X93155799Y-122659353D01*
X92477340Y-121980894D01*
X92417084Y-122063830D01*
X92309897Y-122274197D01*
X92236934Y-122498752D01*
X92200000Y-122731947D01*
X77201614Y-122731947D01*
X76847621Y-122377954D01*
X76844678Y-122374910D01*
X76097073Y-121574419D01*
X76094237Y-121571275D01*
X75941892Y-121396559D01*
X75876141Y-121321153D01*
X87299500Y-121321153D01*
X87299500Y-121478846D01*
X87330261Y-121633489D01*
X87330264Y-121633501D01*
X87390602Y-121779172D01*
X87390609Y-121779185D01*
X87478210Y-121910288D01*
X87478213Y-121910292D01*
X87589707Y-122021786D01*
X87589711Y-122021789D01*
X87720814Y-122109390D01*
X87720827Y-122109397D01*
X87866498Y-122169735D01*
X87866503Y-122169737D01*
X88021153Y-122200499D01*
X88021156Y-122200500D01*
X88021158Y-122200500D01*
X88178844Y-122200500D01*
X88178845Y-122200499D01*
X88333497Y-122169737D01*
X88479179Y-122109394D01*
X88610289Y-122021789D01*
X88721789Y-121910289D01*
X88809394Y-121779179D01*
X88869737Y-121633497D01*
X88900500Y-121478842D01*
X88900500Y-121321158D01*
X88900500Y-121321155D01*
X88900499Y-121321153D01*
X88869738Y-121166510D01*
X88869737Y-121166503D01*
X88869735Y-121166498D01*
X88809397Y-121020827D01*
X88809390Y-121020814D01*
X88721789Y-120889711D01*
X88721786Y-120889707D01*
X88610292Y-120778213D01*
X88610288Y-120778210D01*
X88479185Y-120690609D01*
X88479172Y-120690602D01*
X88333501Y-120630264D01*
X88333489Y-120630261D01*
X88178845Y-120599500D01*
X88178842Y-120599500D01*
X88021158Y-120599500D01*
X88021155Y-120599500D01*
X87866510Y-120630261D01*
X87866498Y-120630264D01*
X87720827Y-120690602D01*
X87720814Y-120690609D01*
X87589711Y-120778210D01*
X87589707Y-120778213D01*
X87478213Y-120889707D01*
X87478210Y-120889711D01*
X87390609Y-121020814D01*
X87390602Y-121020827D01*
X87330264Y-121166498D01*
X87330261Y-121166510D01*
X87299500Y-121321153D01*
X75876141Y-121321153D01*
X75374460Y-120745801D01*
X75371732Y-120742563D01*
X75006247Y-120293321D01*
X74947534Y-120221153D01*
X76649500Y-120221153D01*
X76649500Y-120378846D01*
X76680261Y-120533489D01*
X76680264Y-120533501D01*
X76740602Y-120679172D01*
X76740609Y-120679185D01*
X76828210Y-120810288D01*
X76828213Y-120810292D01*
X76939707Y-120921786D01*
X76939711Y-120921789D01*
X77070814Y-121009390D01*
X77070827Y-121009397D01*
X77216498Y-121069735D01*
X77216503Y-121069737D01*
X77371153Y-121100499D01*
X77371156Y-121100500D01*
X77371158Y-121100500D01*
X77528844Y-121100500D01*
X77528845Y-121100499D01*
X77683497Y-121069737D01*
X77801592Y-121020821D01*
X77829172Y-121009397D01*
X77829172Y-121009396D01*
X77829179Y-121009394D01*
X77960289Y-120921789D01*
X77987317Y-120894760D01*
X78048637Y-120861275D01*
X78118329Y-120866257D01*
X78162680Y-120894759D01*
X78239707Y-120971786D01*
X78239711Y-120971789D01*
X78370814Y-121059390D01*
X78370827Y-121059397D01*
X78470060Y-121100500D01*
X78516503Y-121119737D01*
X78671153Y-121150499D01*
X78671156Y-121150500D01*
X78671158Y-121150500D01*
X78828844Y-121150500D01*
X78828845Y-121150499D01*
X78983497Y-121119737D01*
X79129179Y-121059394D01*
X79260289Y-120971789D01*
X79371789Y-120860289D01*
X79459394Y-120729179D01*
X79519737Y-120583497D01*
X79550500Y-120428842D01*
X79550500Y-120271158D01*
X79550500Y-120271155D01*
X79550499Y-120271153D01*
X79519737Y-120116503D01*
X79519735Y-120116498D01*
X79459397Y-119970827D01*
X79459390Y-119970814D01*
X79371789Y-119839711D01*
X79371786Y-119839707D01*
X79260292Y-119728213D01*
X79260288Y-119728210D01*
X79129185Y-119640609D01*
X79129172Y-119640602D01*
X78983501Y-119580264D01*
X78983489Y-119580261D01*
X78828845Y-119549500D01*
X78828842Y-119549500D01*
X78671158Y-119549500D01*
X78671155Y-119549500D01*
X78516510Y-119580261D01*
X78516498Y-119580264D01*
X78370827Y-119640602D01*
X78370814Y-119640609D01*
X78239711Y-119728210D01*
X78239707Y-119728213D01*
X78212681Y-119755240D01*
X78151358Y-119788725D01*
X78081666Y-119783741D01*
X78037319Y-119755240D01*
X77960292Y-119678213D01*
X77960288Y-119678210D01*
X77829185Y-119590609D01*
X77829172Y-119590602D01*
X77683501Y-119530264D01*
X77683489Y-119530261D01*
X77528845Y-119499500D01*
X77528842Y-119499500D01*
X77371158Y-119499500D01*
X77371155Y-119499500D01*
X77216510Y-119530261D01*
X77216498Y-119530264D01*
X77070827Y-119590602D01*
X77070814Y-119590609D01*
X76939711Y-119678210D01*
X76939707Y-119678213D01*
X76828213Y-119789707D01*
X76828210Y-119789711D01*
X76740609Y-119920814D01*
X76740602Y-119920827D01*
X76680264Y-120066498D01*
X76680261Y-120066510D01*
X76649500Y-120221153D01*
X74947534Y-120221153D01*
X74680525Y-119892955D01*
X74677909Y-119889625D01*
X74276503Y-119360292D01*
X74016097Y-119016895D01*
X74013610Y-119013496D01*
X74005860Y-119002517D01*
X73382014Y-118118728D01*
X73379636Y-118115235D01*
X73369971Y-118100500D01*
X73310215Y-118009394D01*
X73292952Y-117983074D01*
X73252338Y-117921153D01*
X79799500Y-117921153D01*
X79799500Y-118078846D01*
X79830261Y-118233489D01*
X79830264Y-118233501D01*
X79890602Y-118379172D01*
X79890609Y-118379185D01*
X79978210Y-118510288D01*
X79978213Y-118510292D01*
X80089707Y-118621786D01*
X80089711Y-118621789D01*
X80220814Y-118709390D01*
X80220827Y-118709397D01*
X80250745Y-118721789D01*
X80366503Y-118769737D01*
X80370808Y-118770593D01*
X80432719Y-118802974D01*
X80461183Y-118844759D01*
X80488597Y-118910946D01*
X80488604Y-118910958D01*
X80576205Y-119042061D01*
X80576208Y-119042065D01*
X80687702Y-119153559D01*
X80687706Y-119153562D01*
X80818809Y-119241163D01*
X80818822Y-119241170D01*
X80943296Y-119292728D01*
X80964498Y-119301510D01*
X81119148Y-119332272D01*
X81119151Y-119332273D01*
X81119153Y-119332273D01*
X81276839Y-119332273D01*
X81276840Y-119332272D01*
X81431492Y-119301510D01*
X81577174Y-119241167D01*
X81708284Y-119153562D01*
X81747832Y-119114014D01*
X81823317Y-119038530D01*
X81884640Y-119005045D01*
X81954332Y-119010029D01*
X81998679Y-119038530D01*
X82074163Y-119114014D01*
X82074167Y-119114017D01*
X82205270Y-119201618D01*
X82205283Y-119201625D01*
X82300755Y-119241170D01*
X82350959Y-119261965D01*
X82505609Y-119292727D01*
X82505612Y-119292728D01*
X82505614Y-119292728D01*
X82566789Y-119292728D01*
X82633828Y-119312413D01*
X82669890Y-119347836D01*
X82678211Y-119360289D01*
X82678214Y-119360293D01*
X82789707Y-119471786D01*
X82789711Y-119471789D01*
X82920814Y-119559390D01*
X82920827Y-119559397D01*
X82996181Y-119590609D01*
X83066503Y-119619737D01*
X83221153Y-119650499D01*
X83221156Y-119650500D01*
X83221158Y-119650500D01*
X83378844Y-119650500D01*
X83378845Y-119650499D01*
X83533497Y-119619737D01*
X83679179Y-119559394D01*
X83810289Y-119471789D01*
X83921789Y-119360289D01*
X84009394Y-119229179D01*
X84069737Y-119083497D01*
X84100500Y-118928842D01*
X84100500Y-118771158D01*
X84100500Y-118771155D01*
X84100499Y-118771153D01*
X84070788Y-118621789D01*
X84069737Y-118616503D01*
X84067163Y-118610288D01*
X84054420Y-118579523D01*
X84046951Y-118510053D01*
X84078227Y-118447574D01*
X84138316Y-118411923D01*
X84208141Y-118414417D01*
X84237870Y-118428968D01*
X84320821Y-118484394D01*
X84320823Y-118484395D01*
X84320827Y-118484397D01*
X84466498Y-118544735D01*
X84466503Y-118544737D01*
X84621153Y-118575499D01*
X84621156Y-118575500D01*
X84621158Y-118575500D01*
X84778844Y-118575500D01*
X84778845Y-118575499D01*
X84933497Y-118544737D01*
X85079179Y-118484394D01*
X85156109Y-118432991D01*
X85222786Y-118412113D01*
X85290166Y-118430597D01*
X85293891Y-118432991D01*
X85370821Y-118484394D01*
X85370823Y-118484395D01*
X85370827Y-118484397D01*
X85516498Y-118544735D01*
X85516503Y-118544737D01*
X85671153Y-118575499D01*
X85671156Y-118575500D01*
X85671158Y-118575500D01*
X85828844Y-118575500D01*
X85828845Y-118575499D01*
X85983497Y-118544737D01*
X86129179Y-118484394D01*
X86260289Y-118396789D01*
X86371789Y-118285289D01*
X86459394Y-118154179D01*
X86519737Y-118008497D01*
X86550500Y-117853842D01*
X86550500Y-117696158D01*
X86550500Y-117696155D01*
X86550499Y-117696153D01*
X86538034Y-117633489D01*
X86519737Y-117541503D01*
X86519735Y-117541498D01*
X86459397Y-117395827D01*
X86459390Y-117395814D01*
X86384649Y-117283957D01*
X86384648Y-117283955D01*
X86371792Y-117264715D01*
X86371786Y-117264707D01*
X86328232Y-117221153D01*
X88299500Y-117221153D01*
X88299500Y-117378846D01*
X88330261Y-117533489D01*
X88330264Y-117533501D01*
X88390602Y-117679172D01*
X88390609Y-117679185D01*
X88478210Y-117810288D01*
X88478213Y-117810292D01*
X88589707Y-117921786D01*
X88589711Y-117921789D01*
X88720814Y-118009390D01*
X88720827Y-118009397D01*
X88807936Y-118045478D01*
X88866503Y-118069737D01*
X89021153Y-118100499D01*
X89021156Y-118100500D01*
X89021158Y-118100500D01*
X89178844Y-118100500D01*
X89178845Y-118100499D01*
X89333497Y-118069737D01*
X89450790Y-118021153D01*
X92199500Y-118021153D01*
X92199500Y-118178846D01*
X92230261Y-118333489D01*
X92230264Y-118333501D01*
X92290602Y-118479172D01*
X92290609Y-118479185D01*
X92378210Y-118610288D01*
X92378213Y-118610292D01*
X92489707Y-118721786D01*
X92489711Y-118721789D01*
X92620814Y-118809390D01*
X92620827Y-118809397D01*
X92706200Y-118844759D01*
X92766503Y-118869737D01*
X92921153Y-118900499D01*
X92921156Y-118900500D01*
X92921158Y-118900500D01*
X93078844Y-118900500D01*
X93078845Y-118900499D01*
X93233497Y-118869737D01*
X93379179Y-118809394D01*
X93510289Y-118721789D01*
X93621789Y-118610289D01*
X93709394Y-118479179D01*
X93769737Y-118333497D01*
X93786580Y-118248818D01*
X93818964Y-118186910D01*
X93860745Y-118158451D01*
X93979172Y-118109397D01*
X93979172Y-118109396D01*
X93979179Y-118109394D01*
X94110289Y-118021789D01*
X94221789Y-117910289D01*
X94309394Y-117779179D01*
X94369737Y-117633497D01*
X94400500Y-117478842D01*
X94400500Y-117321158D01*
X94400500Y-117321155D01*
X94400499Y-117321153D01*
X94382419Y-117230261D01*
X94369737Y-117166503D01*
X94356483Y-117134504D01*
X94309397Y-117020827D01*
X94309390Y-117020814D01*
X94221789Y-116889711D01*
X94221786Y-116889707D01*
X94110292Y-116778213D01*
X94110288Y-116778210D01*
X93979185Y-116690609D01*
X93979172Y-116690602D01*
X93833501Y-116630264D01*
X93833489Y-116630261D01*
X93678845Y-116599500D01*
X93678842Y-116599500D01*
X93521158Y-116599500D01*
X93521155Y-116599500D01*
X93366510Y-116630261D01*
X93366498Y-116630264D01*
X93220827Y-116690602D01*
X93220814Y-116690609D01*
X93089711Y-116778210D01*
X93089707Y-116778213D01*
X92978213Y-116889707D01*
X92978210Y-116889711D01*
X92890609Y-117020814D01*
X92890602Y-117020827D01*
X92830264Y-117166498D01*
X92830261Y-117166508D01*
X92813419Y-117251180D01*
X92781034Y-117313091D01*
X92739255Y-117341549D01*
X92620823Y-117390604D01*
X92620814Y-117390609D01*
X92489711Y-117478210D01*
X92489707Y-117478213D01*
X92378213Y-117589707D01*
X92378210Y-117589711D01*
X92290609Y-117720814D01*
X92290602Y-117720827D01*
X92230264Y-117866498D01*
X92230261Y-117866510D01*
X92199500Y-118021153D01*
X89450790Y-118021153D01*
X89479179Y-118009394D01*
X89610289Y-117921789D01*
X89721789Y-117810289D01*
X89809394Y-117679179D01*
X89869737Y-117533497D01*
X89900500Y-117378842D01*
X89900500Y-117221158D01*
X89900500Y-117221155D01*
X89900499Y-117221153D01*
X89894422Y-117190602D01*
X89869737Y-117066503D01*
X89869367Y-117065609D01*
X89809397Y-116920827D01*
X89809390Y-116920814D01*
X89721789Y-116789711D01*
X89721786Y-116789707D01*
X89610292Y-116678213D01*
X89610288Y-116678210D01*
X89479185Y-116590609D01*
X89479172Y-116590602D01*
X89333501Y-116530264D01*
X89333489Y-116530261D01*
X89178845Y-116499500D01*
X89178842Y-116499500D01*
X89021158Y-116499500D01*
X89021155Y-116499500D01*
X88866510Y-116530261D01*
X88866498Y-116530264D01*
X88720827Y-116590602D01*
X88720814Y-116590609D01*
X88589711Y-116678210D01*
X88589707Y-116678213D01*
X88478213Y-116789707D01*
X88478210Y-116789711D01*
X88390609Y-116920814D01*
X88390602Y-116920827D01*
X88330264Y-117066498D01*
X88330261Y-117066510D01*
X88299500Y-117221153D01*
X86328232Y-117221153D01*
X86260292Y-117153213D01*
X86260288Y-117153210D01*
X86129185Y-117065609D01*
X86129172Y-117065602D01*
X85983501Y-117005264D01*
X85983489Y-117005261D01*
X85828845Y-116974500D01*
X85828842Y-116974500D01*
X85671158Y-116974500D01*
X85671155Y-116974500D01*
X85516510Y-117005261D01*
X85516498Y-117005264D01*
X85370827Y-117065602D01*
X85370809Y-117065612D01*
X85293890Y-117117008D01*
X85227213Y-117137886D01*
X85159833Y-117119401D01*
X85156110Y-117117008D01*
X85079190Y-117065612D01*
X85079172Y-117065602D01*
X84933501Y-117005264D01*
X84933489Y-117005261D01*
X84778845Y-116974500D01*
X84778842Y-116974500D01*
X84621158Y-116974500D01*
X84621155Y-116974500D01*
X84466510Y-117005261D01*
X84466498Y-117005264D01*
X84320827Y-117065602D01*
X84320814Y-117065609D01*
X84189711Y-117153210D01*
X84189707Y-117153213D01*
X84078213Y-117264707D01*
X84078210Y-117264711D01*
X83990609Y-117395814D01*
X83990602Y-117395827D01*
X83930264Y-117541498D01*
X83930261Y-117541510D01*
X83899500Y-117696153D01*
X83899500Y-117853846D01*
X83930261Y-118008489D01*
X83930264Y-118008500D01*
X83945580Y-118045478D01*
X83953047Y-118114947D01*
X83921771Y-118177426D01*
X83861682Y-118213077D01*
X83791857Y-118210582D01*
X83762127Y-118196030D01*
X83679185Y-118140609D01*
X83679172Y-118140602D01*
X83533501Y-118080264D01*
X83533489Y-118080261D01*
X83378845Y-118049500D01*
X83378842Y-118049500D01*
X83317667Y-118049500D01*
X83250628Y-118029815D01*
X83214565Y-117994391D01*
X83206245Y-117981939D01*
X83206243Y-117981937D01*
X83206241Y-117981934D01*
X83094748Y-117870441D01*
X83094744Y-117870438D01*
X82963641Y-117782837D01*
X82963632Y-117782832D01*
X82835197Y-117729633D01*
X82780794Y-117685792D01*
X82768089Y-117662524D01*
X82709397Y-117520827D01*
X82709390Y-117520814D01*
X82621789Y-117389711D01*
X82621786Y-117389707D01*
X82510292Y-117278213D01*
X82510288Y-117278210D01*
X82379185Y-117190609D01*
X82379172Y-117190602D01*
X82233501Y-117130264D01*
X82233489Y-117130261D01*
X82078845Y-117099500D01*
X82078842Y-117099500D01*
X81921158Y-117099500D01*
X81921155Y-117099500D01*
X81766510Y-117130261D01*
X81766498Y-117130264D01*
X81620827Y-117190602D01*
X81620814Y-117190609D01*
X81489711Y-117278210D01*
X81489707Y-117278213D01*
X81378213Y-117389707D01*
X81378210Y-117389711D01*
X81359446Y-117417794D01*
X81305833Y-117462599D01*
X81236508Y-117471306D01*
X81173481Y-117441151D01*
X81168663Y-117436584D01*
X81110292Y-117378213D01*
X81110288Y-117378210D01*
X80979185Y-117290609D01*
X80979172Y-117290602D01*
X80833501Y-117230264D01*
X80833489Y-117230261D01*
X80678845Y-117199500D01*
X80678842Y-117199500D01*
X80521158Y-117199500D01*
X80521155Y-117199500D01*
X80366510Y-117230261D01*
X80366498Y-117230264D01*
X80220827Y-117290602D01*
X80220814Y-117290609D01*
X80089711Y-117378210D01*
X80089707Y-117378213D01*
X79978213Y-117489707D01*
X79978210Y-117489711D01*
X79890609Y-117620814D01*
X79890602Y-117620827D01*
X79830264Y-117766498D01*
X79830261Y-117766510D01*
X79799500Y-117921153D01*
X73252338Y-117921153D01*
X72778922Y-117199372D01*
X72776661Y-117195792D01*
X72207601Y-116260013D01*
X72205463Y-116256359D01*
X71991508Y-115875840D01*
X71960759Y-115821153D01*
X74899500Y-115821153D01*
X74899500Y-115978846D01*
X74930261Y-116133489D01*
X74930264Y-116133501D01*
X74990602Y-116279172D01*
X74990609Y-116279185D01*
X75078210Y-116410288D01*
X75078213Y-116410292D01*
X75189707Y-116521786D01*
X75189711Y-116521789D01*
X75320814Y-116609390D01*
X75320827Y-116609397D01*
X75417646Y-116649500D01*
X75466503Y-116669737D01*
X75621153Y-116700499D01*
X75621156Y-116700500D01*
X75621158Y-116700500D01*
X75778844Y-116700500D01*
X75778845Y-116700499D01*
X75933497Y-116669737D01*
X76079179Y-116609394D01*
X76210289Y-116521789D01*
X76321789Y-116410289D01*
X76409394Y-116279179D01*
X76432051Y-116224477D01*
X76475890Y-116170076D01*
X76542184Y-116148010D01*
X76570802Y-116150313D01*
X76597379Y-116155600D01*
X76618144Y-116159731D01*
X76618145Y-116159731D01*
X76775831Y-116159731D01*
X76775832Y-116159730D01*
X76930484Y-116128968D01*
X77076166Y-116068625D01*
X77207276Y-115981020D01*
X77318776Y-115869520D01*
X77406381Y-115738410D01*
X77466724Y-115592728D01*
X77497487Y-115438073D01*
X77497487Y-115280389D01*
X77497487Y-115280386D01*
X77497486Y-115280384D01*
X77493531Y-115260501D01*
X77466724Y-115125734D01*
X77441252Y-115064238D01*
X77406384Y-114980058D01*
X77406377Y-114980045D01*
X77367026Y-114921153D01*
X77921544Y-114921153D01*
X77921544Y-115078846D01*
X77952305Y-115233489D01*
X77952308Y-115233501D01*
X78012646Y-115379172D01*
X78012653Y-115379185D01*
X78100254Y-115510288D01*
X78100257Y-115510292D01*
X78211751Y-115621786D01*
X78211755Y-115621789D01*
X78342858Y-115709390D01*
X78342871Y-115709397D01*
X78476799Y-115764871D01*
X78488547Y-115769737D01*
X78643197Y-115800499D01*
X78643200Y-115800500D01*
X78643202Y-115800500D01*
X78800888Y-115800500D01*
X78800889Y-115800499D01*
X78955541Y-115769737D01*
X79101223Y-115709394D01*
X79101229Y-115709390D01*
X79237398Y-115618405D01*
X79238131Y-115619502D01*
X79296190Y-115594836D01*
X79365059Y-115606619D01*
X79398241Y-115630320D01*
X79489707Y-115721786D01*
X79489711Y-115721789D01*
X79620814Y-115809390D01*
X79620827Y-115809397D01*
X79733423Y-115856035D01*
X79766503Y-115869737D01*
X79921153Y-115900499D01*
X79921156Y-115900500D01*
X79921158Y-115900500D01*
X80078844Y-115900500D01*
X80078845Y-115900499D01*
X80233497Y-115869737D01*
X80234023Y-115869519D01*
X80266576Y-115856035D01*
X80336045Y-115848565D01*
X80382916Y-115867490D01*
X80416743Y-115890093D01*
X80416746Y-115890094D01*
X80416749Y-115890096D01*
X80562420Y-115950434D01*
X80562425Y-115950436D01*
X80672624Y-115972356D01*
X80717075Y-115981198D01*
X80717078Y-115981199D01*
X80717080Y-115981199D01*
X80874766Y-115981199D01*
X80874767Y-115981198D01*
X81029419Y-115950436D01*
X81121860Y-115912145D01*
X81191326Y-115904677D01*
X81216757Y-115912144D01*
X81362127Y-115972358D01*
X81516777Y-116003120D01*
X81516780Y-116003121D01*
X81516782Y-116003121D01*
X81674468Y-116003121D01*
X81674469Y-116003120D01*
X81829121Y-115972358D01*
X81974803Y-115912015D01*
X82105913Y-115824410D01*
X82217413Y-115712910D01*
X82305018Y-115581800D01*
X82365361Y-115436118D01*
X82396124Y-115281463D01*
X82396124Y-115123779D01*
X82396124Y-115123776D01*
X82396123Y-115123774D01*
X82375711Y-115021158D01*
X82365361Y-114969124D01*
X82364278Y-114966510D01*
X82362625Y-114962518D01*
X82345491Y-114921153D01*
X83099500Y-114921153D01*
X83099500Y-115078846D01*
X83130261Y-115233489D01*
X83130264Y-115233501D01*
X83190602Y-115379172D01*
X83190609Y-115379185D01*
X83278210Y-115510288D01*
X83278213Y-115510292D01*
X83389707Y-115621786D01*
X83389711Y-115621789D01*
X83520814Y-115709390D01*
X83520827Y-115709397D01*
X83654755Y-115764871D01*
X83666503Y-115769737D01*
X83821153Y-115800499D01*
X83821156Y-115800500D01*
X83821158Y-115800500D01*
X83978844Y-115800500D01*
X83978845Y-115800499D01*
X84133497Y-115769737D01*
X84279179Y-115709394D01*
X84410289Y-115621789D01*
X84424898Y-115607180D01*
X85213473Y-115607180D01*
X85213473Y-115764873D01*
X85244234Y-115919516D01*
X85244237Y-115919528D01*
X85304575Y-116065199D01*
X85304582Y-116065212D01*
X85392183Y-116196315D01*
X85392186Y-116196319D01*
X85503680Y-116307813D01*
X85503684Y-116307816D01*
X85634787Y-116395417D01*
X85634800Y-116395424D01*
X85780471Y-116455762D01*
X85780476Y-116455764D01*
X85935126Y-116486526D01*
X85935129Y-116486527D01*
X85935131Y-116486527D01*
X86092817Y-116486527D01*
X86092818Y-116486526D01*
X86247470Y-116455764D01*
X86393152Y-116395421D01*
X86524262Y-116307816D01*
X86635762Y-116196316D01*
X86723367Y-116065206D01*
X86783710Y-115919524D01*
X86814473Y-115764869D01*
X86814473Y-115607185D01*
X86814473Y-115607182D01*
X86796854Y-115518608D01*
X86803081Y-115449016D01*
X86845944Y-115393839D01*
X86911833Y-115370594D01*
X86979830Y-115386662D01*
X87021573Y-115425525D01*
X87078210Y-115510288D01*
X87078213Y-115510292D01*
X87189707Y-115621786D01*
X87189711Y-115621789D01*
X87320814Y-115709390D01*
X87320827Y-115709397D01*
X87454755Y-115764871D01*
X87466503Y-115769737D01*
X87621153Y-115800499D01*
X87621156Y-115800500D01*
X87621158Y-115800500D01*
X87778844Y-115800500D01*
X87778845Y-115800499D01*
X87933497Y-115769737D01*
X88079179Y-115709394D01*
X88210289Y-115621789D01*
X88321789Y-115510289D01*
X88409394Y-115379179D01*
X88469737Y-115233497D01*
X88500500Y-115078842D01*
X88500500Y-115021153D01*
X92199500Y-115021153D01*
X92199500Y-115178846D01*
X92230261Y-115333489D01*
X92230264Y-115333501D01*
X92290602Y-115479172D01*
X92290609Y-115479185D01*
X92378210Y-115610288D01*
X92378213Y-115610292D01*
X92489707Y-115721786D01*
X92489711Y-115721789D01*
X92620814Y-115809390D01*
X92620827Y-115809397D01*
X92733423Y-115856035D01*
X92766503Y-115869737D01*
X92921153Y-115900499D01*
X92921156Y-115900500D01*
X92921158Y-115900500D01*
X93078844Y-115900500D01*
X93078845Y-115900499D01*
X93233497Y-115869737D01*
X93379179Y-115809394D01*
X93510289Y-115721789D01*
X93621789Y-115610289D01*
X93709394Y-115479179D01*
X93769737Y-115333497D01*
X93800500Y-115178842D01*
X93800500Y-115021158D01*
X93800500Y-115021155D01*
X93800499Y-115021153D01*
X95099500Y-115021153D01*
X95099500Y-115178846D01*
X95130261Y-115333489D01*
X95130264Y-115333501D01*
X95190602Y-115479172D01*
X95190609Y-115479185D01*
X95278210Y-115610288D01*
X95278213Y-115610292D01*
X95389707Y-115721786D01*
X95389711Y-115721789D01*
X95520814Y-115809390D01*
X95520827Y-115809397D01*
X95633423Y-115856035D01*
X95666503Y-115869737D01*
X95821153Y-115900499D01*
X95821156Y-115900500D01*
X95821158Y-115900500D01*
X95978844Y-115900500D01*
X95978845Y-115900499D01*
X96133497Y-115869737D01*
X96279179Y-115809394D01*
X96410289Y-115721789D01*
X96521789Y-115610289D01*
X96609394Y-115479179D01*
X96669737Y-115333497D01*
X96700500Y-115178842D01*
X96700500Y-115021158D01*
X96700500Y-115021155D01*
X96700499Y-115021153D01*
X96691643Y-114976633D01*
X96669737Y-114866503D01*
X96662463Y-114848942D01*
X96609397Y-114720827D01*
X96609390Y-114720814D01*
X96521789Y-114589711D01*
X96521786Y-114589707D01*
X96410292Y-114478213D01*
X96410288Y-114478210D01*
X96279185Y-114390609D01*
X96279172Y-114390602D01*
X96133501Y-114330264D01*
X96133489Y-114330261D01*
X95978845Y-114299500D01*
X95978842Y-114299500D01*
X95821158Y-114299500D01*
X95821155Y-114299500D01*
X95666510Y-114330261D01*
X95666498Y-114330264D01*
X95520827Y-114390602D01*
X95520814Y-114390609D01*
X95389711Y-114478210D01*
X95389707Y-114478213D01*
X95278213Y-114589707D01*
X95278210Y-114589711D01*
X95190609Y-114720814D01*
X95190602Y-114720827D01*
X95130264Y-114866498D01*
X95130261Y-114866510D01*
X95099500Y-115021153D01*
X93800499Y-115021153D01*
X93791643Y-114976633D01*
X93769737Y-114866503D01*
X93762463Y-114848942D01*
X93709397Y-114720827D01*
X93709390Y-114720814D01*
X93621789Y-114589711D01*
X93621786Y-114589707D01*
X93510292Y-114478213D01*
X93510288Y-114478210D01*
X93379185Y-114390609D01*
X93379172Y-114390602D01*
X93233501Y-114330264D01*
X93233489Y-114330261D01*
X93078845Y-114299500D01*
X93078842Y-114299500D01*
X92921158Y-114299500D01*
X92921155Y-114299500D01*
X92766510Y-114330261D01*
X92766498Y-114330264D01*
X92620827Y-114390602D01*
X92620814Y-114390609D01*
X92489711Y-114478210D01*
X92489707Y-114478213D01*
X92378213Y-114589707D01*
X92378210Y-114589711D01*
X92290609Y-114720814D01*
X92290602Y-114720827D01*
X92230264Y-114866498D01*
X92230261Y-114866510D01*
X92199500Y-115021153D01*
X88500500Y-115021153D01*
X88500500Y-114921158D01*
X88500500Y-114921155D01*
X88500499Y-114921153D01*
X88499531Y-114916288D01*
X88469737Y-114766503D01*
X88469735Y-114766498D01*
X88409397Y-114620827D01*
X88409390Y-114620814D01*
X88321789Y-114489711D01*
X88321786Y-114489707D01*
X88210292Y-114378213D01*
X88210288Y-114378210D01*
X88079185Y-114290609D01*
X88079172Y-114290602D01*
X87933501Y-114230264D01*
X87933489Y-114230261D01*
X87778845Y-114199500D01*
X87778842Y-114199500D01*
X87621158Y-114199500D01*
X87621155Y-114199500D01*
X87466510Y-114230261D01*
X87466498Y-114230264D01*
X87320827Y-114290602D01*
X87320814Y-114290609D01*
X87189711Y-114378210D01*
X87189707Y-114378213D01*
X87078213Y-114489707D01*
X87078210Y-114489711D01*
X86990609Y-114620814D01*
X86990602Y-114620827D01*
X86930264Y-114766498D01*
X86930261Y-114766510D01*
X86899500Y-114921153D01*
X86899500Y-115078846D01*
X86917118Y-115167419D01*
X86910891Y-115237011D01*
X86868027Y-115292188D01*
X86802138Y-115315432D01*
X86734141Y-115299364D01*
X86692399Y-115260501D01*
X86635762Y-115175737D01*
X86524265Y-115064240D01*
X86524261Y-115064237D01*
X86393158Y-114976636D01*
X86393145Y-114976629D01*
X86247474Y-114916291D01*
X86247462Y-114916288D01*
X86092818Y-114885527D01*
X86092815Y-114885527D01*
X85935131Y-114885527D01*
X85935128Y-114885527D01*
X85780483Y-114916288D01*
X85780471Y-114916291D01*
X85634800Y-114976629D01*
X85634787Y-114976636D01*
X85503684Y-115064237D01*
X85503680Y-115064240D01*
X85392186Y-115175734D01*
X85392183Y-115175738D01*
X85304582Y-115306841D01*
X85304575Y-115306854D01*
X85244237Y-115452525D01*
X85244234Y-115452537D01*
X85213473Y-115607180D01*
X84424898Y-115607180D01*
X84452906Y-115579172D01*
X84518667Y-115513412D01*
X84521786Y-115510292D01*
X84521789Y-115510289D01*
X84609394Y-115379179D01*
X84669737Y-115233497D01*
X84700500Y-115078842D01*
X84700500Y-114921158D01*
X84700500Y-114921155D01*
X84700499Y-114921153D01*
X84699531Y-114916288D01*
X84669737Y-114766503D01*
X84669735Y-114766498D01*
X84609397Y-114620827D01*
X84609390Y-114620814D01*
X84521789Y-114489711D01*
X84521786Y-114489707D01*
X84410292Y-114378213D01*
X84410288Y-114378210D01*
X84279185Y-114290609D01*
X84279172Y-114290602D01*
X84133501Y-114230264D01*
X84133489Y-114230261D01*
X83978845Y-114199500D01*
X83978842Y-114199500D01*
X83821158Y-114199500D01*
X83821155Y-114199500D01*
X83666510Y-114230261D01*
X83666498Y-114230264D01*
X83520827Y-114290602D01*
X83520814Y-114290609D01*
X83389711Y-114378210D01*
X83389707Y-114378213D01*
X83278213Y-114489707D01*
X83278210Y-114489711D01*
X83190609Y-114620814D01*
X83190602Y-114620827D01*
X83130264Y-114766498D01*
X83130261Y-114766510D01*
X83099500Y-114921153D01*
X82345491Y-114921153D01*
X82305021Y-114823448D01*
X82305014Y-114823435D01*
X82217413Y-114692332D01*
X82217410Y-114692328D01*
X82105916Y-114580834D01*
X82105912Y-114580831D01*
X81974809Y-114493230D01*
X81974796Y-114493223D01*
X81829125Y-114432885D01*
X81829113Y-114432882D01*
X81674469Y-114402121D01*
X81674466Y-114402121D01*
X81516782Y-114402121D01*
X81516779Y-114402121D01*
X81362134Y-114432882D01*
X81362122Y-114432885D01*
X81269687Y-114471173D01*
X81200218Y-114478642D01*
X81174783Y-114471173D01*
X81029423Y-114410963D01*
X81029411Y-114410960D01*
X80874767Y-114380199D01*
X80874764Y-114380199D01*
X80717080Y-114380199D01*
X80717077Y-114380199D01*
X80562433Y-114410959D01*
X80562428Y-114410961D01*
X80562426Y-114410961D01*
X80562425Y-114410962D01*
X80536286Y-114421789D01*
X80529343Y-114424665D01*
X80459873Y-114432132D01*
X80413001Y-114413205D01*
X80379179Y-114390606D01*
X80379172Y-114390602D01*
X80233501Y-114330264D01*
X80233489Y-114330261D01*
X80078845Y-114299500D01*
X80078842Y-114299500D01*
X79921158Y-114299500D01*
X79921155Y-114299500D01*
X79766510Y-114330261D01*
X79766498Y-114330264D01*
X79620827Y-114390602D01*
X79620814Y-114390609D01*
X79484646Y-114481595D01*
X79483915Y-114480502D01*
X79425822Y-114505166D01*
X79356956Y-114493366D01*
X79323802Y-114469679D01*
X79232336Y-114378213D01*
X79232332Y-114378210D01*
X79101229Y-114290609D01*
X79101216Y-114290602D01*
X78955545Y-114230264D01*
X78955533Y-114230261D01*
X78800889Y-114199500D01*
X78800886Y-114199500D01*
X78643202Y-114199500D01*
X78643199Y-114199500D01*
X78488554Y-114230261D01*
X78488542Y-114230264D01*
X78342871Y-114290602D01*
X78342858Y-114290609D01*
X78211755Y-114378210D01*
X78211751Y-114378213D01*
X78100257Y-114489707D01*
X78100254Y-114489711D01*
X78012653Y-114620814D01*
X78012646Y-114620827D01*
X77952308Y-114766498D01*
X77952305Y-114766510D01*
X77921544Y-114921153D01*
X77367026Y-114921153D01*
X77318776Y-114848942D01*
X77318773Y-114848938D01*
X77207279Y-114737444D01*
X77207275Y-114737441D01*
X77076172Y-114649840D01*
X77076159Y-114649833D01*
X76930488Y-114589495D01*
X76930476Y-114589492D01*
X76775832Y-114558731D01*
X76775829Y-114558731D01*
X76618145Y-114558731D01*
X76618142Y-114558731D01*
X76463497Y-114589492D01*
X76463485Y-114589495D01*
X76317814Y-114649833D01*
X76317801Y-114649840D01*
X76186698Y-114737441D01*
X76186694Y-114737444D01*
X76075200Y-114848938D01*
X76075197Y-114848942D01*
X75987596Y-114980045D01*
X75987591Y-114980055D01*
X75964935Y-115034752D01*
X75921094Y-115089156D01*
X75854799Y-115111220D01*
X75826183Y-115108916D01*
X75778846Y-115099500D01*
X75778842Y-115099500D01*
X75621158Y-115099500D01*
X75621155Y-115099500D01*
X75466510Y-115130261D01*
X75466498Y-115130264D01*
X75320827Y-115190602D01*
X75320814Y-115190609D01*
X75189711Y-115278210D01*
X75189707Y-115278213D01*
X75078213Y-115389707D01*
X75078210Y-115389711D01*
X74990609Y-115520814D01*
X74990602Y-115520827D01*
X74930264Y-115666498D01*
X74930261Y-115666510D01*
X74899500Y-115821153D01*
X71960759Y-115821153D01*
X71791887Y-115520814D01*
X71668654Y-115301645D01*
X71666649Y-115297931D01*
X71162746Y-114325444D01*
X71160874Y-114321673D01*
X71155737Y-114310872D01*
X70801732Y-113566503D01*
X70690489Y-113332592D01*
X70688736Y-113328737D01*
X70660820Y-113264467D01*
X70642006Y-113221153D01*
X101699500Y-113221153D01*
X101699500Y-113378846D01*
X101730261Y-113533489D01*
X101730264Y-113533501D01*
X101790602Y-113679172D01*
X101790609Y-113679185D01*
X101878210Y-113810288D01*
X101878213Y-113810292D01*
X101989707Y-113921786D01*
X101989711Y-113921789D01*
X102120814Y-114009390D01*
X102120827Y-114009397D01*
X102237148Y-114057578D01*
X102266503Y-114069737D01*
X102421153Y-114100499D01*
X102421156Y-114100500D01*
X102421158Y-114100500D01*
X102578844Y-114100500D01*
X102578845Y-114100499D01*
X102733497Y-114069737D01*
X102879179Y-114009394D01*
X103010289Y-113921789D01*
X103121789Y-113810289D01*
X103181348Y-113721153D01*
X104699500Y-113721153D01*
X104699500Y-113878846D01*
X104730261Y-114033489D01*
X104730264Y-114033501D01*
X104790602Y-114179172D01*
X104790609Y-114179185D01*
X104878210Y-114310288D01*
X104878213Y-114310292D01*
X104989707Y-114421786D01*
X104989711Y-114421789D01*
X105120814Y-114509390D01*
X105120827Y-114509397D01*
X105239932Y-114558731D01*
X105266503Y-114569737D01*
X105421153Y-114600499D01*
X105421156Y-114600500D01*
X105421158Y-114600500D01*
X105578844Y-114600500D01*
X105578845Y-114600499D01*
X105733497Y-114569737D01*
X105879179Y-114509394D01*
X106010289Y-114421789D01*
X106121789Y-114310289D01*
X106209394Y-114179179D01*
X106269737Y-114033497D01*
X106300500Y-113878842D01*
X106300500Y-113721158D01*
X106300500Y-113721155D01*
X106300499Y-113721153D01*
X106288213Y-113659390D01*
X106269737Y-113566503D01*
X106256062Y-113533489D01*
X106209397Y-113420827D01*
X106209390Y-113420814D01*
X106121789Y-113289711D01*
X106121786Y-113289707D01*
X106010292Y-113178213D01*
X106010288Y-113178210D01*
X105879185Y-113090609D01*
X105879172Y-113090602D01*
X105733501Y-113030264D01*
X105733489Y-113030261D01*
X105578845Y-112999500D01*
X105578842Y-112999500D01*
X105421158Y-112999500D01*
X105421155Y-112999500D01*
X105266510Y-113030261D01*
X105266498Y-113030264D01*
X105120827Y-113090602D01*
X105120814Y-113090609D01*
X104989711Y-113178210D01*
X104989707Y-113178213D01*
X104878213Y-113289707D01*
X104878210Y-113289711D01*
X104790609Y-113420814D01*
X104790602Y-113420827D01*
X104730264Y-113566498D01*
X104730261Y-113566510D01*
X104699500Y-113721153D01*
X103181348Y-113721153D01*
X103209394Y-113679179D01*
X103269737Y-113533497D01*
X103300500Y-113378842D01*
X103300500Y-113221158D01*
X103300500Y-113221155D01*
X103300499Y-113221153D01*
X103296849Y-113202803D01*
X103269737Y-113066503D01*
X103256760Y-113035174D01*
X103209394Y-112920820D01*
X103176207Y-112871153D01*
X109099500Y-112871153D01*
X109099500Y-113028846D01*
X109130261Y-113183489D01*
X109130264Y-113183501D01*
X109190602Y-113329172D01*
X109190609Y-113329185D01*
X109278210Y-113460288D01*
X109278213Y-113460292D01*
X109389707Y-113571786D01*
X109389711Y-113571789D01*
X109520814Y-113659390D01*
X109520827Y-113659397D01*
X109666498Y-113719735D01*
X109666503Y-113719737D01*
X109821153Y-113750499D01*
X109821156Y-113750500D01*
X109821158Y-113750500D01*
X109978844Y-113750500D01*
X109978845Y-113750499D01*
X110133497Y-113719737D01*
X110246166Y-113673067D01*
X110279172Y-113659397D01*
X110279172Y-113659396D01*
X110279179Y-113659394D01*
X110410289Y-113571789D01*
X110521789Y-113460289D01*
X110609394Y-113329179D01*
X110669737Y-113183497D01*
X110700500Y-113028842D01*
X110700500Y-112871158D01*
X110700500Y-112871155D01*
X110700499Y-112871153D01*
X110688953Y-112813107D01*
X110669737Y-112716503D01*
X110642317Y-112650304D01*
X110609397Y-112570827D01*
X110609390Y-112570814D01*
X110521789Y-112439711D01*
X110521786Y-112439707D01*
X110410292Y-112328213D01*
X110410288Y-112328210D01*
X110279185Y-112240609D01*
X110279172Y-112240602D01*
X110133501Y-112180264D01*
X110133489Y-112180261D01*
X109978845Y-112149500D01*
X109978842Y-112149500D01*
X109821158Y-112149500D01*
X109821155Y-112149500D01*
X109666510Y-112180261D01*
X109666498Y-112180264D01*
X109520827Y-112240602D01*
X109520814Y-112240609D01*
X109389711Y-112328210D01*
X109389707Y-112328213D01*
X109278213Y-112439707D01*
X109278210Y-112439711D01*
X109190609Y-112570814D01*
X109190602Y-112570827D01*
X109130264Y-112716498D01*
X109130261Y-112716510D01*
X109099500Y-112871153D01*
X103176207Y-112871153D01*
X103121789Y-112789711D01*
X103121786Y-112789707D01*
X103010292Y-112678213D01*
X103010288Y-112678210D01*
X102879185Y-112590609D01*
X102879172Y-112590602D01*
X102733501Y-112530264D01*
X102733489Y-112530261D01*
X102578845Y-112499500D01*
X102578842Y-112499500D01*
X102421158Y-112499500D01*
X102421155Y-112499500D01*
X102266510Y-112530261D01*
X102266498Y-112530264D01*
X102120827Y-112590602D01*
X102120814Y-112590609D01*
X101989711Y-112678210D01*
X101989707Y-112678213D01*
X101878213Y-112789707D01*
X101878210Y-112789711D01*
X101790609Y-112920814D01*
X101790602Y-112920827D01*
X101730264Y-113066498D01*
X101730261Y-113066510D01*
X101699500Y-113221153D01*
X70642006Y-113221153D01*
X70252391Y-112324172D01*
X70250770Y-112320260D01*
X69848941Y-111301292D01*
X69847487Y-111297409D01*
X69480701Y-110265374D01*
X69479368Y-110261412D01*
X69466590Y-110221153D01*
X101199500Y-110221153D01*
X101199500Y-110378846D01*
X101230261Y-110533489D01*
X101230264Y-110533501D01*
X101290602Y-110679172D01*
X101290609Y-110679185D01*
X101378210Y-110810288D01*
X101378213Y-110810292D01*
X101489707Y-110921786D01*
X101489711Y-110921789D01*
X101620814Y-111009390D01*
X101620827Y-111009397D01*
X101766498Y-111069735D01*
X101766503Y-111069737D01*
X101921153Y-111100499D01*
X101921156Y-111100500D01*
X101921158Y-111100500D01*
X102078844Y-111100500D01*
X102078845Y-111100499D01*
X102233497Y-111069737D01*
X102379179Y-111009394D01*
X102510289Y-110921789D01*
X102621789Y-110810289D01*
X102681348Y-110721153D01*
X105099500Y-110721153D01*
X105099500Y-110878846D01*
X105130261Y-111033489D01*
X105130264Y-111033501D01*
X105190602Y-111179172D01*
X105190609Y-111179185D01*
X105278210Y-111310288D01*
X105278213Y-111310292D01*
X105389707Y-111421786D01*
X105389711Y-111421789D01*
X105520814Y-111509390D01*
X105520827Y-111509397D01*
X105620099Y-111550516D01*
X105666503Y-111569737D01*
X105821153Y-111600499D01*
X105821156Y-111600500D01*
X105821158Y-111600500D01*
X105978844Y-111600500D01*
X105978845Y-111600499D01*
X106133497Y-111569737D01*
X106279179Y-111509394D01*
X106410289Y-111421789D01*
X106521789Y-111310289D01*
X106609394Y-111179179D01*
X106669737Y-111033497D01*
X106684715Y-110958194D01*
X106692084Y-110921153D01*
X110099499Y-110921153D01*
X110099499Y-111078846D01*
X110130260Y-111233489D01*
X110130263Y-111233501D01*
X110190601Y-111379172D01*
X110190608Y-111379185D01*
X110278209Y-111510288D01*
X110278212Y-111510292D01*
X110389706Y-111621786D01*
X110389710Y-111621789D01*
X110520813Y-111709390D01*
X110520826Y-111709397D01*
X110666497Y-111769735D01*
X110666502Y-111769737D01*
X110821152Y-111800499D01*
X110821155Y-111800500D01*
X110821157Y-111800500D01*
X110978843Y-111800500D01*
X110978844Y-111800499D01*
X111133496Y-111769737D01*
X111279178Y-111709394D01*
X111410288Y-111621789D01*
X111521788Y-111510289D01*
X111609393Y-111379179D01*
X111669736Y-111233497D01*
X111700499Y-111078842D01*
X111700499Y-110921158D01*
X111700499Y-110921155D01*
X111700498Y-110921153D01*
X111694475Y-110890874D01*
X111669736Y-110766503D01*
X111650954Y-110721158D01*
X111609396Y-110620827D01*
X111609389Y-110620814D01*
X111521788Y-110489711D01*
X111521785Y-110489707D01*
X111410291Y-110378213D01*
X111410287Y-110378210D01*
X111279184Y-110290609D01*
X111279171Y-110290602D01*
X111133500Y-110230264D01*
X111133488Y-110230261D01*
X110978844Y-110199500D01*
X110978841Y-110199500D01*
X110821157Y-110199500D01*
X110821154Y-110199500D01*
X110666509Y-110230261D01*
X110666497Y-110230264D01*
X110520826Y-110290602D01*
X110520813Y-110290609D01*
X110389710Y-110378210D01*
X110389706Y-110378213D01*
X110278212Y-110489707D01*
X110278209Y-110489711D01*
X110190608Y-110620814D01*
X110190601Y-110620827D01*
X110130263Y-110766498D01*
X110130260Y-110766510D01*
X110099499Y-110921153D01*
X106692084Y-110921153D01*
X106698107Y-110890875D01*
X106698107Y-110890874D01*
X106700500Y-110878844D01*
X106700500Y-110721155D01*
X106700499Y-110721153D01*
X106680543Y-110620827D01*
X106669737Y-110566503D01*
X106637929Y-110489711D01*
X106609397Y-110420827D01*
X106609390Y-110420814D01*
X106521789Y-110289711D01*
X106521786Y-110289707D01*
X106410292Y-110178213D01*
X106410288Y-110178210D01*
X106279185Y-110090609D01*
X106279172Y-110090602D01*
X106133501Y-110030264D01*
X106133489Y-110030261D01*
X105978845Y-109999500D01*
X105978842Y-109999500D01*
X105821158Y-109999500D01*
X105821155Y-109999500D01*
X105666510Y-110030261D01*
X105666498Y-110030264D01*
X105520827Y-110090602D01*
X105520814Y-110090609D01*
X105389711Y-110178210D01*
X105389707Y-110178213D01*
X105278213Y-110289707D01*
X105278210Y-110289711D01*
X105190609Y-110420814D01*
X105190602Y-110420827D01*
X105130264Y-110566498D01*
X105130261Y-110566510D01*
X105099500Y-110721153D01*
X102681348Y-110721153D01*
X102709394Y-110679179D01*
X102769737Y-110533497D01*
X102800500Y-110378842D01*
X102800500Y-110221158D01*
X102800500Y-110221155D01*
X102800499Y-110221153D01*
X102774531Y-110090606D01*
X102769737Y-110066503D01*
X102769735Y-110066498D01*
X102709397Y-109920827D01*
X102709390Y-109920814D01*
X102621789Y-109789711D01*
X102621786Y-109789707D01*
X102510292Y-109678213D01*
X102510288Y-109678210D01*
X102379185Y-109590609D01*
X102379172Y-109590602D01*
X102233501Y-109530264D01*
X102233489Y-109530261D01*
X102078845Y-109499500D01*
X102078842Y-109499500D01*
X101921158Y-109499500D01*
X101921155Y-109499500D01*
X101766510Y-109530261D01*
X101766498Y-109530264D01*
X101620827Y-109590602D01*
X101620814Y-109590609D01*
X101489711Y-109678210D01*
X101489707Y-109678213D01*
X101378213Y-109789707D01*
X101378210Y-109789711D01*
X101290609Y-109920814D01*
X101290602Y-109920827D01*
X101230264Y-110066498D01*
X101230261Y-110066510D01*
X101199500Y-110221153D01*
X69466590Y-110221153D01*
X69148023Y-109217431D01*
X69146813Y-109213378D01*
X69143205Y-109200500D01*
X68851299Y-108158675D01*
X68850250Y-108154669D01*
X68720236Y-107621153D01*
X72599500Y-107621153D01*
X72599500Y-107778846D01*
X72630261Y-107933489D01*
X72630264Y-107933501D01*
X72690602Y-108079172D01*
X72690609Y-108079185D01*
X72778210Y-108210288D01*
X72778213Y-108210292D01*
X72889707Y-108321786D01*
X72889711Y-108321789D01*
X73020814Y-108409390D01*
X73020827Y-108409397D01*
X73166498Y-108469735D01*
X73166503Y-108469737D01*
X73321153Y-108500499D01*
X73321156Y-108500500D01*
X73321158Y-108500500D01*
X73478844Y-108500500D01*
X73478845Y-108500499D01*
X73633497Y-108469737D01*
X73779179Y-108409394D01*
X73910289Y-108321789D01*
X73910925Y-108321153D01*
X103499500Y-108321153D01*
X103499500Y-108478846D01*
X103530261Y-108633489D01*
X103530264Y-108633501D01*
X103590602Y-108779172D01*
X103590609Y-108779185D01*
X103678210Y-108910288D01*
X103678213Y-108910292D01*
X103789707Y-109021786D01*
X103789711Y-109021789D01*
X103920814Y-109109390D01*
X103920827Y-109109397D01*
X104066498Y-109169735D01*
X104066503Y-109169737D01*
X104221153Y-109200499D01*
X104221156Y-109200500D01*
X104221158Y-109200500D01*
X104378844Y-109200500D01*
X104378845Y-109200499D01*
X104533497Y-109169737D01*
X104679179Y-109109394D01*
X104810289Y-109021789D01*
X104921789Y-108910289D01*
X105009394Y-108779179D01*
X105069737Y-108633497D01*
X105100500Y-108478842D01*
X105100500Y-108321158D01*
X105100500Y-108321155D01*
X105100499Y-108321153D01*
X105078447Y-108210292D01*
X105069737Y-108166503D01*
X105033569Y-108079185D01*
X105009397Y-108020827D01*
X105009390Y-108020814D01*
X104921789Y-107889711D01*
X104921786Y-107889707D01*
X104810292Y-107778213D01*
X104810288Y-107778210D01*
X104679185Y-107690609D01*
X104679172Y-107690602D01*
X104533501Y-107630264D01*
X104533489Y-107630261D01*
X104378845Y-107599500D01*
X104378842Y-107599500D01*
X104221158Y-107599500D01*
X104221155Y-107599500D01*
X104066510Y-107630261D01*
X104066498Y-107630264D01*
X103920827Y-107690602D01*
X103920814Y-107690609D01*
X103789711Y-107778210D01*
X103789707Y-107778213D01*
X103678213Y-107889707D01*
X103678210Y-107889711D01*
X103590609Y-108020814D01*
X103590602Y-108020827D01*
X103530264Y-108166498D01*
X103530261Y-108166510D01*
X103499500Y-108321153D01*
X73910925Y-108321153D01*
X73921925Y-108310153D01*
X74004694Y-108227385D01*
X74021786Y-108210292D01*
X74021789Y-108210289D01*
X74109394Y-108079179D01*
X74169737Y-107933497D01*
X74200500Y-107778842D01*
X74200500Y-107621158D01*
X74200500Y-107621155D01*
X74200499Y-107621153D01*
X74169738Y-107466510D01*
X74169737Y-107466503D01*
X74169735Y-107466498D01*
X74109397Y-107320827D01*
X74109390Y-107320814D01*
X74021789Y-107189711D01*
X74021786Y-107189707D01*
X73910292Y-107078213D01*
X73910288Y-107078210D01*
X73779185Y-106990609D01*
X73779172Y-106990602D01*
X73633501Y-106930264D01*
X73633489Y-106930261D01*
X73478845Y-106899500D01*
X73478842Y-106899500D01*
X73321158Y-106899500D01*
X73321155Y-106899500D01*
X73166510Y-106930261D01*
X73166498Y-106930264D01*
X73020827Y-106990602D01*
X73020814Y-106990609D01*
X72889711Y-107078210D01*
X72889707Y-107078213D01*
X72778213Y-107189707D01*
X72778210Y-107189711D01*
X72690609Y-107320814D01*
X72690602Y-107320827D01*
X72630264Y-107466498D01*
X72630261Y-107466510D01*
X72599500Y-107621153D01*
X68720236Y-107621153D01*
X68590916Y-107090483D01*
X68590004Y-107086442D01*
X68367160Y-106014062D01*
X68366370Y-106009906D01*
X68315847Y-105716879D01*
X68180268Y-104930539D01*
X68179625Y-104926383D01*
X68166022Y-104827414D01*
X68041460Y-103921153D01*
X68349500Y-103921153D01*
X68349500Y-104078846D01*
X68380261Y-104233489D01*
X68380264Y-104233501D01*
X68440602Y-104379172D01*
X68440609Y-104379185D01*
X68528210Y-104510288D01*
X68528213Y-104510292D01*
X68639707Y-104621786D01*
X68639711Y-104621789D01*
X68770814Y-104709390D01*
X68770827Y-104709397D01*
X68916498Y-104769735D01*
X68916503Y-104769737D01*
X69071153Y-104800499D01*
X69071156Y-104800500D01*
X69071158Y-104800500D01*
X69228844Y-104800500D01*
X69228845Y-104800499D01*
X69383497Y-104769737D01*
X69529179Y-104709394D01*
X69660289Y-104621789D01*
X69771789Y-104510289D01*
X69859394Y-104379179D01*
X69919737Y-104233497D01*
X69950500Y-104078842D01*
X69950500Y-103921158D01*
X69950500Y-103921155D01*
X69950499Y-103921153D01*
X69948572Y-103911465D01*
X69919737Y-103766503D01*
X69904138Y-103728844D01*
X69859397Y-103620827D01*
X69859390Y-103620814D01*
X69771789Y-103489711D01*
X69771786Y-103489707D01*
X69660292Y-103378213D01*
X69660288Y-103378210D01*
X69529185Y-103290609D01*
X69529172Y-103290602D01*
X69383501Y-103230264D01*
X69383489Y-103230261D01*
X69228845Y-103199500D01*
X69228842Y-103199500D01*
X69071158Y-103199500D01*
X69071155Y-103199500D01*
X68916510Y-103230261D01*
X68916498Y-103230264D01*
X68770827Y-103290602D01*
X68770814Y-103290609D01*
X68639711Y-103378210D01*
X68639707Y-103378213D01*
X68528213Y-103489707D01*
X68528210Y-103489711D01*
X68440609Y-103620814D01*
X68440602Y-103620827D01*
X68380264Y-103766498D01*
X68380261Y-103766510D01*
X68349500Y-103921153D01*
X68041460Y-103921153D01*
X68030483Y-103841292D01*
X68029989Y-103837179D01*
X67931616Y-102880263D01*
X67926217Y-102827747D01*
X67925539Y-102821153D01*
X74174500Y-102821153D01*
X74174500Y-102978846D01*
X74205261Y-103133489D01*
X74205264Y-103133501D01*
X74265602Y-103279172D01*
X74265609Y-103279185D01*
X74353210Y-103410288D01*
X74353213Y-103410292D01*
X74464707Y-103521786D01*
X74464711Y-103521789D01*
X74595814Y-103609390D01*
X74595827Y-103609397D01*
X74741498Y-103669735D01*
X74741503Y-103669737D01*
X74896153Y-103700499D01*
X74896156Y-103700500D01*
X74896158Y-103700500D01*
X75053844Y-103700500D01*
X75053845Y-103700499D01*
X75208497Y-103669737D01*
X75326592Y-103620821D01*
X75354172Y-103609397D01*
X75354172Y-103609396D01*
X75354179Y-103609394D01*
X75485289Y-103521789D01*
X75596789Y-103410289D01*
X75684394Y-103279179D01*
X75687854Y-103270827D01*
X75704655Y-103230264D01*
X75744737Y-103133497D01*
X75775500Y-102978842D01*
X75775500Y-102821158D01*
X75775500Y-102821155D01*
X75759209Y-102739258D01*
X75759209Y-102739257D01*
X75755608Y-102721153D01*
X106299500Y-102721153D01*
X106299500Y-102878846D01*
X106330261Y-103033489D01*
X106330264Y-103033501D01*
X106390602Y-103179172D01*
X106390609Y-103179185D01*
X106478210Y-103310288D01*
X106478213Y-103310292D01*
X106589707Y-103421786D01*
X106589711Y-103421789D01*
X106720814Y-103509390D01*
X106720827Y-103509397D01*
X106795039Y-103540136D01*
X106866503Y-103569737D01*
X107021153Y-103600499D01*
X107021156Y-103600500D01*
X107021158Y-103600500D01*
X107178844Y-103600500D01*
X107178845Y-103600499D01*
X107333497Y-103569737D01*
X107479179Y-103509394D01*
X107610289Y-103421789D01*
X107721789Y-103310289D01*
X107809394Y-103179179D01*
X107869737Y-103033497D01*
X107900500Y-102878842D01*
X107900500Y-102721158D01*
X107900500Y-102721155D01*
X107900499Y-102721153D01*
X107898252Y-102709859D01*
X107869737Y-102566503D01*
X107850955Y-102521158D01*
X107809397Y-102420827D01*
X107809390Y-102420814D01*
X107721789Y-102289711D01*
X107721786Y-102289707D01*
X107610292Y-102178213D01*
X107610288Y-102178210D01*
X107479185Y-102090609D01*
X107479172Y-102090602D01*
X107333501Y-102030264D01*
X107333489Y-102030261D01*
X107178845Y-101999500D01*
X107178842Y-101999500D01*
X107021158Y-101999500D01*
X107021155Y-101999500D01*
X106866510Y-102030261D01*
X106866498Y-102030264D01*
X106720827Y-102090602D01*
X106720814Y-102090609D01*
X106589711Y-102178210D01*
X106589707Y-102178213D01*
X106478213Y-102289707D01*
X106478210Y-102289711D01*
X106390609Y-102420814D01*
X106390602Y-102420827D01*
X106330264Y-102566498D01*
X106330261Y-102566510D01*
X106299500Y-102721153D01*
X75755608Y-102721153D01*
X75744738Y-102666510D01*
X75744737Y-102666503D01*
X75684534Y-102521158D01*
X75684397Y-102520827D01*
X75684390Y-102520814D01*
X75596789Y-102389711D01*
X75596786Y-102389707D01*
X75485292Y-102278213D01*
X75485288Y-102278210D01*
X75354185Y-102190609D01*
X75354172Y-102190602D01*
X75208501Y-102130264D01*
X75208489Y-102130261D01*
X75053845Y-102099500D01*
X75053842Y-102099500D01*
X74896158Y-102099500D01*
X74896155Y-102099500D01*
X74741510Y-102130261D01*
X74741498Y-102130264D01*
X74595827Y-102190602D01*
X74595814Y-102190609D01*
X74464711Y-102278210D01*
X74464707Y-102278213D01*
X74353213Y-102389707D01*
X74353210Y-102389711D01*
X74265609Y-102520814D01*
X74265602Y-102520827D01*
X74205264Y-102666498D01*
X74205261Y-102666510D01*
X74174500Y-102821153D01*
X67925539Y-102821153D01*
X67917979Y-102747617D01*
X67917618Y-102743398D01*
X67916097Y-102721155D01*
X67842872Y-101650652D01*
X67842660Y-101646532D01*
X67805265Y-100551849D01*
X67805193Y-100547616D01*
X67805193Y-99920513D01*
X85214500Y-99920513D01*
X85214500Y-100109486D01*
X85244059Y-100296118D01*
X85302454Y-100475836D01*
X85345382Y-100560086D01*
X85388240Y-100644199D01*
X85499310Y-100797073D01*
X85632927Y-100930690D01*
X85785801Y-101041760D01*
X85865347Y-101082290D01*
X85954163Y-101127545D01*
X85954165Y-101127545D01*
X85954168Y-101127547D01*
X86050497Y-101158846D01*
X86133881Y-101185940D01*
X86320514Y-101215500D01*
X86320519Y-101215500D01*
X86509486Y-101215500D01*
X86696118Y-101185940D01*
X86731326Y-101174500D01*
X86875832Y-101127547D01*
X87044199Y-101041760D01*
X87197073Y-100930690D01*
X87330690Y-100797073D01*
X87441760Y-100644199D01*
X87527547Y-100475832D01*
X87585940Y-100296118D01*
X87615500Y-100109486D01*
X87615500Y-99920513D01*
X87585940Y-99733881D01*
X87527545Y-99554163D01*
X87441759Y-99385800D01*
X87330690Y-99232927D01*
X87197073Y-99099310D01*
X87044199Y-98988240D01*
X86875836Y-98902454D01*
X86696118Y-98844059D01*
X86509486Y-98814500D01*
X86509481Y-98814500D01*
X86320519Y-98814500D01*
X86320514Y-98814500D01*
X86133881Y-98844059D01*
X85954163Y-98902454D01*
X85785800Y-98988240D01*
X85698579Y-99051610D01*
X85632927Y-99099310D01*
X85632925Y-99099312D01*
X85632924Y-99099312D01*
X85499312Y-99232924D01*
X85499312Y-99232925D01*
X85499310Y-99232927D01*
X85451610Y-99298579D01*
X85388240Y-99385800D01*
X85302454Y-99554163D01*
X85244059Y-99733881D01*
X85214500Y-99920513D01*
X67805193Y-99920513D01*
X67805193Y-99452383D01*
X67805265Y-99448150D01*
X67812617Y-99232924D01*
X67842660Y-98353464D01*
X67842871Y-98349350D01*
X67917619Y-97256577D01*
X67917979Y-97252382D01*
X67924330Y-97190609D01*
X68029987Y-96162843D01*
X68030490Y-96158659D01*
X68068526Y-95881924D01*
X68097154Y-95818192D01*
X68155697Y-95780053D01*
X68225565Y-95779619D01*
X68279051Y-95811130D01*
X68339707Y-95871786D01*
X68339711Y-95871789D01*
X68470814Y-95959390D01*
X68470827Y-95959397D01*
X68616498Y-96019735D01*
X68616503Y-96019737D01*
X68771153Y-96050499D01*
X68771156Y-96050500D01*
X68771158Y-96050500D01*
X68928844Y-96050500D01*
X68928845Y-96050499D01*
X69083497Y-96019737D01*
X69229179Y-95959394D01*
X69360289Y-95871789D01*
X69471789Y-95760289D01*
X69559394Y-95629179D01*
X69619737Y-95483497D01*
X69650500Y-95328842D01*
X69650500Y-95171158D01*
X69650500Y-95171155D01*
X69650499Y-95171153D01*
X69619737Y-95016503D01*
X69619735Y-95016498D01*
X69559397Y-94870827D01*
X69559390Y-94870814D01*
X69471789Y-94739711D01*
X69471786Y-94739707D01*
X69360292Y-94628213D01*
X69360288Y-94628210D01*
X69229185Y-94540609D01*
X69229172Y-94540602D01*
X69083501Y-94480264D01*
X69083489Y-94480261D01*
X68928845Y-94449500D01*
X68928842Y-94449500D01*
X68771158Y-94449500D01*
X68771155Y-94449500D01*
X68616510Y-94480261D01*
X68616498Y-94480264D01*
X68465192Y-94542937D01*
X68464236Y-94540631D01*
X68406519Y-94552624D01*
X68341286Y-94527597D01*
X68299938Y-94471276D01*
X68294322Y-94407959D01*
X68366370Y-93990094D01*
X68367161Y-93985934D01*
X68367161Y-93985933D01*
X68567645Y-93021153D01*
X70199500Y-93021153D01*
X70199500Y-93178846D01*
X70230261Y-93333489D01*
X70230264Y-93333501D01*
X70290602Y-93479172D01*
X70290609Y-93479185D01*
X70378210Y-93610288D01*
X70378213Y-93610292D01*
X70489707Y-93721786D01*
X70489711Y-93721789D01*
X70620814Y-93809390D01*
X70620827Y-93809397D01*
X70766498Y-93869735D01*
X70766503Y-93869737D01*
X70921153Y-93900499D01*
X70921156Y-93900500D01*
X70921158Y-93900500D01*
X71078844Y-93900500D01*
X71078845Y-93900499D01*
X71233497Y-93869737D01*
X71379179Y-93809394D01*
X71510289Y-93721789D01*
X71621789Y-93610289D01*
X71709394Y-93479179D01*
X71769737Y-93333497D01*
X71800500Y-93178842D01*
X71800500Y-93021158D01*
X71800500Y-93021155D01*
X71800499Y-93021153D01*
X71780609Y-92921159D01*
X71769737Y-92866503D01*
X71769735Y-92866498D01*
X71709397Y-92720827D01*
X71709390Y-92720814D01*
X71621790Y-92589712D01*
X71621784Y-92589705D01*
X71553232Y-92521153D01*
X72499500Y-92521153D01*
X72499500Y-92678846D01*
X72530261Y-92833489D01*
X72530264Y-92833501D01*
X72590602Y-92979172D01*
X72590609Y-92979185D01*
X72678210Y-93110288D01*
X72678213Y-93110292D01*
X72789707Y-93221786D01*
X72789711Y-93221789D01*
X72920814Y-93309390D01*
X72920827Y-93309397D01*
X73066498Y-93369735D01*
X73066503Y-93369737D01*
X73221153Y-93400499D01*
X73221156Y-93400500D01*
X73221158Y-93400500D01*
X73378844Y-93400500D01*
X73378845Y-93400499D01*
X73533497Y-93369737D01*
X73679179Y-93309394D01*
X73810289Y-93221789D01*
X73921789Y-93110289D01*
X74009394Y-92979179D01*
X74069737Y-92833497D01*
X74100500Y-92678842D01*
X74100500Y-92521158D01*
X74100500Y-92521155D01*
X74100499Y-92521153D01*
X74074531Y-92390606D01*
X74069737Y-92366503D01*
X74055412Y-92331918D01*
X74009397Y-92220827D01*
X74009390Y-92220814D01*
X73921789Y-92089711D01*
X73921786Y-92089707D01*
X73810292Y-91978213D01*
X73810288Y-91978210D01*
X73679185Y-91890609D01*
X73679172Y-91890602D01*
X73533501Y-91830264D01*
X73533489Y-91830261D01*
X73378845Y-91799500D01*
X73378842Y-91799500D01*
X73221158Y-91799500D01*
X73221155Y-91799500D01*
X73066510Y-91830261D01*
X73066498Y-91830264D01*
X72920827Y-91890602D01*
X72920814Y-91890609D01*
X72789711Y-91978210D01*
X72789707Y-91978213D01*
X72678213Y-92089707D01*
X72678210Y-92089711D01*
X72590609Y-92220814D01*
X72590602Y-92220827D01*
X72530264Y-92366498D01*
X72530261Y-92366510D01*
X72499500Y-92521153D01*
X71553232Y-92521153D01*
X71510292Y-92478213D01*
X71510288Y-92478210D01*
X71379185Y-92390609D01*
X71379172Y-92390602D01*
X71233501Y-92330264D01*
X71233489Y-92330261D01*
X71078845Y-92299500D01*
X71078842Y-92299500D01*
X70921158Y-92299500D01*
X70921155Y-92299500D01*
X70766510Y-92330261D01*
X70766498Y-92330264D01*
X70620827Y-92390602D01*
X70620814Y-92390609D01*
X70489711Y-92478210D01*
X70489707Y-92478213D01*
X70378213Y-92589707D01*
X70378210Y-92589711D01*
X70290609Y-92720814D01*
X70290602Y-92720827D01*
X70230264Y-92866498D01*
X70230261Y-92866510D01*
X70199500Y-93021153D01*
X68567645Y-93021153D01*
X68590006Y-92913545D01*
X68590913Y-92909529D01*
X68850254Y-91845315D01*
X68851295Y-91841338D01*
X69081100Y-91021153D01*
X69699500Y-91021153D01*
X69699500Y-91178846D01*
X69730261Y-91333489D01*
X69730264Y-91333501D01*
X69790602Y-91479172D01*
X69790609Y-91479185D01*
X69878210Y-91610288D01*
X69878213Y-91610292D01*
X69989707Y-91721786D01*
X69989711Y-91721789D01*
X70120814Y-91809390D01*
X70120827Y-91809397D01*
X70202685Y-91843303D01*
X70266503Y-91869737D01*
X70421153Y-91900499D01*
X70421156Y-91900500D01*
X70421158Y-91900500D01*
X70578844Y-91900500D01*
X70578845Y-91900499D01*
X70733497Y-91869737D01*
X70879179Y-91809394D01*
X71010289Y-91721789D01*
X71121789Y-91610289D01*
X71209394Y-91479179D01*
X71269737Y-91333497D01*
X71300500Y-91178842D01*
X71300500Y-91021158D01*
X71300500Y-91021155D01*
X71300499Y-91021153D01*
X71269737Y-90866503D01*
X71234969Y-90782564D01*
X71209397Y-90720827D01*
X71209390Y-90720814D01*
X71121789Y-90589711D01*
X71121786Y-90589707D01*
X71010292Y-90478213D01*
X71010288Y-90478210D01*
X70879185Y-90390609D01*
X70879172Y-90390602D01*
X70733501Y-90330264D01*
X70733489Y-90330261D01*
X70578845Y-90299500D01*
X70578842Y-90299500D01*
X70421158Y-90299500D01*
X70421155Y-90299500D01*
X70266510Y-90330261D01*
X70266498Y-90330264D01*
X70120827Y-90390602D01*
X70120814Y-90390609D01*
X69989711Y-90478210D01*
X69989707Y-90478213D01*
X69878213Y-90589707D01*
X69878210Y-90589711D01*
X69790609Y-90720814D01*
X69790602Y-90720827D01*
X69730264Y-90866498D01*
X69730261Y-90866510D01*
X69699500Y-91021153D01*
X69081100Y-91021153D01*
X69146819Y-90786600D01*
X69148025Y-90782564D01*
X69479368Y-89738588D01*
X69480695Y-89734642D01*
X69847494Y-88702570D01*
X69848934Y-88698726D01*
X70135852Y-87971153D01*
X77899500Y-87971153D01*
X77899500Y-88128846D01*
X77930261Y-88283489D01*
X77930264Y-88283501D01*
X77990602Y-88429172D01*
X77990609Y-88429185D01*
X78078210Y-88560288D01*
X78078213Y-88560292D01*
X78189707Y-88671786D01*
X78189711Y-88671789D01*
X78320814Y-88759390D01*
X78320827Y-88759397D01*
X78466498Y-88819735D01*
X78466503Y-88819737D01*
X78621153Y-88850499D01*
X78621156Y-88850500D01*
X78621158Y-88850500D01*
X78778844Y-88850500D01*
X78778845Y-88850499D01*
X78933497Y-88819737D01*
X79079179Y-88759394D01*
X79210289Y-88671789D01*
X79321789Y-88560289D01*
X79409394Y-88429179D01*
X79456730Y-88314898D01*
X89879752Y-88314898D01*
X89879752Y-88472591D01*
X89910513Y-88627234D01*
X89910516Y-88627246D01*
X89970854Y-88772917D01*
X89970861Y-88772930D01*
X90058462Y-88904033D01*
X90058465Y-88904037D01*
X90169959Y-89015531D01*
X90169963Y-89015534D01*
X90301066Y-89103135D01*
X90301079Y-89103142D01*
X90446750Y-89163480D01*
X90446755Y-89163482D01*
X90601405Y-89194244D01*
X90601408Y-89194245D01*
X90601410Y-89194245D01*
X90759096Y-89194245D01*
X90759097Y-89194244D01*
X90913749Y-89163482D01*
X90931841Y-89155987D01*
X91001308Y-89148519D01*
X91048183Y-89167446D01*
X91120821Y-89215981D01*
X91266503Y-89276324D01*
X91421153Y-89307086D01*
X91421156Y-89307087D01*
X91421158Y-89307087D01*
X91578844Y-89307087D01*
X91684286Y-89286113D01*
X91753878Y-89292340D01*
X91787763Y-89314546D01*
X91788687Y-89313421D01*
X91793397Y-89317286D01*
X91924500Y-89404887D01*
X91924513Y-89404894D01*
X92070184Y-89465232D01*
X92070189Y-89465234D01*
X92224839Y-89495996D01*
X92224842Y-89495997D01*
X92224844Y-89495997D01*
X92382530Y-89495997D01*
X92382531Y-89495996D01*
X92537183Y-89465234D01*
X92682865Y-89404891D01*
X92813975Y-89317286D01*
X92925475Y-89205786D01*
X93013080Y-89074676D01*
X93073423Y-88928994D01*
X93104186Y-88774339D01*
X93104186Y-88616655D01*
X93104186Y-88616652D01*
X93104185Y-88616650D01*
X93073423Y-88462000D01*
X93059825Y-88429172D01*
X93013083Y-88316324D01*
X93013076Y-88316311D01*
X92925475Y-88185208D01*
X92925472Y-88185204D01*
X92813978Y-88073710D01*
X92813974Y-88073707D01*
X92682871Y-87986106D01*
X92682858Y-87986099D01*
X92537187Y-87925761D01*
X92537175Y-87925758D01*
X92382531Y-87894997D01*
X92382528Y-87894997D01*
X92224844Y-87894997D01*
X92224842Y-87894997D01*
X92119400Y-87915971D01*
X92049808Y-87909744D01*
X92015922Y-87887537D01*
X92014999Y-87888663D01*
X92010288Y-87884797D01*
X91879185Y-87797196D01*
X91879172Y-87797189D01*
X91733501Y-87736851D01*
X91733489Y-87736848D01*
X91578845Y-87706087D01*
X91578842Y-87706087D01*
X91421158Y-87706087D01*
X91421155Y-87706087D01*
X91266505Y-87736848D01*
X91266502Y-87736849D01*
X91248406Y-87744345D01*
X91178936Y-87751811D01*
X91132066Y-87732884D01*
X91059436Y-87684354D01*
X91059433Y-87684352D01*
X91059431Y-87684351D01*
X91059428Y-87684349D01*
X91059423Y-87684347D01*
X90913753Y-87624009D01*
X90913741Y-87624006D01*
X90759097Y-87593245D01*
X90759094Y-87593245D01*
X90601410Y-87593245D01*
X90601407Y-87593245D01*
X90446762Y-87624006D01*
X90446750Y-87624009D01*
X90301079Y-87684347D01*
X90301066Y-87684354D01*
X90169963Y-87771955D01*
X90169959Y-87771958D01*
X90058465Y-87883452D01*
X90058462Y-87883456D01*
X89970861Y-88014559D01*
X89970854Y-88014572D01*
X89910516Y-88160243D01*
X89910513Y-88160255D01*
X89879752Y-88314898D01*
X79456730Y-88314898D01*
X79469737Y-88283497D01*
X79480563Y-88229072D01*
X79512947Y-88167161D01*
X79573663Y-88132587D01*
X79626372Y-88131646D01*
X79721155Y-88150500D01*
X79721158Y-88150500D01*
X79878844Y-88150500D01*
X79878845Y-88150499D01*
X80033497Y-88119737D01*
X80179179Y-88059394D01*
X80310289Y-87971789D01*
X80421789Y-87860289D01*
X80509394Y-87729179D01*
X80569737Y-87583497D01*
X80591254Y-87475325D01*
X80600500Y-87428845D01*
X80600500Y-87271155D01*
X80600499Y-87271153D01*
X80580220Y-87169205D01*
X80569737Y-87116503D01*
X80556062Y-87083489D01*
X80509397Y-86970827D01*
X80509390Y-86970814D01*
X80421789Y-86839711D01*
X80421786Y-86839707D01*
X80310292Y-86728213D01*
X80310288Y-86728210D01*
X80179185Y-86640609D01*
X80179172Y-86640602D01*
X80033501Y-86580264D01*
X80033489Y-86580261D01*
X79878845Y-86549500D01*
X79878842Y-86549500D01*
X79721158Y-86549500D01*
X79721155Y-86549500D01*
X79566510Y-86580261D01*
X79566498Y-86580264D01*
X79420827Y-86640602D01*
X79420814Y-86640609D01*
X79289711Y-86728210D01*
X79289707Y-86728213D01*
X79178213Y-86839707D01*
X79178210Y-86839711D01*
X79090609Y-86970814D01*
X79090602Y-86970827D01*
X79030264Y-87116498D01*
X79030261Y-87116507D01*
X79019436Y-87170929D01*
X78987050Y-87232840D01*
X78926334Y-87267413D01*
X78873628Y-87268353D01*
X78778846Y-87249500D01*
X78778842Y-87249500D01*
X78621158Y-87249500D01*
X78621155Y-87249500D01*
X78466510Y-87280261D01*
X78466498Y-87280264D01*
X78320827Y-87340602D01*
X78320814Y-87340609D01*
X78189711Y-87428210D01*
X78189707Y-87428213D01*
X78078213Y-87539707D01*
X78078210Y-87539711D01*
X77990609Y-87670814D01*
X77990602Y-87670827D01*
X77930264Y-87816498D01*
X77930261Y-87816510D01*
X77899500Y-87971153D01*
X70135852Y-87971153D01*
X70196840Y-87816498D01*
X70250771Y-87679739D01*
X70252391Y-87675827D01*
X70254566Y-87670821D01*
X70688740Y-86671250D01*
X70690489Y-86667407D01*
X70712484Y-86621158D01*
X70876162Y-86276992D01*
X89674501Y-86276992D01*
X89674501Y-86434685D01*
X89705262Y-86589328D01*
X89705265Y-86589340D01*
X89765603Y-86735011D01*
X89765610Y-86735024D01*
X89853211Y-86866127D01*
X89853214Y-86866131D01*
X89964708Y-86977625D01*
X89964712Y-86977628D01*
X90095815Y-87065229D01*
X90095828Y-87065236D01*
X90241499Y-87125574D01*
X90241504Y-87125576D01*
X90396154Y-87156338D01*
X90396157Y-87156339D01*
X90396159Y-87156339D01*
X90553845Y-87156339D01*
X90553846Y-87156338D01*
X90708498Y-87125576D01*
X90854180Y-87065233D01*
X90985290Y-86977628D01*
X91096790Y-86866128D01*
X91120374Y-86830831D01*
X91173986Y-86786026D01*
X91243311Y-86777317D01*
X91306338Y-86807471D01*
X91338038Y-86852269D01*
X91390602Y-86979172D01*
X91390609Y-86979185D01*
X91478210Y-87110288D01*
X91478213Y-87110292D01*
X91589707Y-87221786D01*
X91589711Y-87221789D01*
X91720814Y-87309390D01*
X91720827Y-87309397D01*
X91866498Y-87369735D01*
X91866503Y-87369737D01*
X92021153Y-87400499D01*
X92021156Y-87400500D01*
X92021158Y-87400500D01*
X92178844Y-87400500D01*
X92178845Y-87400499D01*
X92333497Y-87369737D01*
X92449262Y-87321786D01*
X92479172Y-87309397D01*
X92479172Y-87309396D01*
X92479179Y-87309394D01*
X92610289Y-87221789D01*
X92721789Y-87110289D01*
X92809394Y-86979179D01*
X92810037Y-86977628D01*
X92853712Y-86872184D01*
X92869737Y-86833497D01*
X92882138Y-86771153D01*
X93276860Y-86771153D01*
X93276860Y-86928846D01*
X93307621Y-87083489D01*
X93307624Y-87083501D01*
X93367962Y-87229172D01*
X93367969Y-87229185D01*
X93455570Y-87360288D01*
X93455573Y-87360292D01*
X93567067Y-87471786D01*
X93567071Y-87471789D01*
X93698174Y-87559390D01*
X93698187Y-87559397D01*
X93779905Y-87593245D01*
X93843863Y-87619737D01*
X93998513Y-87650499D01*
X93998516Y-87650500D01*
X93998518Y-87650500D01*
X94156204Y-87650500D01*
X94156205Y-87650499D01*
X94310857Y-87619737D01*
X94456539Y-87559394D01*
X94587649Y-87471789D01*
X94699149Y-87360289D01*
X94727652Y-87317632D01*
X95124499Y-87317632D01*
X95124499Y-87475325D01*
X95155260Y-87629968D01*
X95155263Y-87629980D01*
X95215601Y-87775651D01*
X95215608Y-87775664D01*
X95303209Y-87906767D01*
X95303212Y-87906771D01*
X95414706Y-88018265D01*
X95414710Y-88018268D01*
X95545813Y-88105869D01*
X95545826Y-88105876D01*
X95691497Y-88166214D01*
X95691502Y-88166216D01*
X95786981Y-88185208D01*
X95846152Y-88196978D01*
X95846155Y-88196979D01*
X95846157Y-88196979D01*
X96003843Y-88196979D01*
X96003844Y-88196978D01*
X96158496Y-88166216D01*
X96304178Y-88105873D01*
X96435288Y-88018268D01*
X96546788Y-87906768D01*
X96634393Y-87775658D01*
X96694736Y-87629976D01*
X96698622Y-87610438D01*
X104849500Y-87610438D01*
X104849500Y-100710438D01*
X104849500Y-100789562D01*
X104863152Y-100840513D01*
X104869979Y-100865990D01*
X104869982Y-100865995D01*
X104909535Y-100934504D01*
X104909539Y-100934509D01*
X104909540Y-100934511D01*
X104965489Y-100990460D01*
X104965491Y-100990461D01*
X104965495Y-100990464D01*
X105034004Y-101030017D01*
X105034011Y-101030021D01*
X105110438Y-101050500D01*
X114275500Y-101050500D01*
X114342539Y-101070185D01*
X114388294Y-101122989D01*
X114399500Y-101174500D01*
X114399500Y-111292297D01*
X114379815Y-111359336D01*
X114327011Y-111405091D01*
X114257853Y-111415035D01*
X114251309Y-111413914D01*
X114178845Y-111399500D01*
X114178841Y-111399500D01*
X114021157Y-111399500D01*
X114021154Y-111399500D01*
X113866509Y-111430261D01*
X113866497Y-111430264D01*
X113720826Y-111490602D01*
X113720813Y-111490609D01*
X113589710Y-111578210D01*
X113589706Y-111578213D01*
X113478212Y-111689707D01*
X113478209Y-111689711D01*
X113390608Y-111820814D01*
X113390601Y-111820827D01*
X113330263Y-111966498D01*
X113330260Y-111966510D01*
X113299499Y-112121153D01*
X113299499Y-112278846D01*
X113330260Y-112433489D01*
X113330263Y-112433501D01*
X113390601Y-112579172D01*
X113390608Y-112579185D01*
X113478209Y-112710288D01*
X113478212Y-112710292D01*
X113589706Y-112821786D01*
X113589710Y-112821789D01*
X113720813Y-112909390D01*
X113720826Y-112909397D01*
X113800557Y-112942422D01*
X113866502Y-112969737D01*
X114016130Y-112999500D01*
X114021152Y-113000499D01*
X114021155Y-113000500D01*
X114021157Y-113000500D01*
X114178842Y-113000500D01*
X114198919Y-112996506D01*
X114251308Y-112986085D01*
X114320899Y-112992312D01*
X114376077Y-113035174D01*
X114399322Y-113101064D01*
X114399500Y-113107702D01*
X114399500Y-116910438D01*
X114399500Y-116989562D01*
X114407874Y-117020814D01*
X114419979Y-117065990D01*
X114419982Y-117065995D01*
X114459535Y-117134504D01*
X114459539Y-117134509D01*
X114459540Y-117134511D01*
X114515489Y-117190460D01*
X114515491Y-117190461D01*
X114515495Y-117190464D01*
X114582540Y-117229172D01*
X114584011Y-117230021D01*
X114660438Y-117250500D01*
X114660440Y-117250500D01*
X121189560Y-117250500D01*
X121189562Y-117250500D01*
X121265989Y-117230021D01*
X121334511Y-117190460D01*
X121390460Y-117134511D01*
X121430021Y-117065989D01*
X121450500Y-116989562D01*
X121450500Y-116771153D01*
X124699500Y-116771153D01*
X124699500Y-116928846D01*
X124730261Y-117083489D01*
X124730264Y-117083501D01*
X124790602Y-117229172D01*
X124790609Y-117229185D01*
X124878210Y-117360288D01*
X124878213Y-117360292D01*
X124989707Y-117471786D01*
X124989711Y-117471789D01*
X125120814Y-117559390D01*
X125120827Y-117559397D01*
X125194013Y-117589711D01*
X125266503Y-117619737D01*
X125421153Y-117650499D01*
X125421156Y-117650500D01*
X125421158Y-117650500D01*
X125578844Y-117650500D01*
X125578845Y-117650499D01*
X125733497Y-117619737D01*
X125846166Y-117573067D01*
X125879172Y-117559397D01*
X125879172Y-117559396D01*
X125879179Y-117559394D01*
X126010289Y-117471789D01*
X126121789Y-117360289D01*
X126209394Y-117229179D01*
X126212719Y-117221153D01*
X126240861Y-117153210D01*
X126269737Y-117083497D01*
X126300500Y-116928842D01*
X126300500Y-116771158D01*
X126300500Y-116771155D01*
X126300499Y-116771153D01*
X126286445Y-116700499D01*
X126269737Y-116616503D01*
X126262694Y-116599500D01*
X126209397Y-116470827D01*
X126209390Y-116470814D01*
X126121789Y-116339711D01*
X126121786Y-116339707D01*
X126010292Y-116228213D01*
X126010288Y-116228210D01*
X125879185Y-116140609D01*
X125879172Y-116140602D01*
X125733501Y-116080264D01*
X125733489Y-116080261D01*
X125578845Y-116049500D01*
X125578842Y-116049500D01*
X125421158Y-116049500D01*
X125421155Y-116049500D01*
X125266510Y-116080261D01*
X125266498Y-116080264D01*
X125120827Y-116140602D01*
X125120814Y-116140609D01*
X124989711Y-116228210D01*
X124989707Y-116228213D01*
X124878213Y-116339707D01*
X124878210Y-116339711D01*
X124790609Y-116470814D01*
X124790602Y-116470827D01*
X124730264Y-116616498D01*
X124730261Y-116616510D01*
X124699500Y-116771153D01*
X121450500Y-116771153D01*
X121450500Y-115121153D01*
X126149500Y-115121153D01*
X126149500Y-115278846D01*
X126180261Y-115433489D01*
X126180264Y-115433501D01*
X126240602Y-115579172D01*
X126240609Y-115579185D01*
X126328210Y-115710288D01*
X126328213Y-115710292D01*
X126439707Y-115821786D01*
X126439711Y-115821789D01*
X126570814Y-115909390D01*
X126570827Y-115909397D01*
X126669908Y-115950437D01*
X126716503Y-115969737D01*
X126871153Y-116000499D01*
X126871156Y-116000500D01*
X126871158Y-116000500D01*
X127028844Y-116000500D01*
X127028845Y-116000499D01*
X127183497Y-115969737D01*
X127329179Y-115909394D01*
X127460289Y-115821789D01*
X127571789Y-115710289D01*
X127659394Y-115579179D01*
X127719737Y-115433497D01*
X127750500Y-115278842D01*
X127750500Y-115121158D01*
X127750500Y-115121155D01*
X127750499Y-115121153D01*
X127744134Y-115089156D01*
X127719737Y-114966503D01*
X127700955Y-114921158D01*
X127659397Y-114820827D01*
X127659390Y-114820814D01*
X127571789Y-114689711D01*
X127571786Y-114689707D01*
X127460292Y-114578213D01*
X127460288Y-114578210D01*
X127329185Y-114490609D01*
X127329172Y-114490602D01*
X127183501Y-114430264D01*
X127183489Y-114430261D01*
X127028845Y-114399500D01*
X127028842Y-114399500D01*
X126871158Y-114399500D01*
X126871155Y-114399500D01*
X126716510Y-114430261D01*
X126716498Y-114430264D01*
X126570827Y-114490602D01*
X126570814Y-114490609D01*
X126439711Y-114578210D01*
X126439707Y-114578213D01*
X126328213Y-114689707D01*
X126328210Y-114689711D01*
X126240609Y-114820814D01*
X126240602Y-114820827D01*
X126180264Y-114966498D01*
X126180261Y-114966510D01*
X126149500Y-115121153D01*
X121450500Y-115121153D01*
X121450500Y-114310872D01*
X121470185Y-114243833D01*
X121522989Y-114198078D01*
X121592147Y-114188134D01*
X121640391Y-114206623D01*
X121640446Y-114206521D01*
X121641258Y-114206955D01*
X121643398Y-114207775D01*
X121644611Y-114208586D01*
X121645819Y-114209393D01*
X121645827Y-114209397D01*
X121791498Y-114269735D01*
X121791503Y-114269737D01*
X121941131Y-114299500D01*
X121946153Y-114300499D01*
X121946156Y-114300500D01*
X121946158Y-114300500D01*
X122103844Y-114300500D01*
X122103845Y-114300499D01*
X122258497Y-114269737D01*
X122404179Y-114209394D01*
X122535289Y-114121789D01*
X122646789Y-114010289D01*
X122734394Y-113879179D01*
X122794737Y-113733497D01*
X122825500Y-113578842D01*
X122825500Y-113421158D01*
X122823819Y-113412707D01*
X122830045Y-113343116D01*
X122872907Y-113287938D01*
X122921245Y-113266897D01*
X122940084Y-113263150D01*
X123085766Y-113202807D01*
X123216876Y-113115202D01*
X123328376Y-113003702D01*
X123415981Y-112872592D01*
X123476324Y-112726910D01*
X123507087Y-112572255D01*
X123507087Y-112414571D01*
X123507087Y-112414568D01*
X123507086Y-112414566D01*
X123489909Y-112328211D01*
X123476324Y-112259916D01*
X123468324Y-112240602D01*
X123415984Y-112114240D01*
X123415977Y-112114227D01*
X123328376Y-111983124D01*
X123328373Y-111983120D01*
X123230337Y-111885084D01*
X123196852Y-111823761D01*
X123201836Y-111754069D01*
X123243708Y-111698136D01*
X123293827Y-111675786D01*
X123334447Y-111667705D01*
X123386600Y-111657332D01*
X123522364Y-111601097D01*
X123644548Y-111519456D01*
X123748456Y-111415548D01*
X123830097Y-111293364D01*
X123886332Y-111157600D01*
X123915000Y-111013475D01*
X123915000Y-110866525D01*
X123914999Y-110866520D01*
X124455000Y-110866520D01*
X124455000Y-111013479D01*
X124483666Y-111157592D01*
X124483669Y-111157604D01*
X124539899Y-111293357D01*
X124539906Y-111293370D01*
X124621543Y-111415547D01*
X124621546Y-111415551D01*
X124725448Y-111519453D01*
X124725452Y-111519456D01*
X124847629Y-111601093D01*
X124847642Y-111601100D01*
X124983395Y-111657330D01*
X124983400Y-111657332D01*
X125127520Y-111685999D01*
X125127524Y-111686000D01*
X125127525Y-111686000D01*
X125274476Y-111686000D01*
X125274477Y-111685999D01*
X125418600Y-111657332D01*
X125554364Y-111601097D01*
X125676548Y-111519456D01*
X125780456Y-111415548D01*
X125862097Y-111293364D01*
X125918332Y-111157600D01*
X125947000Y-111013475D01*
X125947000Y-110866525D01*
X125918332Y-110722400D01*
X125917816Y-110721155D01*
X125862100Y-110586642D01*
X125862093Y-110586629D01*
X125780456Y-110464452D01*
X125780453Y-110464448D01*
X125676551Y-110360546D01*
X125676547Y-110360543D01*
X125554370Y-110278906D01*
X125554357Y-110278899D01*
X125418604Y-110222669D01*
X125418592Y-110222666D01*
X125274479Y-110194000D01*
X125274475Y-110194000D01*
X125127525Y-110194000D01*
X125127520Y-110194000D01*
X124983407Y-110222666D01*
X124983395Y-110222669D01*
X124847642Y-110278899D01*
X124847629Y-110278906D01*
X124725452Y-110360543D01*
X124725448Y-110360546D01*
X124621546Y-110464448D01*
X124621543Y-110464452D01*
X124539906Y-110586629D01*
X124539899Y-110586642D01*
X124483669Y-110722395D01*
X124483666Y-110722407D01*
X124455000Y-110866520D01*
X123914999Y-110866520D01*
X123886332Y-110722400D01*
X123885816Y-110721155D01*
X123830100Y-110586642D01*
X123830093Y-110586629D01*
X123748456Y-110464452D01*
X123748453Y-110464448D01*
X123644551Y-110360546D01*
X123644547Y-110360543D01*
X123522370Y-110278906D01*
X123522357Y-110278899D01*
X123386604Y-110222669D01*
X123386592Y-110222666D01*
X123242479Y-110194000D01*
X123242475Y-110194000D01*
X123095525Y-110194000D01*
X123095520Y-110194000D01*
X122951407Y-110222666D01*
X122951395Y-110222669D01*
X122815642Y-110278899D01*
X122815629Y-110278906D01*
X122693452Y-110360543D01*
X122693448Y-110360546D01*
X122589546Y-110464448D01*
X122589543Y-110464452D01*
X122507906Y-110586629D01*
X122507899Y-110586642D01*
X122451669Y-110722395D01*
X122451666Y-110722407D01*
X122423000Y-110866520D01*
X122423000Y-111013479D01*
X122451666Y-111157592D01*
X122451669Y-111157604D01*
X122507899Y-111293357D01*
X122507906Y-111293370D01*
X122589543Y-111415547D01*
X122589546Y-111415551D01*
X122663188Y-111489193D01*
X122696673Y-111550516D01*
X122691689Y-111620208D01*
X122649817Y-111676141D01*
X122599699Y-111698491D01*
X122473095Y-111723674D01*
X122473085Y-111723677D01*
X122327414Y-111784015D01*
X122327401Y-111784022D01*
X122196298Y-111871623D01*
X122196294Y-111871626D01*
X122084800Y-111983120D01*
X122084797Y-111983124D01*
X121997196Y-112114227D01*
X121997189Y-112114240D01*
X121936851Y-112259911D01*
X121936848Y-112259923D01*
X121906087Y-112414566D01*
X121906087Y-112414571D01*
X121906087Y-112572255D01*
X121906088Y-112572259D01*
X121907769Y-112580713D01*
X121901538Y-112650304D01*
X121858672Y-112705479D01*
X121832000Y-112720110D01*
X121821462Y-112724303D01*
X121791503Y-112730263D01*
X121645821Y-112790606D01*
X121632511Y-112799499D01*
X121620350Y-112804339D01*
X121598067Y-112806420D01*
X121576713Y-112813107D01*
X121563956Y-112809607D01*
X121550783Y-112810838D01*
X121530911Y-112800541D01*
X121509333Y-112794622D01*
X121500492Y-112784780D01*
X121488746Y-112778694D01*
X121477597Y-112759292D01*
X121462643Y-112742644D01*
X121459126Y-112727147D01*
X121453936Y-112718114D01*
X121454500Y-112706757D01*
X121450500Y-112689127D01*
X121450500Y-108671153D01*
X121799500Y-108671153D01*
X121799500Y-108828846D01*
X121830261Y-108983489D01*
X121830264Y-108983501D01*
X121890602Y-109129172D01*
X121890609Y-109129185D01*
X121978210Y-109260288D01*
X121978213Y-109260292D01*
X122089707Y-109371786D01*
X122089711Y-109371789D01*
X122220814Y-109459390D01*
X122220827Y-109459397D01*
X122317646Y-109499500D01*
X122366503Y-109519737D01*
X122521153Y-109550499D01*
X122521156Y-109550500D01*
X122521158Y-109550500D01*
X122678844Y-109550500D01*
X122678845Y-109550499D01*
X122833497Y-109519737D01*
X122979179Y-109459394D01*
X123110289Y-109371789D01*
X123221789Y-109260289D01*
X123309394Y-109129179D01*
X123369737Y-108983497D01*
X123400500Y-108828842D01*
X123400500Y-108671158D01*
X123400500Y-108671155D01*
X123400499Y-108671153D01*
X123369737Y-108516503D01*
X123369735Y-108516498D01*
X123309397Y-108370827D01*
X123309390Y-108370814D01*
X123221789Y-108239711D01*
X123221786Y-108239707D01*
X123110292Y-108128213D01*
X123110288Y-108128210D01*
X122979185Y-108040609D01*
X122979172Y-108040602D01*
X122833501Y-107980264D01*
X122833489Y-107980261D01*
X122678845Y-107949500D01*
X122678842Y-107949500D01*
X122521158Y-107949500D01*
X122521155Y-107949500D01*
X122366510Y-107980261D01*
X122366498Y-107980264D01*
X122220827Y-108040602D01*
X122220814Y-108040609D01*
X122089711Y-108128210D01*
X122089707Y-108128213D01*
X121978213Y-108239707D01*
X121978210Y-108239711D01*
X121890609Y-108370814D01*
X121890602Y-108370827D01*
X121830264Y-108516498D01*
X121830261Y-108516510D01*
X121799500Y-108671153D01*
X121450500Y-108671153D01*
X121450500Y-105786520D01*
X123439000Y-105786520D01*
X123439000Y-105933479D01*
X123467666Y-106077592D01*
X123467669Y-106077604D01*
X123523899Y-106213357D01*
X123523906Y-106213370D01*
X123605543Y-106335547D01*
X123605546Y-106335551D01*
X123709448Y-106439453D01*
X123709452Y-106439456D01*
X123831629Y-106521093D01*
X123831642Y-106521100D01*
X123967395Y-106577330D01*
X123967400Y-106577332D01*
X124111520Y-106605999D01*
X124111524Y-106606000D01*
X124111525Y-106606000D01*
X124258476Y-106606000D01*
X124258477Y-106605999D01*
X124402600Y-106577332D01*
X124538364Y-106521097D01*
X124660548Y-106439456D01*
X124764456Y-106335548D01*
X124846097Y-106213364D01*
X124902332Y-106077600D01*
X124931000Y-105933475D01*
X124931000Y-105786525D01*
X124902332Y-105642400D01*
X124878871Y-105585759D01*
X124846100Y-105506642D01*
X124846093Y-105506629D01*
X124764456Y-105384452D01*
X124764453Y-105384448D01*
X124660551Y-105280546D01*
X124660547Y-105280543D01*
X124577055Y-105224755D01*
X124538370Y-105198906D01*
X124538357Y-105198899D01*
X124402604Y-105142669D01*
X124402592Y-105142666D01*
X124327554Y-105127740D01*
X125806087Y-105127740D01*
X125806087Y-105285433D01*
X125836848Y-105440076D01*
X125836851Y-105440088D01*
X125897189Y-105585759D01*
X125897196Y-105585772D01*
X125984797Y-105716875D01*
X125984800Y-105716879D01*
X126096294Y-105828373D01*
X126096298Y-105828376D01*
X126227401Y-105915977D01*
X126227414Y-105915984D01*
X126373085Y-105976322D01*
X126373090Y-105976324D01*
X126527740Y-106007086D01*
X126527743Y-106007087D01*
X126527745Y-106007087D01*
X126685431Y-106007087D01*
X126685432Y-106007086D01*
X126840084Y-105976324D01*
X126985766Y-105915981D01*
X127116876Y-105828376D01*
X127228376Y-105716876D01*
X127315981Y-105585766D01*
X127376324Y-105440084D01*
X127376549Y-105438951D01*
X127376829Y-105438415D01*
X127378093Y-105434251D01*
X127378882Y-105434490D01*
X127408932Y-105377040D01*
X127469646Y-105342464D01*
X127473963Y-105341524D01*
X127583497Y-105319737D01*
X127729179Y-105259394D01*
X127860289Y-105171789D01*
X127971789Y-105060289D01*
X128059394Y-104929179D01*
X128119737Y-104783497D01*
X128150500Y-104628842D01*
X128150500Y-104471158D01*
X128150500Y-104471155D01*
X128150499Y-104471153D01*
X128132204Y-104379179D01*
X128119737Y-104316503D01*
X128085352Y-104233489D01*
X128059397Y-104170827D01*
X128059390Y-104170814D01*
X127971789Y-104039711D01*
X127971786Y-104039707D01*
X127860292Y-103928213D01*
X127860288Y-103928210D01*
X127729185Y-103840609D01*
X127729172Y-103840602D01*
X127583501Y-103780264D01*
X127583489Y-103780261D01*
X127428845Y-103749500D01*
X127428842Y-103749500D01*
X127271158Y-103749500D01*
X127271155Y-103749500D01*
X127116510Y-103780261D01*
X127116498Y-103780264D01*
X126970827Y-103840602D01*
X126970814Y-103840609D01*
X126839711Y-103928210D01*
X126839707Y-103928213D01*
X126728213Y-104039707D01*
X126728210Y-104039711D01*
X126640609Y-104170814D01*
X126640602Y-104170827D01*
X126580264Y-104316499D01*
X126580259Y-104316517D01*
X126580033Y-104317654D01*
X126579750Y-104318193D01*
X126578494Y-104322336D01*
X126577707Y-104322097D01*
X126547640Y-104379561D01*
X126486920Y-104414127D01*
X126482611Y-104415064D01*
X126373095Y-104436848D01*
X126373085Y-104436851D01*
X126227414Y-104497189D01*
X126227401Y-104497196D01*
X126096298Y-104584797D01*
X126096294Y-104584800D01*
X125984800Y-104696294D01*
X125984797Y-104696298D01*
X125897196Y-104827401D01*
X125897189Y-104827414D01*
X125836851Y-104973085D01*
X125836848Y-104973097D01*
X125806087Y-105127740D01*
X124327554Y-105127740D01*
X124258479Y-105114000D01*
X124258475Y-105114000D01*
X124111525Y-105114000D01*
X124111520Y-105114000D01*
X123967407Y-105142666D01*
X123967395Y-105142669D01*
X123831642Y-105198899D01*
X123831629Y-105198906D01*
X123709452Y-105280543D01*
X123709448Y-105280546D01*
X123605546Y-105384448D01*
X123605543Y-105384452D01*
X123523906Y-105506629D01*
X123523899Y-105506642D01*
X123467669Y-105642395D01*
X123467666Y-105642407D01*
X123439000Y-105786520D01*
X121450500Y-105786520D01*
X121450500Y-102521153D01*
X122449500Y-102521153D01*
X122449500Y-102678846D01*
X122480261Y-102833489D01*
X122480264Y-102833501D01*
X122540602Y-102979172D01*
X122540609Y-102979185D01*
X122628210Y-103110288D01*
X122628213Y-103110292D01*
X122739707Y-103221786D01*
X122739711Y-103221789D01*
X122870814Y-103309390D01*
X122870827Y-103309397D01*
X123016498Y-103369735D01*
X123016503Y-103369737D01*
X123140140Y-103394330D01*
X123171153Y-103400499D01*
X123171156Y-103400500D01*
X123171158Y-103400500D01*
X123328843Y-103400500D01*
X123341374Y-103398007D01*
X123359860Y-103394330D01*
X123429450Y-103400556D01*
X123484628Y-103443419D01*
X123507874Y-103509308D01*
X123505670Y-103540136D01*
X123499500Y-103571157D01*
X123499500Y-103728846D01*
X123530261Y-103883489D01*
X123530264Y-103883501D01*
X123590602Y-104029172D01*
X123590609Y-104029185D01*
X123678210Y-104160288D01*
X123678213Y-104160292D01*
X123789707Y-104271786D01*
X123789711Y-104271789D01*
X123920814Y-104359390D01*
X123920827Y-104359397D01*
X124052959Y-104414127D01*
X124066503Y-104419737D01*
X124221153Y-104450499D01*
X124221156Y-104450500D01*
X124221158Y-104450500D01*
X124378844Y-104450500D01*
X124378845Y-104450499D01*
X124533497Y-104419737D01*
X124679179Y-104359394D01*
X124810289Y-104271789D01*
X124921789Y-104160289D01*
X125009394Y-104029179D01*
X125069737Y-103883497D01*
X125100500Y-103728842D01*
X125100500Y-103571158D01*
X125100500Y-103571157D01*
X125100500Y-103571155D01*
X125100499Y-103571153D01*
X125070788Y-103421789D01*
X125069737Y-103416503D01*
X125063132Y-103400556D01*
X125009397Y-103270827D01*
X125009390Y-103270814D01*
X124921789Y-103139711D01*
X124921786Y-103139707D01*
X124810292Y-103028213D01*
X124810288Y-103028210D01*
X124679185Y-102940609D01*
X124679172Y-102940602D01*
X124533501Y-102880264D01*
X124533489Y-102880261D01*
X124378845Y-102849500D01*
X124378842Y-102849500D01*
X124221158Y-102849500D01*
X124221157Y-102849500D01*
X124190136Y-102855670D01*
X124120545Y-102849441D01*
X124065368Y-102806577D01*
X124042125Y-102740687D01*
X124044330Y-102709859D01*
X124050500Y-102678842D01*
X124050500Y-102521155D01*
X124050499Y-102521153D01*
X124030543Y-102420827D01*
X124019737Y-102366503D01*
X123987929Y-102289711D01*
X123959397Y-102220827D01*
X123959390Y-102220814D01*
X123871789Y-102089711D01*
X123871786Y-102089707D01*
X123760292Y-101978213D01*
X123760288Y-101978210D01*
X123629185Y-101890609D01*
X123629172Y-101890602D01*
X123483501Y-101830264D01*
X123483489Y-101830261D01*
X123328845Y-101799500D01*
X123328842Y-101799500D01*
X123171158Y-101799500D01*
X123171155Y-101799500D01*
X123016510Y-101830261D01*
X123016498Y-101830264D01*
X122870827Y-101890602D01*
X122870814Y-101890609D01*
X122739711Y-101978210D01*
X122739707Y-101978213D01*
X122628213Y-102089707D01*
X122628210Y-102089711D01*
X122540609Y-102220814D01*
X122540602Y-102220827D01*
X122480264Y-102366498D01*
X122480261Y-102366510D01*
X122449500Y-102521153D01*
X121450500Y-102521153D01*
X121450500Y-97821153D01*
X125049500Y-97821153D01*
X125049500Y-97978846D01*
X125080261Y-98133489D01*
X125080264Y-98133501D01*
X125140602Y-98279172D01*
X125140609Y-98279185D01*
X125228210Y-98410288D01*
X125228213Y-98410292D01*
X125339707Y-98521786D01*
X125339711Y-98521789D01*
X125470814Y-98609390D01*
X125470827Y-98609397D01*
X125616498Y-98669735D01*
X125616503Y-98669737D01*
X125771153Y-98700499D01*
X125771156Y-98700500D01*
X125771158Y-98700500D01*
X125928844Y-98700500D01*
X125928845Y-98700499D01*
X126083497Y-98669737D01*
X126229179Y-98609394D01*
X126360289Y-98521789D01*
X126471789Y-98410289D01*
X126559394Y-98279179D01*
X126619737Y-98133497D01*
X126650500Y-97978842D01*
X126650500Y-97821158D01*
X126650500Y-97821155D01*
X126650499Y-97821153D01*
X126619738Y-97666510D01*
X126619737Y-97666503D01*
X126619735Y-97666498D01*
X126559397Y-97520827D01*
X126559390Y-97520814D01*
X126471789Y-97389711D01*
X126471786Y-97389707D01*
X126360292Y-97278213D01*
X126360288Y-97278210D01*
X126229185Y-97190609D01*
X126229172Y-97190602D01*
X126083501Y-97130264D01*
X126083489Y-97130261D01*
X125928845Y-97099500D01*
X125928842Y-97099500D01*
X125771158Y-97099500D01*
X125771155Y-97099500D01*
X125616510Y-97130261D01*
X125616498Y-97130264D01*
X125470827Y-97190602D01*
X125470814Y-97190609D01*
X125339711Y-97278210D01*
X125339707Y-97278213D01*
X125228213Y-97389707D01*
X125228210Y-97389711D01*
X125140609Y-97520814D01*
X125140602Y-97520827D01*
X125080264Y-97666498D01*
X125080261Y-97666510D01*
X125049500Y-97821153D01*
X121450500Y-97821153D01*
X121450500Y-92921153D01*
X124749500Y-92921153D01*
X124749500Y-93078846D01*
X124780261Y-93233489D01*
X124780264Y-93233501D01*
X124840602Y-93379172D01*
X124840609Y-93379185D01*
X124928210Y-93510288D01*
X124928213Y-93510292D01*
X125039707Y-93621786D01*
X125039711Y-93621789D01*
X125170814Y-93709390D01*
X125170827Y-93709397D01*
X125316498Y-93769735D01*
X125316503Y-93769737D01*
X125471153Y-93800499D01*
X125471156Y-93800500D01*
X125471158Y-93800500D01*
X125628844Y-93800500D01*
X125628845Y-93800499D01*
X125783497Y-93769737D01*
X125929179Y-93709394D01*
X126060289Y-93621789D01*
X126171789Y-93510289D01*
X126259394Y-93379179D01*
X126319737Y-93233497D01*
X126350500Y-93078842D01*
X126350500Y-92921158D01*
X126349493Y-92916096D01*
X126355719Y-92846507D01*
X126398580Y-92791328D01*
X126464469Y-92768081D01*
X126532466Y-92784147D01*
X126539994Y-92788796D01*
X126570821Y-92809394D01*
X126570823Y-92809395D01*
X126570827Y-92809397D01*
X126660420Y-92846507D01*
X126716503Y-92869737D01*
X126871153Y-92900499D01*
X126871156Y-92900500D01*
X126871158Y-92900500D01*
X127028844Y-92900500D01*
X127028845Y-92900499D01*
X127183497Y-92869737D01*
X127329179Y-92809394D01*
X127460289Y-92721789D01*
X127571789Y-92610289D01*
X127659394Y-92479179D01*
X127704139Y-92371153D01*
X129199500Y-92371153D01*
X129199500Y-92528846D01*
X129230261Y-92683489D01*
X129230264Y-92683501D01*
X129290602Y-92829172D01*
X129290609Y-92829185D01*
X129378210Y-92960288D01*
X129378213Y-92960292D01*
X129489707Y-93071786D01*
X129489711Y-93071789D01*
X129620814Y-93159390D01*
X129620827Y-93159397D01*
X129766498Y-93219735D01*
X129766503Y-93219737D01*
X129921153Y-93250499D01*
X129921156Y-93250500D01*
X129921158Y-93250500D01*
X130078844Y-93250500D01*
X130078845Y-93250499D01*
X130233497Y-93219737D01*
X130379179Y-93159394D01*
X130510289Y-93071789D01*
X130621789Y-92960289D01*
X130709394Y-92829179D01*
X130769737Y-92683497D01*
X130800500Y-92528842D01*
X130800500Y-92371158D01*
X130800500Y-92371155D01*
X130800499Y-92371153D01*
X130799573Y-92366498D01*
X130769737Y-92216503D01*
X130754138Y-92178844D01*
X130709397Y-92070827D01*
X130709390Y-92070814D01*
X130621789Y-91939711D01*
X130621786Y-91939707D01*
X130510292Y-91828213D01*
X130510288Y-91828210D01*
X130379185Y-91740609D01*
X130379172Y-91740602D01*
X130233501Y-91680264D01*
X130233489Y-91680261D01*
X130078845Y-91649500D01*
X130078842Y-91649500D01*
X129921158Y-91649500D01*
X129921155Y-91649500D01*
X129766510Y-91680261D01*
X129766498Y-91680264D01*
X129620827Y-91740602D01*
X129620814Y-91740609D01*
X129489711Y-91828210D01*
X129489707Y-91828213D01*
X129378213Y-91939707D01*
X129378210Y-91939711D01*
X129290609Y-92070814D01*
X129290602Y-92070827D01*
X129230264Y-92216498D01*
X129230261Y-92216510D01*
X129199500Y-92371153D01*
X127704139Y-92371153D01*
X127719737Y-92333497D01*
X127750500Y-92178842D01*
X127750500Y-92021158D01*
X127750500Y-92021155D01*
X127750499Y-92021153D01*
X127724531Y-91890606D01*
X127719737Y-91866503D01*
X127709289Y-91841279D01*
X127659397Y-91720827D01*
X127659390Y-91720814D01*
X127571789Y-91589711D01*
X127571786Y-91589707D01*
X127460292Y-91478213D01*
X127460288Y-91478210D01*
X127329185Y-91390609D01*
X127329172Y-91390602D01*
X127183501Y-91330264D01*
X127183489Y-91330261D01*
X127028845Y-91299500D01*
X127028842Y-91299500D01*
X126871158Y-91299500D01*
X126871155Y-91299500D01*
X126716510Y-91330261D01*
X126716498Y-91330264D01*
X126570827Y-91390602D01*
X126570814Y-91390609D01*
X126439711Y-91478210D01*
X126439707Y-91478213D01*
X126328213Y-91589707D01*
X126328210Y-91589711D01*
X126240609Y-91720814D01*
X126240602Y-91720827D01*
X126180264Y-91866498D01*
X126180261Y-91866510D01*
X126149500Y-92021153D01*
X126149500Y-92178846D01*
X126150507Y-92183909D01*
X126144277Y-92253500D01*
X126101412Y-92308676D01*
X126035522Y-92331918D01*
X125967525Y-92315848D01*
X125959998Y-92311198D01*
X125929185Y-92290609D01*
X125929172Y-92290602D01*
X125783501Y-92230264D01*
X125783489Y-92230261D01*
X125628845Y-92199500D01*
X125628842Y-92199500D01*
X125471158Y-92199500D01*
X125471155Y-92199500D01*
X125316510Y-92230261D01*
X125316498Y-92230264D01*
X125170827Y-92290602D01*
X125170814Y-92290609D01*
X125039711Y-92378210D01*
X125039707Y-92378213D01*
X124928213Y-92489707D01*
X124928210Y-92489711D01*
X124840609Y-92620814D01*
X124840602Y-92620827D01*
X124780264Y-92766498D01*
X124780261Y-92766510D01*
X124749500Y-92921153D01*
X121450500Y-92921153D01*
X121450500Y-87610439D01*
X121436823Y-87559397D01*
X121430021Y-87534011D01*
X121396138Y-87475323D01*
X121390464Y-87465495D01*
X121390458Y-87465487D01*
X121334512Y-87409541D01*
X121334504Y-87409535D01*
X121265995Y-87369982D01*
X121265990Y-87369979D01*
X121229822Y-87360288D01*
X121189562Y-87349500D01*
X121189560Y-87349500D01*
X119632044Y-87349500D01*
X119565005Y-87329815D01*
X119519250Y-87277011D01*
X119509306Y-87207853D01*
X119521559Y-87169205D01*
X119620102Y-86975802D01*
X119693065Y-86751247D01*
X119730000Y-86518052D01*
X119730000Y-86281947D01*
X119693065Y-86048752D01*
X119620102Y-85824197D01*
X119512914Y-85613828D01*
X119452658Y-85530894D01*
X119452658Y-85530893D01*
X118774200Y-86209351D01*
X118765815Y-86178058D01*
X118690115Y-86046942D01*
X118583058Y-85939885D01*
X118451942Y-85864185D01*
X118420646Y-85855799D01*
X119099105Y-85177340D01*
X119099104Y-85177338D01*
X119016174Y-85117087D01*
X118805802Y-85009897D01*
X118581247Y-84936934D01*
X118581248Y-84936934D01*
X118348052Y-84900000D01*
X118111948Y-84900000D01*
X117878752Y-84936934D01*
X117654197Y-85009897D01*
X117443830Y-85117084D01*
X117360894Y-85177340D01*
X118039353Y-85855799D01*
X118008058Y-85864185D01*
X117876942Y-85939885D01*
X117769885Y-86046942D01*
X117694185Y-86178058D01*
X117685799Y-86209352D01*
X117007340Y-85530893D01*
X116987593Y-85532448D01*
X116983860Y-85531663D01*
X116980222Y-85532808D01*
X116949936Y-85524537D01*
X116919215Y-85518084D01*
X116915429Y-85515114D01*
X116912821Y-85514402D01*
X116903431Y-85505701D01*
X116885712Y-85491800D01*
X116881370Y-85486978D01*
X116834517Y-85422490D01*
X116667510Y-85255483D01*
X116476433Y-85116657D01*
X116265996Y-85009433D01*
X116041368Y-84936446D01*
X115808097Y-84899500D01*
X115808092Y-84899500D01*
X115571908Y-84899500D01*
X115571903Y-84899500D01*
X115338631Y-84936446D01*
X115114003Y-85009433D01*
X114903566Y-85116657D01*
X114820047Y-85177338D01*
X114712490Y-85255483D01*
X114712488Y-85255485D01*
X114712487Y-85255485D01*
X114545484Y-85422488D01*
X114520318Y-85457127D01*
X114464987Y-85499792D01*
X114395374Y-85505771D01*
X114333579Y-85473165D01*
X114319682Y-85457127D01*
X114300164Y-85430263D01*
X114294517Y-85422490D01*
X114127510Y-85255483D01*
X113936433Y-85116657D01*
X113725996Y-85009433D01*
X113501368Y-84936446D01*
X113268097Y-84899500D01*
X113268092Y-84899500D01*
X113031908Y-84899500D01*
X113031903Y-84899500D01*
X112798631Y-84936446D01*
X112574003Y-85009433D01*
X112363566Y-85116657D01*
X112280047Y-85177338D01*
X112172490Y-85255483D01*
X112172488Y-85255485D01*
X112172487Y-85255485D01*
X112005484Y-85422488D01*
X111980318Y-85457127D01*
X111924987Y-85499792D01*
X111855374Y-85505771D01*
X111793579Y-85473165D01*
X111779682Y-85457127D01*
X111760164Y-85430263D01*
X111754517Y-85422490D01*
X111587510Y-85255483D01*
X111396433Y-85116657D01*
X111185996Y-85009433D01*
X110961368Y-84936446D01*
X110728097Y-84899500D01*
X110728092Y-84899500D01*
X110648587Y-84899500D01*
X110581548Y-84879815D01*
X110535793Y-84827011D01*
X110524587Y-84775500D01*
X110524587Y-84622068D01*
X110524586Y-84622066D01*
X110522065Y-84609390D01*
X110493824Y-84467416D01*
X110474203Y-84420046D01*
X110433484Y-84321740D01*
X110433477Y-84321727D01*
X110345876Y-84190624D01*
X110345873Y-84190620D01*
X110234379Y-84079126D01*
X110234375Y-84079123D01*
X110103272Y-83991522D01*
X110103259Y-83991515D01*
X109957588Y-83931177D01*
X109957576Y-83931174D01*
X109802932Y-83900413D01*
X109802929Y-83900413D01*
X109645245Y-83900413D01*
X109645242Y-83900413D01*
X109490597Y-83931174D01*
X109490585Y-83931177D01*
X109344914Y-83991515D01*
X109344901Y-83991522D01*
X109213798Y-84079123D01*
X109213794Y-84079126D01*
X109102300Y-84190620D01*
X109102297Y-84190624D01*
X109014696Y-84321727D01*
X109014689Y-84321740D01*
X108954351Y-84467411D01*
X108954348Y-84467423D01*
X108923587Y-84622066D01*
X108923587Y-84779759D01*
X108955538Y-84940385D01*
X108953195Y-84940850D01*
X108953718Y-85000166D01*
X108916464Y-85059275D01*
X108853166Y-85088859D01*
X108783923Y-85079525D01*
X108778143Y-85076766D01*
X108645996Y-85009433D01*
X108421368Y-84936446D01*
X108188097Y-84899500D01*
X108188092Y-84899500D01*
X107951908Y-84899500D01*
X107951903Y-84899500D01*
X107718631Y-84936446D01*
X107494003Y-85009433D01*
X107283566Y-85116657D01*
X107200047Y-85177338D01*
X107092490Y-85255483D01*
X107092488Y-85255485D01*
X107092487Y-85255485D01*
X106925485Y-85422487D01*
X106925485Y-85422488D01*
X106925483Y-85422490D01*
X106875126Y-85491800D01*
X106786657Y-85613566D01*
X106679433Y-85824003D01*
X106606446Y-86048631D01*
X106569500Y-86281902D01*
X106569500Y-86518097D01*
X106606446Y-86751368D01*
X106679433Y-86975996D01*
X106777879Y-87169205D01*
X106790775Y-87237874D01*
X106764499Y-87302615D01*
X106707392Y-87342872D01*
X106667394Y-87349500D01*
X105189562Y-87349500D01*
X105110438Y-87349500D01*
X105072224Y-87359739D01*
X105034009Y-87369979D01*
X105034004Y-87369982D01*
X104965495Y-87409535D01*
X104965487Y-87409541D01*
X104909541Y-87465487D01*
X104909535Y-87465495D01*
X104869982Y-87534004D01*
X104869979Y-87534009D01*
X104856721Y-87583489D01*
X104849500Y-87610438D01*
X96698622Y-87610438D01*
X96725499Y-87475321D01*
X96725499Y-87317637D01*
X96725499Y-87317634D01*
X96725498Y-87317632D01*
X96715509Y-87267413D01*
X96694736Y-87162982D01*
X96678709Y-87124292D01*
X96671241Y-87054824D01*
X96690167Y-87007952D01*
X96709394Y-86979179D01*
X96769737Y-86833497D01*
X96800500Y-86678842D01*
X96800500Y-86521158D01*
X96800500Y-86521155D01*
X96800499Y-86521153D01*
X96783299Y-86434685D01*
X96769737Y-86366503D01*
X96769735Y-86366498D01*
X96709397Y-86220827D01*
X96709390Y-86220814D01*
X96684763Y-86183957D01*
X96642798Y-86121153D01*
X97999500Y-86121153D01*
X97999500Y-86278846D01*
X98030261Y-86433489D01*
X98030264Y-86433501D01*
X98090602Y-86579172D01*
X98090609Y-86579185D01*
X98178210Y-86710288D01*
X98178213Y-86710292D01*
X98289707Y-86821786D01*
X98289711Y-86821789D01*
X98420814Y-86909390D01*
X98420827Y-86909397D01*
X98566498Y-86969735D01*
X98566503Y-86969737D01*
X98721153Y-87000499D01*
X98721156Y-87000500D01*
X98721158Y-87000500D01*
X98878844Y-87000500D01*
X98878845Y-87000499D01*
X99033497Y-86969737D01*
X99179179Y-86909394D01*
X99310289Y-86821789D01*
X99421789Y-86710289D01*
X99481348Y-86621153D01*
X101849500Y-86621153D01*
X101849500Y-86778846D01*
X101880261Y-86933489D01*
X101880264Y-86933501D01*
X101940602Y-87079172D01*
X101940609Y-87079185D01*
X102028210Y-87210288D01*
X102028213Y-87210292D01*
X102139707Y-87321786D01*
X102139711Y-87321789D01*
X102270814Y-87409390D01*
X102270827Y-87409397D01*
X102406247Y-87465489D01*
X102416503Y-87469737D01*
X102571153Y-87500499D01*
X102571156Y-87500500D01*
X102571158Y-87500500D01*
X102728844Y-87500500D01*
X102728845Y-87500499D01*
X102760671Y-87494168D01*
X102828415Y-87480694D01*
X102828420Y-87480693D01*
X102873196Y-87471786D01*
X102883497Y-87469737D01*
X103029179Y-87409394D01*
X103160289Y-87321789D01*
X103271789Y-87210289D01*
X103359394Y-87079179D01*
X103419737Y-86933497D01*
X103450500Y-86778842D01*
X103450500Y-86621158D01*
X103450500Y-86621155D01*
X103450499Y-86621153D01*
X103444170Y-86589336D01*
X103419737Y-86466503D01*
X103378314Y-86366498D01*
X103359397Y-86320827D01*
X103359390Y-86320814D01*
X103271789Y-86189711D01*
X103271786Y-86189707D01*
X103160292Y-86078213D01*
X103160288Y-86078210D01*
X103029185Y-85990609D01*
X103029172Y-85990602D01*
X102883501Y-85930264D01*
X102883489Y-85930261D01*
X102728845Y-85899500D01*
X102728842Y-85899500D01*
X102571158Y-85899500D01*
X102571155Y-85899500D01*
X102416510Y-85930261D01*
X102416498Y-85930264D01*
X102270827Y-85990602D01*
X102270814Y-85990609D01*
X102139711Y-86078210D01*
X102139707Y-86078213D01*
X102028213Y-86189707D01*
X102028210Y-86189711D01*
X101940609Y-86320814D01*
X101940602Y-86320827D01*
X101880264Y-86466498D01*
X101880261Y-86466510D01*
X101849500Y-86621153D01*
X99481348Y-86621153D01*
X99509394Y-86579179D01*
X99569737Y-86433497D01*
X99600500Y-86278842D01*
X99600500Y-86121158D01*
X99600500Y-86121155D01*
X99600499Y-86121153D01*
X99586097Y-86048752D01*
X99569737Y-85966503D01*
X99558712Y-85939885D01*
X99509397Y-85820827D01*
X99509390Y-85820814D01*
X99421789Y-85689711D01*
X99421786Y-85689707D01*
X99310292Y-85578213D01*
X99310288Y-85578210D01*
X99179185Y-85490609D01*
X99179172Y-85490602D01*
X99033501Y-85430264D01*
X99033489Y-85430261D01*
X98878845Y-85399500D01*
X98878842Y-85399500D01*
X98721158Y-85399500D01*
X98721155Y-85399500D01*
X98566510Y-85430261D01*
X98566498Y-85430264D01*
X98420827Y-85490602D01*
X98420814Y-85490609D01*
X98289711Y-85578210D01*
X98289707Y-85578213D01*
X98178213Y-85689707D01*
X98178210Y-85689711D01*
X98090609Y-85820814D01*
X98090602Y-85820827D01*
X98030264Y-85966498D01*
X98030261Y-85966510D01*
X97999500Y-86121153D01*
X96642798Y-86121153D01*
X96621789Y-86089711D01*
X96621786Y-86089707D01*
X96510292Y-85978213D01*
X96510288Y-85978210D01*
X96379185Y-85890609D01*
X96379172Y-85890602D01*
X96233501Y-85830264D01*
X96233489Y-85830261D01*
X96078845Y-85799500D01*
X96078842Y-85799500D01*
X95921158Y-85799500D01*
X95921155Y-85799500D01*
X95766510Y-85830261D01*
X95766498Y-85830264D01*
X95620827Y-85890602D01*
X95620814Y-85890609D01*
X95489711Y-85978210D01*
X95489707Y-85978213D01*
X95378213Y-86089707D01*
X95378210Y-86089711D01*
X95290609Y-86220814D01*
X95290602Y-86220827D01*
X95230264Y-86366498D01*
X95230261Y-86366510D01*
X95199500Y-86521153D01*
X95199500Y-86678846D01*
X95230261Y-86833489D01*
X95230263Y-86833497D01*
X95243780Y-86866131D01*
X95246288Y-86872184D01*
X95253757Y-86941653D01*
X95234830Y-86988526D01*
X95215610Y-87017291D01*
X95215601Y-87017307D01*
X95155263Y-87162977D01*
X95155260Y-87162989D01*
X95124499Y-87317632D01*
X94727652Y-87317632D01*
X94754794Y-87277011D01*
X94777751Y-87242654D01*
X94786750Y-87229185D01*
X94786750Y-87229184D01*
X94786754Y-87229179D01*
X94847097Y-87083497D01*
X94877860Y-86928842D01*
X94877860Y-86771158D01*
X94877860Y-86771155D01*
X94877859Y-86771153D01*
X94857989Y-86671261D01*
X94847097Y-86616503D01*
X94835841Y-86589328D01*
X94786757Y-86470827D01*
X94786750Y-86470814D01*
X94699149Y-86339711D01*
X94699146Y-86339707D01*
X94587652Y-86228213D01*
X94587648Y-86228210D01*
X94456545Y-86140609D01*
X94456532Y-86140602D01*
X94310861Y-86080264D01*
X94310849Y-86080261D01*
X94156205Y-86049500D01*
X94156202Y-86049500D01*
X93998518Y-86049500D01*
X93998515Y-86049500D01*
X93843870Y-86080261D01*
X93843858Y-86080264D01*
X93698187Y-86140602D01*
X93698174Y-86140609D01*
X93567071Y-86228210D01*
X93567067Y-86228213D01*
X93455573Y-86339707D01*
X93455570Y-86339711D01*
X93367969Y-86470814D01*
X93367962Y-86470827D01*
X93307624Y-86616498D01*
X93307621Y-86616510D01*
X93276860Y-86771153D01*
X92882138Y-86771153D01*
X92883261Y-86765506D01*
X92888161Y-86740875D01*
X92888161Y-86740874D01*
X92900500Y-86678844D01*
X92900500Y-86521155D01*
X92900499Y-86521153D01*
X92883299Y-86434685D01*
X92869737Y-86366503D01*
X92869735Y-86366498D01*
X92809397Y-86220827D01*
X92809390Y-86220814D01*
X92721789Y-86089711D01*
X92721786Y-86089707D01*
X92610292Y-85978213D01*
X92610288Y-85978210D01*
X92479185Y-85890609D01*
X92479172Y-85890602D01*
X92333501Y-85830264D01*
X92333489Y-85830261D01*
X92178845Y-85799500D01*
X92178842Y-85799500D01*
X92021158Y-85799500D01*
X92021155Y-85799500D01*
X91866510Y-85830261D01*
X91866498Y-85830264D01*
X91720827Y-85890602D01*
X91720814Y-85890609D01*
X91589711Y-85978210D01*
X91589707Y-85978213D01*
X91478213Y-86089707D01*
X91478208Y-86089714D01*
X91454624Y-86125009D01*
X91401011Y-86169814D01*
X91331686Y-86178520D01*
X91268659Y-86148364D01*
X91236962Y-86103569D01*
X91184398Y-85976666D01*
X91184391Y-85976653D01*
X91096790Y-85845550D01*
X91096787Y-85845546D01*
X90985293Y-85734052D01*
X90985289Y-85734049D01*
X90854186Y-85646448D01*
X90854173Y-85646441D01*
X90708502Y-85586103D01*
X90708490Y-85586100D01*
X90553846Y-85555339D01*
X90553843Y-85555339D01*
X90396159Y-85555339D01*
X90396156Y-85555339D01*
X90241511Y-85586100D01*
X90241499Y-85586103D01*
X90095828Y-85646441D01*
X90095815Y-85646448D01*
X89964712Y-85734049D01*
X89964708Y-85734052D01*
X89853214Y-85845546D01*
X89853211Y-85845550D01*
X89765610Y-85976653D01*
X89765603Y-85976666D01*
X89705265Y-86122337D01*
X89705262Y-86122349D01*
X89674501Y-86276992D01*
X70876162Y-86276992D01*
X71160896Y-85678281D01*
X71162734Y-85674578D01*
X71666669Y-84702030D01*
X71668640Y-84698379D01*
X72205472Y-83743624D01*
X72207576Y-83740027D01*
X72310081Y-83571464D01*
X91845770Y-83571464D01*
X91845770Y-83729157D01*
X91876531Y-83883800D01*
X91876534Y-83883812D01*
X91936872Y-84029483D01*
X91936879Y-84029496D01*
X92024480Y-84160599D01*
X92024483Y-84160603D01*
X92135977Y-84272097D01*
X92135981Y-84272100D01*
X92267084Y-84359701D01*
X92267097Y-84359708D01*
X92412768Y-84420046D01*
X92412773Y-84420048D01*
X92567423Y-84450810D01*
X92567426Y-84450811D01*
X92567428Y-84450811D01*
X92725113Y-84450811D01*
X92740924Y-84447665D01*
X92821604Y-84431617D01*
X92891193Y-84437844D01*
X92933473Y-84465551D01*
X92969232Y-84501310D01*
X92989712Y-84521790D01*
X93120814Y-84609390D01*
X93120827Y-84609397D01*
X93266498Y-84669735D01*
X93266503Y-84669737D01*
X93410309Y-84698342D01*
X93421153Y-84700499D01*
X93421156Y-84700500D01*
X93421158Y-84700500D01*
X93578844Y-84700500D01*
X93578845Y-84700499D01*
X93733497Y-84669737D01*
X93879179Y-84609394D01*
X94010289Y-84521789D01*
X94121789Y-84410289D01*
X94209394Y-84279179D01*
X94212328Y-84272097D01*
X94223067Y-84246166D01*
X94269737Y-84133497D01*
X94300500Y-83978842D01*
X94300500Y-83821158D01*
X94300500Y-83821155D01*
X94300499Y-83821153D01*
X94296030Y-83798687D01*
X94269737Y-83666503D01*
X94209534Y-83521158D01*
X94209397Y-83520827D01*
X94209390Y-83520814D01*
X94121789Y-83389711D01*
X94121786Y-83389707D01*
X94010292Y-83278213D01*
X94010288Y-83278210D01*
X93879185Y-83190609D01*
X93879172Y-83190602D01*
X93733501Y-83130264D01*
X93733489Y-83130261D01*
X93578845Y-83099500D01*
X93578842Y-83099500D01*
X93421158Y-83099500D01*
X93324665Y-83118693D01*
X93255074Y-83112464D01*
X93212794Y-83084756D01*
X93156562Y-83028524D01*
X93156558Y-83028521D01*
X93145531Y-83021153D01*
X101849500Y-83021153D01*
X101849500Y-83178846D01*
X101880261Y-83333489D01*
X101880264Y-83333501D01*
X101940602Y-83479172D01*
X101940609Y-83479185D01*
X102028210Y-83610288D01*
X102028213Y-83610292D01*
X102139707Y-83721786D01*
X102139711Y-83721789D01*
X102270814Y-83809390D01*
X102270827Y-83809397D01*
X102416498Y-83869735D01*
X102416503Y-83869737D01*
X102536465Y-83893599D01*
X102571153Y-83900499D01*
X102571156Y-83900500D01*
X102571158Y-83900500D01*
X102728844Y-83900500D01*
X102728845Y-83900499D01*
X102883497Y-83869737D01*
X103029179Y-83809394D01*
X103160289Y-83721789D01*
X103271789Y-83610289D01*
X103331348Y-83521153D01*
X104499500Y-83521153D01*
X104499500Y-83678846D01*
X104530261Y-83833489D01*
X104530264Y-83833501D01*
X104590602Y-83979172D01*
X104590609Y-83979185D01*
X104678210Y-84110288D01*
X104678213Y-84110292D01*
X104789707Y-84221786D01*
X104789711Y-84221789D01*
X104920814Y-84309390D01*
X104920821Y-84309394D01*
X105049175Y-84362559D01*
X105103576Y-84406398D01*
X105125642Y-84472692D01*
X105123338Y-84501310D01*
X105099500Y-84621153D01*
X105099500Y-84778846D01*
X105130261Y-84933489D01*
X105130264Y-84933501D01*
X105190602Y-85079172D01*
X105190609Y-85079185D01*
X105278210Y-85210288D01*
X105278213Y-85210292D01*
X105389707Y-85321786D01*
X105389711Y-85321789D01*
X105520814Y-85409390D01*
X105520827Y-85409397D01*
X105666498Y-85469735D01*
X105666503Y-85469737D01*
X105817599Y-85499792D01*
X105821153Y-85500499D01*
X105821156Y-85500500D01*
X105821158Y-85500500D01*
X105978844Y-85500500D01*
X105978845Y-85500499D01*
X106133497Y-85469737D01*
X106279179Y-85409394D01*
X106410289Y-85321789D01*
X106521789Y-85210289D01*
X106609394Y-85079179D01*
X106610394Y-85076766D01*
X106638091Y-85009897D01*
X106669737Y-84933497D01*
X106700500Y-84778842D01*
X106700500Y-84621158D01*
X106700500Y-84621155D01*
X106700499Y-84621153D01*
X106680734Y-84521789D01*
X106669737Y-84466503D01*
X106629656Y-84369737D01*
X106609397Y-84320827D01*
X106609390Y-84320814D01*
X106521789Y-84189711D01*
X106521786Y-84189707D01*
X106410292Y-84078213D01*
X106410288Y-84078210D01*
X106279185Y-83990609D01*
X106279176Y-83990604D01*
X106150825Y-83937440D01*
X106096422Y-83893599D01*
X106074357Y-83827305D01*
X106076661Y-83798687D01*
X106100500Y-83678844D01*
X106100500Y-83521155D01*
X106100499Y-83521153D01*
X106079746Y-83416821D01*
X106069737Y-83366503D01*
X106056062Y-83333489D01*
X106009397Y-83220827D01*
X106009390Y-83220814D01*
X105921789Y-83089711D01*
X105921786Y-83089707D01*
X105810292Y-82978213D01*
X105810288Y-82978210D01*
X105679185Y-82890609D01*
X105679172Y-82890602D01*
X105533501Y-82830264D01*
X105533489Y-82830261D01*
X105378845Y-82799500D01*
X105378842Y-82799500D01*
X105221158Y-82799500D01*
X105221155Y-82799500D01*
X105066510Y-82830261D01*
X105066498Y-82830264D01*
X104920827Y-82890602D01*
X104920814Y-82890609D01*
X104789711Y-82978210D01*
X104789707Y-82978213D01*
X104678213Y-83089707D01*
X104678210Y-83089711D01*
X104590609Y-83220814D01*
X104590602Y-83220827D01*
X104530264Y-83366498D01*
X104530261Y-83366510D01*
X104499500Y-83521153D01*
X103331348Y-83521153D01*
X103359394Y-83479179D01*
X103419737Y-83333497D01*
X103450500Y-83178842D01*
X103450500Y-83021158D01*
X103450500Y-83021155D01*
X103450499Y-83021153D01*
X103440271Y-82969735D01*
X103419737Y-82866503D01*
X103412823Y-82849811D01*
X103359397Y-82720827D01*
X103359390Y-82720814D01*
X103271789Y-82589711D01*
X103271786Y-82589707D01*
X103160292Y-82478213D01*
X103160288Y-82478210D01*
X103070429Y-82418168D01*
X103029185Y-82390609D01*
X103029172Y-82390602D01*
X102883501Y-82330264D01*
X102883489Y-82330261D01*
X102837701Y-82321153D01*
X115999500Y-82321153D01*
X115999500Y-82478846D01*
X116030261Y-82633489D01*
X116030264Y-82633501D01*
X116090602Y-82779172D01*
X116090609Y-82779185D01*
X116178210Y-82910288D01*
X116178213Y-82910292D01*
X116289707Y-83021786D01*
X116289711Y-83021789D01*
X116420814Y-83109390D01*
X116420827Y-83109397D01*
X116566498Y-83169735D01*
X116566503Y-83169737D01*
X116721153Y-83200499D01*
X116721156Y-83200500D01*
X116721158Y-83200500D01*
X116878844Y-83200500D01*
X116878845Y-83200499D01*
X117033497Y-83169737D01*
X117179179Y-83109394D01*
X117310289Y-83021789D01*
X117421789Y-82910289D01*
X117509394Y-82779179D01*
X117569737Y-82633497D01*
X117600500Y-82478842D01*
X117600500Y-82321158D01*
X117600500Y-82321155D01*
X117600499Y-82321153D01*
X117596192Y-82299500D01*
X117569737Y-82166503D01*
X117550955Y-82121158D01*
X117509397Y-82020827D01*
X117509390Y-82020814D01*
X117421789Y-81889711D01*
X117421786Y-81889707D01*
X117310292Y-81778213D01*
X117310288Y-81778210D01*
X117179185Y-81690609D01*
X117179172Y-81690602D01*
X117033501Y-81630264D01*
X117033489Y-81630261D01*
X116878845Y-81599500D01*
X116878842Y-81599500D01*
X116721158Y-81599500D01*
X116721155Y-81599500D01*
X116566510Y-81630261D01*
X116566498Y-81630264D01*
X116420827Y-81690602D01*
X116420814Y-81690609D01*
X116289711Y-81778210D01*
X116289707Y-81778213D01*
X116178213Y-81889707D01*
X116178210Y-81889711D01*
X116090609Y-82020814D01*
X116090602Y-82020827D01*
X116030264Y-82166498D01*
X116030261Y-82166510D01*
X115999500Y-82321153D01*
X102837701Y-82321153D01*
X102728845Y-82299500D01*
X102728842Y-82299500D01*
X102571158Y-82299500D01*
X102571155Y-82299500D01*
X102416510Y-82330261D01*
X102416498Y-82330264D01*
X102270827Y-82390602D01*
X102270814Y-82390609D01*
X102139711Y-82478210D01*
X102139707Y-82478213D01*
X102028213Y-82589707D01*
X102028210Y-82589711D01*
X101940609Y-82720814D01*
X101940602Y-82720827D01*
X101880264Y-82866498D01*
X101880261Y-82866510D01*
X101849500Y-83021153D01*
X93145531Y-83021153D01*
X93025455Y-82940920D01*
X93025442Y-82940913D01*
X92879771Y-82880575D01*
X92879759Y-82880572D01*
X92725115Y-82849811D01*
X92725112Y-82849811D01*
X92567428Y-82849811D01*
X92567425Y-82849811D01*
X92412780Y-82880572D01*
X92412768Y-82880575D01*
X92267097Y-82940913D01*
X92267084Y-82940920D01*
X92135981Y-83028521D01*
X92135977Y-83028524D01*
X92024483Y-83140018D01*
X92024480Y-83140022D01*
X91936879Y-83271125D01*
X91936872Y-83271138D01*
X91876534Y-83416809D01*
X91876531Y-83416821D01*
X91845770Y-83571464D01*
X72310081Y-83571464D01*
X72776672Y-82804189D01*
X72778922Y-82800627D01*
X73224589Y-82121153D01*
X75374500Y-82121153D01*
X75374500Y-82278846D01*
X75405261Y-82433489D01*
X75405264Y-82433501D01*
X75465602Y-82579172D01*
X75465609Y-82579185D01*
X75553210Y-82710288D01*
X75553213Y-82710292D01*
X75664707Y-82821786D01*
X75664711Y-82821789D01*
X75795814Y-82909390D01*
X75795827Y-82909397D01*
X75941498Y-82969735D01*
X75941503Y-82969737D01*
X76096153Y-83000499D01*
X76096156Y-83000500D01*
X76096158Y-83000500D01*
X76253844Y-83000500D01*
X76253845Y-83000499D01*
X76408497Y-82969737D01*
X76554179Y-82909394D01*
X76685289Y-82821789D01*
X76796789Y-82710289D01*
X76884394Y-82579179D01*
X76944737Y-82433497D01*
X76975500Y-82278842D01*
X76975500Y-82121158D01*
X76975500Y-82121155D01*
X76975499Y-82121153D01*
X76955543Y-82020827D01*
X76944737Y-81966503D01*
X76917398Y-81900500D01*
X76884397Y-81820827D01*
X76884390Y-81820814D01*
X76859763Y-81783957D01*
X76817798Y-81721153D01*
X86799500Y-81721153D01*
X86799500Y-81878846D01*
X86830261Y-82033489D01*
X86830264Y-82033501D01*
X86890602Y-82179172D01*
X86890609Y-82179185D01*
X86978210Y-82310288D01*
X86978213Y-82310292D01*
X87089707Y-82421786D01*
X87089711Y-82421789D01*
X87220814Y-82509390D01*
X87220827Y-82509397D01*
X87366498Y-82569735D01*
X87366503Y-82569737D01*
X87521153Y-82600499D01*
X87521156Y-82600500D01*
X87521158Y-82600500D01*
X87678844Y-82600500D01*
X87678845Y-82600499D01*
X87833497Y-82569737D01*
X87979179Y-82509394D01*
X88110289Y-82421789D01*
X88221789Y-82310289D01*
X88309394Y-82179179D01*
X88369737Y-82033497D01*
X88400500Y-81878842D01*
X88400500Y-81721158D01*
X88400500Y-81721155D01*
X88400499Y-81721153D01*
X88378447Y-81610292D01*
X88369737Y-81566503D01*
X88342398Y-81500500D01*
X88309397Y-81420827D01*
X88309390Y-81420814D01*
X88221789Y-81289711D01*
X88221786Y-81289707D01*
X88110292Y-81178213D01*
X88110288Y-81178210D01*
X87979185Y-81090609D01*
X87979172Y-81090602D01*
X87833501Y-81030264D01*
X87833489Y-81030261D01*
X87678845Y-80999500D01*
X87678842Y-80999500D01*
X87521158Y-80999500D01*
X87521155Y-80999500D01*
X87366510Y-81030261D01*
X87366498Y-81030264D01*
X87220827Y-81090602D01*
X87220814Y-81090609D01*
X87089711Y-81178210D01*
X87089707Y-81178213D01*
X86978213Y-81289707D01*
X86978210Y-81289711D01*
X86890609Y-81420814D01*
X86890602Y-81420827D01*
X86830264Y-81566498D01*
X86830261Y-81566510D01*
X86799500Y-81721153D01*
X76817798Y-81721153D01*
X76796789Y-81689711D01*
X76796786Y-81689707D01*
X76685292Y-81578213D01*
X76685288Y-81578210D01*
X76554185Y-81490609D01*
X76554172Y-81490602D01*
X76408501Y-81430264D01*
X76408489Y-81430261D01*
X76253845Y-81399500D01*
X76253842Y-81399500D01*
X76096158Y-81399500D01*
X76096155Y-81399500D01*
X75941510Y-81430261D01*
X75941498Y-81430264D01*
X75795827Y-81490602D01*
X75795814Y-81490609D01*
X75664711Y-81578210D01*
X75664707Y-81578213D01*
X75553213Y-81689707D01*
X75553210Y-81689711D01*
X75465609Y-81820814D01*
X75465602Y-81820827D01*
X75405264Y-81966498D01*
X75405261Y-81966510D01*
X75374500Y-82121153D01*
X73224589Y-82121153D01*
X73379637Y-81884764D01*
X73381995Y-81881298D01*
X74013643Y-80986456D01*
X74016076Y-80983131D01*
X74290573Y-80621153D01*
X100799500Y-80621153D01*
X100799500Y-80778846D01*
X100830261Y-80933489D01*
X100830264Y-80933501D01*
X100890602Y-81079172D01*
X100890609Y-81079185D01*
X100978210Y-81210288D01*
X100978213Y-81210292D01*
X101089707Y-81321786D01*
X101089711Y-81321789D01*
X101220814Y-81409390D01*
X101220827Y-81409397D01*
X101366498Y-81469735D01*
X101366503Y-81469737D01*
X101521153Y-81500499D01*
X101521156Y-81500500D01*
X101521158Y-81500500D01*
X101588573Y-81500500D01*
X101655612Y-81520185D01*
X101691675Y-81555610D01*
X101728207Y-81610284D01*
X101728213Y-81610292D01*
X101839707Y-81721786D01*
X101839711Y-81721789D01*
X101970814Y-81809390D01*
X101970827Y-81809397D01*
X102116498Y-81869735D01*
X102116503Y-81869737D01*
X102271153Y-81900499D01*
X102271156Y-81900500D01*
X102271158Y-81900500D01*
X102428844Y-81900500D01*
X102428845Y-81900499D01*
X102583497Y-81869737D01*
X102701592Y-81820821D01*
X102729172Y-81809397D01*
X102729172Y-81809396D01*
X102729179Y-81809394D01*
X102860289Y-81721789D01*
X102971789Y-81610289D01*
X103059394Y-81479179D01*
X103119737Y-81333497D01*
X103150500Y-81178842D01*
X103150500Y-81021158D01*
X103150500Y-81021155D01*
X103150499Y-81021153D01*
X103119738Y-80866510D01*
X103119737Y-80866503D01*
X103083427Y-80778842D01*
X103059397Y-80720827D01*
X103059390Y-80720814D01*
X102971789Y-80589711D01*
X102971786Y-80589707D01*
X102860292Y-80478213D01*
X102860288Y-80478210D01*
X102729185Y-80390609D01*
X102729172Y-80390602D01*
X102583501Y-80330264D01*
X102583489Y-80330261D01*
X102428845Y-80299500D01*
X102428842Y-80299500D01*
X102361427Y-80299500D01*
X102294388Y-80279815D01*
X102258325Y-80244390D01*
X102221792Y-80189715D01*
X102221786Y-80189707D01*
X102110292Y-80078213D01*
X102110288Y-80078210D01*
X101979185Y-79990609D01*
X101979172Y-79990602D01*
X101833501Y-79930264D01*
X101833489Y-79930261D01*
X101678845Y-79899500D01*
X101678842Y-79899500D01*
X101521158Y-79899500D01*
X101521155Y-79899500D01*
X101366510Y-79930261D01*
X101366498Y-79930264D01*
X101220827Y-79990602D01*
X101220814Y-79990609D01*
X101089711Y-80078210D01*
X101089707Y-80078213D01*
X100978213Y-80189707D01*
X100978210Y-80189711D01*
X100890609Y-80320814D01*
X100890602Y-80320827D01*
X100830264Y-80466498D01*
X100830261Y-80466510D01*
X100799500Y-80621153D01*
X74290573Y-80621153D01*
X74677922Y-80110356D01*
X74680525Y-80107044D01*
X74703983Y-80078211D01*
X75371745Y-79257420D01*
X75374460Y-79254198D01*
X75392507Y-79233501D01*
X75664861Y-78921153D01*
X82499500Y-78921153D01*
X82499500Y-79078846D01*
X82530261Y-79233489D01*
X82530264Y-79233501D01*
X82590602Y-79379172D01*
X82590609Y-79379185D01*
X82678210Y-79510288D01*
X82678213Y-79510292D01*
X82789707Y-79621786D01*
X82789711Y-79621789D01*
X82920814Y-79709390D01*
X82920827Y-79709397D01*
X83066498Y-79769735D01*
X83066503Y-79769737D01*
X83221153Y-79800499D01*
X83221156Y-79800500D01*
X83221158Y-79800500D01*
X83378844Y-79800500D01*
X83378845Y-79800499D01*
X83533497Y-79769737D01*
X83679179Y-79709394D01*
X83810289Y-79621789D01*
X83921789Y-79510289D01*
X84009394Y-79379179D01*
X84069737Y-79233497D01*
X84100500Y-79078842D01*
X84100500Y-78921158D01*
X84100500Y-78921155D01*
X84100499Y-78921153D01*
X84078447Y-78810292D01*
X84069737Y-78766503D01*
X84033569Y-78679185D01*
X84009397Y-78620827D01*
X84009390Y-78620814D01*
X83921789Y-78489711D01*
X83921786Y-78489707D01*
X83810292Y-78378213D01*
X83810288Y-78378210D01*
X83679185Y-78290609D01*
X83679172Y-78290602D01*
X83533501Y-78230264D01*
X83533489Y-78230261D01*
X83378845Y-78199500D01*
X83378842Y-78199500D01*
X83221158Y-78199500D01*
X83221155Y-78199500D01*
X83066510Y-78230261D01*
X83066498Y-78230264D01*
X82920827Y-78290602D01*
X82920814Y-78290609D01*
X82789711Y-78378210D01*
X82789707Y-78378213D01*
X82678213Y-78489707D01*
X82678210Y-78489711D01*
X82590609Y-78620814D01*
X82590602Y-78620827D01*
X82530264Y-78766498D01*
X82530261Y-78766510D01*
X82499500Y-78921153D01*
X75664861Y-78921153D01*
X76094242Y-78428718D01*
X76097073Y-78425580D01*
X76628057Y-77857034D01*
X86312877Y-77857034D01*
X86312877Y-78014727D01*
X86343638Y-78169370D01*
X86343641Y-78169382D01*
X86403979Y-78315053D01*
X86403986Y-78315066D01*
X86491587Y-78446169D01*
X86491590Y-78446173D01*
X86603084Y-78557667D01*
X86603088Y-78557670D01*
X86734191Y-78645271D01*
X86734204Y-78645278D01*
X86879875Y-78705616D01*
X86879880Y-78705618D01*
X87034530Y-78736380D01*
X87034533Y-78736381D01*
X87034535Y-78736381D01*
X87192221Y-78736381D01*
X87192222Y-78736380D01*
X87346874Y-78705618D01*
X87492556Y-78645275D01*
X87623666Y-78557670D01*
X87735166Y-78446170D01*
X87822771Y-78315060D01*
X87883114Y-78169378D01*
X87913877Y-78014723D01*
X87913877Y-77857039D01*
X87913877Y-77857036D01*
X87913876Y-77857034D01*
X87902432Y-77799500D01*
X87883114Y-77702384D01*
X87836816Y-77590609D01*
X87822774Y-77556708D01*
X87822767Y-77556695D01*
X87774165Y-77483957D01*
X87735166Y-77425592D01*
X87735163Y-77425588D01*
X87730728Y-77421153D01*
X99199500Y-77421153D01*
X99199500Y-77578846D01*
X99230261Y-77733489D01*
X99230264Y-77733501D01*
X99290602Y-77879172D01*
X99290609Y-77879185D01*
X99378210Y-78010288D01*
X99378213Y-78010292D01*
X99489707Y-78121786D01*
X99489711Y-78121789D01*
X99620814Y-78209390D01*
X99620827Y-78209397D01*
X99766498Y-78269735D01*
X99766503Y-78269737D01*
X99921153Y-78300499D01*
X99921156Y-78300500D01*
X99921158Y-78300500D01*
X100078844Y-78300500D01*
X100078845Y-78300499D01*
X100233497Y-78269737D01*
X100350790Y-78221153D01*
X101899500Y-78221153D01*
X101899500Y-78378846D01*
X101930261Y-78533489D01*
X101930264Y-78533501D01*
X101990602Y-78679172D01*
X101990609Y-78679185D01*
X102078210Y-78810288D01*
X102078213Y-78810292D01*
X102189707Y-78921786D01*
X102189711Y-78921789D01*
X102320814Y-79009390D01*
X102320827Y-79009397D01*
X102466498Y-79069735D01*
X102466503Y-79069737D01*
X102621153Y-79100499D01*
X102621156Y-79100500D01*
X102621158Y-79100500D01*
X102778844Y-79100500D01*
X102778845Y-79100499D01*
X102933497Y-79069737D01*
X103079179Y-79009394D01*
X103210289Y-78921789D01*
X103321789Y-78810289D01*
X103409394Y-78679179D01*
X103469737Y-78533497D01*
X103472192Y-78521153D01*
X106199500Y-78521153D01*
X106199500Y-78678846D01*
X106230261Y-78833489D01*
X106230264Y-78833501D01*
X106290602Y-78979172D01*
X106290609Y-78979185D01*
X106378210Y-79110288D01*
X106378213Y-79110292D01*
X106489707Y-79221786D01*
X106489711Y-79221789D01*
X106620814Y-79309390D01*
X106620827Y-79309397D01*
X106766498Y-79369735D01*
X106766503Y-79369737D01*
X106921153Y-79400499D01*
X106921156Y-79400500D01*
X106921158Y-79400500D01*
X107078844Y-79400500D01*
X107078845Y-79400499D01*
X107233497Y-79369737D01*
X107379179Y-79309394D01*
X107510289Y-79221789D01*
X107621789Y-79110289D01*
X107709394Y-78979179D01*
X107769737Y-78833497D01*
X107800500Y-78678842D01*
X107800500Y-78521158D01*
X107800500Y-78521155D01*
X107800499Y-78521153D01*
X107785584Y-78446170D01*
X107769737Y-78366503D01*
X107742398Y-78300500D01*
X107709397Y-78220827D01*
X107709390Y-78220814D01*
X107621789Y-78089711D01*
X107621786Y-78089707D01*
X107510292Y-77978213D01*
X107510288Y-77978210D01*
X107379185Y-77890609D01*
X107379172Y-77890602D01*
X107233501Y-77830264D01*
X107233489Y-77830261D01*
X107078845Y-77799500D01*
X107078842Y-77799500D01*
X106921158Y-77799500D01*
X106921155Y-77799500D01*
X106766510Y-77830261D01*
X106766498Y-77830264D01*
X106620827Y-77890602D01*
X106620814Y-77890609D01*
X106489711Y-77978210D01*
X106489707Y-77978213D01*
X106378213Y-78089707D01*
X106378210Y-78089711D01*
X106290609Y-78220814D01*
X106290602Y-78220827D01*
X106230264Y-78366498D01*
X106230261Y-78366510D01*
X106199500Y-78521153D01*
X103472192Y-78521153D01*
X103478216Y-78490874D01*
X103478216Y-78490873D01*
X103500499Y-78378846D01*
X103500500Y-78378844D01*
X103500500Y-78221155D01*
X103500499Y-78221153D01*
X103480734Y-78121788D01*
X103469737Y-78066503D01*
X103446452Y-78010288D01*
X103409397Y-77920827D01*
X103409390Y-77920814D01*
X103321789Y-77789711D01*
X103321786Y-77789707D01*
X103210292Y-77678213D01*
X103210288Y-77678210D01*
X103079185Y-77590609D01*
X103079172Y-77590602D01*
X102933501Y-77530264D01*
X102933489Y-77530261D01*
X102778845Y-77499500D01*
X102778842Y-77499500D01*
X102621158Y-77499500D01*
X102621155Y-77499500D01*
X102466510Y-77530261D01*
X102466498Y-77530264D01*
X102320827Y-77590602D01*
X102320814Y-77590609D01*
X102189711Y-77678210D01*
X102189707Y-77678213D01*
X102078213Y-77789707D01*
X102078210Y-77789711D01*
X101990609Y-77920814D01*
X101990602Y-77920827D01*
X101930264Y-78066498D01*
X101930261Y-78066510D01*
X101899500Y-78221153D01*
X100350790Y-78221153D01*
X100351592Y-78220821D01*
X100379172Y-78209397D01*
X100379172Y-78209396D01*
X100379179Y-78209394D01*
X100510289Y-78121789D01*
X100621789Y-78010289D01*
X100709394Y-77879179D01*
X100769737Y-77733497D01*
X100800500Y-77578842D01*
X100800500Y-77421158D01*
X100800500Y-77421155D01*
X100800499Y-77421153D01*
X100769737Y-77266503D01*
X100728168Y-77166145D01*
X100709397Y-77120827D01*
X100709390Y-77120814D01*
X100621789Y-76989711D01*
X100621786Y-76989707D01*
X100510292Y-76878213D01*
X100510288Y-76878210D01*
X100379185Y-76790609D01*
X100379172Y-76790602D01*
X100233501Y-76730264D01*
X100233489Y-76730261D01*
X100078845Y-76699500D01*
X100078842Y-76699500D01*
X99921158Y-76699500D01*
X99921155Y-76699500D01*
X99766510Y-76730261D01*
X99766498Y-76730264D01*
X99620827Y-76790602D01*
X99620814Y-76790609D01*
X99489711Y-76878210D01*
X99489707Y-76878213D01*
X99378213Y-76989707D01*
X99378210Y-76989711D01*
X99290609Y-77120814D01*
X99290602Y-77120827D01*
X99230264Y-77266498D01*
X99230261Y-77266510D01*
X99199500Y-77421153D01*
X87730728Y-77421153D01*
X87623669Y-77314094D01*
X87623665Y-77314091D01*
X87492562Y-77226490D01*
X87492549Y-77226483D01*
X87346878Y-77166145D01*
X87346866Y-77166142D01*
X87192222Y-77135381D01*
X87192219Y-77135381D01*
X87034535Y-77135381D01*
X87034532Y-77135381D01*
X86879887Y-77166142D01*
X86879875Y-77166145D01*
X86734204Y-77226483D01*
X86734191Y-77226490D01*
X86603088Y-77314091D01*
X86603084Y-77314094D01*
X86491590Y-77425588D01*
X86491587Y-77425592D01*
X86403986Y-77556695D01*
X86403979Y-77556708D01*
X86343641Y-77702379D01*
X86343638Y-77702391D01*
X86312877Y-77857034D01*
X76628057Y-77857034D01*
X76844705Y-77625060D01*
X76847591Y-77622075D01*
X77622075Y-76847591D01*
X77625060Y-76844705D01*
X78425585Y-76097067D01*
X78428724Y-76094237D01*
X78971279Y-75621153D01*
X85599500Y-75621153D01*
X85599500Y-75778846D01*
X85630261Y-75933489D01*
X85630264Y-75933501D01*
X85690602Y-76079172D01*
X85690609Y-76079185D01*
X85778210Y-76210288D01*
X85778213Y-76210292D01*
X85889707Y-76321786D01*
X85889711Y-76321789D01*
X86020814Y-76409390D01*
X86020827Y-76409397D01*
X86166498Y-76469735D01*
X86166503Y-76469737D01*
X86321153Y-76500499D01*
X86321156Y-76500500D01*
X86321158Y-76500500D01*
X86478844Y-76500500D01*
X86478845Y-76500499D01*
X86633497Y-76469737D01*
X86779179Y-76409394D01*
X86910289Y-76321789D01*
X87021789Y-76210289D01*
X87109394Y-76079179D01*
X87169737Y-75933497D01*
X87200500Y-75778842D01*
X87200500Y-75621158D01*
X87200500Y-75621155D01*
X87200499Y-75621153D01*
X87186445Y-75550499D01*
X87169737Y-75466503D01*
X87131612Y-75374460D01*
X87109397Y-75320827D01*
X87109390Y-75320814D01*
X87021789Y-75189711D01*
X87021786Y-75189707D01*
X86910292Y-75078213D01*
X86910288Y-75078210D01*
X86779185Y-74990609D01*
X86779172Y-74990602D01*
X86633501Y-74930264D01*
X86633489Y-74930261D01*
X86478845Y-74899500D01*
X86478842Y-74899500D01*
X86321158Y-74899500D01*
X86321155Y-74899500D01*
X86166510Y-74930261D01*
X86166498Y-74930264D01*
X86020827Y-74990602D01*
X86020814Y-74990609D01*
X85889711Y-75078210D01*
X85889707Y-75078213D01*
X85778213Y-75189707D01*
X85778210Y-75189711D01*
X85690609Y-75320814D01*
X85690602Y-75320827D01*
X85630264Y-75466498D01*
X85630261Y-75466510D01*
X85599500Y-75621153D01*
X78971279Y-75621153D01*
X79254214Y-75374446D01*
X79257420Y-75371745D01*
X80107061Y-74680511D01*
X80110360Y-74677920D01*
X80150575Y-74647424D01*
X80215886Y-74622601D01*
X80284250Y-74637029D01*
X80333961Y-74686127D01*
X80349500Y-74746228D01*
X80349500Y-74828846D01*
X80380261Y-74983489D01*
X80380264Y-74983501D01*
X80440602Y-75129172D01*
X80440609Y-75129185D01*
X80528210Y-75260288D01*
X80528213Y-75260292D01*
X80639707Y-75371786D01*
X80639711Y-75371789D01*
X80770814Y-75459390D01*
X80770827Y-75459397D01*
X80916498Y-75519735D01*
X80916503Y-75519737D01*
X81071153Y-75550499D01*
X81071156Y-75550500D01*
X81071158Y-75550500D01*
X81228844Y-75550500D01*
X81228845Y-75550499D01*
X81383497Y-75519737D01*
X81529179Y-75459394D01*
X81660289Y-75371789D01*
X81771789Y-75260289D01*
X81859394Y-75129179D01*
X81919737Y-74983497D01*
X81950500Y-74828842D01*
X81950500Y-74672902D01*
X81970185Y-74605863D01*
X82022989Y-74560108D01*
X82092147Y-74550164D01*
X82155703Y-74579189D01*
X82189062Y-74625451D01*
X82190605Y-74629178D01*
X82190609Y-74629185D01*
X82278210Y-74760288D01*
X82278213Y-74760292D01*
X82389707Y-74871786D01*
X82389711Y-74871789D01*
X82520814Y-74959390D01*
X82520827Y-74959397D01*
X82596181Y-74990609D01*
X82666503Y-75019737D01*
X82821153Y-75050499D01*
X82821156Y-75050500D01*
X82821158Y-75050500D01*
X82978844Y-75050500D01*
X82978845Y-75050499D01*
X83133497Y-75019737D01*
X83279179Y-74959394D01*
X83410289Y-74871789D01*
X83521789Y-74760289D01*
X83547939Y-74721153D01*
X96999500Y-74721153D01*
X96999500Y-74878846D01*
X97030261Y-75033489D01*
X97030264Y-75033501D01*
X97090602Y-75179172D01*
X97090609Y-75179185D01*
X97178210Y-75310288D01*
X97178213Y-75310292D01*
X97289707Y-75421786D01*
X97289711Y-75421789D01*
X97420814Y-75509390D01*
X97420827Y-75509397D01*
X97520060Y-75550500D01*
X97566503Y-75569737D01*
X97721153Y-75600499D01*
X97721156Y-75600500D01*
X97832152Y-75600500D01*
X97899191Y-75620185D01*
X97944946Y-75672989D01*
X97953769Y-75700308D01*
X97980261Y-75833491D01*
X97980264Y-75833501D01*
X98040602Y-75979172D01*
X98040609Y-75979185D01*
X98128210Y-76110288D01*
X98128213Y-76110292D01*
X98239707Y-76221786D01*
X98239711Y-76221789D01*
X98370814Y-76309390D01*
X98370827Y-76309397D01*
X98516498Y-76369735D01*
X98516503Y-76369737D01*
X98671153Y-76400499D01*
X98671156Y-76400500D01*
X98671158Y-76400500D01*
X98828844Y-76400500D01*
X98828845Y-76400499D01*
X98983497Y-76369737D01*
X99129179Y-76309394D01*
X99260289Y-76221789D01*
X99371789Y-76110289D01*
X99459394Y-75979179D01*
X99519737Y-75833497D01*
X99550500Y-75678842D01*
X99550500Y-75521158D01*
X99550500Y-75521155D01*
X99550499Y-75521153D01*
X99530734Y-75421789D01*
X99519737Y-75366503D01*
X99496452Y-75310288D01*
X99459397Y-75220827D01*
X99459390Y-75220814D01*
X99371790Y-75089712D01*
X99371784Y-75089705D01*
X99303232Y-75021153D01*
X102499500Y-75021153D01*
X102499500Y-75178846D01*
X102530261Y-75333489D01*
X102530264Y-75333501D01*
X102590602Y-75479172D01*
X102590609Y-75479185D01*
X102678210Y-75610288D01*
X102678213Y-75610292D01*
X102789707Y-75721786D01*
X102789711Y-75721789D01*
X102920814Y-75809390D01*
X102920827Y-75809397D01*
X103066498Y-75869735D01*
X103066503Y-75869737D01*
X103221153Y-75900499D01*
X103221156Y-75900500D01*
X103221158Y-75900500D01*
X103378844Y-75900500D01*
X103378845Y-75900499D01*
X103533497Y-75869737D01*
X103679179Y-75809394D01*
X103810289Y-75721789D01*
X103921789Y-75610289D01*
X104009394Y-75479179D01*
X104069737Y-75333497D01*
X104100500Y-75178842D01*
X104100500Y-75021158D01*
X104100500Y-75021155D01*
X104100499Y-75021153D01*
X104094422Y-74990602D01*
X104069737Y-74866503D01*
X104069735Y-74866498D01*
X104009397Y-74720827D01*
X104009390Y-74720814D01*
X103921789Y-74589711D01*
X103921786Y-74589707D01*
X103810292Y-74478213D01*
X103810288Y-74478210D01*
X103679185Y-74390609D01*
X103679172Y-74390602D01*
X103533501Y-74330264D01*
X103533489Y-74330261D01*
X103378845Y-74299500D01*
X103378842Y-74299500D01*
X103221158Y-74299500D01*
X103221155Y-74299500D01*
X103066510Y-74330261D01*
X103066498Y-74330264D01*
X102920827Y-74390602D01*
X102920814Y-74390609D01*
X102789711Y-74478210D01*
X102789707Y-74478213D01*
X102678213Y-74589707D01*
X102678210Y-74589711D01*
X102590609Y-74720814D01*
X102590602Y-74720827D01*
X102530264Y-74866498D01*
X102530261Y-74866510D01*
X102499500Y-75021153D01*
X99303232Y-75021153D01*
X99260292Y-74978213D01*
X99260288Y-74978210D01*
X99129185Y-74890609D01*
X99129172Y-74890602D01*
X98983501Y-74830264D01*
X98983489Y-74830261D01*
X98828845Y-74799500D01*
X98828842Y-74799500D01*
X98717848Y-74799500D01*
X98650809Y-74779815D01*
X98605054Y-74727011D01*
X98596231Y-74699692D01*
X98569738Y-74566508D01*
X98569737Y-74566507D01*
X98569737Y-74566503D01*
X98562969Y-74550164D01*
X98509397Y-74420827D01*
X98509390Y-74420814D01*
X98421789Y-74289711D01*
X98421786Y-74289707D01*
X98310292Y-74178213D01*
X98310288Y-74178210D01*
X98179185Y-74090609D01*
X98179172Y-74090602D01*
X98033501Y-74030264D01*
X98033489Y-74030261D01*
X97878845Y-73999500D01*
X97878842Y-73999500D01*
X97721158Y-73999500D01*
X97721155Y-73999500D01*
X97566510Y-74030261D01*
X97566498Y-74030264D01*
X97420827Y-74090602D01*
X97420814Y-74090609D01*
X97289711Y-74178210D01*
X97289707Y-74178213D01*
X97178213Y-74289707D01*
X97178210Y-74289711D01*
X97090609Y-74420814D01*
X97090602Y-74420827D01*
X97030264Y-74566498D01*
X97030261Y-74566510D01*
X96999500Y-74721153D01*
X83547939Y-74721153D01*
X83609394Y-74629179D01*
X83669737Y-74483497D01*
X83700500Y-74328842D01*
X83700500Y-74171158D01*
X83700500Y-74171155D01*
X83700499Y-74171153D01*
X83688213Y-74109390D01*
X83669737Y-74016503D01*
X83654265Y-73979149D01*
X83609397Y-73870827D01*
X83609390Y-73870814D01*
X83521789Y-73739711D01*
X83521786Y-73739707D01*
X83410292Y-73628213D01*
X83410288Y-73628210D01*
X83279185Y-73540609D01*
X83279172Y-73540602D01*
X83133501Y-73480264D01*
X83133489Y-73480261D01*
X82978845Y-73449500D01*
X82978842Y-73449500D01*
X82821158Y-73449500D01*
X82821155Y-73449500D01*
X82666510Y-73480261D01*
X82666498Y-73480264D01*
X82520827Y-73540602D01*
X82520814Y-73540609D01*
X82389711Y-73628210D01*
X82389707Y-73628213D01*
X82278213Y-73739707D01*
X82278210Y-73739711D01*
X82190609Y-73870814D01*
X82190602Y-73870827D01*
X82130264Y-74016498D01*
X82130261Y-74016510D01*
X82099500Y-74171153D01*
X82099500Y-74327097D01*
X82079815Y-74394136D01*
X82027011Y-74439891D01*
X81957853Y-74449835D01*
X81894297Y-74420810D01*
X81860940Y-74374552D01*
X81859396Y-74370826D01*
X81859390Y-74370814D01*
X81771789Y-74239711D01*
X81771786Y-74239707D01*
X81660292Y-74128213D01*
X81660288Y-74128210D01*
X81529185Y-74040609D01*
X81529172Y-74040602D01*
X81383492Y-73980260D01*
X81381654Y-73979703D01*
X81380809Y-73979149D01*
X81377870Y-73977932D01*
X81378101Y-73977374D01*
X81323219Y-73941401D01*
X81294768Y-73877586D01*
X81305335Y-73808520D01*
X81346149Y-73759745D01*
X81881298Y-73381995D01*
X81884729Y-73379659D01*
X82800644Y-72778911D01*
X82804189Y-72776672D01*
X83224372Y-72521153D01*
X84999500Y-72521153D01*
X84999500Y-72678846D01*
X85030261Y-72833489D01*
X85030264Y-72833501D01*
X85090602Y-72979172D01*
X85090609Y-72979185D01*
X85178210Y-73110288D01*
X85178213Y-73110292D01*
X85289707Y-73221786D01*
X85289711Y-73221789D01*
X85420814Y-73309390D01*
X85420827Y-73309397D01*
X85566498Y-73369735D01*
X85566503Y-73369737D01*
X85721153Y-73400499D01*
X85721156Y-73400500D01*
X85721158Y-73400500D01*
X85878844Y-73400500D01*
X85878845Y-73400499D01*
X86033497Y-73369737D01*
X86150790Y-73321153D01*
X87399500Y-73321153D01*
X87399500Y-73478846D01*
X87430261Y-73633489D01*
X87430264Y-73633501D01*
X87490602Y-73779172D01*
X87490609Y-73779185D01*
X87578210Y-73910288D01*
X87578213Y-73910292D01*
X87689707Y-74021786D01*
X87689711Y-74021789D01*
X87820814Y-74109390D01*
X87820827Y-74109397D01*
X87866254Y-74128213D01*
X87966503Y-74169737D01*
X88121153Y-74200499D01*
X88121156Y-74200500D01*
X88121158Y-74200500D01*
X88278844Y-74200500D01*
X88278845Y-74200499D01*
X88433497Y-74169737D01*
X88579179Y-74109394D01*
X88710289Y-74021789D01*
X88821789Y-73910289D01*
X88909394Y-73779179D01*
X88933429Y-73721153D01*
X92899500Y-73721153D01*
X92899500Y-73878846D01*
X92930261Y-74033489D01*
X92930264Y-74033501D01*
X92990602Y-74179172D01*
X92990609Y-74179185D01*
X93078210Y-74310288D01*
X93078213Y-74310292D01*
X93189707Y-74421786D01*
X93189711Y-74421789D01*
X93320814Y-74509390D01*
X93320827Y-74509397D01*
X93419249Y-74550164D01*
X93466503Y-74569737D01*
X93621153Y-74600499D01*
X93621156Y-74600500D01*
X93621158Y-74600500D01*
X93778844Y-74600500D01*
X93778845Y-74600499D01*
X93789179Y-74598443D01*
X93814287Y-74593450D01*
X93814292Y-74593449D01*
X93899800Y-74576439D01*
X93933497Y-74569737D01*
X94079179Y-74509394D01*
X94210289Y-74421789D01*
X94321789Y-74310289D01*
X94321792Y-74310284D01*
X94324991Y-74306387D01*
X94382733Y-74267047D01*
X94452578Y-74265170D01*
X94462501Y-74268522D01*
X94466492Y-74269732D01*
X94466503Y-74269737D01*
X94616131Y-74299500D01*
X94621153Y-74300499D01*
X94621156Y-74300500D01*
X94621158Y-74300500D01*
X94778844Y-74300500D01*
X94778845Y-74300499D01*
X94933497Y-74269737D01*
X95079179Y-74209394D01*
X95210289Y-74121789D01*
X95321789Y-74010289D01*
X95409394Y-73879179D01*
X95412854Y-73870827D01*
X95430478Y-73828278D01*
X95469737Y-73733497D01*
X95472192Y-73721153D01*
X98599500Y-73721153D01*
X98599500Y-73878846D01*
X98630261Y-74033489D01*
X98630264Y-74033501D01*
X98690602Y-74179172D01*
X98690609Y-74179185D01*
X98778210Y-74310288D01*
X98778213Y-74310292D01*
X98889707Y-74421786D01*
X98889711Y-74421789D01*
X99020814Y-74509390D01*
X99020827Y-74509397D01*
X99119249Y-74550164D01*
X99166503Y-74569737D01*
X99321153Y-74600499D01*
X99321156Y-74600500D01*
X99321158Y-74600500D01*
X99478844Y-74600500D01*
X99478845Y-74600499D01*
X99633497Y-74569737D01*
X99779179Y-74509394D01*
X99910289Y-74421789D01*
X100021789Y-74310289D01*
X100109394Y-74179179D01*
X100112719Y-74171153D01*
X100130506Y-74128210D01*
X100169737Y-74033497D01*
X100200500Y-73878842D01*
X100200500Y-73721158D01*
X100200500Y-73721155D01*
X100200499Y-73721153D01*
X100182012Y-73628213D01*
X100169737Y-73566503D01*
X100169735Y-73566498D01*
X100109397Y-73420827D01*
X100109390Y-73420814D01*
X100021789Y-73289711D01*
X100021786Y-73289707D01*
X99910292Y-73178213D01*
X99910288Y-73178210D01*
X99779185Y-73090609D01*
X99779172Y-73090602D01*
X99633501Y-73030264D01*
X99633489Y-73030261D01*
X99478845Y-72999500D01*
X99478842Y-72999500D01*
X99321158Y-72999500D01*
X99321155Y-72999500D01*
X99166510Y-73030261D01*
X99166498Y-73030264D01*
X99020827Y-73090602D01*
X99020814Y-73090609D01*
X98889711Y-73178210D01*
X98889707Y-73178213D01*
X98778213Y-73289707D01*
X98778210Y-73289711D01*
X98690609Y-73420814D01*
X98690602Y-73420827D01*
X98630264Y-73566498D01*
X98630261Y-73566510D01*
X98599500Y-73721153D01*
X95472192Y-73721153D01*
X95478216Y-73690874D01*
X95478216Y-73690873D01*
X95500499Y-73578846D01*
X95500500Y-73578844D01*
X95500500Y-73421155D01*
X95500499Y-73421153D01*
X95490271Y-73369735D01*
X95469737Y-73266503D01*
X95433569Y-73179185D01*
X95409397Y-73120827D01*
X95409390Y-73120814D01*
X95321789Y-72989711D01*
X95321786Y-72989707D01*
X95210292Y-72878213D01*
X95210288Y-72878210D01*
X95079185Y-72790609D01*
X95079172Y-72790602D01*
X94933501Y-72730264D01*
X94933489Y-72730261D01*
X94778845Y-72699500D01*
X94778842Y-72699500D01*
X94621158Y-72699500D01*
X94621155Y-72699500D01*
X94466510Y-72730261D01*
X94466498Y-72730264D01*
X94320827Y-72790602D01*
X94320814Y-72790609D01*
X94189712Y-72878209D01*
X94078205Y-72989717D01*
X94074993Y-72993631D01*
X94017243Y-73032959D01*
X93947398Y-73034822D01*
X93937485Y-73031473D01*
X93933488Y-73030260D01*
X93778845Y-72999500D01*
X93778842Y-72999500D01*
X93621158Y-72999500D01*
X93621155Y-72999500D01*
X93466510Y-73030261D01*
X93466498Y-73030264D01*
X93320827Y-73090602D01*
X93320814Y-73090609D01*
X93189711Y-73178210D01*
X93189707Y-73178213D01*
X93078213Y-73289707D01*
X93078210Y-73289711D01*
X92990609Y-73420814D01*
X92990602Y-73420827D01*
X92930264Y-73566498D01*
X92930261Y-73566510D01*
X92899500Y-73721153D01*
X88933429Y-73721153D01*
X88969737Y-73633497D01*
X89000500Y-73478842D01*
X89000500Y-73321158D01*
X89000500Y-73321155D01*
X89000499Y-73321153D01*
X88980734Y-73221788D01*
X88969737Y-73166503D01*
X88929110Y-73068420D01*
X88909397Y-73020827D01*
X88909390Y-73020814D01*
X88821789Y-72889711D01*
X88821786Y-72889707D01*
X88710292Y-72778213D01*
X88710288Y-72778210D01*
X88624897Y-72721153D01*
X89199500Y-72721153D01*
X89199500Y-72878846D01*
X89230261Y-73033489D01*
X89230264Y-73033501D01*
X89290602Y-73179172D01*
X89290609Y-73179185D01*
X89378210Y-73310288D01*
X89378213Y-73310292D01*
X89489710Y-73421789D01*
X89577220Y-73480261D01*
X89620821Y-73509394D01*
X89677643Y-73532930D01*
X89700000Y-73600000D01*
X89772617Y-73570953D01*
X89905438Y-73597373D01*
X89921157Y-73600500D01*
X89921158Y-73600500D01*
X90078844Y-73600500D01*
X90078845Y-73600499D01*
X90089179Y-73598443D01*
X90114287Y-73593450D01*
X90114292Y-73593449D01*
X90199800Y-73576439D01*
X90233497Y-73569737D01*
X90379179Y-73509394D01*
X90510289Y-73421789D01*
X90621789Y-73310289D01*
X90672477Y-73234426D01*
X90726087Y-73189624D01*
X90729479Y-73188207D01*
X92700000Y-72400000D01*
X92658301Y-72288802D01*
X92534477Y-71958605D01*
X92520433Y-71921153D01*
X105599500Y-71921153D01*
X105599500Y-72078846D01*
X105630261Y-72233489D01*
X105630264Y-72233501D01*
X105690602Y-72379172D01*
X105690609Y-72379185D01*
X105778210Y-72510288D01*
X105778213Y-72510292D01*
X105889707Y-72621786D01*
X105889711Y-72621789D01*
X106020814Y-72709390D01*
X106020827Y-72709397D01*
X106166498Y-72769735D01*
X106166503Y-72769737D01*
X106321153Y-72800499D01*
X106321156Y-72800500D01*
X106372650Y-72800500D01*
X106439689Y-72820185D01*
X106485444Y-72872989D01*
X106495388Y-72942147D01*
X106475752Y-72993391D01*
X106390609Y-73120814D01*
X106390602Y-73120827D01*
X106330264Y-73266498D01*
X106330261Y-73266510D01*
X106299500Y-73421153D01*
X106299500Y-73578846D01*
X106330261Y-73733489D01*
X106330264Y-73733501D01*
X106390602Y-73879172D01*
X106390609Y-73879185D01*
X106478210Y-74010288D01*
X106478213Y-74010292D01*
X106589707Y-74121786D01*
X106589711Y-74121789D01*
X106720814Y-74209390D01*
X106720827Y-74209397D01*
X106863570Y-74268522D01*
X106866503Y-74269737D01*
X107016131Y-74299500D01*
X107021153Y-74300499D01*
X107021156Y-74300500D01*
X107021158Y-74300500D01*
X107178844Y-74300500D01*
X107178845Y-74300499D01*
X107333497Y-74269737D01*
X107479179Y-74209394D01*
X107610289Y-74121789D01*
X107721789Y-74010289D01*
X107790764Y-73907059D01*
X107844375Y-73862255D01*
X107869674Y-73854334D01*
X108000667Y-73828278D01*
X108146349Y-73767935D01*
X108277459Y-73680330D01*
X108388959Y-73568830D01*
X108476564Y-73437720D01*
X108536907Y-73292038D01*
X108567670Y-73137383D01*
X108567670Y-72979699D01*
X108567670Y-72979696D01*
X108567669Y-72979694D01*
X108547483Y-72878213D01*
X108536907Y-72825044D01*
X108522644Y-72790609D01*
X108476567Y-72679368D01*
X108476560Y-72679355D01*
X108388959Y-72548252D01*
X108388956Y-72548248D01*
X108277462Y-72436754D01*
X108277458Y-72436751D01*
X108146355Y-72349150D01*
X108146342Y-72349143D01*
X108000671Y-72288805D01*
X108000659Y-72288802D01*
X107846015Y-72258041D01*
X107846012Y-72258041D01*
X107688328Y-72258041D01*
X107688325Y-72258041D01*
X107533680Y-72288802D01*
X107533668Y-72288805D01*
X107387997Y-72349143D01*
X107387981Y-72349152D01*
X107358402Y-72368916D01*
X107291724Y-72389793D01*
X107224345Y-72371307D01*
X107177655Y-72319328D01*
X107166480Y-72250358D01*
X107168789Y-72239519D01*
X107168549Y-72239472D01*
X107198160Y-72090606D01*
X107200500Y-72078842D01*
X107200500Y-71921158D01*
X107200500Y-71921155D01*
X107200499Y-71921153D01*
X107180326Y-71819737D01*
X107169737Y-71766503D01*
X107166791Y-71759390D01*
X107109397Y-71620827D01*
X107109390Y-71620814D01*
X107021789Y-71489711D01*
X107021786Y-71489707D01*
X106910292Y-71378213D01*
X106910288Y-71378210D01*
X106779185Y-71290609D01*
X106779172Y-71290602D01*
X106633501Y-71230264D01*
X106633489Y-71230261D01*
X106478845Y-71199500D01*
X106478842Y-71199500D01*
X106321158Y-71199500D01*
X106321155Y-71199500D01*
X106166510Y-71230261D01*
X106166498Y-71230264D01*
X106020827Y-71290602D01*
X106020814Y-71290609D01*
X105889711Y-71378210D01*
X105889707Y-71378213D01*
X105778213Y-71489707D01*
X105778210Y-71489711D01*
X105690609Y-71620814D01*
X105690602Y-71620827D01*
X105630264Y-71766498D01*
X105630261Y-71766510D01*
X105599500Y-71921153D01*
X92520433Y-71921153D01*
X92400000Y-71599999D01*
X91762479Y-71235702D01*
X91753967Y-71226854D01*
X91742797Y-71221753D01*
X91730194Y-71202143D01*
X91714039Y-71185350D01*
X91710735Y-71171863D01*
X91705023Y-71162975D01*
X91700000Y-71128040D01*
X91700000Y-70971153D01*
X109399500Y-70971153D01*
X109399500Y-71128846D01*
X109430261Y-71283489D01*
X109430264Y-71283501D01*
X109490602Y-71429172D01*
X109490609Y-71429185D01*
X109578210Y-71560288D01*
X109578213Y-71560292D01*
X109689707Y-71671786D01*
X109689711Y-71671789D01*
X109820814Y-71759390D01*
X109820827Y-71759397D01*
X109917646Y-71799500D01*
X109966503Y-71819737D01*
X110121153Y-71850499D01*
X110121156Y-71850500D01*
X110121158Y-71850500D01*
X110278844Y-71850500D01*
X110278845Y-71850499D01*
X110433497Y-71819737D01*
X110579179Y-71759394D01*
X110710289Y-71671789D01*
X110821789Y-71560289D01*
X110909394Y-71429179D01*
X110969737Y-71283497D01*
X111000500Y-71128842D01*
X111000500Y-70971158D01*
X111000500Y-70971155D01*
X111000499Y-70971153D01*
X110969738Y-70816510D01*
X110969737Y-70816503D01*
X110917541Y-70690489D01*
X110909397Y-70670827D01*
X110909390Y-70670814D01*
X110821789Y-70539711D01*
X110821786Y-70539707D01*
X110710292Y-70428213D01*
X110710288Y-70428210D01*
X110579185Y-70340609D01*
X110579172Y-70340602D01*
X110433501Y-70280264D01*
X110433489Y-70280261D01*
X110278845Y-70249500D01*
X110278842Y-70249500D01*
X110121158Y-70249500D01*
X110121155Y-70249500D01*
X109966510Y-70280261D01*
X109966498Y-70280264D01*
X109820827Y-70340602D01*
X109820814Y-70340609D01*
X109689711Y-70428210D01*
X109689707Y-70428213D01*
X109578213Y-70539707D01*
X109578210Y-70539711D01*
X109490609Y-70670814D01*
X109490602Y-70670827D01*
X109430264Y-70816498D01*
X109430261Y-70816510D01*
X109399500Y-70971153D01*
X91700000Y-70971153D01*
X91700000Y-70400000D01*
X89700000Y-70400000D01*
X89700000Y-71974546D01*
X89698139Y-71983595D01*
X89699108Y-71989393D01*
X89689938Y-72023475D01*
X89689725Y-72023971D01*
X89645185Y-72077804D01*
X89623250Y-72089599D01*
X89620825Y-72090603D01*
X89620818Y-72090607D01*
X89489715Y-72178207D01*
X89489707Y-72178213D01*
X89378213Y-72289707D01*
X89378210Y-72289711D01*
X89290609Y-72420814D01*
X89290602Y-72420827D01*
X89230264Y-72566498D01*
X89230261Y-72566510D01*
X89199500Y-72721153D01*
X88624897Y-72721153D01*
X88579185Y-72690609D01*
X88579172Y-72690602D01*
X88433501Y-72630264D01*
X88433489Y-72630261D01*
X88278845Y-72599500D01*
X88278842Y-72599500D01*
X88121158Y-72599500D01*
X88121155Y-72599500D01*
X87966510Y-72630261D01*
X87966498Y-72630264D01*
X87820827Y-72690602D01*
X87820814Y-72690609D01*
X87689711Y-72778210D01*
X87689707Y-72778213D01*
X87578213Y-72889707D01*
X87578210Y-72889711D01*
X87490609Y-73020814D01*
X87490602Y-73020827D01*
X87430264Y-73166498D01*
X87430261Y-73166510D01*
X87399500Y-73321153D01*
X86150790Y-73321153D01*
X86179179Y-73309394D01*
X86310289Y-73221789D01*
X86421789Y-73110289D01*
X86509394Y-72979179D01*
X86569737Y-72833497D01*
X86600500Y-72678842D01*
X86600500Y-72521158D01*
X86600500Y-72521155D01*
X86600499Y-72521153D01*
X86580543Y-72420827D01*
X86569737Y-72366503D01*
X86537929Y-72289711D01*
X86509397Y-72220827D01*
X86509390Y-72220814D01*
X86421789Y-72089711D01*
X86421786Y-72089707D01*
X86310292Y-71978213D01*
X86310288Y-71978210D01*
X86179185Y-71890609D01*
X86179172Y-71890602D01*
X86033501Y-71830264D01*
X86033489Y-71830261D01*
X85878845Y-71799500D01*
X85878842Y-71799500D01*
X85721158Y-71799500D01*
X85721155Y-71799500D01*
X85566510Y-71830261D01*
X85566498Y-71830264D01*
X85420827Y-71890602D01*
X85420814Y-71890609D01*
X85289711Y-71978210D01*
X85289707Y-71978213D01*
X85178213Y-72089707D01*
X85178210Y-72089711D01*
X85090609Y-72220814D01*
X85090602Y-72220827D01*
X85030264Y-72366498D01*
X85030261Y-72366510D01*
X84999500Y-72521153D01*
X83224372Y-72521153D01*
X83740002Y-72207591D01*
X83743624Y-72205472D01*
X84698379Y-71668640D01*
X84702030Y-71666669D01*
X85674578Y-71162734D01*
X85678281Y-71160896D01*
X86667417Y-70690484D01*
X86671261Y-70688736D01*
X86712492Y-70670827D01*
X87675850Y-70252381D01*
X87679716Y-70250779D01*
X88698726Y-69848934D01*
X88702570Y-69847494D01*
X89550461Y-69546153D01*
X92799500Y-69546153D01*
X92799500Y-69703846D01*
X92830261Y-69858489D01*
X92830264Y-69858501D01*
X92890602Y-70004172D01*
X92890609Y-70004185D01*
X92978210Y-70135288D01*
X92978213Y-70135292D01*
X93089707Y-70246786D01*
X93089711Y-70246789D01*
X93220814Y-70334390D01*
X93220827Y-70334397D01*
X93366498Y-70394735D01*
X93366503Y-70394737D01*
X93521153Y-70425499D01*
X93521156Y-70425500D01*
X93521158Y-70425500D01*
X93678844Y-70425500D01*
X93678845Y-70425499D01*
X93833497Y-70394737D01*
X93964182Y-70340606D01*
X93979172Y-70334397D01*
X93979172Y-70334396D01*
X93979179Y-70334394D01*
X94110289Y-70246789D01*
X94221789Y-70135289D01*
X94309394Y-70004179D01*
X94369737Y-69858497D01*
X94400500Y-69703842D01*
X94400500Y-69546158D01*
X94400500Y-69546155D01*
X94400499Y-69546153D01*
X94387110Y-69478842D01*
X94369737Y-69391503D01*
X94369735Y-69391498D01*
X94309397Y-69245827D01*
X94309390Y-69245814D01*
X94221789Y-69114711D01*
X94221786Y-69114707D01*
X94110292Y-69003213D01*
X94110288Y-69003210D01*
X93979185Y-68915609D01*
X93979172Y-68915602D01*
X93833501Y-68855264D01*
X93833489Y-68855261D01*
X93678845Y-68824500D01*
X93678842Y-68824500D01*
X93521158Y-68824500D01*
X93521155Y-68824500D01*
X93366510Y-68855261D01*
X93366498Y-68855264D01*
X93220827Y-68915602D01*
X93220814Y-68915609D01*
X93089711Y-69003210D01*
X93089707Y-69003213D01*
X92978213Y-69114707D01*
X92978210Y-69114711D01*
X92890609Y-69245814D01*
X92890602Y-69245827D01*
X92830264Y-69391498D01*
X92830261Y-69391510D01*
X92799500Y-69546153D01*
X89550461Y-69546153D01*
X89734642Y-69480695D01*
X89738588Y-69479368D01*
X90782584Y-69148018D01*
X90786600Y-69146819D01*
X91841338Y-68851295D01*
X91845315Y-68850254D01*
X92909529Y-68590913D01*
X92913545Y-68590006D01*
X93985948Y-68367158D01*
X93990079Y-68366372D01*
X95069469Y-68180267D01*
X95073579Y-68179630D01*
X96158714Y-68030482D01*
X96162813Y-68029990D01*
X97252405Y-67917977D01*
X97256577Y-67917619D01*
X98349350Y-67842871D01*
X98353464Y-67842660D01*
X99423300Y-67806113D01*
X99448150Y-67805265D01*
X99452383Y-67805193D01*
X100547617Y-67805193D01*
X100551850Y-67805265D01*
G37*
%TD.AperFunction*%
%TD*%
M02*
